<svg xmlns="http://www.w3.org/2000/svg" xmlns:xlink="http://www.w3.org/1999/xlink" id="svg" width="400" height="400" viewBox="0, 0, 400,400"><g id="svgg"><path id="path0" d="M123.700 0.269 C 122.985 0.369,122.400 0.619,122.400 0.825 C 122.400 1.031,122.057 1.200,121.638 1.200 C 120.731 1.200,117.600 2.808,117.600 3.274 C 117.600 3.453,117.322 3.600,116.983 3.600 C 115.374 3.600,108.400 11.875,108.400 13.784 C 108.400 14.123,108.220 14.400,108.000 14.400 C 107.780 14.400,107.600 14.749,107.600 15.176 C 107.600 15.603,107.420 16.064,107.200 16.200 C 106.980 16.336,106.800 17.067,106.800 17.824 C 106.800 18.581,106.620 19.200,106.400 19.200 C 106.146 19.200,106.000 22.200,106.000 27.400 C 106.000 32.600,105.854 35.600,105.600 35.600 C 105.380 35.600,105.200 35.420,105.200 35.200 C 105.200 34.980,104.851 34.800,104.424 34.800 C 103.997 34.800,103.536 34.620,103.400 34.400 C 103.264 34.180,102.713 34.000,102.176 34.000 C 101.639 34.000,101.200 33.820,101.200 33.600 C 101.200 33.380,100.401 33.200,99.424 33.200 C 98.447 33.200,97.536 33.020,97.400 32.800 C 97.073 32.271,89.600 32.271,89.600 32.800 C 89.600 33.020,88.700 33.200,87.600 33.200 C 86.500 33.200,85.600 33.380,85.600 33.600 C 85.600 33.820,85.060 34.000,84.400 34.000 C 83.740 34.000,83.200 34.180,83.200 34.400 C 83.200 34.620,82.840 34.800,82.400 34.800 C 81.960 34.800,81.600 34.980,81.600 35.200 C 81.600 35.420,81.240 35.600,80.800 35.600 C 80.360 35.600,80.000 35.780,80.000 36.000 C 80.000 36.220,79.730 36.400,79.400 36.400 C 79.070 36.400,78.800 36.580,78.800 36.800 C 78.800 37.020,78.575 37.208,78.300 37.218 C 78.025 37.229,77.170 37.955,76.400 38.832 C 75.630 39.710,74.235 41.211,73.300 42.170 C 72.365 43.128,71.600 44.112,71.600 44.356 C 71.600 44.600,71.420 44.800,71.200 44.800 C 70.980 44.800,70.800 45.160,70.800 45.600 C 70.800 46.040,70.620 46.400,70.400 46.400 C 70.180 46.400,70.000 46.760,70.000 47.200 C 70.000 47.640,69.820 48.000,69.600 48.000 C 69.380 48.000,69.200 48.540,69.200 49.200 C 69.200 49.860,69.020 50.400,68.800 50.400 C 68.580 50.400,68.400 51.109,68.400 51.976 C 68.400 52.843,68.220 53.664,68.000 53.800 C 67.737 53.963,67.600 70.671,67.600 102.624 C 67.600 134.741,67.464 151.200,67.200 151.200 C 66.980 151.200,66.800 150.840,66.800 150.400 C 66.800 149.960,66.650 149.600,66.468 149.600 C 66.285 149.600,65.880 149.108,65.568 148.507 C 64.386 146.232,57.798 140.400,56.409 140.400 C 56.184 140.400,56.000 140.220,56.000 140.000 C 56.000 139.780,55.651 139.600,55.224 139.600 C 54.797 139.600,54.336 139.420,54.200 139.200 C 54.064 138.980,53.513 138.800,52.976 138.800 C 52.439 138.800,52.000 138.620,52.000 138.400 C 52.000 138.180,51.100 138.000,50.000 138.000 C 48.900 138.000,48.000 137.820,48.000 137.600 C 48.000 137.361,46.467 137.200,44.200 137.200 C 41.933 137.200,40.400 137.361,40.400 137.600 C 40.400 137.820,39.500 138.000,38.400 138.000 C 37.300 138.000,36.400 138.180,36.400 138.400 C 36.400 138.620,35.860 138.800,35.200 138.800 C 34.540 138.800,34.000 138.980,34.000 139.200 C 34.000 139.420,33.640 139.600,33.200 139.600 C 32.760 139.600,32.400 139.780,32.400 140.000 C 32.400 140.220,32.040 140.400,31.600 140.400 C 31.160 140.400,30.800 140.580,30.800 140.800 C 30.800 141.020,30.530 141.200,30.200 141.200 C 29.870 141.200,29.600 141.380,29.600 141.600 C 29.600 141.820,29.360 142.000,29.066 142.000 C 28.456 142.000,23.200 147.366,23.200 147.989 C 23.200 148.215,23.020 148.400,22.800 148.400 C 22.580 148.400,22.400 148.670,22.400 149.000 C 22.400 149.330,22.220 149.600,22.000 149.600 C 21.780 149.600,21.600 149.960,21.600 150.400 C 21.600 150.840,21.420 151.200,21.200 151.200 C 20.980 151.200,20.800 151.560,20.800 152.000 C 20.800 152.440,20.620 152.800,20.400 152.800 C 20.180 152.800,20.000 153.340,20.000 154.000 C 20.000 154.660,19.820 155.200,19.600 155.200 C 19.380 155.200,19.200 156.100,19.200 157.200 C 19.200 158.300,19.020 159.200,18.800 159.200 C 18.561 159.200,18.400 160.733,18.400 163.000 C 18.400 165.267,18.561 166.800,18.800 166.800 C 19.020 166.800,19.200 167.700,19.200 168.800 C 19.200 169.900,19.380 170.800,19.600 170.800 C 19.820 170.800,20.000 171.143,20.000 171.562 C 20.000 172.378,21.601 175.712,22.100 175.933 C 22.265 176.007,22.400 176.412,22.400 176.833 C 22.400 177.255,22.580 177.600,22.800 177.600 C 23.020 177.600,23.200 177.960,23.200 178.400 C 23.200 178.840,23.380 179.200,23.600 179.200 C 23.820 179.200,24.000 179.560,24.000 180.000 C 24.000 180.440,24.180 180.800,24.400 180.800 C 24.620 180.800,24.800 181.052,24.800 181.359 C 24.800 182.026,27.669 187.742,28.100 187.933 C 28.265 188.007,28.400 188.412,28.400 188.833 C 28.400 189.255,28.546 189.600,28.725 189.600 C 28.904 189.600,29.298 190.230,29.600 191.000 C 29.902 191.770,30.296 192.400,30.475 192.400 C 30.654 192.400,30.800 192.760,30.800 193.200 C 30.800 193.640,30.980 194.000,31.200 194.000 C 31.420 194.000,31.600 194.360,31.600 194.800 C 31.600 195.240,31.780 195.600,32.000 195.600 C 32.220 195.600,32.400 195.960,32.400 196.400 C 32.400 196.840,32.580 197.200,32.800 197.200 C 33.020 197.200,33.200 197.560,33.200 198.000 C 33.200 198.440,33.380 198.800,33.600 198.800 C 33.820 198.800,34.000 199.160,34.000 199.600 C 34.000 200.040,34.180 200.400,34.400 200.400 C 34.620 200.400,34.800 200.760,34.800 201.200 C 34.800 201.640,34.935 202.001,35.100 202.001 C 35.265 202.002,35.850 202.992,36.400 204.200 C 36.950 205.408,37.535 206.398,37.700 206.399 C 37.865 206.399,38.000 206.636,38.000 206.925 C 38.000 207.213,38.360 207.836,38.800 208.308 C 39.240 208.780,39.600 209.444,39.600 209.783 C 39.600 210.122,39.780 210.400,40.000 210.400 C 40.220 210.400,40.400 210.760,40.400 211.200 C 40.400 211.640,40.580 212.000,40.800 212.000 C 41.020 212.000,41.200 212.272,41.200 212.605 C 41.200 212.938,41.366 213.523,41.570 213.905 C 41.773 214.287,42.802 216.400,43.857 218.600 C 44.911 220.800,45.915 222.660,46.087 222.733 C 46.259 222.807,46.400 223.197,46.400 223.600 C 46.400 224.003,46.535 224.393,46.700 224.467 C 46.970 224.587,48.178 226.689,49.360 229.097 C 49.602 229.590,49.935 229.995,50.100 229.997 C 50.265 229.999,50.400 230.360,50.400 230.800 C 50.400 231.240,50.580 231.600,50.800 231.600 C 51.020 231.600,51.200 231.960,51.200 232.400 C 51.200 232.840,51.380 233.200,51.600 233.200 C 51.820 233.200,52.000 233.560,52.000 234.000 C 52.000 234.440,52.180 234.800,52.400 234.800 C 52.620 234.800,52.800 235.160,52.800 235.600 C 52.800 236.040,52.980 236.400,53.200 236.400 C 53.420 236.400,53.600 236.760,53.600 237.200 C 53.600 237.640,53.780 238.000,54.000 238.000 C 54.220 238.000,54.400 238.360,54.400 238.800 C 54.400 239.240,54.546 239.600,54.725 239.600 C 54.904 239.600,55.298 240.230,55.600 241.000 C 55.902 241.770,56.296 242.400,56.475 242.400 C 56.654 242.400,56.800 242.760,56.800 243.200 C 56.800 243.640,56.980 244.000,57.200 244.000 C 57.420 244.000,57.600 244.360,57.600 244.800 C 57.600 245.240,57.780 245.600,58.000 245.600 C 58.220 245.600,58.400 245.887,58.400 246.238 C 58.400 246.944,59.627 249.323,60.100 249.533 C 60.265 249.607,60.400 250.012,60.400 250.433 C 60.400 250.855,60.580 251.200,60.800 251.200 C 61.020 251.200,61.200 251.560,61.200 252.000 C 61.200 252.440,61.380 252.800,61.600 252.800 C 61.820 252.800,62.000 253.160,62.000 253.600 C 62.000 254.040,62.135 254.401,62.300 254.401 C 62.465 254.402,63.050 255.392,63.600 256.600 C 64.150 257.808,64.735 258.798,64.900 258.799 C 65.065 258.799,65.200 259.160,65.200 259.600 C 65.200 260.040,65.380 260.400,65.600 260.400 C 65.820 260.400,66.000 260.760,66.000 261.200 C 66.000 261.640,66.180 262.000,66.400 262.000 C 66.620 262.000,66.800 262.360,66.800 262.800 C 66.800 263.240,66.980 263.600,67.200 263.600 C 67.459 263.600,67.600 268.667,67.600 278.000 C 67.600 287.333,67.741 292.400,68.000 292.400 C 68.220 292.400,68.400 292.760,68.400 293.200 C 68.400 293.640,68.580 294.000,68.800 294.000 C 69.020 294.000,69.200 294.287,69.200 294.637 C 69.200 294.988,69.560 295.369,70.000 295.484 C 70.440 295.599,70.800 295.852,70.800 296.047 C 70.800 296.241,71.340 296.400,72.000 296.400 C 72.660 296.400,73.200 296.580,73.200 296.800 C 73.200 297.020,73.380 297.200,73.600 297.200 C 73.820 297.200,74.000 296.930,74.000 296.600 C 74.000 296.270,74.332 296.000,74.739 296.000 C 75.987 296.000,77.934 294.816,78.890 293.476 C 79.800 292.200,79.800 292.196,79.800 276.400 L 79.800 260.600 76.859 255.000 C 70.315 242.539,65.508 233.298,59.798 222.200 C 58.213 219.120,55.923 214.710,54.709 212.400 C 53.495 210.090,50.970 205.230,49.098 201.600 C 45.286 194.209,42.030 187.958,39.203 182.600 C 38.158 180.620,35.889 176.210,34.159 172.800 L 31.016 166.600 31.044 162.800 C 31.154 147.988,49.686 144.566,56.752 158.053 C 57.486 159.454,59.947 164.200,62.220 168.600 C 64.493 173.000,67.146 178.130,68.117 180.000 C 71.280 186.097,76.504 187.164,79.295 182.284 C 79.694 181.586,79.842 168.051,80.000 118.000 L 80.200 54.600 81.187 52.600 C 84.111 46.677,92.553 43.056,97.739 45.500 C 98.323 45.775,99.284 46.225,99.875 46.500 C 101.304 47.165,104.463 50.355,105.147 51.825 C 105.447 52.471,105.897 53.360,106.147 53.800 C 106.477 54.383,106.654 72.339,106.800 120.000 C 106.957 171.232,107.108 185.589,107.499 186.272 C 109.013 188.917,113.058 189.810,115.536 188.045 C 118.201 186.148,118.000 193.002,118.000 103.981 C 118.000 13.828,117.780 20.668,120.800 16.847 C 122.397 14.827,123.734 13.755,125.800 12.839 C 126.460 12.546,127.313 12.148,127.695 11.953 C 128.594 11.496,134.202 11.494,135.105 11.951 C 135.487 12.144,136.454 12.581,137.253 12.922 C 140.220 14.188,142.773 17.044,144.042 20.515 C 144.777 22.525,144.800 25.083,144.800 103.446 C 144.800 173.893,144.876 184.485,145.391 185.718 C 147.106 189.822,152.857 190.150,155.218 186.278 C 155.982 185.024,155.997 183.683,156.003 116.000 C 156.009 40.782,155.882 45.031,158.232 41.480 C 164.119 32.584,176.873 33.490,181.677 43.146 L 182.600 45.000 182.800 115.000 C 182.985 179.884,183.050 185.091,183.680 186.241 C 185.109 188.850,188.147 189.782,190.887 188.453 C 194.055 186.916,193.777 191.886,194.000 132.800 L 194.200 79.800 195.497 77.149 C 200.616 66.686,215.041 66.953,219.879 77.600 C 221.082 80.248,221.200 82.802,221.200 106.215 C 221.200 129.737,221.212 130.093,222.032 131.244 C 222.956 132.543,224.728 133.600,225.980 133.600 C 226.442 133.600,226.800 133.862,226.800 134.200 C 226.800 134.931,227.309 134.952,229.172 134.300 C 230.822 133.722,232.400 132.314,232.400 131.418 C 232.400 131.078,232.580 130.800,232.800 130.800 C 233.063 130.800,233.200 121.733,233.200 104.400 C 233.200 87.067,233.063 78.000,232.800 78.000 C 232.580 78.000,232.400 77.280,232.400 76.400 C 232.400 75.520,232.220 74.800,232.000 74.800 C 231.780 74.800,231.600 74.260,231.600 73.600 C 231.600 72.940,231.420 72.400,231.200 72.400 C 230.980 72.400,230.800 72.040,230.800 71.600 C 230.800 71.160,230.620 70.800,230.400 70.800 C 230.180 70.800,230.000 70.480,230.000 70.088 C 230.000 69.697,229.640 69.117,229.200 68.800 C 228.760 68.483,228.400 67.992,228.400 67.709 C 228.400 67.078,223.455 62.000,222.841 62.000 C 222.599 62.000,222.400 61.841,222.400 61.648 C 222.400 60.980,216.577 58.400,215.070 58.400 C 214.262 58.400,213.600 58.220,213.600 58.000 C 213.600 57.751,211.267 57.600,207.400 57.600 C 203.533 57.600,201.200 57.751,201.200 58.000 C 201.200 58.220,200.746 58.400,200.190 58.400 C 199.635 58.400,198.195 58.746,196.990 59.170 L 194.800 59.939 194.800 51.370 C 194.800 45.923,194.654 42.800,194.400 42.800 C 194.180 42.800,194.000 42.260,194.000 41.600 C 194.000 40.940,193.820 40.400,193.600 40.400 C 193.380 40.400,193.200 39.860,193.200 39.200 C 193.200 38.540,193.020 38.000,192.800 38.000 C 192.580 38.000,192.400 37.640,192.400 37.200 C 192.400 36.760,192.220 36.400,192.000 36.400 C 191.780 36.400,191.600 36.068,191.600 35.661 C 191.600 35.255,191.240 34.507,190.800 34.000 C 190.360 33.493,190.000 32.945,190.000 32.782 C 190.000 32.377,185.593 28.000,185.185 28.000 C 185.005 28.000,184.606 27.749,184.300 27.443 C 183.366 26.509,179.689 24.800,178.613 24.800 C 178.056 24.800,177.600 24.620,177.600 24.400 C 177.600 24.180,176.880 24.000,176.000 24.000 C 175.120 24.000,174.400 23.820,174.400 23.600 C 174.400 23.355,172.467 23.200,169.400 23.200 C 166.333 23.200,164.400 23.355,164.400 23.600 C 164.400 23.820,163.680 24.000,162.800 24.000 C 161.920 24.000,161.200 24.180,161.200 24.400 C 161.200 24.620,160.831 24.800,160.380 24.800 C 159.929 24.800,159.052 25.063,158.430 25.385 L 157.300 25.969 157.054 24.485 C 156.919 23.668,156.807 21.965,156.804 20.700 C 156.802 19.435,156.620 18.400,156.400 18.400 C 156.180 18.400,156.000 17.948,156.000 17.395 C 156.000 16.842,155.840 16.077,155.644 15.695 C 155.448 15.313,154.863 14.100,154.344 13.001 C 153.450 11.109,152.848 10.193,151.700 8.984 C 151.425 8.694,151.200 8.348,151.200 8.215 C 151.200 7.781,148.439 5.200,147.974 5.200 C 147.725 5.200,147.017 4.660,146.400 4.000 C 145.783 3.340,144.991 2.800,144.640 2.800 C 144.288 2.800,144.000 2.620,144.000 2.400 C 144.000 2.180,143.640 2.000,143.200 2.000 C 142.760 2.000,142.400 1.820,142.400 1.600 C 142.400 1.380,142.076 1.200,141.680 1.200 C 141.284 1.200,140.735 0.975,140.460 0.700 C 139.958 0.198,126.652 -0.145,123.700 0.269 M226.655 149.400 C 226.529 149.730,225.969 150.000,225.413 150.000 C 224.765 150.000,223.824 150.576,222.800 151.600 L 221.200 153.200 221.200 182.102 L 221.200 211.003 220.159 213.802 C 219.587 215.341,218.971 217.140,218.790 217.800 C 218.609 218.460,218.241 219.720,217.972 220.600 C 217.703 221.480,217.104 223.988,216.641 226.173 L 215.800 230.146 212.489 231.437 C 199.195 236.620,190.770 244.511,182.203 259.800 C 176.596 269.807,172.834 274.958,167.463 279.987 C 160.646 286.368,155.646 288.088,141.200 289.022 C 136.250 289.342,131.300 289.793,130.200 290.024 C 129.100 290.255,127.613 290.544,126.896 290.666 C 126.179 290.788,125.494 291.049,125.373 291.244 C 125.252 291.440,124.801 291.600,124.371 291.600 C 123.941 291.600,123.277 291.761,122.895 291.958 C 122.513 292.155,120.820 292.967,119.132 293.764 C 113.867 296.249,105.200 303.866,105.200 306.008 C 105.200 306.192,104.968 306.581,104.684 306.871 C 103.658 307.921,101.682 312.900,100.345 317.800 C 99.592 320.564,99.595 333.852,100.350 336.600 C 102.949 346.062,106.787 351.908,114.051 357.474 C 117.096 359.807,122.915 362.955,126.800 364.371 C 127.570 364.651,128.560 365.034,129.000 365.220 C 132.319 366.629,140.317 368.529,148.200 369.781 C 157.433 371.249,160.522 372.070,165.029 374.254 C 172.160 377.710,175.060 384.556,171.690 389.977 C 170.981 391.119,170.400 392.367,170.400 392.750 C 170.400 393.133,170.136 393.796,169.813 394.224 C 169.201 395.032,168.975 397.200,169.502 397.200 C 169.669 397.200,170.034 397.719,170.315 398.353 C 171.802 401.711,182.400 399.881,182.400 396.265 C 182.400 395.936,182.625 395.575,182.900 395.464 C 183.286 395.307,183.274 395.173,182.846 394.873 C 182.392 394.556,182.380 394.242,182.777 393.143 C 186.504 382.836,183.540 373.362,174.600 367.002 C 168.625 362.751,162.710 360.761,150.400 358.863 C 145.185 358.058,143.466 357.692,136.600 355.921 C 134.959 355.498,133.531 354.977,132.305 354.353 C 131.923 354.159,131.433 354.000,131.215 354.000 C 128.314 354.000,115.200 344.795,115.200 342.758 C 115.200 342.593,114.974 342.219,114.698 341.929 C 113.678 340.855,112.121 337.131,111.215 333.600 C 110.433 330.552,111.071 318.374,112.044 317.773 C 112.240 317.652,112.400 317.209,112.400 316.789 C 112.400 316.368,112.789 315.344,113.265 314.512 C 113.741 313.680,114.363 312.550,114.647 312.000 C 118.387 304.760,129.920 300.000,143.719 300.000 C 157.080 300.000,167.111 295.969,176.283 286.913 C 179.971 283.272,180.677 282.473,183.457 278.793 C 185.320 276.328,189.195 270.366,190.644 267.736 C 192.214 264.886,193.434 262.694,194.375 261.031 C 198.716 253.366,204.900 247.505,212.798 243.570 C 214.586 242.679,214.799 242.844,214.804 245.124 C 214.812 249.668,216.442 259.993,218.004 265.400 C 219.001 268.853,219.071 268.635,214.770 275.400 C 212.531 278.920,209.701 283.330,208.481 285.200 C 202.623 294.175,202.324 296.362,206.503 299.677 C 206.557 299.719,209.840 299.854,213.800 299.977 L 221.000 300.200 221.213 314.400 C 221.330 322.210,221.465 328.643,221.513 328.697 C 222.959 330.298,224.313 331.200,225.272 331.200 C 225.928 331.200,226.524 331.459,226.655 331.800 C 226.911 332.465,229.200 332.645,229.200 332.000 C 229.200 331.780,229.478 331.600,229.818 331.600 C 230.618 331.600,232.400 329.818,232.400 329.018 C 232.400 328.678,232.580 328.400,232.800 328.400 C 233.059 328.400,233.200 323.467,233.200 314.400 L 233.200 300.400 234.900 300.405 C 236.517 300.410,236.810 300.616,240.893 304.605 C 243.254 306.912,245.371 308.800,245.596 308.800 C 245.822 308.800,246.572 309.340,247.263 310.000 C 247.954 310.660,248.722 311.200,248.971 311.200 C 249.220 311.200,249.683 311.560,250.000 312.000 C 250.317 312.440,250.857 312.800,251.200 312.800 C 251.543 312.800,252.083 313.160,252.400 313.600 C 252.717 314.040,253.297 314.400,253.688 314.400 C 254.080 314.400,254.400 314.580,254.400 314.800 C 254.400 315.020,254.760 315.200,255.200 315.200 C 255.640 315.200,256.000 315.380,256.000 315.600 C 256.000 315.820,256.236 316.000,256.525 316.000 C 256.813 316.000,257.436 316.360,257.908 316.800 C 258.380 317.240,259.044 317.600,259.383 317.600 C 259.722 317.600,260.000 317.780,260.000 318.000 C 260.000 318.220,260.349 318.400,260.776 318.400 C 261.203 318.400,261.664 318.580,261.800 318.800 C 261.936 319.020,262.397 319.200,262.824 319.200 C 263.251 319.200,263.600 319.380,263.600 319.600 C 263.600 319.820,263.960 320.000,264.400 320.000 C 264.840 320.000,265.200 320.180,265.200 320.400 C 265.200 320.620,265.740 320.800,266.400 320.800 C 267.060 320.800,267.600 320.980,267.600 321.200 C 267.600 321.420,267.949 321.600,268.376 321.600 C 268.803 321.600,269.264 321.780,269.400 322.000 C 269.536 322.220,270.076 322.400,270.600 322.400 C 271.124 322.400,271.664 322.580,271.800 322.800 C 271.936 323.020,272.566 323.200,273.200 323.200 C 273.834 323.200,274.452 323.360,274.573 323.556 C 274.825 323.965,276.042 324.213,280.800 324.829 C 282.670 325.071,284.513 325.433,284.895 325.634 C 285.277 325.835,287.291 326.000,289.371 326.000 C 291.461 326.000,293.263 326.179,293.400 326.400 C 293.539 326.625,295.471 326.800,297.824 326.800 C 300.341 326.800,302.000 326.641,302.000 326.400 C 302.000 326.159,303.667 326.000,306.200 326.000 C 308.733 326.000,310.400 325.841,310.400 325.600 C 310.400 325.380,311.345 325.192,312.500 325.183 C 313.655 325.173,315.410 324.980,316.400 324.754 C 317.390 324.527,318.787 324.245,319.504 324.127 C 320.221 324.008,320.906 323.751,321.027 323.556 C 321.148 323.360,321.777 323.200,322.424 323.200 C 323.071 323.200,323.600 323.020,323.600 322.800 C 323.600 322.580,324.140 322.400,324.800 322.400 C 325.460 322.400,326.000 322.253,326.000 322.072 C 326.000 321.892,326.900 321.500,328.000 321.200 C 329.100 320.900,330.000 320.508,330.000 320.328 C 330.000 320.147,330.360 320.000,330.800 320.000 C 331.240 320.000,331.600 319.820,331.600 319.600 C 331.600 319.380,331.872 319.200,332.205 319.200 C 332.538 319.200,333.123 319.040,333.505 318.844 C 333.887 318.648,335.055 318.080,336.100 317.581 C 337.145 317.082,338.000 316.523,338.000 316.337 C 338.000 316.152,338.360 316.000,338.800 316.000 C 339.240 316.000,339.600 315.864,339.600 315.698 C 339.600 315.531,340.185 315.140,340.900 314.828 C 341.615 314.516,342.491 313.932,342.847 313.530 C 343.203 313.129,343.748 312.800,344.059 312.800 C 344.369 312.800,344.883 312.440,345.200 312.000 C 345.517 311.560,346.025 311.200,346.328 311.200 C 346.631 311.200,347.383 310.660,348.000 310.000 C 348.617 309.340,349.364 308.799,349.660 308.797 C 349.957 308.795,351.307 307.760,352.659 306.497 C 354.012 305.234,355.812 303.554,356.659 302.764 C 358.298 301.237,359.600 299.734,359.600 299.369 C 359.600 299.248,360.500 298.271,361.600 297.200 C 362.700 296.129,363.600 295.042,363.600 294.786 C 363.600 294.530,364.140 293.817,364.800 293.200 C 365.460 292.583,366.000 291.881,366.000 291.640 C 366.000 291.398,366.150 291.200,366.332 291.200 C 366.515 291.200,366.920 290.705,367.232 290.100 C 367.545 289.495,368.115 288.651,368.500 288.225 C 368.885 287.798,369.200 287.213,369.200 286.925 C 369.200 286.636,369.380 286.400,369.600 286.400 C 369.820 286.400,370.000 286.040,370.000 285.600 C 370.000 285.160,370.161 284.800,370.357 284.800 C 370.879 284.800,374.689 276.862,375.013 275.100 C 375.165 274.275,375.449 273.600,375.645 273.600 C 375.840 273.600,376.000 273.150,376.000 272.600 C 376.000 272.050,376.180 271.600,376.400 271.600 C 376.620 271.600,376.800 271.060,376.800 270.400 C 376.800 269.740,376.980 269.200,377.200 269.200 C 377.420 269.200,377.600 268.660,377.600 268.000 C 377.600 267.340,377.780 266.800,378.000 266.800 C 378.220 266.800,378.400 266.181,378.400 265.424 C 378.400 264.667,378.580 263.936,378.800 263.800 C 379.020 263.664,379.200 262.843,379.200 261.976 C 379.200 261.109,379.380 260.400,379.600 260.400 C 379.820 260.400,380.000 259.500,380.000 258.400 C 380.000 257.300,380.180 256.400,380.400 256.400 C 380.635 256.400,380.800 255.008,380.800 253.024 C 380.800 251.167,380.980 249.536,381.200 249.400 C 381.440 249.251,381.600 246.537,381.600 242.600 C 381.600 238.663,381.440 235.949,381.200 235.800 C 380.980 235.664,380.800 234.123,380.800 232.376 C 380.800 230.525,380.633 229.200,380.400 229.200 C 380.180 229.200,380.000 228.311,380.000 227.224 C 380.000 226.137,379.820 225.136,379.600 225.000 C 379.380 224.864,379.200 224.043,379.200 223.176 C 379.200 222.309,379.020 221.600,378.800 221.600 C 378.580 221.600,378.400 221.071,378.400 220.424 C 378.400 219.777,378.220 219.136,378.000 219.000 C 377.780 218.864,377.600 218.234,377.600 217.600 C 377.600 216.966,377.420 216.336,377.200 216.200 C 376.980 216.064,376.800 215.513,376.800 214.976 C 376.800 214.439,376.620 214.000,376.400 214.000 C 376.180 214.000,376.000 213.550,376.000 213.000 C 376.000 212.450,375.820 212.000,375.600 212.000 C 375.380 212.000,375.199 211.595,375.198 211.100 C 375.196 210.605,374.926 209.684,374.598 209.054 C 374.269 208.424,374.000 207.659,374.000 207.354 C 374.000 207.049,373.820 206.800,373.600 206.800 C 373.380 206.800,373.200 206.440,373.200 206.000 C 373.200 205.560,373.020 205.200,372.800 205.200 C 372.580 205.200,372.400 204.840,372.400 204.400 C 372.400 203.960,372.220 203.600,372.000 203.600 C 371.780 203.600,371.600 203.240,371.600 202.800 C 371.600 202.360,371.420 202.000,371.200 202.000 C 370.980 202.000,370.800 201.764,370.800 201.475 C 370.800 201.187,370.440 200.564,370.000 200.092 C 369.560 199.620,369.200 198.956,369.200 198.617 C 369.200 198.278,369.020 198.000,368.800 198.000 C 368.580 198.000,368.400 197.775,368.400 197.500 C 368.399 197.225,367.934 196.460,367.365 195.800 C 366.796 195.140,366.037 194.105,365.679 193.500 C 365.321 192.895,364.886 192.400,364.714 192.400 C 364.541 192.400,364.400 192.206,364.400 191.969 C 364.400 191.731,363.680 190.846,362.800 190.000 C 361.920 189.154,361.200 188.271,361.200 188.037 C 361.200 187.171,350.898 177.291,348.909 176.249 C 348.299 175.929,347.403 175.293,346.917 174.834 C 346.431 174.375,345.796 174.000,345.505 174.000 C 345.214 174.000,344.717 173.640,344.400 173.200 C 344.083 172.760,343.569 172.400,343.259 172.400 C 342.948 172.400,342.403 172.071,342.047 171.670 C 341.691 171.268,340.815 170.684,340.100 170.372 C 339.385 170.060,338.800 169.669,338.800 169.502 C 338.800 169.336,338.440 169.200,338.000 169.200 C 337.560 169.200,337.200 169.020,337.200 168.800 C 337.200 168.580,336.840 168.400,336.400 168.400 C 335.960 168.400,335.600 168.220,335.600 168.000 C 335.600 167.780,335.240 167.600,334.800 167.600 C 334.360 167.600,334.000 167.420,334.000 167.200 C 334.000 166.980,333.640 166.800,333.200 166.800 C 332.760 166.800,332.400 166.620,332.400 166.400 C 332.400 166.180,332.040 166.000,331.600 166.000 C 331.160 166.000,330.800 165.820,330.800 165.600 C 330.800 165.380,330.260 165.200,329.600 165.200 C 328.940 165.200,328.400 165.020,328.400 164.800 C 328.400 164.580,328.040 164.400,327.600 164.400 C 327.160 164.400,326.800 164.220,326.800 164.000 C 326.800 163.780,326.260 163.600,325.600 163.600 C 324.940 163.600,324.400 163.420,324.400 163.200 C 324.400 162.980,323.871 162.800,323.224 162.800 C 322.577 162.800,321.936 162.620,321.800 162.400 C 321.664 162.180,321.034 162.000,320.400 162.000 C 319.766 162.000,319.136 161.820,319.000 161.600 C 318.864 161.380,318.054 161.200,317.200 161.200 C 316.346 161.200,315.536 161.020,315.400 160.800 C 315.264 160.580,314.274 160.400,313.200 160.400 C 312.126 160.400,311.150 160.243,311.031 160.051 C 310.268 158.815,285.515 158.804,284.220 160.038 C 284.011 160.237,282.987 160.400,281.944 160.400 C 280.901 160.400,279.936 160.580,279.800 160.800 C 279.664 161.020,278.843 161.200,277.976 161.200 C 277.109 161.200,276.400 161.380,276.400 161.600 C 276.400 161.820,275.860 162.000,275.200 162.000 C 274.540 162.000,274.000 162.180,274.000 162.400 C 274.000 162.620,273.595 162.803,273.100 162.806 C 272.124 162.813,269.385 163.682,268.941 164.126 C 268.790 164.277,268.247 164.400,267.733 164.400 C 267.220 164.400,266.800 164.580,266.800 164.800 C 266.800 165.020,266.361 165.200,265.824 165.200 C 265.287 165.200,264.736 165.380,264.600 165.600 C 264.464 165.820,264.003 166.000,263.576 166.000 C 263.149 166.000,262.800 166.180,262.800 166.400 C 262.800 166.620,262.440 166.800,262.000 166.800 C 261.560 166.800,261.200 166.946,261.200 167.125 C 261.200 167.304,260.570 167.698,259.800 168.000 C 259.030 168.302,258.400 168.696,258.400 168.875 C 258.400 169.054,258.040 169.200,257.600 169.200 C 257.160 169.200,256.800 169.380,256.800 169.600 C 256.800 169.820,256.480 170.000,256.088 170.000 C 255.697 170.000,255.117 170.360,254.800 170.800 C 254.483 171.240,253.986 171.600,253.695 171.600 C 253.404 171.600,252.780 171.960,252.308 172.400 C 251.836 172.840,251.213 173.200,250.925 173.200 C 250.636 173.200,250.400 173.380,250.400 173.600 C 250.400 173.820,250.130 174.000,249.800 174.000 C 249.470 174.000,249.200 174.180,249.200 174.400 C 249.200 174.620,249.012 174.800,248.783 174.800 C 248.182 174.800,244.439 177.661,242.822 179.355 C 242.063 180.150,241.286 180.800,241.094 180.800 C 240.621 180.800,234.800 186.783,234.800 187.270 C 234.800 187.688,233.803 188.800,233.429 188.800 C 233.303 188.800,233.200 180.700,233.200 170.800 C 233.200 159.067,233.061 152.800,232.800 152.800 C 232.580 152.800,232.400 152.522,232.400 152.182 C 232.400 151.382,230.618 149.600,229.818 149.600 C 229.478 149.600,229.200 149.420,229.200 149.200 C 229.200 148.555,226.911 148.735,226.655 149.400 M309.580 172.431 C 319.851 174.186,328.535 177.607,337.073 183.261 C 350.292 192.016,360.176 204.732,365.320 219.600 C 366.331 222.523,367.392 226.726,368.450 232.000 C 369.100 235.240,369.147 250.558,368.516 253.400 C 368.272 254.500,367.856 256.480,367.592 257.800 C 361.124 290.161,331.247 314.384,297.800 314.384 C 289.568 314.384,278.798 312.460,272.800 309.917 C 272.250 309.684,271.440 309.356,271.000 309.189 C 269.632 308.670,262.696 305.230,260.713 304.087 C 256.785 301.824,252.033 298.044,247.284 293.403 C 241.222 287.481,241.190 287.468,234.238 287.998 C 226.707 288.573,220.399 288.528,220.402 287.900 C 220.403 287.625,221.393 285.899,222.602 284.064 C 223.811 282.230,224.800 280.646,224.800 280.546 C 224.800 280.446,225.673 279.067,226.741 277.482 C 230.834 271.403,231.309 269.932,230.220 266.714 C 229.110 263.438,227.794 258.351,227.137 254.800 C 226.496 251.331,226.253 236.633,226.784 233.400 C 227.450 229.350,228.041 226.345,228.396 225.200 C 228.567 224.650,228.929 223.390,229.199 222.400 C 229.470 221.410,229.833 220.240,230.007 219.800 C 230.180 219.360,230.727 217.920,231.223 216.600 C 237.772 199.144,253.799 183.122,271.400 176.434 C 272.720 175.932,274.160 175.378,274.600 175.202 C 283.614 171.591,297.995 170.452,309.580 172.431 M291.000 180.828 C 284.138 181.517,275.703 183.968,269.800 186.989 C 267.391 188.221,261.658 191.690,260.878 192.387 C 260.501 192.724,259.294 193.710,258.196 194.578 C 253.189 198.535,247.105 205.674,243.517 211.800 C 242.062 214.285,239.200 220.641,239.200 221.388 C 239.200 221.699,239.041 222.051,238.848 222.170 C 238.654 222.290,238.397 222.796,238.276 223.294 C 238.155 223.792,237.861 224.920,237.622 225.800 C 229.707 255.007,242.736 284.792,269.379 298.394 C 303.483 315.805,345.585 298.370,356.962 262.125 C 359.275 254.758,360.000 250.144,360.000 242.800 C 360.000 237.334,359.804 235.330,358.770 230.200 C 352.490 199.058,323.048 177.609,291.000 180.828 M306.400 192.442 C 321.152 195.244,335.333 205.047,341.635 216.800 C 342.166 217.790,342.704 218.690,342.831 218.800 C 342.958 218.910,343.739 220.587,344.567 222.526 C 357.961 253.919,338.486 288.350,304.351 293.625 C 299.417 294.387,289.803 293.792,285.100 292.433 C 284.275 292.195,283.012 291.848,282.294 291.663 C 273.475 289.390,261.089 280.148,255.404 271.600 C 253.184 268.262,250.011 262.138,250.004 261.180 C 250.002 260.839,249.857 260.389,249.682 260.180 C 249.135 259.527,248.395 256.849,247.200 251.200 C 244.802 239.868,248.919 222.745,256.464 212.670 C 261.092 206.490,272.653 196.800,275.398 196.800 C 275.514 196.800,276.462 196.422,277.504 195.960 C 281.776 194.068,281.812 194.056,287.600 192.750 C 291.954 191.768,301.985 191.603,306.400 192.442 M295.618 200.811 C 287.179 202.590,280.922 211.728,282.343 220.200 C 284.749 234.554,301.833 240.111,311.860 229.801 C 323.758 217.566,312.390 197.275,295.618 200.811 M302.398 212.447 C 307.839 215.505,305.838 223.600,299.642 223.600 C 295.672 223.600,293.600 221.603,293.600 217.776 C 293.600 212.955,298.269 210.127,302.398 212.447 M272.200 235.248 C 256.591 236.894,251.543 257.915,264.664 266.625 C 279.321 276.354,297.610 260.503,289.908 244.747 C 286.565 237.909,280.060 234.420,272.200 235.248 M313.600 240.791 C 312.610 240.968,311.260 241.310,310.600 241.552 C 309.940 241.795,309.085 242.105,308.700 242.243 C 308.315 242.381,308.000 242.652,308.000 242.847 C 308.000 243.041,307.757 243.200,307.461 243.200 C 307.164 243.200,305.897 244.225,304.644 245.477 C 296.142 253.980,298.558 268.271,309.360 273.368 C 321.994 279.329,336.378 268.432,333.786 254.865 C 332.517 248.226,329.438 244.658,321.971 241.175 C 320.938 240.693,315.535 240.446,313.600 240.791 M276.451 246.565 C 279.882 248.002,281.329 251.722,279.751 255.047 C 277.614 259.549,270.326 259.223,268.786 254.557 C 267.102 249.455,271.760 244.600,276.451 246.565 M319.374 252.397 C 324.006 254.666,323.949 260.964,319.274 263.252 C 313.239 266.206,307.700 258.075,312.600 253.454 C 314.613 251.556,316.921 251.195,319.374 252.397 M186.200 293.944 C 184.076 295.256,183.460 296.265,183.289 298.715 C 182.798 305.737,191.936 307.629,194.724 301.081 C 196.730 296.368,190.594 291.230,186.200 293.944 M72.200 311.740 C 71.540 311.991,70.762 312.421,70.471 312.698 C 70.181 312.974,69.776 313.200,69.571 313.200 C 69.367 313.200,69.200 313.470,69.200 313.800 C 69.200 314.130,69.020 314.400,68.800 314.400 C 68.580 314.400,68.400 314.760,68.400 315.200 C 68.400 315.640,68.220 316.000,68.000 316.000 C 67.736 316.000,67.600 329.667,67.600 356.200 C 67.600 382.733,67.736 396.400,68.000 396.400 C 68.220 396.400,68.400 396.688,68.400 397.040 C 68.400 397.391,68.959 398.201,69.642 398.840 C 71.517 400.590,79.200 400.417,79.200 398.624 C 79.200 398.378,79.560 397.917,80.000 397.600 C 80.838 396.996,81.078 395.238,80.413 394.573 C 80.171 394.331,79.984 379.672,79.913 355.393 C 79.823 324.444,79.694 316.396,79.278 315.593 C 78.615 314.313,76.426 312.800,75.238 312.800 C 74.662 312.800,74.248 312.505,74.116 312.000 C 73.882 311.107,73.874 311.105,72.200 311.740 M170.566 312.033 C 165.054 314.710,166.964 323.200,173.079 323.200 C 179.731 323.200,181.585 314.359,175.469 311.803 C 173.590 311.018,172.558 311.066,170.566 312.033 M135.206 314.406 C 131.995 315.170,130.140 318.957,131.383 322.212 C 133.679 328.222,142.873 326.469,142.771 320.041 C 142.707 316.014,139.255 313.442,135.206 314.406 M196.581 338.578 C 194.538 339.803,193.800 341.178,193.800 343.761 C 193.800 350.217,202.712 351.847,205.017 345.812 C 207.058 340.467,201.451 335.658,196.581 338.578 M157.359 339.875 C 152.990 340.735,152.478 348.205,156.620 350.633 C 161.807 353.673,167.683 347.856,164.693 342.642 C 163.272 340.162,160.744 339.208,157.359 339.875 M227.052 347.005 C 226.719 347.338,225.875 347.725,225.177 347.865 C 224.479 348.004,223.299 348.728,222.554 349.473 L 221.200 350.827 221.200 372.626 C 221.200 391.634,221.123 394.455,220.600 394.655 C 219.936 394.910,219.765 396.400,220.400 396.400 C 220.620 396.400,220.800 396.688,220.800 397.040 C 220.800 401.257,230.328 401.150,232.700 396.905 C 233.340 395.760,233.438 350.400,232.800 350.400 C 232.580 350.400,232.400 350.106,232.400 349.747 C 232.400 348.937,230.439 347.201,229.524 347.200 C 229.152 347.200,228.736 347.020,228.600 346.800 C 228.252 346.236,227.755 346.302,227.052 347.005 M197.800 373.473 C 192.837 374.840,192.208 382.057,196.845 384.423 C 199.563 385.810,202.076 385.251,204.136 382.803 C 207.803 378.445,203.382 371.935,197.800 373.473 " stroke="none" fill="#070606" fill-rule="evenodd"></path><path id="path1" d="M127.730 12.576 C 124.223 13.672,121.575 15.997,119.728 19.600 L 118.600 21.800 118.400 103.800 L 118.200 185.800 117.308 187.051 C 114.940 190.370,109.860 190.370,107.492 187.051 L 106.600 185.800 106.400 120.591 L 106.200 55.383 104.883 52.708 C 100.130 43.054,86.465 43.057,81.722 52.714 L 80.600 55.000 80.400 118.400 L 80.200 181.800 79.268 183.106 C 75.787 187.987,70.878 186.534,67.244 179.546 C 64.477 174.226,59.643 164.880,57.107 159.946 C 54.835 155.527,53.320 153.538,51.209 152.206 C 42.450 146.677,31.420 152.694,31.413 163.005 C 31.410 166.611,31.376 166.536,44.488 191.600 C 45.697 193.910,48.267 198.860,50.201 202.600 C 53.818 209.595,56.438 214.645,60.790 223.000 C 67.161 235.233,74.218 248.854,78.066 256.345 L 80.400 260.891 80.400 276.352 C 80.400 290.639,80.344 291.918,79.658 293.206 C 78.857 294.712,76.358 296.383,74.892 296.393 L 73.983 296.400 74.092 304.300 L 74.200 312.200 75.400 312.333 C 77.015 312.513,79.159 314.205,79.842 315.840 C 80.306 316.949,80.401 323.584,80.405 355.087 C 80.408 375.939,80.519 393.405,80.652 393.900 L 80.893 394.800 125.039 394.800 L 169.185 394.800 169.440 393.700 C 169.580 393.095,170.304 391.491,171.047 390.135 C 175.168 382.625,170.207 375.445,158.800 372.413 C 155.420 371.514,154.199 371.256,151.200 370.806 C 148.388 370.384,147.129 370.166,141.600 369.146 C 121.405 365.421,106.032 354.935,101.423 341.743 C 99.281 335.611,98.398 324.354,99.632 318.906 C 102.689 305.408,110.437 296.191,122.600 291.584 C 125.142 290.621,127.358 290.033,131.544 289.211 C 132.724 288.979,136.864 288.615,140.744 288.402 C 153.139 287.721,155.965 287.115,161.200 284.014 C 167.597 280.224,174.374 272.639,179.589 263.431 C 180.035 262.644,180.787 261.325,181.259 260.500 C 181.731 259.675,182.658 258.010,183.318 256.800 C 189.873 244.779,200.676 235.185,212.600 230.794 C 215.194 229.839,215.600 229.570,215.600 228.805 C 215.600 227.340,217.508 219.882,218.968 215.637 L 220.400 211.475 220.400 182.925 C 220.400 149.370,220.133 151.129,225.500 149.389 L 227.600 148.708 227.600 141.802 L 227.600 134.897 226.400 134.449 C 225.740 134.202,224.649 133.794,223.976 133.541 C 223.302 133.289,222.267 132.448,221.676 131.673 L 220.600 130.263 220.400 104.832 C 220.202 79.649,220.191 79.381,219.317 77.506 C 214.726 67.662,200.676 67.603,195.996 77.408 L 194.800 79.914 194.800 132.108 C 194.800 189.106,194.933 185.880,192.487 188.059 C 189.634 190.602,185.071 189.790,183.163 186.400 C 182.687 185.555,182.569 174.560,182.400 115.400 L 182.200 45.400 181.277 43.546 C 175.618 32.171,160.800 33.678,156.856 46.028 C 156.522 47.075,156.400 65.903,156.400 116.469 L 156.400 185.482 155.500 186.800 C 152.941 190.549,147.503 190.414,145.220 186.544 C 144.401 185.155,144.400 185.098,144.400 104.339 C 144.400 14.954,144.579 21.070,141.857 17.502 C 138.365 12.923,132.812 10.987,127.730 12.576 M290.600 192.787 C 290.160 192.983,289.273 193.156,288.628 193.172 C 287.436 193.201,287.118 193.281,282.200 194.795 C 267.009 199.473,254.007 212.608,249.430 227.899 C 241.739 253.597,254.198 279.425,279.400 290.023 C 287.290 293.341,300.131 294.396,308.100 292.380 C 311.558 291.505,313.045 291.091,313.800 290.795 C 314.240 290.622,315.230 290.252,316.000 289.972 C 326.872 286.017,338.168 275.694,342.996 265.300 C 345.173 260.613,345.827 258.733,347.171 253.300 C 348.702 247.110,348.634 237.979,347.011 231.600 C 346.289 228.763,345.875 227.314,345.554 226.500 C 344.144 222.919,343.532 221.448,343.116 220.645 C 335.578 206.091,322.178 195.937,306.800 193.125 C 303.875 192.590,291.614 192.334,290.600 192.787 M307.281 201.701 C 324.750 210.343,317.853 236.615,298.407 235.506 C 283.799 234.673,276.470 217.560,285.829 206.139 C 290.766 200.114,300.149 198.173,307.281 201.701 M297.090 212.960 C 293.454 214.936,292.902 218.523,295.789 221.411 C 299.001 224.622,303.326 223.503,304.663 219.115 C 305.957 214.871,300.994 210.837,297.090 212.960 M280.800 235.537 C 283.620 236.636,286.585 238.895,288.455 241.369 C 299.916 256.533,283.748 276.429,266.531 268.348 C 264.024 267.171,259.200 262.823,259.200 261.741 C 259.200 261.443,259.064 261.200,258.898 261.200 C 257.286 261.200,255.792 249.849,257.049 247.161 C 258.882 243.242,259.590 242.053,261.064 240.414 C 266.031 234.889,274.054 232.906,280.800 235.537 M320.073 240.132 C 321.323 240.396,322.478 240.745,322.640 240.906 C 322.801 241.068,323.175 241.200,323.471 241.200 C 324.473 241.200,328.993 244.513,330.511 246.361 C 337.451 254.807,335.468 267.037,326.200 272.954 C 322.806 275.120,317.610 276.383,314.980 275.679 C 313.995 275.416,312.829 275.200,312.389 275.200 C 311.630 275.200,311.214 275.039,309.100 273.926 C 308.605 273.666,307.720 273.210,307.134 272.914 C 300.037 269.327,296.839 257.751,300.760 249.836 C 302.051 247.229,306.087 242.800,307.171 242.800 C 307.407 242.800,307.600 242.664,307.600 242.498 C 307.600 242.224,308.073 241.984,310.600 240.974 C 313.700 239.735,316.864 239.454,320.073 240.132 M210.106 245.595 C 202.326 250.426,197.860 255.399,193.038 264.600 C 192.577 265.480,192.110 266.290,192.000 266.400 C 191.890 266.510,191.365 267.410,190.833 268.400 C 190.302 269.390,189.357 270.952,188.733 271.872 C 188.110 272.792,187.600 273.722,187.600 273.939 C 187.600 274.156,187.465 274.393,187.300 274.467 C 187.135 274.540,186.475 275.410,185.832 276.400 C 178.365 287.911,167.851 295.995,156.200 299.181 C 153.942 299.798,144.047 300.783,140.000 300.792 C 136.965 300.799,133.489 301.296,129.155 302.342 C 118.379 304.943,111.199 314.804,111.200 327.000 C 111.203 342.114,120.829 351.782,140.400 356.326 C 144.428 357.261,145.936 357.559,148.800 357.984 C 150.450 358.229,152.568 358.603,153.506 358.815 C 154.444 359.027,155.601 359.200,156.077 359.200 C 156.554 359.200,157.496 359.368,158.172 359.573 C 158.847 359.778,160.210 360.159,161.200 360.419 C 179.292 365.178,188.937 378.892,183.630 392.312 C 182.549 395.043,180.882 394.825,201.921 394.704 L 220.043 394.600 220.011 374.318 C 219.972 349.098,219.960 349.160,225.234 347.187 L 227.600 346.302 227.600 339.351 C 227.600 332.654,227.571 332.400,226.796 332.400 C 225.477 332.400,222.442 330.783,221.639 329.653 C 220.189 327.612,220.005 325.729,220.002 312.930 L 220.000 300.460 214.100 300.671 C 207.317 300.913,205.411 300.336,203.942 297.596 C 202.323 294.578,202.853 292.906,207.844 285.287 C 209.470 282.804,210.800 280.633,210.800 280.462 C 210.800 280.291,211.115 279.797,211.500 279.363 C 211.885 278.930,212.540 277.951,212.955 277.188 C 213.370 276.425,214.702 274.208,215.914 272.263 L 218.118 268.726 217.635 266.863 C 216.375 262.002,214.852 254.011,214.625 251.067 C 213.997 242.938,214.129 243.097,210.106 245.595 M273.400 247.133 C 270.398 247.467,268.225 250.844,269.170 253.708 C 269.689 255.282,270.856 256.800,271.547 256.800 C 271.796 256.800,272.000 256.980,272.000 257.200 C 272.000 257.754,275.858 257.704,276.918 257.137 C 282.310 254.251,279.566 246.448,273.400 247.133 M313.989 253.300 C 310.491 255.669,310.393 259.628,313.769 262.203 C 316.618 264.376,320.786 262.880,321.982 259.253 C 323.490 254.687,317.990 250.591,313.989 253.300 M192.884 294.008 C 196.176 296.722,196.533 300.342,193.821 303.510 C 190.543 307.339,183.943 305.691,182.840 300.769 C 181.484 294.718,188.233 290.175,192.884 294.008 M176.613 311.786 C 182.353 315.150,179.912 323.600,173.200 323.600 C 169.709 323.600,167.273 321.515,166.900 318.211 C 166.271 312.630,171.806 308.969,176.613 311.786 M140.446 314.547 C 147.024 319.155,141.130 329.497,134.000 325.859 C 128.975 323.295,129.391 315.667,134.648 313.991 C 136.171 313.506,139.402 313.816,140.446 314.547 M202.320 337.764 C 208.524 341.005,206.527 350.000,199.604 350.000 C 192.909 350.000,190.465 341.386,196.230 338.107 C 198.045 337.074,200.711 336.924,202.320 337.764 M162.437 339.730 C 164.612 340.878,165.984 343.111,165.993 345.520 C 166.015 351.242,159.077 354.060,154.936 350.011 C 149.684 344.876,155.939 336.302,162.437 339.730 M202.538 373.397 C 205.114 374.620,206.666 378.040,205.858 380.717 C 204.334 385.766,198.428 387.334,194.888 383.629 C 189.811 378.317,195.858 370.228,202.538 373.397 " stroke="none" fill="#fbcba1" fill-rule="evenodd"></path><path id="path2" d="M290.305 172.229 C 290.147 172.387,288.798 172.660,287.309 172.835 C 284.406 173.176,281.965 173.660,279.400 174.403 C 278.520 174.657,277.303 174.962,276.695 175.079 C 276.087 175.196,275.492 175.451,275.371 175.646 C 275.251 175.841,274.801 176.000,274.371 176.000 C 273.941 176.000,273.277 176.165,272.895 176.366 C 272.513 176.568,271.480 177.037,270.600 177.409 C 259.001 182.315,250.278 188.961,241.450 199.620 C 238.171 203.579,233.261 212.587,231.213 218.400 C 230.941 219.170,230.578 220.160,230.405 220.600 C 230.233 221.040,229.906 222.120,229.679 223.000 C 229.452 223.880,229.080 225.320,228.852 226.200 C 227.026 233.257,226.396 245.951,227.522 253.000 C 227.804 254.760,228.135 256.876,228.259 257.703 C 228.383 258.529,228.645 259.305,228.842 259.426 C 229.039 259.548,229.200 260.256,229.200 261.000 C 229.200 261.744,229.380 262.464,229.600 262.600 C 229.820 262.736,230.000 263.199,230.000 263.629 C 230.000 264.059,230.162 264.723,230.361 265.105 C 231.713 267.707,231.705 272.800,230.348 272.800 C 230.157 272.800,230.000 272.990,230.000 273.222 C 230.000 273.454,229.280 274.704,228.400 276.000 C 227.520 277.296,226.800 278.546,226.800 278.778 C 226.800 279.010,226.620 279.200,226.400 279.200 C 226.180 279.200,226.000 279.470,226.000 279.800 C 226.000 280.130,225.820 280.400,225.600 280.400 C 225.380 280.400,225.200 280.585,225.200 280.810 C 225.200 281.036,224.215 282.692,223.012 284.489 C 221.809 286.287,220.888 287.822,220.967 287.900 C 221.046 287.979,223.963 287.854,227.448 287.622 C 241.628 286.678,241.138 286.558,247.142 292.457 C 252.973 298.187,257.665 301.862,262.193 304.246 C 268.841 307.745,270.175 308.400,270.661 308.400 C 270.963 308.400,271.523 308.559,271.905 308.753 C 273.145 309.384,274.567 309.937,276.200 310.425 C 277.080 310.687,278.213 311.059,278.719 311.251 C 279.224 311.443,280.043 311.600,280.539 311.600 C 281.034 311.600,281.611 311.762,281.820 311.959 C 282.029 312.156,283.010 312.423,284.000 312.551 C 284.990 312.679,287.420 313.006,289.400 313.276 C 294.008 313.906,301.592 313.906,306.200 313.276 C 308.180 313.006,310.610 312.679,311.600 312.551 C 312.590 312.423,313.571 312.156,313.780 311.959 C 313.989 311.762,314.516 311.600,314.952 311.600 C 315.804 311.600,318.167 310.920,319.295 310.351 C 319.677 310.158,320.264 310.000,320.600 310.000 C 320.936 310.000,321.523 309.841,321.905 309.647 C 322.287 309.452,323.050 309.115,323.600 308.897 C 340.884 302.052,356.136 287.328,362.752 271.100 C 362.998 270.495,363.374 269.595,363.587 269.100 C 365.263 265.199,366.973 258.442,368.028 251.541 C 369.537 241.685,367.336 225.034,363.332 216.000 C 361.478 211.816,358.520 206.080,357.971 205.600 C 357.845 205.490,357.640 205.130,357.517 204.800 C 356.785 202.848,349.875 194.562,346.032 191.026 C 345.059 190.132,343.882 189.040,343.415 188.600 C 340.059 185.437,329.913 179.304,324.400 177.105 C 323.850 176.886,323.087 176.548,322.705 176.353 C 322.323 176.159,321.736 176.000,321.400 176.000 C 321.064 176.000,320.477 175.842,320.095 175.649 C 318.939 175.065,316.596 174.400,315.695 174.400 C 315.229 174.400,314.736 174.220,314.600 174.000 C 314.464 173.780,313.679 173.600,312.856 173.600 C 312.033 173.600,311.189 173.436,310.980 173.235 C 310.222 172.508,290.963 171.570,290.305 172.229 M305.200 180.413 C 314.340 181.445,324.239 184.809,330.062 188.861 C 330.646 189.267,331.306 189.600,331.528 189.600 C 331.751 189.600,331.993 189.745,332.067 189.923 C 332.140 190.101,333.096 190.858,334.191 191.605 C 337.097 193.588,337.365 193.821,341.789 198.200 C 348.708 205.049,352.794 211.048,356.089 219.200 C 356.311 219.750,356.652 220.513,356.847 220.895 C 357.041 221.277,357.200 221.941,357.200 222.371 C 357.200 222.801,357.359 223.251,357.554 223.371 C 357.749 223.492,358.007 224.087,358.129 224.695 C 358.251 225.303,358.553 226.610,358.800 227.600 C 359.793 231.573,360.093 233.598,360.341 238.000 C 360.713 244.612,360.010 255.687,359.161 256.580 C 358.963 256.789,358.800 257.466,358.800 258.085 C 358.800 258.704,358.638 259.523,358.439 259.905 C 358.240 260.287,357.849 261.410,357.569 262.400 C 357.290 263.390,356.912 264.371,356.730 264.580 C 356.549 264.789,356.400 265.213,356.400 265.522 C 356.400 270.431,344.194 286.762,336.012 292.800 C 335.267 293.350,334.169 294.205,333.571 294.700 C 332.973 295.195,332.363 295.600,332.214 295.600 C 332.066 295.600,331.192 296.109,330.272 296.732 C 327.555 298.571,322.252 301.088,318.293 302.417 C 314.782 303.596,313.651 303.895,309.000 304.874 C 306.169 305.469,291.039 305.753,288.600 305.256 C 287.500 305.031,285.520 304.640,284.200 304.386 C 277.127 303.023,262.608 296.534,261.667 294.314 C 261.593 294.142,261.321 294.000,261.062 294.000 C 258.796 294.000,243.600 277.340,243.600 274.855 C 243.600 274.642,243.443 274.407,243.251 274.333 C 242.451 274.028,238.216 264.420,237.153 260.500 C 236.959 259.785,236.616 258.525,236.392 257.700 C 233.600 247.434,234.567 230.601,238.490 221.200 C 238.719 220.650,239.044 219.840,239.211 219.400 C 240.026 217.256,243.437 210.562,244.001 210.000 C 244.111 209.890,244.456 209.305,244.768 208.700 C 245.080 208.095,245.485 207.600,245.668 207.600 C 245.850 207.600,246.000 207.375,246.000 207.100 C 246.001 206.825,246.406 206.115,246.900 205.523 C 247.395 204.930,248.700 203.341,249.800 201.990 C 251.705 199.651,257.071 194.508,258.928 193.241 C 259.408 192.914,259.890 192.532,260.000 192.393 C 262.047 189.802,274.802 183.673,281.600 182.014 C 287.636 180.541,288.381 180.400,290.306 180.370 C 291.348 180.354,293.010 180.185,294.000 179.995 C 295.816 179.645,299.687 179.790,305.200 180.413 " stroke="none" fill="#93dbfb" fill-rule="evenodd"></path><path id="path3" d="M127.600 11.977 C 127.270 12.159,126.460 12.547,125.800 12.839 C 123.735 13.755,122.397 14.827,120.800 16.847 C 117.780 20.668,118.000 13.828,118.000 103.981 C 118.000 193.002,118.201 186.148,115.536 188.045 C 113.058 189.810,109.013 188.917,107.499 186.272 C 107.108 185.589,106.957 171.232,106.800 120.000 C 106.654 72.339,106.477 54.383,106.147 53.800 C 105.897 53.360,105.447 52.471,105.147 51.825 C 104.463 50.355,101.304 47.165,99.875 46.500 C 99.284 46.225,98.323 45.775,97.739 45.500 C 92.553 43.056,84.111 46.677,81.187 52.600 L 80.200 54.600 80.000 118.000 C 79.842 168.051,79.694 181.586,79.295 182.284 C 76.504 187.164,71.280 186.097,68.117 180.000 C 67.146 178.130,64.493 173.000,62.220 168.600 C 59.947 164.200,57.486 159.454,56.752 158.053 C 51.071 147.209,37.899 146.597,32.248 156.914 C 31.672 157.967,31.212 159.317,31.227 159.914 C 31.250 160.850,31.323 160.779,31.760 159.400 C 33.927 152.546,40.944 148.660,47.589 150.634 C 52.019 151.949,53.985 153.873,57.107 159.946 C 59.643 164.880,64.477 174.226,67.244 179.546 C 70.878 186.534,75.787 187.987,79.268 183.106 L 80.200 181.800 80.400 118.400 L 80.600 55.000 81.722 52.714 C 86.465 43.057,100.130 43.054,104.883 52.708 L 106.200 55.383 106.400 120.591 L 106.600 185.800 107.492 187.051 C 109.860 190.370,114.940 190.370,117.308 187.051 L 118.200 185.800 118.400 103.800 L 118.600 21.800 119.773 19.484 C 124.313 10.518,135.748 9.491,141.857 17.502 C 144.579 21.070,144.400 14.954,144.400 104.339 C 144.400 185.098,144.401 185.155,145.220 186.544 C 147.503 190.414,152.941 190.549,155.500 186.800 L 156.400 185.482 156.400 116.469 C 156.400 65.903,156.522 47.075,156.856 46.028 C 160.800 33.678,175.618 32.171,181.277 43.546 L 182.200 45.400 182.400 115.400 C 182.569 174.560,182.687 185.555,183.163 186.400 C 185.071 189.790,189.634 190.602,192.487 188.059 C 194.933 185.880,194.800 189.106,194.800 132.108 L 194.800 79.914 195.996 77.408 C 200.676 67.603,214.726 67.662,219.317 77.506 C 220.191 79.381,220.202 79.650,220.400 104.800 L 220.600 130.200 221.532 131.506 C 222.776 133.250,226.800 135.161,226.800 134.008 C 226.800 133.783,226.431 133.600,225.980 133.600 C 224.728 133.600,222.956 132.543,222.032 131.244 C 221.212 130.093,221.200 129.737,221.200 106.215 C 221.200 82.802,221.082 80.248,219.879 77.600 C 215.041 66.953,200.616 66.686,195.497 77.149 L 194.200 79.800 194.000 132.800 C 193.777 191.886,194.055 186.916,190.887 188.453 C 188.147 189.782,185.109 188.850,183.680 186.241 C 183.050 185.091,182.985 179.884,182.800 115.000 L 182.600 45.000 181.677 43.146 C 176.873 33.490,164.119 32.584,158.232 41.480 C 155.882 45.031,156.009 40.782,156.003 116.000 C 155.997 183.683,155.982 185.024,155.218 186.278 C 152.857 190.150,147.106 189.822,145.391 185.718 C 144.876 184.485,144.800 173.893,144.800 103.446 C 144.800 25.083,144.777 22.525,144.042 20.515 C 142.773 17.044,140.220 14.188,137.253 12.922 C 136.454 12.581,135.487 12.144,135.105 11.951 C 134.236 11.512,128.410 11.532,127.600 11.977 M224.336 149.738 C 220.239 151.559,220.400 150.200,220.400 182.925 L 220.400 211.475 218.968 215.637 C 217.508 219.882,215.600 227.340,215.600 228.805 C 215.600 229.570,215.194 229.839,212.600 230.794 C 200.676 235.185,189.873 244.779,183.318 256.800 C 182.658 258.010,181.731 259.675,181.259 260.500 C 180.787 261.325,180.035 262.644,179.589 263.431 C 174.374 272.639,167.597 280.224,161.200 284.014 C 155.965 287.115,153.139 287.721,140.744 288.402 C 125.080 289.262,115.856 292.922,108.148 301.336 C 104.349 305.482,99.917 314.344,100.041 317.546 C 100.078 318.493,100.123 318.458,100.490 317.200 C 101.906 312.340,103.730 307.848,104.684 306.871 C 104.968 306.581,105.200 306.192,105.200 306.008 C 105.200 303.866,113.867 296.249,119.132 293.764 C 120.820 292.967,122.513 292.155,122.895 291.958 C 123.277 291.761,123.941 291.600,124.371 291.600 C 124.801 291.600,125.252 291.440,125.373 291.244 C 125.494 291.049,126.179 290.788,126.896 290.666 C 127.613 290.544,129.100 290.255,130.200 290.024 C 131.300 289.793,136.250 289.342,141.200 289.022 C 155.646 288.088,160.646 286.368,167.463 279.987 C 172.834 274.958,176.596 269.807,182.203 259.800 C 190.770 244.511,199.195 236.620,212.489 231.437 L 215.800 230.146 216.641 226.173 C 217.104 223.988,217.703 221.480,217.972 220.600 C 218.241 219.720,218.609 218.460,218.790 217.800 C 218.971 217.140,219.587 215.341,220.159 213.802 L 221.200 211.003 221.200 182.102 L 221.200 153.200 222.800 151.600 C 223.793 150.607,224.771 150.000,225.376 150.000 C 225.913 150.000,226.464 149.820,226.600 149.600 C 226.928 149.070,225.667 149.146,224.336 149.738 M31.029 163.990 C 31.231 167.117,32.215 169.357,39.203 182.600 C 42.030 187.958,45.286 194.209,49.098 201.600 C 50.970 205.230,53.495 210.090,54.709 212.400 C 55.923 214.710,58.213 219.120,59.798 222.200 C 65.508 233.298,70.315 242.539,76.859 255.000 L 79.800 260.600 79.800 276.400 L 79.800 292.200 78.879 293.491 C 78.005 294.717,76.362 295.728,74.600 296.126 C 73.955 296.272,73.994 296.315,74.800 296.347 C 76.304 296.407,78.821 294.779,79.658 293.206 C 80.344 291.918,80.400 290.639,80.400 276.352 L 80.400 260.891 78.066 256.345 C 74.218 248.854,67.161 235.233,60.790 223.000 C 56.438 214.645,53.818 209.595,50.201 202.600 C 48.267 198.860,45.697 193.910,44.488 191.600 C 32.815 169.286,31.647 166.840,31.224 163.800 L 30.835 161.000 31.029 163.990 M296.311 171.493 C 297.251 171.578,298.691 171.577,299.511 171.491 C 300.330 171.405,299.560 171.336,297.800 171.337 C 296.040 171.339,295.370 171.409,296.311 171.493 M292.100 180.676 C 292.485 180.776,293.115 180.776,293.500 180.676 C 293.885 180.575,293.570 180.493,292.800 180.493 C 292.030 180.493,291.715 180.575,292.100 180.676 M293.200 192.066 C 287.038 192.517,283.034 193.510,277.504 195.960 C 276.462 196.422,275.514 196.800,275.398 196.800 C 272.653 196.800,261.092 206.490,256.464 212.670 C 248.919 222.745,244.802 239.868,247.200 251.200 C 248.395 256.849,249.135 259.527,249.682 260.180 C 249.857 260.389,250.002 260.839,250.004 261.180 C 250.011 262.138,253.184 268.262,255.404 271.600 C 261.089 280.148,273.475 289.390,282.294 291.663 C 283.012 291.848,284.275 292.195,285.100 292.433 C 319.183 302.280,353.714 270.965,348.211 235.200 C 347.385 229.836,344.135 219.928,342.831 218.800 C 342.704 218.690,342.166 217.790,341.635 216.800 C 338.471 210.901,330.257 202.632,324.000 199.049 C 313.780 193.196,304.992 191.203,293.200 192.066 M306.800 193.125 C 322.178 195.937,335.578 206.091,343.116 220.645 C 343.532 221.448,344.144 222.919,345.554 226.500 C 345.875 227.314,346.289 228.763,347.011 231.600 C 348.634 237.979,348.702 247.110,347.171 253.300 C 345.827 258.733,345.173 260.613,342.996 265.300 C 338.168 275.694,326.872 286.017,316.000 289.972 C 315.230 290.252,314.240 290.622,313.800 290.795 C 313.045 291.091,311.558 291.505,308.100 292.380 C 300.131 294.396,287.290 293.341,279.400 290.023 C 254.198 279.425,241.739 253.597,249.430 227.899 C 254.007 212.608,267.009 199.473,282.200 194.795 C 287.118 193.281,287.436 193.201,288.628 193.172 C 289.273 193.156,290.160 192.983,290.600 192.787 C 291.614 192.334,303.875 192.590,306.800 193.125 M245.375 194.100 L 244.200 195.400 245.500 194.225 C 246.215 193.579,246.800 192.994,246.800 192.925 C 246.800 192.616,246.470 192.888,245.375 194.100 M293.396 200.919 C 275.345 207.762,279.207 234.411,298.407 235.506 C 317.853 236.615,324.750 210.343,307.281 201.701 C 303.280 199.721,297.424 199.391,293.396 200.919 M306.936 202.189 C 321.574 209.463,319.370 230.407,303.522 234.626 C 291.621 237.794,279.863 226.424,282.553 214.349 C 285.054 203.121,296.911 197.208,306.936 202.189 M296.928 212.222 C 292.650 214.096,292.324 220.892,296.412 223.006 C 298.302 223.984,301.490 223.779,303.063 222.579 C 308.839 218.173,303.587 209.306,296.928 212.222 M303.143 213.761 C 305.859 216.477,305.252 220.878,301.920 222.632 C 296.720 225.368,291.502 218.443,295.490 214.097 C 297.303 212.121,301.327 211.945,303.143 213.761 M268.742 235.304 C 265.557 236.417,263.317 237.908,261.064 240.414 C 259.590 242.053,258.882 243.242,257.049 247.161 C 255.792 249.849,257.286 261.200,258.898 261.200 C 259.064 261.200,259.200 261.443,259.200 261.741 C 259.200 262.823,264.024 267.171,266.531 268.348 C 286.119 277.541,302.216 250.995,284.990 237.907 C 280.554 234.536,273.963 233.480,268.742 235.304 M279.800 235.796 C 298.120 242.176,293.779 269.600,274.448 269.600 C 254.912 269.600,250.529 242.402,269.000 235.788 C 271.287 234.969,277.439 234.973,279.800 235.796 M368.893 240.000 C 368.893 240.770,368.975 241.085,369.076 240.700 C 369.176 240.315,369.176 239.685,369.076 239.300 C 368.975 238.915,368.893 239.230,368.893 240.000 M313.400 240.182 C 312.300 240.442,311.040 240.798,310.600 240.974 C 308.073 241.984,307.600 242.224,307.600 242.498 C 307.600 242.664,307.407 242.800,307.171 242.800 C 306.087 242.800,302.051 247.229,300.760 249.836 C 296.839 257.751,300.037 269.327,307.134 272.914 C 307.720 273.210,308.605 273.666,309.100 273.926 C 311.214 275.039,311.630 275.200,312.389 275.200 C 312.829 275.200,313.995 275.416,314.980 275.679 C 317.610 276.383,322.806 275.120,326.200 272.954 C 335.468 267.037,337.451 254.807,330.511 246.361 C 328.993 244.513,324.473 241.200,323.471 241.200 C 323.175 241.200,322.801 241.068,322.640 240.906 C 321.602 239.868,316.444 239.464,313.400 240.182 M321.971 241.175 C 337.062 248.215,338.548 266.121,324.626 273.187 C 307.226 282.019,290.834 259.288,304.644 245.477 C 305.897 244.225,307.164 243.200,307.461 243.200 C 307.757 243.200,308.000 243.041,308.000 242.847 C 308.000 242.652,308.315 242.381,308.700 242.243 C 309.085 242.105,309.940 241.795,310.600 241.552 C 313.482 240.495,320.046 240.277,321.971 241.175 M212.798 243.570 C 204.900 247.505,198.716 253.366,194.375 261.031 C 193.434 262.694,192.214 264.886,190.644 267.736 C 189.195 270.366,185.320 276.328,183.457 278.793 C 180.677 282.473,179.971 283.272,176.283 286.913 C 168.999 294.105,161.729 297.819,151.600 299.525 C 149.525 299.874,149.491 299.898,151.000 299.942 C 161.581 300.250,177.217 289.682,185.832 276.400 C 186.475 275.410,187.135 274.540,187.300 274.467 C 187.465 274.393,187.600 274.156,187.600 273.939 C 187.600 273.722,188.110 272.792,188.733 271.872 C 189.357 270.952,190.302 269.390,190.833 268.400 C 191.365 267.410,191.890 266.510,192.000 266.400 C 192.110 266.290,192.577 265.480,193.038 264.600 C 197.933 255.259,202.880 249.843,210.718 245.243 C 214.123 243.244,214.008 243.074,214.625 251.067 C 214.852 254.011,216.375 262.002,217.635 266.863 L 218.118 268.726 215.914 272.263 C 214.702 274.208,213.370 276.425,212.955 277.188 C 212.540 277.951,211.885 278.930,211.500 279.363 C 211.115 279.797,210.800 280.291,210.800 280.462 C 210.800 280.633,209.470 282.804,207.844 285.287 C 202.853 292.906,202.323 294.578,203.942 297.596 C 205.411 300.336,207.317 300.913,214.100 300.671 L 220.000 300.460 220.000 312.853 C 220.000 326.596,220.199 328.176,222.178 330.146 C 223.952 331.910,227.530 333.104,226.616 331.627 C 226.471 331.392,225.850 331.200,225.236 331.200 C 224.317 331.200,222.934 330.270,221.513 328.697 C 221.465 328.643,221.330 322.210,221.213 314.400 L 221.000 300.200 213.800 299.977 C 209.840 299.854,206.557 299.719,206.503 299.677 C 202.324 296.362,202.623 294.175,208.481 285.200 C 209.701 283.330,212.531 278.920,214.770 275.400 C 219.071 268.635,219.001 268.853,218.004 265.400 C 216.442 259.993,214.812 249.668,214.804 245.124 C 214.799 242.844,214.586 242.679,212.798 243.570 M368.901 245.800 C 368.905 246.680,368.987 246.993,369.083 246.495 C 369.179 245.998,369.175 245.278,369.075 244.895 C 368.975 244.513,368.896 244.920,368.901 245.800 M272.200 246.598 C 269.128 247.961,267.704 251.280,268.786 254.557 C 270.326 259.223,277.614 259.549,279.751 255.047 C 282.148 249.995,277.150 244.401,272.200 246.598 M278.238 248.664 C 280.679 251.106,279.997 255.489,276.918 257.137 C 275.858 257.704,272.000 257.754,272.000 257.200 C 272.000 256.980,271.796 256.800,271.547 256.800 C 270.856 256.800,269.689 255.282,269.170 253.708 C 267.477 248.578,274.336 244.763,278.238 248.664 M314.600 252.165 C 308.730 254.778,309.803 262.839,316.158 263.871 C 318.027 264.174,320.729 262.828,321.900 261.009 C 324.985 256.217,319.749 249.874,314.600 252.165 M319.121 252.959 C 322.825 254.875,323.277 259.360,320.034 262.032 C 315.691 265.612,309.139 260.230,311.959 255.400 C 313.482 252.793,316.687 251.700,319.121 252.959 M235.300 287.876 C 235.685 287.976,236.315 287.976,236.700 287.876 C 237.085 287.775,236.770 287.693,236.000 287.693 C 235.230 287.693,234.915 287.775,235.300 287.876 M228.505 288.287 C 229.114 288.379,230.014 288.377,230.505 288.282 C 230.997 288.187,230.500 288.111,229.400 288.114 C 228.300 288.117,227.897 288.195,228.505 288.287 M347.988 293.500 L 345.400 296.200 348.100 293.612 C 350.608 291.207,350.983 290.800,350.688 290.800 C 350.627 290.800,349.412 292.015,347.988 293.500 M184.640 294.539 C 180.484 298.695,183.066 305.479,188.839 305.571 C 193.757 305.649,197.089 300.708,194.975 296.470 C 192.922 292.356,187.784 291.395,184.640 294.539 M192.033 294.066 C 194.511 295.459,195.746 298.679,194.724 301.081 C 191.936 307.629,182.798 305.737,183.289 298.715 C 183.608 294.156,188.020 291.811,192.033 294.066 M134.800 300.600 C 125.386 302.133,117.415 306.641,114.647 312.000 C 114.363 312.550,113.741 313.680,113.265 314.512 C 112.789 315.344,112.400 316.368,112.400 316.789 C 112.400 317.209,112.240 317.652,112.044 317.773 C 111.071 318.374,110.433 330.552,111.215 333.600 C 112.121 337.131,113.678 340.855,114.698 341.929 C 114.974 342.219,115.200 342.593,115.200 342.758 C 115.200 344.795,128.314 354.000,131.215 354.000 C 131.433 354.000,131.923 354.159,132.305 354.353 C 135.210 355.831,142.463 357.638,150.400 358.863 C 162.710 360.761,168.625 362.751,174.600 367.002 C 183.433 373.286,186.602 383.258,182.838 392.926 C 182.279 394.364,182.285 394.800,182.867 394.800 C 183.123 394.800,183.222 394.689,183.086 394.553 C 182.950 394.417,183.205 393.382,183.652 392.253 C 188.938 378.900,179.254 365.168,161.200 360.419 C 160.210 360.159,158.847 359.778,158.172 359.573 C 157.496 359.368,156.554 359.200,156.077 359.200 C 155.601 359.200,154.444 359.027,153.506 358.815 C 152.568 358.603,150.450 358.229,148.800 357.984 C 133.867 355.768,121.967 350.475,116.533 343.633 C 112.957 339.130,111.201 333.654,111.200 327.000 C 111.199 314.804,118.379 304.943,129.155 302.342 C 133.526 301.287,137.008 300.795,140.400 300.753 C 142.490 300.728,145.370 300.575,146.800 300.414 C 148.848 300.184,148.168 300.121,143.600 300.117 C 140.410 300.114,136.450 300.331,134.800 300.600 M296.100 305.491 C 296.925 305.578,298.275 305.578,299.100 305.491 C 299.925 305.405,299.250 305.334,297.600 305.334 C 295.950 305.334,295.275 305.405,296.100 305.491 M170.485 311.384 C 164.319 314.788,166.278 323.600,173.200 323.600 C 178.466 323.600,181.236 318.990,178.917 314.086 C 177.659 311.427,173.071 309.956,170.485 311.384 M175.469 311.803 C 178.240 312.961,179.646 315.791,178.991 318.891 C 177.911 323.995,170.260 324.751,167.919 319.986 C 165.482 315.024,170.406 309.688,175.469 311.803 M74.245 312.472 C 74.356 312.653,74.830 312.800,75.299 312.800 C 76.434 312.800,78.629 314.340,79.278 315.593 C 79.694 316.396,79.823 324.444,79.913 355.393 C 79.976 376.730,80.156 394.316,80.313 394.473 C 80.471 394.631,80.552 377.295,80.492 355.949 C 80.374 313.383,80.496 315.412,77.942 313.501 C 76.682 312.557,73.802 311.756,74.245 312.472 M134.648 313.991 C 129.391 315.667,128.975 323.295,134.000 325.859 C 136.239 327.001,137.552 327.030,139.488 325.979 C 146.797 322.014,142.542 311.475,134.648 313.991 M140.170 315.145 C 141.783 316.062,142.736 317.856,142.771 320.041 C 142.873 326.469,133.679 328.222,131.383 322.212 C 129.318 316.804,135.021 312.217,140.170 315.145 M292.500 314.276 C 292.885 314.376,293.515 314.376,293.900 314.276 C 294.285 314.175,293.970 314.093,293.200 314.093 C 292.430 314.093,292.115 314.175,292.500 314.276 M301.700 314.276 C 302.085 314.376,302.715 314.376,303.100 314.276 C 303.485 314.175,303.170 314.093,302.400 314.093 C 301.630 314.093,301.315 314.175,301.700 314.276 M99.452 319.700 C 99.133 320.891,99.207 333.541,99.540 334.724 C 99.683 335.232,99.800 331.857,99.800 327.224 C 99.800 322.591,99.776 318.800,99.747 318.800 C 99.717 318.800,99.585 319.205,99.452 319.700 M100.032 336.669 C 100.014 337.147,100.533 339.104,101.184 341.019 C 105.132 352.626,115.596 361.460,131.200 366.359 C 138.892 368.773,139.381 368.902,140.234 368.729 C 140.655 368.643,139.650 368.253,138.000 367.862 C 134.764 367.095,130.291 365.785,129.000 365.227 C 128.560 365.036,127.570 364.651,126.800 364.371 C 114.088 359.738,104.272 350.233,101.220 339.600 C 100.174 335.957,100.067 335.693,100.032 336.669 M196.230 338.107 C 190.465 341.386,192.909 350.000,199.604 350.000 C 201.932 350.000,203.143 349.444,204.592 347.706 C 209.156 342.235,202.468 334.557,196.230 338.107 M201.972 338.186 C 207.390 340.987,206.175 348.828,200.220 349.499 C 193.956 350.205,191.164 341.825,196.581 338.578 C 198.426 337.472,200.325 337.334,201.972 338.186 M156.953 339.412 C 152.814 341.228,151.737 346.884,154.936 350.011 C 159.077 354.060,166.015 351.242,165.993 345.520 C 165.976 340.895,161.093 337.597,156.953 339.412 M162.406 340.342 C 167.743 343.181,165.449 351.600,159.340 351.600 C 153.371 351.600,151.583 341.012,157.359 339.875 C 159.337 339.485,161.104 339.649,162.406 340.342 M225.000 347.243 C 222.419 348.276,221.063 349.732,220.463 352.117 C 219.774 354.850,219.829 394.924,220.521 394.693 C 220.884 394.572,221.025 389.222,221.103 372.677 L 221.207 350.820 222.558 349.469 C 223.300 348.726,224.479 348.004,225.177 347.865 C 225.875 347.725,226.719 347.338,227.052 347.005 C 227.836 346.221,227.442 346.267,225.000 347.243 M141.800 369.200 C 142.240 369.389,143.092 369.556,143.694 369.572 C 144.296 369.587,145.556 369.773,146.494 369.985 C 147.432 370.197,149.550 370.570,151.200 370.813 C 157.077 371.680,160.473 372.666,164.809 374.765 C 171.922 378.207,174.333 384.147,171.047 390.135 C 169.538 392.887,168.697 395.629,169.794 394.224 C 170.127 393.796,170.400 393.133,170.400 392.750 C 170.400 392.367,170.981 391.119,171.690 389.977 C 175.843 383.296,170.748 375.449,160.200 372.283 C 154.534 370.582,138.933 367.968,141.800 369.200 M197.675 372.891 C 194.445 373.961,192.235 377.875,193.204 380.812 C 195.341 387.287,203.894 387.223,205.858 380.717 C 207.248 376.112,202.284 371.365,197.675 372.891 M203.203 374.402 C 205.724 376.197,206.187 380.365,204.136 382.803 C 200.587 387.020,194.491 385.295,193.746 379.861 C 193.051 374.790,198.958 371.380,203.203 374.402 " stroke="none" fill="#865545" fill-rule="evenodd"></path><path id="path4" d="M294.300 171.898 C 296.115 171.972,299.085 171.972,300.900 171.898 C 302.715 171.823,301.230 171.763,297.600 171.763 C 293.970 171.763,292.485 171.823,294.300 171.898 M286.600 172.400 C 285.517 172.676,285.575 172.707,287.200 172.725 C 288.190 172.735,289.360 172.589,289.800 172.400 C 290.845 171.951,288.365 171.951,286.600 172.400 M305.600 172.400 C 306.150 172.576,307.410 172.717,308.400 172.713 C 310.016 172.706,310.077 172.674,309.000 172.400 C 307.277 171.961,304.231 171.961,305.600 172.400 M278.957 174.006 C 247.421 183.032,226.400 210.549,226.400 242.806 C 226.400 251.406,227.065 255.690,229.835 264.939 C 231.346 269.983,231.180 270.741,227.197 277.000 C 221.299 286.268,220.273 288.006,220.539 288.273 C 220.683 288.417,225.207 288.305,230.593 288.025 L 240.384 287.515 242.092 288.527 C 243.031 289.084,244.430 290.292,245.200 291.211 C 249.244 296.041,258.724 303.199,265.628 306.635 C 272.395 310.003,282.673 313.413,281.800 312.000 C 281.664 311.780,281.122 311.600,280.595 311.600 C 280.069 311.600,279.224 311.443,278.719 311.251 C 278.213 311.059,277.080 310.687,276.200 310.425 C 274.567 309.937,273.145 309.384,271.905 308.753 C 271.523 308.559,270.963 308.400,270.661 308.400 C 270.175 308.400,268.841 307.745,262.193 304.246 C 257.665 301.862,252.973 298.187,247.142 292.457 C 241.138 286.558,241.628 286.678,227.448 287.622 C 223.963 287.854,221.046 287.979,220.967 287.900 C 220.888 287.822,221.809 286.287,223.012 284.489 C 224.215 282.692,225.200 281.036,225.200 280.810 C 225.200 280.585,225.380 280.400,225.600 280.400 C 225.820 280.400,226.000 280.130,226.000 279.800 C 226.000 279.470,226.180 279.200,226.400 279.200 C 226.620 279.200,226.800 279.010,226.800 278.778 C 226.800 278.546,227.520 277.296,228.400 276.000 C 229.280 274.704,230.000 273.454,230.000 273.222 C 230.000 272.990,230.157 272.800,230.348 272.800 C 231.705 272.800,231.713 267.707,230.361 265.105 C 230.162 264.723,230.000 264.059,230.000 263.629 C 230.000 263.199,229.820 262.736,229.600 262.600 C 229.380 262.464,229.200 261.744,229.200 261.000 C 229.200 260.256,229.039 259.548,228.842 259.426 C 228.645 259.305,228.383 258.529,228.259 257.703 C 228.135 256.876,227.804 254.760,227.522 253.000 C 226.609 247.281,226.951 234.981,228.189 229.000 C 228.682 226.622,229.995 221.646,230.405 220.600 C 230.578 220.160,230.941 219.170,231.213 218.400 C 233.261 212.587,238.171 203.579,241.450 199.620 C 250.278 188.961,259.001 182.315,270.600 177.409 C 271.480 177.037,272.513 176.568,272.895 176.366 C 273.277 176.165,273.864 176.000,274.200 176.000 C 274.536 176.000,275.123 175.838,275.505 175.639 C 275.887 175.440,277.010 175.062,278.000 174.797 C 278.990 174.533,280.213 174.155,280.719 173.958 C 281.224 173.761,282.124 173.597,282.719 173.594 C 283.313 173.591,284.070 173.413,284.400 173.200 C 285.554 172.454,283.119 172.815,278.957 174.006 M311.000 173.200 C 311.136 173.420,311.912 173.582,312.724 173.560 C 314.050 173.524,314.098 173.488,313.200 173.200 C 311.755 172.737,310.714 172.737,311.000 173.200 M314.574 173.957 C 314.724 174.201,315.229 174.400,315.695 174.400 C 316.596 174.400,318.939 175.065,320.095 175.649 C 320.477 175.842,321.064 176.000,321.400 176.000 C 321.736 176.000,322.323 176.159,322.705 176.353 C 323.087 176.548,323.850 176.886,324.400 177.105 C 329.113 178.985,333.515 181.543,341.745 187.186 L 342.600 187.773 341.801 186.846 C 338.227 182.698,312.428 170.485,314.574 173.957 M294.200 180.000 C 293.174 180.184,294.465 180.289,297.800 180.293 C 301.619 180.298,302.522 180.215,301.200 179.980 C 299.057 179.598,296.400 179.606,294.200 180.000 M287.000 180.800 C 285.917 181.265,287.441 181.276,290.000 180.820 L 291.800 180.500 289.800 180.478 C 288.700 180.466,287.440 180.611,287.000 180.800 M305.200 180.820 C 307.855 181.293,309.150 181.285,308.400 180.800 C 308.070 180.587,306.810 180.432,305.600 180.456 L 303.400 180.500 305.200 180.820 M281.000 182.065 C 274.193 183.956,261.881 190.012,260.000 192.393 C 259.890 192.532,259.408 192.914,258.928 193.241 C 257.071 194.508,251.705 199.651,249.800 201.990 C 248.700 203.341,247.395 204.930,246.900 205.523 C 246.084 206.501,245.769 207.200,246.145 207.200 C 246.224 207.200,247.324 205.848,248.590 204.196 C 255.904 194.647,268.949 185.882,280.400 182.823 C 282.270 182.324,284.250 181.768,284.800 181.589 L 285.800 181.263 284.800 181.275 C 284.250 181.281,282.540 181.637,281.000 182.065 M310.800 181.669 C 311.570 181.883,312.920 182.248,313.800 182.482 C 319.498 183.996,323.616 185.714,329.099 188.866 C 346.600 198.926,358.864 218.469,359.877 237.911 C 360.007 240.392,360.222 242.491,360.356 242.574 C 360.709 242.794,360.148 233.761,359.662 231.400 C 359.435 230.300,359.048 228.590,358.800 227.600 C 358.553 226.610,358.251 225.303,358.129 224.695 C 358.007 224.087,357.749 223.492,357.554 223.371 C 357.359 223.251,357.200 222.801,357.200 222.371 C 357.200 221.941,357.041 221.277,356.847 220.895 C 356.652 220.513,356.311 219.750,356.089 219.200 C 352.794 211.048,348.708 205.049,341.789 198.200 C 337.365 193.821,337.097 193.588,334.191 191.605 C 333.096 190.858,332.140 190.101,332.067 189.923 C 331.993 189.745,331.751 189.600,331.528 189.600 C 331.306 189.600,330.646 189.267,330.062 188.861 C 325.783 185.883,313.518 181.132,310.400 181.245 C 309.568 181.276,309.635 181.347,310.800 181.669 M342.800 187.783 C 342.800 187.925,343.817 188.977,345.059 190.120 C 347.563 192.424,350.519 195.486,352.232 197.548 C 354.532 200.317,357.584 204.617,357.592 205.100 C 357.596 205.375,357.735 205.601,357.900 205.603 C 358.065 205.605,358.404 206.010,358.653 206.503 C 358.902 206.996,359.892 208.941,360.853 210.824 C 369.230 227.242,370.811 247.034,365.146 264.571 C 364.016 268.068,363.508 269.411,362.753 270.895 C 362.559 271.277,362.408 271.817,362.418 272.095 C 362.465 273.438,365.269 266.460,366.475 262.000 C 373.629 235.530,364.856 206.171,344.700 189.132 C 343.655 188.248,342.800 187.641,342.800 187.783 M244.768 208.700 C 244.456 209.305,244.111 209.890,244.001 210.000 C 243.437 210.562,240.026 217.256,239.211 219.400 C 239.044 219.840,238.719 220.650,238.490 221.200 C 234.567 230.601,233.600 247.434,236.392 257.700 C 236.616 258.525,236.959 259.785,237.153 260.500 C 238.202 264.371,242.616 274.400,243.269 274.400 C 243.425 274.400,242.588 272.375,241.408 269.900 C 231.851 249.843,233.337 227.066,245.405 208.648 C 245.783 208.072,245.922 207.600,245.714 207.600 C 245.505 207.600,245.080 208.095,244.768 208.700 M359.921 247.800 C 359.632 252.348,358.659 257.485,357.232 262.000 C 356.303 264.938,356.270 265.109,356.730 264.580 C 356.912 264.371,357.290 263.390,357.569 262.400 C 357.849 261.410,358.240 260.287,358.439 259.905 C 358.638 259.523,358.800 258.679,358.800 258.029 C 358.800 257.379,358.980 256.736,359.200 256.600 C 359.420 256.464,359.600 255.632,359.600 254.750 C 359.600 253.869,359.786 252.799,360.014 252.374 C 360.246 251.940,360.378 249.799,360.314 247.500 L 360.200 243.400 359.921 247.800 M355.101 267.662 C 354.499 269.025,354.082 270.215,354.174 270.307 C 354.410 270.543,356.460 265.981,356.315 265.544 C 356.249 265.347,355.703 266.300,355.101 267.662 M352.007 273.787 C 346.968 282.915,338.249 291.649,328.668 297.166 C 326.726 298.285,325.066 299.200,324.980 299.200 C 324.894 299.200,323.861 299.640,322.685 300.178 C 320.756 301.061,316.990 302.381,313.200 303.504 C 312.260 303.782,312.078 303.932,312.644 303.959 C 315.054 304.076,326.134 299.533,330.272 296.732 C 331.192 296.109,332.066 295.600,332.214 295.600 C 332.363 295.600,332.973 295.195,333.571 294.700 C 334.169 294.205,335.267 293.350,336.012 292.800 C 339.151 290.484,343.574 286.240,346.232 282.993 C 349.503 279.000,354.333 271.399,353.885 270.951 C 353.774 270.841,352.929 272.117,352.007 273.787 M361.087 274.707 C 352.756 290.639,339.750 302.501,323.600 308.897 C 323.050 309.115,322.287 309.452,321.905 309.647 C 321.523 309.841,320.936 310.000,320.600 310.000 C 320.264 310.000,319.677 310.158,319.295 310.351 C 318.139 310.935,315.796 311.600,314.895 311.600 C 314.429 311.600,313.924 311.799,313.774 312.043 C 312.661 313.843,327.495 308.151,334.487 304.095 C 342.214 299.612,351.699 290.586,357.075 282.600 C 359.124 279.556,362.556 273.223,362.297 272.964 C 362.189 272.856,361.645 273.640,361.087 274.707 M243.600 274.942 C 243.600 277.353,258.853 294.000,261.062 294.000 C 261.321 294.000,261.593 294.142,261.667 294.314 C 262.506 296.293,279.393 304.099,282.539 303.963 C 283.012 303.942,282.230 303.573,280.800 303.142 C 271.841 300.444,263.551 295.933,256.839 290.103 C 254.276 287.876,253.031 286.610,249.092 282.220 C 248.702 281.786,247.459 280.074,246.330 278.415 C 244.055 275.076,243.600 274.497,243.600 274.942 M284.200 304.400 C 284.640 304.589,285.630 304.735,286.400 304.725 L 287.800 304.705 286.600 304.400 C 284.803 303.943,283.136 303.943,284.200 304.400 M308.800 304.400 C 307.884 304.693,307.917 304.723,309.200 304.754 C 309.970 304.773,310.870 304.613,311.200 304.400 C 311.954 303.913,310.322 303.913,308.800 304.400 M288.600 305.181 C 289.350 305.521,295.129 305.774,294.767 305.451 C 294.675 305.370,293.070 305.194,291.200 305.060 C 289.039 304.907,288.092 304.951,288.600 305.181 M302.400 305.200 L 300.200 305.470 303.200 305.507 C 304.850 305.527,306.560 305.389,307.000 305.200 C 307.970 304.783,305.801 304.783,302.400 305.200 M283.400 312.800 C 283.840 312.989,284.740 313.144,285.400 313.144 C 286.423 313.144,286.482 313.093,285.800 312.800 C 285.360 312.611,284.460 312.456,283.800 312.456 C 282.777 312.456,282.718 312.507,283.400 312.800 M309.800 312.800 C 309.118 313.093,309.177 313.144,310.200 313.144 C 310.860 313.144,311.760 312.989,312.200 312.800 C 312.882 312.507,312.823 312.456,311.800 312.456 C 311.140 312.456,310.240 312.611,309.800 312.800 M288.200 313.623 C 290.363 314.070,293.967 314.050,292.200 313.600 C 291.540 313.432,290.010 313.294,288.800 313.293 C 286.618 313.292,286.613 313.295,288.200 313.623 M303.400 313.600 C 301.633 314.050,305.237 314.070,307.400 313.623 C 308.987 313.295,308.982 313.292,306.800 313.293 C 305.590 313.294,304.060 313.432,303.400 313.600 M296.112 314.295 C 297.164 314.377,298.784 314.376,299.712 314.292 C 300.640 314.208,299.780 314.141,297.800 314.142 C 295.820 314.143,295.060 314.212,296.112 314.295 " stroke="none" fill="#6092a7" fill-rule="evenodd"></path></g></svg>