<svg xmlns="http://www.w3.org/2000/svg" xmlns:xlink="http://www.w3.org/1999/xlink" id="svg" width="400" height="400" viewBox="0, 0, 400,400"><g id="svgg"><path id="path0" d="M181.200 162.991 C 158.777 166.226,141.942 182.590,138.189 204.800 C 137.384 209.560,137.319 351.395,138.121 353.600 C 139.378 357.061,141.591 359.600,144.800 361.266 L 146.600 362.200 170.010 362.309 L 193.420 362.418 193.921 359.238 C 194.722 354.148,196.999 349.335,200.484 345.366 C 202.047 343.585,201.934 343.555,194.246 343.689 L 187.925 343.800 187.396 345.338 C 186.076 349.181,184.293 350.000,177.239 350.000 C 167.995 350.000,162.864 348.091,157.386 342.614 C 144.463 329.690,149.125 308.224,166.300 301.572 L 168.800 300.604 168.800 295.768 C 168.800 290.526,169.491 287.482,171.449 284.100 C 172.678 281.979,172.940 281.929,167.199 284.900 C 159.456 288.906,153.437 288.644,150.915 284.192 C 149.801 282.226,149.535 261.812,150.568 257.600 C 152.524 249.622,156.924 243.841,163.600 240.478 C 169.087 237.714,169.779 237.630,187.300 237.614 C 203.219 237.600,204.056 237.518,201.027 236.272 C 198.882 235.390,195.860 232.258,194.672 229.687 C 193.802 227.804,193.800 227.738,193.689 195.100 L 193.578 162.400 189.089 162.450 C 186.620 162.478,183.070 162.721,181.200 162.991 M206.400 193.600 L 206.400 224.800 219.842 224.800 C 230.775 224.800,233.738 224.918,235.714 225.429 C 242.358 227.151,246.975 231.545,249.371 238.428 C 250.554 241.823,250.273 270.715,249.022 274.414 C 246.196 282.768,239.327 287.579,230.200 287.597 L 227.000 287.603 228.304 288.398 C 232.248 290.802,232.177 297.224,228.185 299.181 L 227.000 299.762 229.800 300.432 C 256.417 306.809,256.910 342.341,230.480 349.431 C 229.133 349.793,226.351 350.000,222.840 350.000 C 212.881 350.000,206.400 354.423,206.400 361.221 L 206.400 362.419 229.900 362.309 L 253.400 362.200 255.200 361.266 C 257.596 360.024,260.067 357.573,261.243 355.273 L 262.200 353.400 262.329 281.200 C 262.464 205.808,262.473 206.289,260.761 199.731 C 257.722 188.088,248.920 176.009,239.400 170.420 C 229.707 164.728,221.473 162.447,210.500 162.413 L 206.400 162.400 206.400 193.600 M209.000 262.133 C 207.680 262.824,206.510 263.482,206.400 263.595 C 206.181 263.819,205.142 264.399,201.200 266.496 C 199.770 267.257,197.970 268.237,197.200 268.674 C 196.430 269.110,193.640 270.622,191.000 272.034 L 186.200 274.600 197.152 274.707 C 211.968 274.851,212.400 274.596,212.400 265.741 C 212.400 260.107,212.555 260.272,209.000 262.133 " stroke="none" fill="#545c6c" fill-rule="evenodd"></path><path id="path1" d="M172.611 12.383 C 172.469 12.612,171.641 12.800,170.771 12.800 C 169.901 12.800,168.877 12.958,168.495 13.151 C 168.113 13.344,167.080 13.716,166.200 13.977 C 164.569 14.462,163.149 15.014,161.905 15.647 C 161.523 15.841,160.938 16.000,160.605 16.000 C 160.272 16.000,160.000 16.180,160.000 16.400 C 160.000 16.620,159.640 16.800,159.200 16.800 C 158.760 16.800,158.400 16.980,158.400 17.200 C 158.400 17.420,158.040 17.600,157.600 17.600 C 157.160 17.600,156.800 17.780,156.800 18.000 C 156.800 18.220,156.522 18.400,156.183 18.400 C 155.844 18.400,155.180 18.760,154.708 19.200 C 154.236 19.640,153.613 20.000,153.325 20.000 C 153.036 20.000,152.800 20.180,152.800 20.400 C 152.800 20.620,152.548 20.800,152.241 20.800 C 151.933 20.800,150.762 21.700,149.639 22.800 C 148.515 23.900,147.491 24.800,147.363 24.800 C 147.142 24.800,144.537 27.447,141.700 30.554 C 140.985 31.337,140.400 32.186,140.400 32.442 C 140.400 32.697,140.084 33.197,139.697 33.553 C 139.311 33.909,138.740 34.695,138.430 35.300 C 138.119 35.905,137.715 36.400,137.532 36.400 C 137.350 36.400,137.200 36.760,137.200 37.200 C 137.200 37.640,137.020 38.000,136.800 38.000 C 136.580 38.000,136.400 38.360,136.400 38.800 C 136.400 39.240,136.220 39.600,136.000 39.600 C 135.780 39.600,135.600 39.960,135.600 40.400 C 135.600 40.840,135.420 41.200,135.200 41.200 C 134.980 41.200,134.800 41.560,134.800 42.000 C 134.800 42.440,134.620 42.800,134.400 42.800 C 134.180 42.800,134.000 43.162,134.000 43.605 C 134.000 44.048,133.820 44.768,133.600 45.205 C 133.380 45.642,133.020 46.358,132.800 46.795 C 132.580 47.232,132.400 48.132,132.400 48.795 C 132.400 49.458,132.220 50.000,132.000 50.000 C 131.780 50.000,131.600 50.799,131.600 51.776 C 131.600 52.753,131.420 53.664,131.200 53.800 C 130.950 53.955,130.800 57.937,130.800 64.424 L 130.800 74.800 129.275 74.800 C 125.634 74.800,120.800 79.004,120.800 82.171 C 120.800 82.711,120.620 83.264,120.400 83.400 C 119.874 83.725,119.874 91.875,120.400 92.200 C 120.620 92.336,120.800 92.753,120.800 93.126 C 120.800 94.280,123.340 97.964,124.500 98.493 C 125.105 98.769,125.600 99.131,125.600 99.298 C 125.600 99.464,125.960 99.600,126.400 99.600 C 126.840 99.600,127.200 99.735,127.200 99.900 C 127.200 100.065,137.235 100.137,149.500 100.061 C 172.873 99.916,174.440 100.000,180.000 101.712 C 192.073 105.430,201.911 115.803,205.122 128.200 C 205.945 131.378,206.400 134.095,206.400 135.831 C 206.400 137.247,206.540 137.601,207.100 137.606 C 207.932 137.613,210.854 138.600,212.387 139.393 C 214.675 140.576,217.298 143.984,218.166 146.900 C 218.998 149.691,219.200 146.419,219.200 130.200 L 219.200 112.800 221.800 112.800 C 223.267 112.800,224.400 112.626,224.400 112.400 C 224.400 112.180,224.839 112.000,225.376 112.000 C 225.913 112.000,226.464 111.820,226.600 111.600 C 226.736 111.380,227.157 111.200,227.535 111.200 C 227.914 111.200,228.483 110.840,228.800 110.400 C 229.117 109.960,229.611 109.600,229.897 109.600 C 230.489 109.600,234.800 105.416,234.800 104.842 C 234.800 104.636,234.935 104.407,235.100 104.333 C 235.548 104.134,237.099 100.825,237.600 99.000 C 238.548 95.546,237.785 51.306,236.759 50.220 C 236.562 50.011,236.400 49.347,236.400 48.744 C 236.400 48.141,236.220 47.536,236.000 47.400 C 235.780 47.264,235.600 46.724,235.600 46.200 C 235.600 45.676,235.420 45.136,235.200 45.000 C 234.980 44.864,234.800 44.313,234.800 43.776 C 234.800 43.239,234.620 42.800,234.400 42.800 C 234.180 42.800,234.000 42.440,234.000 42.000 C 234.000 41.560,233.820 41.200,233.600 41.200 C 233.380 41.200,233.200 40.840,233.200 40.400 C 233.200 39.960,233.020 39.600,232.800 39.600 C 232.580 39.600,232.400 39.240,232.400 38.800 C 232.400 38.360,232.241 38.000,232.047 38.000 C 231.852 38.000,231.593 37.685,231.471 37.300 C 231.242 36.577,229.968 34.353,229.581 34.000 C 229.460 33.890,228.922 33.172,228.385 32.404 C 226.127 29.175,220.825 23.873,217.596 21.615 C 216.828 21.078,216.110 20.540,216.000 20.419 C 215.890 20.298,215.305 19.944,214.700 19.632 C 214.095 19.320,213.600 18.915,213.600 18.732 C 213.600 18.550,213.240 18.400,212.800 18.400 C 212.360 18.400,212.000 18.220,212.000 18.000 C 212.000 17.780,211.640 17.600,211.200 17.600 C 210.760 17.600,210.400 17.420,210.400 17.200 C 210.400 16.980,210.040 16.800,209.600 16.800 C 209.160 16.800,208.800 16.620,208.800 16.400 C 208.800 16.180,208.440 16.000,208.000 16.000 C 207.560 16.000,207.200 15.820,207.200 15.600 C 207.200 15.380,206.761 15.200,206.224 15.200 C 205.687 15.200,205.136 15.020,205.000 14.800 C 204.864 14.580,204.324 14.400,203.800 14.400 C 203.276 14.400,202.736 14.220,202.600 14.000 C 202.464 13.780,201.859 13.600,201.256 13.600 C 200.653 13.600,199.989 13.438,199.780 13.241 C 198.778 12.295,173.165 11.486,172.611 12.383 M131.092 112.641 C 130.932 112.802,130.800 115.186,130.800 117.938 C 130.800 123.918,131.295 125.863,133.766 129.600 C 135.012 131.484,138.273 134.800,138.880 134.800 C 139.075 134.800,139.582 135.124,140.007 135.521 C 142.710 138.039,153.852 138.596,184.300 137.735 L 193.600 137.472 193.600 135.781 C 193.600 126.162,185.114 116.099,174.655 113.317 C 172.037 112.620,131.738 111.995,131.092 112.641 M117.200 150.000 C 116.870 150.213,116.015 150.391,115.300 150.394 C 114.585 150.397,114.000 150.580,114.000 150.800 C 114.000 151.020,113.561 151.200,113.024 151.200 C 112.487 151.200,111.936 151.380,111.800 151.600 C 111.664 151.820,111.203 152.000,110.776 152.000 C 110.349 152.000,110.000 152.180,110.000 152.400 C 110.000 152.620,109.640 152.800,109.200 152.800 C 108.760 152.800,108.400 152.980,108.400 153.200 C 108.400 153.420,108.040 153.600,107.600 153.600 C 107.160 153.600,106.800 153.780,106.800 154.000 C 106.800 154.220,106.440 154.400,106.000 154.400 C 105.560 154.400,105.200 154.580,105.200 154.800 C 105.200 155.020,104.975 155.200,104.700 155.201 C 104.425 155.201,103.570 155.741,102.800 156.400 C 102.030 157.059,101.232 157.599,101.027 157.599 C 99.779 157.602,92.000 167.065,92.000 168.581 C 92.000 168.921,91.820 169.200,91.600 169.200 C 91.380 169.200,91.200 169.560,91.200 170.000 C 91.200 170.440,91.020 170.800,90.800 170.800 C 90.580 170.800,90.400 171.160,90.400 171.600 C 90.400 172.040,90.220 172.400,90.000 172.400 C 89.780 172.400,89.600 172.749,89.600 173.176 C 89.600 173.603,89.420 174.064,89.200 174.200 C 88.980 174.336,88.800 174.887,88.800 175.424 C 88.800 175.961,88.620 176.400,88.400 176.400 C 88.180 176.400,88.000 177.120,88.000 178.000 C 88.000 178.880,87.820 179.600,87.600 179.600 C 87.337 179.600,87.200 189.600,87.200 208.800 L 87.200 238.000 101.969 238.000 L 116.738 238.000 116.869 228.300 C 117.010 217.888,117.132 217.230,119.304 215.177 C 120.489 214.057,122.964 212.800,123.984 212.800 L 124.800 212.800 124.800 300.400 L 124.800 388.000 152.000 388.000 L 179.200 388.000 179.200 375.400 L 179.200 362.800 163.746 362.800 C 153.014 362.800,147.790 362.655,146.646 362.325 C 143.314 361.364,139.845 358.313,138.320 355.000 L 137.400 353.000 137.279 282.400 C 137.152 208.927,137.203 206.227,138.834 200.010 C 140.068 195.304,142.637 189.384,144.859 186.128 C 145.487 185.208,146.000 184.263,146.000 184.028 C 146.000 183.793,146.141 183.600,146.314 183.600 C 146.486 183.600,146.972 183.015,147.393 182.300 C 150.329 177.313,160.416 169.507,168.200 166.199 C 169.080 165.824,170.160 165.359,170.600 165.164 C 171.644 164.702,175.668 163.615,178.200 163.111 C 179.300 162.893,183.215 162.631,186.900 162.530 L 193.600 162.347 193.600 156.238 L 193.600 150.128 184.300 149.865 C 169.639 149.450,117.889 149.555,117.200 150.000 M212.700 149.899 L 206.400 150.020 206.400 156.210 L 206.400 162.400 212.369 162.400 C 217.904 162.400,220.020 162.625,224.200 163.660 C 244.397 168.659,259.112 184.810,262.227 205.400 C 262.977 210.359,263.068 350.785,262.322 353.354 C 261.099 357.567,257.567 361.099,253.354 362.322 C 252.203 362.656,247.049 362.800,236.254 362.800 L 220.800 362.800 220.800 375.400 L 220.800 388.000 248.000 388.000 L 275.200 388.000 275.200 300.400 C 275.200 212.908,275.201 212.800,276.004 212.800 C 277.702 212.800,280.426 214.494,281.716 216.352 L 283.000 218.200 283.136 228.100 L 283.272 238.000 298.036 238.000 L 312.800 238.000 312.800 209.024 C 312.800 190.137,312.661 179.961,312.400 179.800 C 312.180 179.664,312.000 178.944,312.000 178.200 C 312.000 177.456,311.820 176.736,311.600 176.600 C 311.380 176.464,311.200 175.924,311.200 175.400 C 311.200 174.876,311.020 174.336,310.800 174.200 C 310.580 174.064,310.400 173.603,310.400 173.176 C 310.400 172.749,310.220 172.400,310.000 172.400 C 309.780 172.400,309.600 172.158,309.600 171.861 C 309.600 170.888,307.017 166.168,305.201 163.823 C 303.864 162.096,299.275 157.600,298.849 157.600 C 298.598 157.600,297.828 157.060,297.137 156.400 C 296.446 155.740,295.638 155.200,295.341 155.200 C 295.043 155.200,294.800 155.020,294.800 154.800 C 294.800 154.580,294.440 154.400,294.000 154.400 C 293.560 154.400,293.199 154.265,293.197 154.100 C 293.193 153.741,291.256 152.800,290.520 152.800 C 290.234 152.800,290.000 152.620,290.000 152.400 C 290.000 152.180,289.651 152.000,289.224 152.000 C 288.797 152.000,288.336 151.820,288.200 151.600 C 288.064 151.380,287.513 151.200,286.976 151.200 C 286.439 151.200,286.000 151.020,286.000 150.800 C 286.000 150.580,285.291 150.400,284.424 150.400 C 283.557 150.400,282.736 150.220,282.600 150.000 C 282.374 149.634,230.418 149.559,212.700 149.899 M186.400 287.800 C 186.817 288.302,186.756 288.400,186.025 288.400 C 185.545 288.400,185.263 288.222,185.397 288.005 C 185.793 287.364,184.295 288.034,183.262 288.960 C 181.543 290.500,181.200 291.701,181.200 296.180 L 181.200 300.400 204.300 300.386 C 223.876 300.374,227.252 300.290,226.428 299.833 L 225.457 299.295 226.672 299.028 C 231.732 297.917,231.432 288.400,226.337 288.400 C 225.640 288.400,225.584 288.301,226.000 287.800 C 226.442 287.268,224.197 287.200,206.200 287.200 C 188.203 287.200,185.958 287.268,186.400 287.800 M187.400 362.800 C 183.880 362.927,181.288 363.069,181.640 363.115 C 184.570 363.502,187.133 367.499,187.492 372.239 L 187.716 375.211 200.158 375.106 L 212.600 375.000 212.809 371.522 C 213.054 367.434,214.237 365.275,217.045 363.793 L 218.690 362.925 209.445 362.663 C 199.946 362.395,198.360 362.405,187.400 362.800 " stroke="none" fill="#fbbb93" fill-rule="evenodd"></path><path id="path2" d="M131.067 100.267 C 130.920 100.413,130.800 103.248,130.800 106.567 L 130.801 112.600 151.300 112.603 C 173.610 112.607,174.249 112.661,179.312 114.977 C 187.091 118.535,193.600 128.037,193.600 135.835 L 193.600 137.580 187.300 137.690 L 181.000 137.800 181.000 143.800 L 181.000 149.800 187.300 149.910 L 193.600 150.020 193.600 156.310 L 193.600 162.600 200.000 162.600 L 206.400 162.600 206.400 156.310 L 206.400 150.020 212.700 149.910 L 219.000 149.800 219.136 148.836 C 219.218 148.258,219.018 147.730,218.636 147.516 C 218.286 147.320,218.000 146.844,218.000 146.458 C 218.000 145.542,215.780 142.055,214.446 140.877 C 212.731 139.362,208.819 137.620,207.100 137.606 C 206.540 137.601,206.400 137.247,206.400 135.831 C 206.400 119.463,192.692 104.075,174.869 100.435 C 172.535 99.958,131.533 99.801,131.067 100.267 M121.775 213.517 C 117.206 216.065,117.027 216.603,116.869 228.300 L 116.738 238.000 120.769 238.000 L 124.800 238.000 124.800 225.400 L 124.800 212.800 123.900 212.817 C 123.405 212.826,122.449 213.141,121.775 213.517 M275.200 225.400 L 275.200 238.000 279.236 238.000 L 283.272 238.000 283.136 228.100 L 283.000 218.200 281.716 216.352 C 280.426 214.494,277.702 212.800,276.004 212.800 C 275.216 212.800,275.200 213.044,275.200 225.400 M186.600 237.627 C 168.639 237.876,168.783 237.858,163.600 240.474 C 156.921 243.846,152.523 249.625,150.568 257.600 C 149.535 261.812,149.801 282.226,150.915 284.192 C 153.946 289.544,162.045 288.605,173.600 281.564 C 178.299 278.701,184.904 275.455,186.400 275.273 C 187.873 275.095,188.019 275.011,187.206 274.811 C 186.352 274.601,186.889 274.207,191.006 272.017 C 193.643 270.615,196.430 269.110,197.200 268.674 C 197.970 268.237,199.770 267.257,201.200 266.496 C 205.261 264.336,206.185 263.817,206.400 263.576 C 206.510 263.452,208.310 262.509,210.400 261.480 C 214.235 259.591,220.052 256.506,223.000 254.797 C 223.880 254.287,225.075 253.625,225.656 253.327 C 231.813 250.167,233.173 240.666,227.821 238.200 C 226.314 237.506,210.874 237.291,186.600 237.627 M185.400 288.000 C 185.264 288.220,185.534 288.400,186.000 288.400 C 186.466 288.400,186.736 288.220,186.600 288.000 C 186.464 287.780,186.194 287.600,186.000 287.600 C 185.806 287.600,185.536 287.780,185.400 288.000 M225.800 288.000 C 225.664 288.220,225.917 288.400,226.362 288.400 C 231.432 288.400,231.714 297.921,226.677 299.027 C 225.698 299.242,225.589 299.362,226.108 299.652 C 227.984 300.703,231.201 297.031,231.199 293.841 C 231.196 290.375,227.083 285.925,225.800 288.000 M258.581 358.900 L 257.000 360.600 258.700 359.019 C 260.281 357.548,260.584 357.200,260.281 357.200 C 260.216 357.200,259.451 357.965,258.581 358.900 M140.000 357.725 C 140.000 357.794,140.585 358.379,141.300 359.025 L 142.600 360.200 141.425 358.900 C 140.330 357.688,140.000 357.416,140.000 357.725 M179.111 375.200 L 179.222 388.000 183.611 388.000 L 188.000 388.000 187.993 382.300 C 187.977 369.307,186.028 363.433,181.640 363.160 C 181.288 363.138,181.450 362.976,182.000 362.800 C 182.800 362.544,182.601 362.472,181.000 362.440 L 179.000 362.400 179.111 375.200 M217.908 362.683 C 218.712 362.838,218.621 362.961,217.108 363.760 C 214.252 365.267,213.029 367.449,212.864 371.332 C 212.787 373.130,212.561 374.771,212.362 374.980 C 212.163 375.189,212.000 378.204,212.000 381.680 L 212.000 388.000 216.400 388.000 L 220.800 388.000 220.800 375.433 C 220.800 365.754,220.915 362.820,221.300 362.665 C 221.575 362.554,220.720 362.473,219.400 362.486 C 218.080 362.499,217.409 362.587,217.908 362.683 " stroke="none" fill="#e6754e" fill-rule="evenodd"></path><path id="path3" d="M225.200 231.200 L 225.200 237.200 226.141 237.200 C 231.376 237.200,233.271 244.659,229.477 250.331 L 228.319 252.062 229.180 252.979 C 231.594 255.548,235.050 256.395,243.134 256.398 L 249.668 256.400 249.534 247.700 L 249.400 239.000 248.052 236.200 C 244.580 228.992,238.101 225.200,229.254 225.200 L 225.200 225.200 225.200 231.200 M168.827 301.070 C 149.631 307.744,144.060 330.170,158.400 343.046 C 160.686 345.099,161.818 345.999,162.114 346.000 C 162.287 346.000,162.902 346.311,163.482 346.690 C 169.357 350.540,183.764 350.758,186.051 347.032 C 189.428 341.530,185.948 337.600,177.698 337.600 C 173.141 337.600,171.031 337.158,168.697 335.715 C 159.168 329.825,160.947 315.868,171.600 312.931 C 174.031 312.261,225.697 312.182,228.154 312.844 C 240.763 316.245,240.684 333.152,228.040 337.168 C 227.292 337.406,224.603 337.600,222.064 337.600 C 214.107 337.600,208.642 339.007,204.475 342.130 C 203.028 343.214,198.024 348.793,198.009 349.338 C 198.004 349.524,197.662 350.154,197.248 350.738 C 196.151 352.286,194.000 359.484,194.000 361.606 C 194.000 362.362,194.281 362.400,199.948 362.400 L 205.896 362.400 206.090 360.700 C 206.930 353.332,211.697 350.152,222.707 349.612 C 234.280 349.044,239.413 346.729,244.800 339.645 C 250.213 332.527,251.130 320.056,246.719 313.538 C 246.323 312.954,246.000 312.324,246.000 312.138 C 245.999 311.500,242.978 308.114,240.381 305.840 C 234.543 300.728,232.843 300.498,199.427 300.312 L 171.454 300.157 168.827 301.070 " stroke="none" fill="#fbc3cb" fill-rule="evenodd"></path><path id="path4" d="M193.780 162.908 C 192.996 164.950,193.837 227.879,194.672 229.687 C 197.753 236.357,200.383 237.370,215.000 237.516 C 229.910 237.666,230.936 238.099,231.318 244.400 L 231.452 246.600 231.526 244.159 C 231.632 240.658,228.956 237.200,226.141 237.200 L 225.200 237.200 225.200 231.200 L 225.200 225.200 229.254 225.200 C 233.921 225.200,235.528 225.538,239.786 227.419 C 242.254 228.509,246.497 232.973,247.940 236.000 C 248.622 237.430,249.184 238.380,249.190 238.112 C 249.244 235.513,243.891 228.968,240.171 227.085 C 236.011 224.980,234.408 224.800,219.845 224.800 L 206.405 224.800 206.302 193.700 L 206.200 162.600 200.091 162.490 C 195.316 162.403,193.939 162.495,193.780 162.908 M244.800 174.125 C 244.800 174.194,245.385 174.779,246.100 175.425 L 247.400 176.600 246.225 175.300 C 245.130 174.088,244.800 173.816,244.800 174.125 M262.596 280.200 C 262.596 320.020,262.643 336.251,262.700 316.268 C 262.757 296.286,262.757 263.706,262.700 243.868 C 262.643 224.031,262.596 240.380,262.596 280.200 M137.396 280.400 C 137.396 319.670,137.443 335.735,137.500 316.100 C 137.557 296.465,137.557 264.335,137.500 244.700 C 137.443 225.065,137.396 241.130,137.396 280.400 M249.534 247.637 L 249.668 256.400 243.134 256.398 C 235.050 256.395,231.594 255.548,229.180 252.979 L 228.319 252.062 229.505 250.331 C 230.157 249.379,230.811 248.150,230.959 247.600 C 231.110 247.041,230.864 247.303,230.403 248.195 C 229.452 250.032,227.057 252.605,225.600 253.355 C 225.050 253.638,223.880 254.286,223.000 254.795 C 222.120 255.304,220.230 256.342,218.800 257.102 C 217.370 257.862,215.345 258.960,214.300 259.542 L 212.401 260.600 212.399 265.600 C 212.396 274.441,211.864 274.796,198.600 274.801 C 185.196 274.806,185.790 274.646,173.600 281.538 C 170.881 283.075,168.800 289.233,168.800 295.740 L 168.800 300.604 166.300 301.572 C 149.125 308.224,144.463 329.690,157.386 342.614 C 159.761 344.988,163.448 347.623,164.350 347.591 C 164.755 347.577,162.638 346.019,162.200 346.008 C 161.826 346.000,160.788 345.191,158.400 343.046 C 141.482 327.854,153.250 300.000,176.587 300.000 L 181.200 300.000 181.200 295.974 C 181.200 291.869,181.448 290.917,182.950 289.265 C 184.912 287.107,184.623 287.128,210.800 287.236 C 233.170 287.329,235.151 287.283,237.000 286.622 C 243.084 284.450,246.958 280.516,249.022 274.414 C 250.011 271.490,250.600 240.764,249.694 239.337 C 249.532 239.082,249.460 242.817,249.534 247.637 M227.293 300.227 C 227.418 300.351,228.693 300.699,230.125 300.999 C 234.966 302.011,239.710 304.722,243.079 308.400 C 244.923 310.414,245.999 311.810,246.008 312.200 C 246.019 312.638,247.577 314.755,247.591 314.350 C 247.654 312.581,241.242 305.375,237.996 303.568 C 234.371 301.550,226.004 298.937,227.293 300.227 M171.400 312.962 C 160.927 315.958,159.272 329.889,168.697 335.715 C 171.031 337.158,173.141 337.600,177.698 337.600 C 185.948 337.600,189.428 341.530,186.051 347.032 C 184.628 349.350,183.088 349.725,175.850 349.517 C 172.322 349.415,169.788 349.470,170.218 349.638 C 171.691 350.214,182.738 350.053,183.920 349.438 C 185.499 348.616,186.796 347.087,187.396 345.338 L 187.925 343.800 194.246 343.689 C 201.934 343.555,202.047 343.585,200.484 345.366 C 197.003 349.330,194.722 354.148,193.924 359.219 L 193.427 362.379 188.013 362.502 L 182.600 362.625 188.113 362.712 C 192.241 362.778,193.661 362.674,193.769 362.300 C 193.848 362.025,194.124 360.720,194.381 359.400 C 195.052 355.964,196.373 351.973,197.248 350.738 C 197.662 350.154,198.004 349.524,198.009 349.338 C 198.024 348.793,203.028 343.214,204.475 342.130 C 208.642 339.007,214.107 337.600,222.064 337.600 C 224.603 337.600,227.292 337.406,228.040 337.168 C 240.684 333.152,240.763 316.245,228.154 312.844 C 225.825 312.216,173.629 312.325,171.400 312.962 M247.630 315.000 C 247.614 315.220,247.952 316.300,248.382 317.400 C 248.811 318.500,249.158 319.040,249.152 318.600 C 249.140 317.760,247.681 314.307,247.630 315.000 M249.400 325.000 C 249.400 327.954,249.522 330.062,249.672 329.685 C 249.821 329.308,249.944 327.200,249.944 325.000 C 249.944 322.800,249.821 320.692,249.672 320.315 C 249.522 319.938,249.400 322.046,249.400 325.000 M248.212 333.161 C 247.799 334.524,247.313 335.730,247.131 335.843 C 246.949 335.955,246.800 336.227,246.800 336.447 C 246.800 336.667,246.954 336.752,247.142 336.636 C 247.619 336.341,249.288 331.664,249.108 331.125 C 249.028 330.883,248.624 331.799,248.212 333.161 M245.819 338.226 C 244.396 340.398,241.809 343.164,239.780 344.683 C 237.043 346.731,236.891 346.892,238.361 346.177 C 240.036 345.364,245.278 340.183,246.168 338.461 C 246.955 336.941,246.752 336.804,245.819 338.226 M235.843 347.131 C 235.730 347.313,234.524 347.799,233.161 348.212 C 231.799 348.624,230.883 349.028,231.125 349.108 C 231.664 349.288,236.341 347.619,236.636 347.142 C 236.752 346.954,236.667 346.800,236.447 346.800 C 236.227 346.800,235.955 346.949,235.843 347.131 M166.200 348.400 C 167.080 348.807,168.160 349.146,168.600 349.152 C 169.040 349.158,168.500 348.811,167.400 348.382 C 164.886 347.400,164.067 347.412,166.200 348.400 M223.200 349.600 L 218.200 349.838 223.600 349.891 C 226.570 349.920,229.360 349.789,229.800 349.600 C 230.469 349.313,230.403 349.265,229.400 349.309 C 228.740 349.338,225.950 349.469,223.200 349.600 M213.146 351.003 C 209.267 353.023,206.291 357.240,206.230 360.800 L 206.200 362.600 211.701 362.618 L 217.201 362.635 211.801 362.506 L 206.400 362.377 206.400 361.200 C 206.400 357.004,210.621 352.182,215.800 350.462 C 216.927 350.087,216.940 350.062,216.000 350.050 C 215.450 350.043,214.166 350.472,213.146 351.003 M155.300 362.700 C 159.645 362.764,166.755 362.764,171.100 362.700 C 175.445 362.635,171.890 362.582,163.200 362.582 C 154.510 362.582,150.955 362.635,155.300 362.700 M229.074 362.699 C 233.294 362.764,240.314 362.764,244.674 362.700 C 249.033 362.635,245.580 362.582,237.000 362.582 C 228.420 362.582,224.853 362.635,229.074 362.699 " stroke="none" fill="#f38bab" fill-rule="evenodd"></path></g></svg>