<svg xmlns="http://www.w3.org/2000/svg" xmlns:xlink="http://www.w3.org/1999/xlink" id="svg" width="400" height="400" viewBox="0, 0, 400,400"><g id="svgg"><path id="path0" d="M206.200 50.419 C 205.320 50.852,202.710 53.151,200.400 55.528 C 196.354 59.690,193.946 61.625,191.400 62.759 C 190.740 63.053,189.879 63.458,189.487 63.658 C 187.239 64.809,178.500 65.470,174.573 64.787 C 170.749 64.122,165.258 61.541,163.600 59.629 C 162.473 58.329,155.605 57.664,154.271 58.725 C 154.012 58.931,153.260 59.201,152.600 59.326 C 150.166 59.784,148.981 60.068,148.200 60.380 C 147.760 60.556,145.060 61.461,142.200 62.392 C 136.661 64.194,131.011 66.502,125.800 69.091 C 120.335 71.806,117.405 73.388,117.267 73.700 C 117.193 73.865,116.878 74.000,116.567 74.000 C 116.255 74.000,116.000 74.180,116.000 74.400 C 116.000 74.620,115.807 74.800,115.572 74.800 C 115.337 74.800,114.359 75.340,113.400 76.000 C 112.441 76.660,111.463 77.200,111.228 77.200 C 110.993 77.200,110.800 77.350,110.800 77.532 C 110.800 77.715,110.305 78.120,109.700 78.432 C 109.095 78.745,108.420 79.140,108.200 79.311 C 107.980 79.483,106.152 80.833,104.137 82.311 C 102.122 83.790,99.958 85.450,99.328 86.000 C 98.698 86.550,96.841 88.170,95.202 89.600 C 89.985 94.152,82.072 102.461,79.584 105.999 C 79.043 106.769,78.321 107.669,77.981 107.999 C 77.641 108.330,76.929 109.230,76.400 110.000 C 75.871 110.770,75.324 111.490,75.184 111.600 C 74.753 111.938,68.330 121.656,66.856 124.200 C 64.403 128.434,62.398 132.298,60.006 137.400 C 59.078 139.380,58.157 141.313,57.959 141.695 C 57.762 142.077,57.600 142.662,57.600 142.995 C 57.600 143.328,57.420 143.600,57.200 143.600 C 56.980 143.600,56.800 143.872,56.800 144.205 C 56.800 144.538,56.641 145.123,56.447 145.505 C 56.111 146.166,55.475 147.646,54.773 149.400 C 54.597 149.840,54.224 150.920,53.945 151.800 C 53.665 152.680,53.293 153.571,53.118 153.780 C 52.943 153.989,52.800 154.486,52.800 154.885 C 52.800 155.284,52.638 155.923,52.441 156.305 C 51.658 157.821,48.654 168.533,47.758 173.003 C 47.405 174.762,46.942 177.010,46.727 178.000 C 43.739 191.799,42.349 214.127,43.554 229.000 C 43.803 232.080,44.103 235.770,44.220 237.200 C 44.337 238.630,44.597 240.160,44.797 240.600 C 44.998 241.040,45.249 242.300,45.356 243.400 C 45.583 245.732,46.216 249.519,46.762 251.800 C 46.972 252.680,47.443 254.747,47.808 256.392 C 48.751 260.647,51.939 271.162,52.472 271.780 C 52.652 271.989,52.800 272.486,52.800 272.885 C 52.800 273.284,52.959 273.923,53.153 274.305 C 53.348 274.687,53.684 275.450,53.900 276.000 C 54.116 276.550,54.497 277.495,54.746 278.100 C 54.996 278.705,55.357 279.605,55.549 280.100 C 57.009 283.861,62.939 295.799,65.500 300.133 C 66.655 302.088,67.600 303.848,67.600 304.044 C 67.600 304.240,67.750 304.400,67.932 304.400 C 68.115 304.400,68.520 304.895,68.832 305.500 C 69.144 306.105,69.490 306.690,69.601 306.800 C 69.712 306.910,70.876 308.350,72.187 310.000 C 75.860 314.622,86.652 325.255,92.600 330.113 C 100.405 336.486,114.126 345.931,115.243 345.697 C 115.597 345.624,117.217 346.085,118.843 346.722 C 122.186 348.033,126.388 349.463,130.800 350.793 C 132.450 351.290,134.250 351.841,134.800 352.017 C 135.669 352.295,138.366 352.956,144.600 354.419 C 148.768 355.398,156.466 356.664,164.000 357.611 C 172.967 358.738,194.386 358.734,203.800 357.603 C 209.667 356.899,216.073 355.914,219.400 355.206 C 220.280 355.018,222.080 354.644,223.400 354.373 C 227.613 353.509,235.271 351.463,238.374 350.373 C 241.581 349.246,243.102 348.085,246.834 343.918 C 253.042 336.988,254.207 336.426,263.298 335.980 C 272.564 335.525,273.941 335.240,277.072 333.128 C 277.992 332.508,278.852 332.000,278.984 332.000 C 279.835 332.000,292.532 323.011,298.800 317.971 C 319.728 301.142,338.523 276.324,348.760 252.000 C 350.403 248.095,352.060 243.845,352.657 242.000 C 352.978 241.010,353.400 239.840,353.596 239.400 C 359.801 225.447,364.210 188.636,361.979 169.427 C 360.694 158.375,359.083 149.216,357.136 141.895 C 356.681 140.187,356.411 138.402,356.535 137.928 C 356.733 137.169,354.738 132.194,353.997 131.600 C 353.759 131.410,353.256 130.640,349.189 124.247 C 348.225 122.733,347.240 121.293,347.000 121.047 C 346.759 120.801,345.952 119.700,345.207 118.600 C 344.462 117.500,343.742 116.510,343.607 116.400 C 343.472 116.290,342.929 115.570,342.400 114.800 C 341.871 114.030,341.159 113.130,340.819 112.799 C 339.891 111.899,338.400 109.690,338.400 109.216 C 338.400 108.632,275.565 108.644,271.316 109.229 C 268.396 109.631,267.759 109.811,265.200 110.954 C 262.669 112.083,258.000 117.959,258.000 120.014 C 258.000 120.420,257.820 120.864,257.600 121.000 C 257.054 121.338,257.093 127.296,257.651 128.681 C 259.475 133.213,261.433 135.798,264.333 137.503 C 268.129 139.736,267.547 139.679,289.400 139.952 C 304.499 140.141,310.027 140.336,310.674 140.704 C 311.154 140.977,311.834 141.200,312.185 141.200 C 312.962 141.200,318.556 143.819,319.280 144.522 C 319.566 144.799,320.400 145.448,321.133 145.964 C 329.069 151.546,332.906 165.014,329.406 175.000 C 326.780 182.494,317.290 191.600,312.106 191.600 C 311.681 191.600,311.199 191.734,311.034 191.899 C 310.169 192.765,303.270 193.167,289.028 193.183 C 274.442 193.199,272.522 193.329,270.305 194.449 C 269.923 194.642,269.341 194.800,269.011 194.800 C 266.981 194.800,260.041 200.252,257.654 203.722 C 256.389 205.560,256.495 205.375,251.403 214.600 C 249.460 218.120,247.514 221.630,247.079 222.400 C 246.221 223.917,244.976 226.156,243.400 229.014 C 242.850 230.012,242.400 230.890,242.400 230.966 C 242.400 231.042,243.459 231.180,244.753 231.274 C 252.676 231.847,260.816 240.626,269.459 257.915 C 275.420 269.842,279.169 272.157,289.600 270.352 C 298.126 268.877,303.672 269.554,306.994 272.478 C 313.548 278.248,311.132 292.587,302.999 296.181 C 302.230 296.522,301.015 297.049,300.300 297.353 C 299.585 297.656,298.280 298.215,297.400 298.593 C 296.520 298.972,295.440 299.420,295.000 299.590 C 294.560 299.760,293.300 300.304,292.200 300.800 C 291.100 301.296,289.840 301.840,289.400 302.010 C 288.960 302.180,287.880 302.638,287.000 303.029 C 275.201 308.265,261.241 300.956,255.640 286.610 C 255.552 286.384,255.368 286.110,255.230 286.000 C 255.093 285.890,254.535 284.921,253.990 283.848 C 251.326 278.594,247.600 276.149,242.784 276.494 C 237.639 276.862,235.479 278.884,231.951 286.634 C 224.940 302.039,221.633 307.050,214.908 312.457 C 211.471 315.221,203.710 319.600,202.249 319.600 C 201.918 319.600,201.549 319.759,201.430 319.952 C 201.310 320.146,200.714 320.424,200.106 320.570 C 199.498 320.716,198.280 321.020,197.400 321.246 C 192.192 322.580,186.045 323.044,181.639 322.434 C 176.150 321.674,170.131 320.485,169.105 319.957 C 168.723 319.761,167.969 319.600,167.429 319.600 C 166.889 319.600,166.336 319.420,166.200 319.200 C 166.064 318.980,165.434 318.800,164.800 318.800 C 164.166 318.800,163.536 318.620,163.400 318.400 C 163.264 318.180,162.891 318.000,162.572 318.000 C 162.253 318.000,161.138 317.622,160.096 317.160 C 159.053 316.698,157.840 316.177,157.400 316.003 C 156.290 315.562,149.343 312.132,147.400 311.065 C 144.895 309.689,138.554 305.377,137.600 304.400 C 137.490 304.287,136.230 303.206,134.800 301.998 C 127.165 295.543,118.098 284.194,112.911 274.600 C 111.149 271.340,107.200 263.299,107.200 262.972 C 107.200 262.873,106.861 262.028,106.446 261.096 C 106.031 260.163,105.297 258.320,104.814 257.000 C 104.331 255.680,103.770 254.287,103.568 253.905 C 103.366 253.523,103.200 252.936,103.200 252.600 C 103.200 252.264,103.038 251.677,102.841 251.295 C 102.644 250.913,102.085 249.250,101.600 247.600 C 101.115 245.950,100.556 244.287,100.359 243.905 C 100.162 243.523,100.000 242.679,100.000 242.029 C 100.000 241.379,99.820 240.736,99.600 240.600 C 99.380 240.464,99.200 239.744,99.200 239.000 C 99.200 238.256,99.044 237.551,98.853 237.433 C 98.662 237.315,98.393 236.449,98.254 235.509 C 98.115 234.569,97.814 232.810,97.584 231.600 C 97.355 230.390,97.080 228.770,96.975 228.000 C 96.667 225.759,95.889 222.235,95.605 221.800 C 95.461 221.580,95.100 220.590,94.802 219.600 C 94.505 218.610,94.112 217.629,93.930 217.420 C 93.749 217.211,93.600 216.796,93.600 216.498 C 93.600 215.800,92.411 213.116,90.099 208.600 C 89.086 206.620,88.064 204.596,87.828 204.103 C 87.593 203.610,87.265 203.205,87.100 203.203 C 86.935 203.201,86.800 202.992,86.800 202.737 C 86.800 202.319,85.611 200.613,82.330 196.323 C 81.708 195.511,81.200 194.734,81.200 194.596 C 81.200 194.457,80.697 193.592,80.083 192.672 C 78.027 189.596,74.400 181.531,74.400 180.036 C 74.400 179.602,74.244 179.151,74.054 179.033 C 73.864 178.916,73.576 178.140,73.416 177.310 C 73.255 176.479,72.933 174.900,72.700 173.800 C 72.154 171.222,72.159 157.665,72.707 154.800 C 73.391 151.223,74.494 147.601,75.839 144.519 C 87.410 117.993,111.216 105.283,136.600 112.079 C 150.384 115.769,165.894 126.733,170.812 136.264 C 171.135 136.889,171.497 137.490,171.617 137.600 C 171.895 137.854,174.604 143.410,175.225 145.000 C 178.525 153.445,178.436 165.879,175.012 174.800 C 172.480 181.398,167.528 189.405,162.752 194.626 C 158.619 199.144,158.327 199.416,152.978 203.760 C 150.350 205.894,147.064 208.564,145.675 209.693 C 140.328 214.042,140.273 216.000,145.400 219.490 C 147.205 220.718,156.766 225.436,160.300 226.842 C 160.795 227.039,161.605 227.368,162.100 227.574 C 176.629 233.607,186.076 230.822,194.666 217.971 C 201.105 208.338,203.091 198.560,200.559 188.951 C 198.031 179.359,197.405 171.326,198.897 167.629 C 200.290 164.177,201.141 162.941,203.269 161.277 C 206.982 158.373,217.980 158.530,224.469 161.580 C 232.220 165.224,232.821 174.573,225.939 184.462 C 225.302 185.377,225.200 186.336,225.200 191.429 C 225.200 199.069,224.545 203.400,221.999 212.600 C 220.081 219.528,213.010 233.790,210.000 236.800 C 209.029 237.771,207.169 240.502,207.353 240.686 C 207.481 240.815,209.238 240.235,211.256 239.399 C 213.274 238.562,217.172 237.122,219.918 236.198 C 224.523 234.650,224.963 234.414,225.588 233.160 C 225.961 232.412,226.682 231.080,227.190 230.200 C 227.698 229.320,228.538 227.835,229.057 226.900 C 229.575 225.965,230.450 224.390,231.000 223.400 C 233.111 219.601,233.929 218.109,235.390 215.400 C 236.220 213.860,237.038 212.420,237.207 212.200 C 237.376 211.980,238.136 210.630,238.897 209.200 C 239.657 207.770,240.695 205.880,241.202 205.000 C 241.709 204.120,242.630 202.448,243.249 201.284 C 248.399 191.598,258.610 182.891,267.000 181.030 C 267.660 180.884,268.920 180.564,269.800 180.320 C 270.781 180.047,278.134 179.770,288.800 179.604 C 299.538 179.437,306.736 179.164,307.600 178.893 C 308.370 178.652,309.405 178.331,309.900 178.180 C 310.395 178.030,310.800 177.748,310.800 177.553 C 310.800 177.359,311.047 177.200,311.349 177.200 C 311.651 177.200,312.657 176.377,313.585 175.370 C 319.556 168.892,317.849 159.130,309.991 154.817 L 308.200 153.833 288.000 153.591 C 268.420 153.356,267.708 153.320,264.800 152.429 C 255.059 149.443,247.314 141.978,244.851 133.200 C 244.573 132.210,244.178 130.847,243.973 130.172 C 243.477 128.537,243.496 121.003,244.000 119.328 C 244.220 118.598,244.592 117.325,244.826 116.500 C 245.647 113.612,246.621 111.559,248.680 108.371 C 251.710 103.682,256.735 99.573,261.800 97.644 C 263.120 97.141,264.650 96.521,265.200 96.265 C 265.922 95.929,275.373 95.741,299.200 95.587 C 317.350 95.470,330.527 95.335,328.482 95.287 C 325.232 95.211,324.647 95.087,323.842 94.300 C 323.064 93.540,319.772 90.627,317.172 88.400 C 315.028 86.562,312.766 84.810,309.100 82.145 C 306.845 80.506,304.683 78.903,304.295 78.583 C 303.908 78.262,303.495 78.000,303.377 78.000 C 303.260 78.000,301.830 77.100,300.200 76.000 C 298.570 74.900,297.048 74.000,296.818 74.000 C 296.588 74.000,296.400 73.841,296.400 73.647 C 296.400 73.452,296.085 73.193,295.700 73.071 C 295.015 72.854,292.796 71.596,292.400 71.200 C 291.908 70.708,278.692 64.000,278.215 64.000 C 278.004 64.000,277.253 63.680,272.704 61.647 C 271.662 61.181,270.624 60.800,270.399 60.800 C 270.174 60.800,269.587 60.592,269.095 60.338 C 267.174 59.344,266.784 59.200,266.029 59.200 C 265.599 59.200,265.136 59.020,265.000 58.800 C 264.864 58.580,264.324 58.400,263.800 58.400 C 263.276 58.400,262.736 58.220,262.600 58.000 C 262.464 57.780,261.913 57.600,261.376 57.600 C 260.839 57.600,260.400 57.420,260.400 57.200 C 260.400 56.980,259.871 56.800,259.224 56.800 C 258.577 56.800,257.936 56.620,257.800 56.400 C 257.664 56.180,257.034 56.000,256.400 56.000 C 255.766 56.000,255.136 55.820,255.000 55.600 C 254.864 55.380,254.234 55.200,253.600 55.200 C 252.966 55.200,252.348 55.039,252.226 54.842 C 252.105 54.645,251.329 54.390,250.503 54.275 C 249.676 54.160,248.190 53.859,247.200 53.608 C 234.127 50.284,210.248 48.427,206.200 50.419 M217.000 56.800 C 217.136 57.020,217.597 57.200,218.024 57.200 C 218.451 57.200,218.800 57.380,218.800 57.600 C 218.800 57.820,218.993 58.000,219.229 58.000 C 220.180 58.000,221.600 60.310,221.600 61.857 C 221.600 67.294,210.600 68.801,208.177 63.696 C 206.998 61.210,208.962 57.200,211.360 57.200 C 211.686 57.200,212.064 57.020,212.200 56.800 C 212.336 56.580,213.416 56.400,214.600 56.400 C 215.784 56.400,216.864 56.580,217.000 56.800 M156.900 68.252 C 159.444 69.567,159.893 71.028,158.300 72.800 C 154.615 76.896,145.600 76.642,145.600 72.442 C 145.600 68.898,152.908 66.188,156.900 68.252 M368.493 189.200 C 368.493 189.970,368.575 190.285,368.676 189.900 C 368.776 189.515,368.776 188.885,368.676 188.500 C 368.575 188.115,368.493 188.430,368.493 189.200 M368.509 210.800 C 368.509 211.790,368.587 212.195,368.682 211.700 C 368.778 211.205,368.778 210.395,368.682 209.900 C 368.587 209.405,368.509 209.810,368.509 210.800 M319.988 318.700 L 317.400 321.400 320.100 318.812 C 322.608 316.407,322.983 316.000,322.688 316.000 C 322.627 316.000,321.412 317.215,319.988 318.700 M235.294 337.275 C 240.852 338.941,237.088 345.289,229.430 347.164 C 226.937 347.775,224.704 347.404,223.186 346.127 C 218.873 342.498,228.714 335.304,235.294 337.275 " stroke="none" fill="#fb5c7c" fill-rule="evenodd"></path><path id="path1" d="M266.800 96.626 C 240.010 102.420,235.870 138.275,260.600 150.326 C 265.830 152.875,269.134 153.200,289.779 153.200 C 308.791 153.200,308.800 153.201,312.215 155.654 C 320.879 161.876,318.819 175.338,308.620 179.155 C 307.304 179.648,303.663 179.809,289.200 180.013 C 269.043 180.298,269.180 180.279,261.200 183.914 C 254.149 187.125,247.624 194.001,242.517 203.600 C 241.639 205.250,240.506 207.320,239.998 208.200 C 239.491 209.080,238.592 210.700,238.000 211.800 C 237.408 212.900,236.566 214.430,236.128 215.200 C 235.691 215.970,234.189 218.670,232.791 221.200 C 231.392 223.730,229.292 227.479,228.124 229.532 C 225.871 233.490,225.496 234.686,226.700 234.070 C 227.085 233.874,228.030 233.579,228.800 233.415 C 229.570 233.252,230.920 232.950,231.800 232.745 C 234.988 232.002,239.424 231.216,240.467 231.208 C 241.708 231.199,242.206 230.463,246.699 222.000 C 247.459 220.570,248.400 218.860,248.791 218.200 C 249.181 217.540,249.990 216.100,250.587 215.000 C 258.664 200.123,261.919 196.672,270.800 193.579 C 273.298 192.708,274.104 192.662,291.400 192.400 C 313.137 192.070,315.030 191.651,321.604 185.701 C 327.997 179.916,331.988 168.979,330.050 162.560 C 329.857 161.922,329.474 160.429,329.198 159.242 C 327.471 151.813,317.407 141.600,311.813 141.600 C 311.447 141.600,310.754 141.380,310.274 141.111 C 309.634 140.752,303.935 140.554,289.000 140.371 C 272.914 140.173,268.302 140.002,267.189 139.560 C 251.994 133.530,253.901 112.077,269.920 108.830 C 271.332 108.543,283.367 108.400,305.961 108.400 L 339.882 108.400 341.241 107.492 C 344.982 104.993,344.916 99.551,341.115 97.086 L 339.440 96.000 304.420 96.032 C 275.924 96.058,268.916 96.168,266.800 96.626 " stroke="none" fill="#85636c" fill-rule="evenodd"></path><path id="path2" d="M178.300 0.282 C 176.375 0.364,174.800 0.604,174.800 0.816 C 174.800 1.027,173.641 1.200,172.224 1.200 C 170.807 1.200,169.536 1.380,169.400 1.600 C 169.264 1.820,168.209 2.000,167.056 2.000 C 165.903 2.000,164.789 2.170,164.580 2.377 C 164.371 2.585,163.264 2.796,162.120 2.848 C 160.976 2.899,160.132 3.089,160.244 3.271 C 160.356 3.452,159.573 3.600,158.504 3.600 C 157.435 3.600,156.389 3.771,156.179 3.981 C 155.970 4.190,155.124 4.407,154.299 4.463 C 153.475 4.518,152.800 4.707,152.800 4.882 C 152.800 5.057,152.069 5.200,151.176 5.200 C 150.196 5.200,149.651 5.358,149.800 5.600 C 149.947 5.838,149.479 6.000,148.647 6.000 C 147.877 6.000,147.136 6.180,147.000 6.400 C 146.864 6.620,146.234 6.800,145.600 6.800 C 144.966 6.800,144.336 6.980,144.200 7.200 C 144.064 7.420,143.323 7.600,142.553 7.600 C 141.783 7.600,141.252 7.761,141.374 7.958 C 141.496 8.155,140.922 8.407,140.098 8.519 C 138.054 8.795,137.273 8.994,136.945 9.322 C 136.792 9.475,136.274 9.600,135.795 9.600 C 135.315 9.600,134.310 9.909,133.561 10.287 C 132.813 10.665,131.753 11.036,131.207 11.113 C 130.662 11.190,130.122 11.375,130.007 11.526 C 129.732 11.890,127.159 12.868,126.400 12.897 C 126.070 12.910,125.710 13.029,125.600 13.161 C 125.155 13.693,123.562 14.400,122.805 14.400 C 122.362 14.400,122.000 14.580,122.000 14.800 C 122.000 15.020,121.550 15.200,121.000 15.200 C 120.450 15.200,119.999 15.335,119.997 15.500 C 119.993 15.859,118.056 16.800,117.320 16.800 C 117.034 16.800,116.800 16.980,116.800 17.200 C 116.800 17.420,116.440 17.600,116.000 17.600 C 115.560 17.600,115.200 17.750,115.200 17.933 C 115.200 18.117,114.975 18.272,114.700 18.279 C 114.022 18.296,108.634 20.896,108.467 21.288 C 108.393 21.459,107.988 21.600,107.567 21.600 C 107.145 21.600,106.800 21.780,106.800 22.000 C 106.800 22.220,106.429 22.400,105.976 22.400 C 105.523 22.400,105.245 22.550,105.358 22.732 C 105.471 22.915,104.942 23.309,104.182 23.607 C 103.422 23.905,102.800 24.296,102.800 24.475 C 102.800 24.654,102.440 24.800,102.000 24.800 C 101.560 24.800,101.200 24.991,101.200 25.224 C 101.200 25.457,101.035 25.545,100.832 25.420 C 100.630 25.295,100.180 25.477,99.832 25.825 C 99.485 26.173,99.200 26.326,99.200 26.167 C 99.200 26.007,98.870 26.174,98.468 26.539 C 98.065 26.903,97.615 27.081,97.468 26.934 C 97.320 26.787,97.200 26.877,97.200 27.133 C 97.200 27.390,96.930 27.600,96.600 27.600 C 96.270 27.600,96.000 27.780,96.000 28.000 C 96.000 28.220,95.730 28.400,95.400 28.400 C 95.070 28.400,94.800 28.541,94.800 28.714 C 94.800 28.886,94.260 29.346,93.600 29.736 C 92.940 30.126,92.400 30.318,92.400 30.161 C 92.400 30.005,92.085 30.221,91.700 30.642 C 91.315 31.062,90.505 31.660,89.900 31.970 C 89.295 32.281,88.800 32.685,88.800 32.868 C 88.800 33.050,88.564 33.200,88.275 33.200 C 87.987 33.200,87.364 33.560,86.892 34.000 C 86.420 34.440,85.844 34.800,85.613 34.800 C 85.382 34.800,84.628 35.340,83.937 36.000 C 83.246 36.660,82.520 37.200,82.322 37.200 C 82.125 37.200,81.510 37.653,80.956 38.208 C 80.402 38.762,79.735 39.093,79.474 38.944 C 79.213 38.794,79.128 38.814,79.286 38.988 C 79.618 39.357,76.839 41.977,76.100 41.991 C 75.825 41.996,75.600 42.210,75.600 42.467 C 75.600 42.723,75.491 42.824,75.358 42.691 C 75.224 42.558,74.690 42.874,74.170 43.393 C 73.651 43.913,72.860 44.454,72.413 44.596 C 71.966 44.738,71.600 45.112,71.600 45.427 C 71.600 45.742,71.465 46.003,71.300 46.006 C 71.135 46.010,70.432 46.505,69.737 47.106 C 67.711 48.860,67.019 49.414,66.714 49.524 C 66.557 49.581,64.620 51.467,62.409 53.714 C 57.577 58.627,58.627 57.577,53.714 62.409 C 51.467 64.620,49.622 66.512,49.614 66.614 C 49.606 66.716,49.600 66.991,49.600 67.224 C 49.600 67.457,49.420 67.536,49.200 67.400 C 48.980 67.264,48.800 67.322,48.800 67.528 C 48.800 67.735,48.095 68.630,47.233 69.518 C 46.371 70.406,45.771 71.238,45.900 71.366 C 46.028 71.495,45.845 71.600,45.494 71.600 C 45.142 71.600,44.738 71.966,44.596 72.413 C 44.454 72.860,43.913 73.651,43.393 74.170 C 42.874 74.690,42.558 75.224,42.691 75.358 C 42.824 75.491,42.723 75.600,42.467 75.600 C 42.210 75.600,42.000 75.855,42.000 76.166 C 42.000 76.911,39.360 79.617,38.972 79.270 C 38.807 79.121,38.794 79.213,38.944 79.474 C 39.093 79.735,38.762 80.402,38.208 80.956 C 37.653 81.510,37.200 82.202,37.200 82.494 C 37.200 82.785,36.840 83.283,36.400 83.600 C 35.960 83.917,35.600 84.417,35.600 84.712 C 35.600 85.015,35.399 85.123,35.138 84.962 C 34.873 84.798,34.784 84.851,34.930 85.086 C 35.069 85.311,34.737 86.014,34.192 86.648 C 33.647 87.282,33.201 88.025,33.200 88.300 C 33.200 88.575,33.020 88.800,32.800 88.800 C 32.580 88.800,32.400 89.070,32.400 89.400 C 32.400 89.730,32.264 90.000,32.098 90.000 C 31.931 90.000,31.556 90.541,31.263 91.202 C 30.970 91.864,30.566 92.303,30.365 92.179 C 30.164 92.054,30.000 92.323,30.000 92.776 C 30.000 93.229,29.809 93.600,29.576 93.600 C 29.343 93.600,29.244 93.747,29.355 93.927 C 29.466 94.107,29.117 94.729,28.579 95.310 C 28.040 95.890,27.600 96.553,27.600 96.783 C 27.600 97.012,27.409 97.200,27.176 97.200 C 26.943 97.200,26.873 97.394,27.019 97.631 C 27.165 97.867,26.906 98.414,26.443 98.846 C 25.668 99.568,25.429 100.118,25.553 100.900 C 25.579 101.065,25.420 101.200,25.200 101.200 C 24.980 101.200,24.800 101.560,24.800 102.000 C 24.800 102.440,24.665 102.801,24.500 102.803 C 24.335 102.805,24.002 103.210,23.760 103.703 C 22.858 105.539,21.393 108.207,21.179 108.400 C 21.058 108.510,20.635 109.320,20.240 110.200 C 19.845 111.080,19.090 112.652,18.561 113.693 C 18.033 114.734,17.600 115.859,17.600 116.193 C 17.600 116.527,17.420 116.800,17.200 116.800 C 16.980 116.800,16.800 117.072,16.800 117.405 C 16.800 117.963,16.075 119.528,15.598 120.000 C 15.487 120.110,15.155 120.920,14.861 121.800 C 14.029 124.288,13.430 125.600,13.127 125.600 C 12.975 125.600,12.851 125.915,12.852 126.300 C 12.855 127.287,11.865 130.000,11.502 130.000 C 11.336 130.000,11.200 130.362,11.200 130.805 C 11.200 131.248,11.041 131.923,10.847 132.305 C 9.938 134.092,9.082 136.694,9.016 137.872 C 9.002 138.131,8.857 138.476,8.695 138.638 C 8.533 138.801,8.400 139.296,8.400 139.738 C 8.400 140.602,7.724 142.960,7.151 144.095 C 6.958 144.477,6.800 145.141,6.800 145.571 C 6.800 146.001,6.639 146.452,6.442 146.574 C 6.245 146.695,5.982 147.471,5.858 148.297 C 5.335 151.756,5.097 152.800,4.831 152.800 C 4.676 152.800,4.506 153.655,4.453 154.700 C 4.400 155.745,4.187 156.660,3.979 156.733 C 3.770 156.807,3.600 157.651,3.600 158.610 C 3.600 159.568,3.420 160.464,3.200 160.600 C 2.980 160.736,2.800 161.647,2.800 162.624 C 2.800 163.601,2.620 164.400,2.400 164.400 C 2.178 164.400,2.000 165.467,2.000 166.800 C 2.000 168.133,1.822 169.200,1.600 169.200 C 1.376 169.200,1.200 170.307,1.200 171.720 C 1.200 173.203,0.994 174.446,0.700 174.740 C -0.029 175.469,-0.029 224.131,0.700 224.860 C 0.993 225.153,1.200 226.393,1.200 227.856 C 1.200 229.229,1.380 230.464,1.600 230.600 C 1.820 230.736,2.000 231.816,2.000 233.000 C 2.000 234.184,2.180 235.264,2.400 235.400 C 2.620 235.536,2.800 236.537,2.800 237.624 C 2.800 238.711,2.980 239.600,3.200 239.600 C 3.420 239.600,3.600 240.410,3.600 241.400 C 3.600 242.390,3.780 243.200,4.000 243.200 C 4.220 243.200,4.400 243.999,4.400 244.976 C 4.400 245.953,4.580 246.864,4.800 247.000 C 5.020 247.136,5.200 247.629,5.200 248.095 C 5.200 248.562,5.368 249.496,5.573 250.172 C 5.778 250.847,6.156 252.210,6.412 253.200 C 6.668 254.190,7.040 255.313,7.239 255.695 C 7.438 256.077,7.600 256.842,7.600 257.395 C 7.600 257.948,7.780 258.400,8.000 258.400 C 8.220 258.400,8.400 259.000,8.400 259.733 C 8.400 260.467,8.524 261.190,8.675 261.341 C 8.826 261.493,9.001 261.928,9.064 262.308 C 9.457 264.675,9.733 265.600,10.045 265.600 C 10.240 265.600,10.400 266.050,10.400 266.600 C 10.400 267.150,10.591 267.600,10.824 267.600 C 11.057 267.600,11.156 267.748,11.044 267.929 C 10.932 268.109,11.073 268.704,11.356 269.251 C 12.190 270.857,13.149 273.917,12.898 274.168 C 12.771 274.296,12.877 274.400,13.133 274.400 C 13.390 274.400,13.600 274.760,13.600 275.200 C 13.600 275.640,13.780 276.000,14.000 276.000 C 14.220 276.000,14.400 276.249,14.400 276.554 C 14.400 276.859,14.661 277.611,14.980 278.226 C 15.298 278.840,15.468 279.491,15.356 279.671 C 15.244 279.852,15.343 280.000,15.576 280.000 C 15.809 280.000,16.000 280.360,16.000 280.800 C 16.000 281.240,16.180 281.600,16.400 281.600 C 16.620 281.600,16.800 281.960,16.800 282.400 C 16.800 282.840,16.980 283.200,17.200 283.200 C 17.420 283.200,17.600 283.504,17.600 283.876 C 17.600 284.506,19.925 289.557,20.419 290.000 C 20.541 290.110,20.952 290.867,21.331 291.681 C 21.710 292.496,22.298 293.441,22.638 293.781 C 23.056 294.199,23.098 294.400,22.767 294.400 C 22.498 294.400,22.665 294.736,23.139 295.147 C 23.612 295.558,24.000 296.188,24.000 296.547 C 24.000 296.906,24.180 297.200,24.400 297.200 C 24.620 297.200,24.800 297.487,24.800 297.838 C 24.800 298.189,25.155 298.975,25.588 299.583 C 26.022 300.192,26.262 300.805,26.122 300.945 C 25.981 301.085,26.077 301.200,26.333 301.200 C 26.590 301.200,26.800 301.368,26.800 301.573 C 26.800 302.014,29.176 305.963,29.904 306.732 C 30.181 307.025,30.288 307.458,30.142 307.694 C 29.985 307.949,30.064 308.007,30.338 307.838 C 30.612 307.669,30.800 307.807,30.800 308.176 C 30.800 308.519,30.980 308.800,31.200 308.800 C 31.420 308.800,31.600 309.171,31.600 309.624 C 31.600 310.077,31.780 310.336,32.000 310.200 C 32.220 310.064,32.400 310.233,32.400 310.576 C 32.400 310.919,32.580 311.200,32.800 311.200 C 33.020 311.200,33.200 311.443,33.200 311.741 C 33.200 312.038,33.740 312.846,34.400 313.537 C 35.060 314.228,35.600 315.025,35.600 315.308 C 35.600 315.591,35.960 316.083,36.400 316.400 C 36.840 316.717,37.200 317.173,37.200 317.413 C 37.200 317.653,37.556 318.231,37.991 318.699 C 38.427 319.166,38.832 319.764,38.891 320.028 C 39.034 320.660,40.532 322.283,40.840 322.139 C 40.972 322.078,41.330 322.516,41.637 323.114 C 41.944 323.711,42.507 324.488,42.890 324.841 C 43.272 325.193,43.469 325.598,43.326 325.741 C 43.183 325.883,43.255 326.000,43.485 326.000 C 43.715 326.000,44.127 326.540,44.400 327.200 C 44.673 327.860,45.145 328.400,45.449 328.400 C 45.752 328.400,46.000 328.561,46.000 328.758 C 46.000 328.954,46.495 329.656,47.100 330.318 C 48.501 331.849,49.389 332.926,49.537 333.273 C 49.665 333.572,56.153 340.093,57.660 341.438 C 58.177 341.899,58.865 342.664,59.188 343.138 C 59.512 343.612,60.037 344.000,60.355 344.000 C 60.673 344.000,60.836 344.097,60.717 344.216 C 60.440 344.493,65.482 349.600,66.033 349.600 C 66.261 349.600,66.336 349.780,66.200 350.000 C 66.064 350.220,66.225 350.400,66.557 350.400 C 66.890 350.400,68.070 351.309,69.181 352.419 C 70.291 353.530,71.200 354.320,71.200 354.175 C 71.200 354.030,71.554 354.336,71.987 354.856 C 72.419 355.375,72.779 355.646,72.787 355.458 C 72.794 355.269,73.316 355.668,73.947 356.344 C 74.578 357.019,75.208 357.458,75.347 357.319 C 75.486 357.180,75.600 357.234,75.600 357.439 C 75.600 357.644,76.322 358.257,77.204 358.802 C 78.086 359.347,78.909 360.113,79.033 360.503 C 79.156 360.893,79.413 361.116,79.603 360.998 C 79.793 360.881,80.402 361.238,80.956 361.792 C 81.510 362.347,82.125 362.800,82.322 362.800 C 82.520 362.800,83.216 363.295,83.868 363.900 C 84.521 364.505,85.302 365.056,85.602 365.125 C 85.903 365.194,86.452 365.599,86.822 366.025 C 87.191 366.451,87.788 366.800,88.147 366.800 C 88.506 366.800,88.800 366.968,88.800 367.173 C 88.800 367.378,89.166 367.662,89.613 367.804 C 90.060 367.946,90.862 368.498,91.395 369.031 C 91.928 369.564,92.546 370.000,92.768 370.000 C 93.118 370.000,97.457 372.602,98.600 373.497 C 98.820 373.669,99.810 374.165,100.800 374.598 C 101.790 375.031,102.840 375.616,103.132 375.897 C 103.425 376.178,103.830 376.305,104.032 376.180 C 104.235 376.055,104.400 376.143,104.400 376.376 C 104.400 376.609,104.760 376.800,105.200 376.800 C 105.640 376.800,106.000 376.980,106.000 377.200 C 106.000 377.420,106.270 377.600,106.600 377.600 C 106.930 377.600,107.200 377.780,107.200 378.000 C 107.200 378.220,107.470 378.400,107.800 378.400 C 108.130 378.400,108.400 378.580,108.400 378.800 C 108.400 379.020,108.641 379.200,108.936 379.200 C 109.231 379.200,110.446 379.737,111.636 380.393 C 112.826 381.049,114.115 381.589,114.500 381.593 C 114.885 381.597,115.200 381.780,115.200 382.000 C 115.200 382.220,115.560 382.400,116.000 382.400 C 116.440 382.400,116.800 382.580,116.800 382.800 C 116.800 383.020,117.053 383.200,117.362 383.200 C 117.671 383.200,118.706 383.586,119.662 384.057 C 120.618 384.528,121.760 385.050,122.200 385.217 C 122.640 385.384,123.853 385.898,124.896 386.360 C 125.938 386.822,126.968 387.200,127.184 387.200 C 127.400 387.200,128.527 387.633,129.688 388.162 C 130.850 388.690,132.587 389.333,133.550 389.590 C 134.512 389.847,135.772 390.252,136.350 390.490 C 137.916 391.136,138.436 391.266,140.300 391.483 C 141.235 391.592,142.000 391.842,142.000 392.040 C 142.000 392.238,142.540 392.400,143.200 392.400 C 143.860 392.400,144.400 392.560,144.400 392.755 C 144.400 393.108,145.658 393.449,148.498 393.864 C 149.322 393.985,149.896 394.245,149.774 394.442 C 149.652 394.639,150.373 394.800,151.376 394.800 C 152.379 394.800,153.200 394.980,153.200 395.200 C 153.200 395.420,154.010 395.600,155.000 395.600 C 155.990 395.600,156.800 395.780,156.800 396.000 C 156.800 396.220,157.621 396.400,158.624 396.400 C 159.737 396.400,160.351 396.556,160.200 396.800 C 160.047 397.048,160.769 397.200,162.096 397.200 C 163.275 397.200,164.411 397.363,164.620 397.563 C 164.997 397.923,167.001 398.219,172.000 398.652 C 173.430 398.776,174.728 399.085,174.885 399.338 C 175.295 400.000,224.705 400.000,225.115 399.338 C 225.272 399.085,226.570 398.773,228.000 398.645 C 234.424 398.074,235.600 397.906,235.600 397.564 C 235.600 397.364,236.489 397.200,237.576 397.200 C 238.663 397.200,239.664 397.020,239.800 396.800 C 239.936 396.580,240.746 396.400,241.600 396.400 C 242.454 396.400,243.264 396.220,243.400 396.000 C 243.536 395.780,244.447 395.600,245.424 395.600 C 246.401 395.600,247.200 395.420,247.200 395.200 C 247.200 394.980,247.819 394.800,248.576 394.800 C 249.333 394.800,250.064 394.620,250.200 394.400 C 250.336 394.180,250.977 394.000,251.624 394.000 C 252.271 394.000,252.800 393.820,252.800 393.600 C 252.800 393.380,253.430 393.200,254.200 393.200 C 254.970 393.200,255.600 393.020,255.600 392.800 C 255.600 392.580,256.331 392.400,257.224 392.400 C 258.117 392.400,258.748 392.240,258.627 392.043 C 258.506 391.847,258.990 391.596,259.703 391.486 C 261.907 391.144,263.289 390.781,264.162 390.313 C 264.623 390.067,265.043 389.890,265.096 389.921 C 265.148 389.953,265.418 389.909,265.696 389.825 C 265.973 389.740,267.043 389.439,268.074 389.156 C 269.105 388.872,269.860 388.496,269.751 388.320 C 269.642 388.144,270.103 388.000,270.776 388.000 C 271.449 388.000,272.000 387.853,272.000 387.672 C 272.000 387.492,272.900 387.100,274.000 386.800 C 275.100 386.500,276.000 386.108,276.000 385.928 C 276.000 385.747,276.345 385.600,276.767 385.600 C 277.188 385.600,277.624 385.375,277.735 385.100 C 277.889 384.719,277.944 384.725,277.968 385.129 C 277.992 385.523,278.165 385.493,278.648 385.009 C 279.005 384.652,279.815 384.257,280.448 384.130 C 281.082 384.004,281.600 383.743,281.600 383.550 C 281.600 383.358,281.949 383.200,282.376 383.200 C 282.803 383.200,283.264 383.020,283.400 382.800 C 283.536 382.580,283.924 382.400,284.262 382.400 C 284.600 382.400,285.354 382.064,285.938 381.654 C 286.522 381.244,287.675 380.668,288.500 380.374 C 289.325 380.080,290.000 379.695,290.000 379.520 C 290.000 379.344,290.360 379.200,290.800 379.200 C 291.240 379.200,291.600 379.064,291.600 378.898 C 291.600 378.583,293.553 377.610,294.130 377.637 C 294.312 377.646,294.783 377.281,295.177 376.826 C 295.571 376.372,296.188 376.000,296.547 376.000 C 296.906 376.000,297.200 375.820,297.200 375.600 C 297.200 375.380,297.434 375.200,297.720 375.200 C 298.480 375.200,300.393 374.254,300.397 373.876 C 300.399 373.698,300.580 373.664,300.800 373.800 C 301.020 373.936,301.200 373.857,301.200 373.624 C 301.200 373.391,301.399 373.200,301.642 373.200 C 301.885 373.200,302.884 372.660,303.862 372.000 C 304.840 371.340,305.729 370.800,305.837 370.800 C 305.945 370.800,306.420 370.440,306.892 370.000 C 307.364 369.560,307.987 369.200,308.275 369.200 C 308.564 369.200,308.800 369.020,308.800 368.800 C 308.800 368.580,309.036 368.400,309.325 368.400 C 309.613 368.400,310.236 368.040,310.708 367.600 C 311.180 367.160,311.855 366.800,312.207 366.800 C 312.559 366.800,312.736 366.620,312.600 366.400 C 312.464 366.180,312.633 366.000,312.976 366.000 C 313.319 366.000,313.600 365.820,313.600 365.600 C 313.600 365.380,313.843 365.200,314.141 365.200 C 314.438 365.200,315.246 364.660,315.937 364.000 C 316.628 363.340,317.392 362.800,317.636 362.800 C 317.880 362.800,318.558 362.305,319.143 361.700 C 319.729 361.095,320.465 360.544,320.779 360.475 C 321.093 360.406,321.766 359.866,322.274 359.275 C 322.782 358.684,323.384 358.200,323.613 358.200 C 323.842 358.200,324.200 357.930,324.408 357.600 C 324.617 357.270,324.791 357.143,324.794 357.318 C 324.797 357.493,325.216 357.223,325.724 356.718 C 326.232 356.213,327.240 355.350,327.964 354.800 C 328.688 354.250,329.670 353.440,330.146 353.000 C 330.623 352.560,332.354 351.030,333.995 349.600 C 335.635 348.170,338.017 345.920,339.287 344.600 C 340.558 343.280,341.785 342.020,342.014 341.800 C 345.028 338.905,348.557 335.292,350.000 333.626 C 350.990 332.482,352.320 330.974,352.955 330.273 C 353.590 329.573,354.578 328.370,355.151 327.600 C 355.723 326.830,356.505 325.912,356.888 325.559 C 357.272 325.207,357.469 324.802,357.326 324.659 C 357.183 324.517,357.277 324.400,357.533 324.400 C 357.790 324.400,358.000 324.119,358.000 323.776 C 358.000 323.433,358.180 323.264,358.400 323.400 C 358.620 323.536,358.800 323.458,358.800 323.227 C 358.800 322.995,359.153 322.400,359.585 321.903 C 360.017 321.406,360.368 320.856,360.365 320.679 C 360.363 320.502,360.909 319.845,361.580 319.218 C 362.251 318.592,362.800 317.863,362.800 317.600 C 362.800 317.337,363.340 316.617,364.000 316.000 C 364.660 315.383,365.200 314.591,365.200 314.240 C 365.200 313.888,365.380 313.600,365.600 313.600 C 365.820 313.600,366.000 313.319,366.000 312.976 C 366.000 312.633,366.180 312.464,366.400 312.600 C 366.620 312.736,366.800 312.559,366.800 312.207 C 366.800 311.855,367.160 311.180,367.600 310.708 C 368.040 310.236,368.400 309.613,368.400 309.325 C 368.400 309.036,368.580 308.800,368.800 308.800 C 369.020 308.800,369.200 308.530,369.200 308.200 C 369.200 307.870,369.380 307.600,369.600 307.600 C 369.820 307.600,370.000 307.330,370.000 307.000 C 370.000 306.670,370.180 306.400,370.400 306.400 C 370.620 306.400,370.800 306.207,370.800 305.972 C 370.800 305.737,371.340 304.759,372.000 303.800 C 372.660 302.841,373.200 301.878,373.200 301.661 C 373.200 301.444,373.335 301.207,373.500 301.133 C 373.935 300.940,375.200 298.435,375.200 297.768 C 375.200 297.455,375.380 297.200,375.600 297.200 C 375.820 297.200,376.000 296.840,376.000 296.400 C 376.000 295.960,376.180 295.600,376.400 295.600 C 376.620 295.600,376.800 295.330,376.800 295.000 C 376.800 294.670,376.980 294.400,377.200 294.400 C 377.420 294.400,377.600 294.130,377.600 293.800 C 377.600 293.470,377.780 293.200,378.000 293.200 C 378.220 293.200,378.400 292.935,378.400 292.612 C 378.400 292.289,378.788 291.344,379.262 290.512 C 379.735 289.680,380.478 288.280,380.912 287.400 C 381.345 286.520,381.858 285.487,382.050 285.105 C 382.243 284.723,382.400 284.138,382.400 283.805 C 382.400 283.472,382.580 283.200,382.800 283.200 C 383.020 283.200,383.200 282.840,383.200 282.400 C 383.200 281.960,383.380 281.600,383.600 281.600 C 383.820 281.600,384.000 281.251,384.000 280.824 C 384.000 280.397,384.180 279.936,384.400 279.800 C 384.620 279.664,384.800 279.113,384.800 278.576 C 384.800 278.039,384.980 277.600,385.200 277.600 C 385.420 277.600,385.600 277.240,385.600 276.800 C 385.600 276.360,385.747 276.000,385.928 276.000 C 386.108 276.000,386.500 275.100,386.800 274.000 C 387.100 272.900,387.492 272.000,387.672 272.000 C 387.853 272.000,388.000 271.565,388.000 271.033 C 388.000 270.502,388.178 270.007,388.397 269.933 C 388.615 269.860,388.834 269.305,388.884 268.700 C 388.934 268.095,389.115 267.600,389.287 267.600 C 389.459 267.600,389.600 267.238,389.600 266.795 C 389.600 266.352,389.767 265.677,389.971 265.295 C 390.603 264.113,391.600 260.504,391.600 259.401 C 391.600 258.804,391.772 258.459,392.000 258.600 C 392.238 258.747,392.400 258.271,392.400 257.424 C 392.400 256.641,392.580 256.000,392.800 256.000 C 393.020 256.000,393.200 255.381,393.200 254.624 C 393.200 253.867,393.380 253.136,393.600 253.000 C 393.820 252.864,394.000 252.234,394.000 251.600 C 394.000 250.966,394.180 250.336,394.400 250.200 C 394.620 250.064,394.800 249.333,394.800 248.576 C 394.800 247.819,394.980 247.200,395.200 247.200 C 395.420 247.200,395.600 246.300,395.600 245.200 C 395.600 244.100,395.780 243.200,396.000 243.200 C 396.220 243.200,396.400 242.379,396.400 241.376 C 396.400 240.263,396.556 239.649,396.800 239.800 C 397.048 239.953,397.200 239.204,397.200 237.824 C 397.200 236.601,397.364 235.600,397.564 235.600 C 397.911 235.600,398.152 233.868,398.623 228.000 C 398.737 226.570,399.049 224.968,399.316 224.439 C 400.030 223.023,400.015 175.138,399.300 174.900 C 398.965 174.788,398.800 173.829,398.800 171.990 C 398.800 170.482,398.620 169.136,398.400 169.000 C 398.180 168.864,398.000 167.773,398.000 166.576 C 398.000 165.379,397.820 164.400,397.600 164.400 C 397.380 164.400,397.200 163.511,397.200 162.424 C 397.200 161.337,397.020 160.336,396.800 160.200 C 396.580 160.064,396.400 159.243,396.400 158.376 C 396.400 157.509,396.220 156.800,396.000 156.800 C 395.780 156.800,395.600 156.001,395.600 155.024 C 395.600 154.047,395.420 153.136,395.200 153.000 C 394.980 152.864,394.800 152.144,394.800 151.400 C 394.800 150.656,394.620 149.936,394.400 149.800 C 394.180 149.664,394.000 148.944,394.000 148.200 C 394.000 147.456,393.820 146.736,393.600 146.600 C 393.380 146.464,393.200 145.913,393.200 145.376 C 393.200 144.839,393.020 144.400,392.800 144.400 C 392.580 144.400,392.400 143.770,392.400 143.000 C 392.400 142.230,392.244 141.600,392.053 141.600 C 391.862 141.600,391.602 140.925,391.477 140.100 C 391.139 137.880,390.900 136.935,390.472 136.126 C 390.262 135.727,389.767 134.230,389.374 132.800 C 388.980 131.370,388.555 130.110,388.429 130.000 C 388.145 129.752,386.776 126.121,386.506 124.900 C 386.396 124.405,386.148 124.000,385.953 124.000 C 385.759 124.000,385.600 123.676,385.600 123.280 C 385.600 122.386,384.706 120.407,384.300 120.403 C 384.135 120.401,384.000 120.051,384.000 119.624 C 384.000 119.197,383.820 118.736,383.600 118.600 C 383.380 118.464,383.200 118.003,383.200 117.576 C 383.200 117.149,383.020 116.800,382.800 116.800 C 382.580 116.800,382.400 116.339,382.400 115.776 C 382.400 115.196,382.227 114.860,382.000 115.000 C 381.780 115.136,381.600 114.964,381.600 114.618 C 381.600 114.272,381.432 113.677,381.226 113.295 C 381.021 112.913,380.617 112.015,380.329 111.300 C 380.040 110.585,379.669 110.000,379.502 110.000 C 379.336 110.000,379.200 109.640,379.200 109.200 C 379.200 108.760,379.020 108.400,378.800 108.400 C 378.580 108.400,378.400 108.122,378.400 107.783 C 378.400 107.444,378.040 106.780,377.600 106.308 C 377.160 105.836,376.800 105.213,376.800 104.925 C 376.800 104.636,376.609 104.400,376.376 104.400 C 376.143 104.400,376.055 104.235,376.180 104.032 C 376.305 103.830,376.136 103.393,375.804 103.061 C 375.472 102.729,375.200 102.312,375.200 102.134 C 375.200 101.780,373.132 97.522,372.804 97.200 C 372.252 96.659,370.800 94.388,370.800 94.065 C 370.800 93.863,370.532 93.476,370.204 93.204 C 369.877 92.932,369.687 92.583,369.783 92.428 C 369.879 92.273,369.607 91.893,369.179 91.585 C 368.750 91.276,368.400 90.743,368.400 90.400 C 368.400 90.057,368.040 89.517,367.600 89.200 C 367.160 88.883,366.800 88.343,366.800 88.000 C 366.800 87.657,366.440 87.117,366.000 86.800 C 365.560 86.483,365.200 85.893,365.200 85.488 C 365.200 85.084,365.020 84.864,364.800 85.000 C 364.580 85.136,364.400 84.967,364.400 84.624 C 364.400 84.281,364.220 84.000,364.000 84.000 C 363.780 84.000,363.600 83.719,363.600 83.376 C 363.600 83.033,363.420 82.864,363.200 83.000 C 362.980 83.136,362.800 83.001,362.800 82.699 C 362.800 82.398,362.444 81.769,362.009 81.301 C 361.573 80.834,361.168 80.217,361.109 79.930 C 361.049 79.643,360.505 78.929,359.900 78.343 C 359.295 77.758,358.800 77.071,358.800 76.816 C 358.800 76.561,358.620 76.464,358.400 76.600 C 358.180 76.736,358.000 76.567,358.000 76.224 C 358.000 75.881,357.790 75.600,357.533 75.600 C 357.277 75.600,357.180 75.486,357.319 75.347 C 357.458 75.208,357.045 74.602,356.400 74.000 C 355.755 73.398,355.299 72.835,355.385 72.749 C 355.471 72.662,354.386 71.334,352.975 69.796 C 351.563 68.258,350.406 66.764,350.404 66.476 C 350.402 66.188,350.220 66.064,350.000 66.200 C 349.780 66.336,349.600 66.274,349.600 66.063 C 349.600 65.507,343.711 59.622,343.433 59.900 C 343.305 60.028,343.200 59.833,343.200 59.467 C 343.200 59.100,343.047 58.800,342.859 58.800 C 342.672 58.800,341.954 58.260,341.263 57.600 C 340.572 56.940,340.090 56.400,340.190 56.400 C 340.291 56.400,338.830 54.870,336.943 53.000 C 335.056 51.130,333.358 49.600,333.171 49.600 C 332.983 49.600,331.736 48.520,330.400 47.200 C 329.064 45.880,327.791 44.800,327.572 44.800 C 327.353 44.800,326.543 44.170,325.773 43.400 C 325.003 42.630,324.099 42.000,323.763 42.000 C 323.427 42.000,323.264 41.820,323.400 41.600 C 323.536 41.380,323.431 41.200,323.167 41.200 C 322.903 41.200,322.200 40.705,321.605 40.100 C 321.009 39.495,320.281 38.944,319.987 38.875 C 319.692 38.806,319.148 38.401,318.778 37.975 C 318.409 37.549,317.802 37.200,317.429 37.200 C 317.057 37.200,316.864 37.020,317.000 36.800 C 317.136 36.580,317.006 36.400,316.712 36.400 C 316.417 36.400,315.924 36.050,315.615 35.621 C 315.307 35.193,314.931 34.919,314.779 35.013 C 314.628 35.106,313.986 34.737,313.352 34.192 C 312.718 33.647,311.975 33.201,311.700 33.200 C 311.425 33.200,311.200 33.050,311.200 32.868 C 311.200 32.685,310.705 32.281,310.100 31.970 C 309.495 31.660,308.730 31.134,308.400 30.803 C 308.070 30.471,307.532 30.141,307.204 30.068 C 306.876 29.995,306.516 29.815,306.404 29.667 C 305.906 29.009,301.898 26.816,301.568 27.020 C 301.365 27.145,301.200 26.956,301.200 26.600 C 301.200 26.244,301.020 26.064,300.800 26.200 C 300.580 26.336,300.399 26.302,300.397 26.124 C 300.393 25.746,298.480 24.800,297.720 24.800 C 297.434 24.800,297.200 24.620,297.200 24.400 C 297.200 24.180,296.840 24.000,296.400 24.000 C 295.960 24.000,295.600 23.820,295.600 23.600 C 295.600 23.380,295.330 23.200,295.000 23.200 C 294.670 23.200,294.400 23.020,294.400 22.800 C 294.400 22.580,294.130 22.400,293.800 22.400 C 293.470 22.400,293.200 22.220,293.200 22.000 C 293.200 21.780,292.840 21.600,292.400 21.600 C 291.960 21.600,291.600 21.420,291.600 21.200 C 291.600 20.980,291.232 20.800,290.783 20.800 C 290.334 20.800,289.580 20.440,289.108 20.000 C 288.636 19.560,287.912 19.200,287.501 19.200 C 287.089 19.200,286.845 19.050,286.958 18.867 C 287.071 18.684,286.272 18.292,285.182 17.995 C 284.092 17.698,283.200 17.308,283.200 17.128 C 283.200 16.947,282.966 16.800,282.680 16.800 C 281.920 16.800,280.007 15.854,280.003 15.476 C 280.001 15.298,279.835 15.255,279.632 15.380 C 279.430 15.505,279.025 15.381,278.732 15.104 C 278.440 14.827,277.750 14.538,277.200 14.462 C 276.650 14.386,276.140 14.161,276.067 13.962 C 275.993 13.763,275.588 13.600,275.167 13.600 C 274.745 13.600,274.400 13.409,274.400 13.176 C 274.400 12.943,274.252 12.844,274.071 12.956 C 273.891 13.068,273.240 12.898,272.626 12.580 C 272.011 12.261,271.180 12.000,270.778 12.000 C 270.376 12.000,269.958 11.856,269.849 11.679 C 269.740 11.503,268.739 11.110,267.625 10.807 C 266.511 10.504,265.600 10.128,265.600 9.973 C 265.600 9.724,264.572 9.440,262.308 9.064 C 261.928 9.001,261.493 8.826,261.341 8.675 C 261.190 8.524,260.557 8.400,259.933 8.400 C 259.310 8.400,258.800 8.220,258.800 8.000 C 258.800 7.780,258.258 7.600,257.595 7.600 C 256.932 7.600,256.077 7.442,255.695 7.249 C 254.528 6.660,252.192 6.000,251.272 6.000 C 250.792 6.000,250.400 5.820,250.400 5.600 C 250.400 5.380,249.691 5.200,248.824 5.200 C 247.957 5.200,247.136 5.020,247.000 4.800 C 246.864 4.580,245.953 4.400,244.976 4.400 C 243.999 4.400,243.200 4.220,243.200 4.000 C 243.200 3.780,242.379 3.600,241.376 3.600 C 240.373 3.600,239.644 3.452,239.756 3.271 C 239.868 3.089,239.024 2.899,237.880 2.848 C 236.736 2.796,235.629 2.585,235.420 2.377 C 235.211 2.170,234.097 2.000,232.944 2.000 C 231.791 2.000,230.736 1.820,230.600 1.600 C 230.464 1.380,229.229 1.200,227.856 1.200 C 226.408 1.200,225.153 0.993,224.866 0.706 C 224.383 0.223,187.553 -0.112,178.300 0.282 M216.000 31.488 C 216.330 31.612,218.040 31.862,219.800 32.045 C 224.558 32.540,230.336 33.455,234.400 34.357 C 235.390 34.577,236.740 34.866,237.400 35.000 C 239.496 35.425,242.166 36.066,243.200 36.392 C 243.750 36.565,244.920 36.897,245.800 37.129 C 248.269 37.780,254.506 39.648,255.400 40.004 C 255.840 40.179,257.280 40.717,258.600 41.200 C 259.920 41.683,261.405 42.240,261.900 42.439 C 262.395 42.638,263.205 42.962,263.700 43.159 C 265.671 43.946,267.896 44.927,269.779 45.840 C 270.867 46.368,271.992 46.800,272.279 46.800 C 272.565 46.800,272.800 46.980,272.800 47.200 C 272.800 47.420,273.072 47.600,273.405 47.600 C 273.969 47.600,275.544 48.333,276.000 48.808 C 276.110 48.923,277.457 49.643,278.994 50.408 C 281.692 51.752,286.335 54.340,288.400 55.650 C 292.810 58.450,300.735 63.844,302.000 64.907 C 302.330 65.184,303.401 66.039,304.381 66.806 C 312.339 73.038,322.738 83.007,328.465 89.894 C 333.183 95.567,333.226 95.600,335.946 95.600 C 343.375 95.600,346.967 101.020,343.146 106.462 C 342.093 107.961,342.086 107.938,345.325 113.330 C 346.933 116.009,349.033 119.783,349.991 121.717 C 350.949 123.652,351.883 125.328,352.066 125.441 C 352.250 125.554,352.400 125.997,352.400 126.424 C 352.400 126.851,352.580 127.200,352.800 127.200 C 353.020 127.200,353.200 127.560,353.200 128.000 C 353.200 128.440,353.380 128.800,353.600 128.800 C 353.820 128.800,354.000 129.035,354.000 129.321 C 354.000 129.608,354.432 130.733,354.960 131.821 C 355.812 133.580,356.547 135.234,357.614 137.800 C 357.797 138.240,358.176 139.320,358.455 140.200 C 358.735 141.080,359.107 141.971,359.282 142.180 C 359.457 142.389,359.600 142.974,359.600 143.480 C 359.600 143.986,359.780 144.400,360.000 144.400 C 360.220 144.400,360.403 144.715,360.406 145.100 C 360.413 145.918,361.327 148.661,361.726 149.059 C 361.877 149.210,362.000 149.756,362.000 150.272 C 362.000 150.788,362.158 151.523,362.351 151.905 C 362.935 153.061,363.600 155.404,363.600 156.305 C 363.600 156.771,363.761 157.252,363.958 157.374 C 364.155 157.495,364.410 158.271,364.525 159.097 C 364.640 159.924,364.908 161.320,365.119 162.200 C 370.580 184.930,370.600 215.453,365.168 238.000 C 364.930 238.990,364.640 240.476,364.525 241.303 C 364.410 242.129,364.155 242.905,363.958 243.026 C 363.761 243.148,363.600 243.629,363.600 244.095 C 363.600 244.996,362.935 247.339,362.351 248.495 C 362.158 248.877,362.000 249.631,362.000 250.171 C 362.000 250.711,361.820 251.264,361.600 251.400 C 361.380 251.536,361.200 252.076,361.200 252.600 C 361.200 253.124,361.020 253.664,360.800 253.800 C 360.580 253.936,360.400 254.399,360.400 254.829 C 360.400 255.259,360.241 255.923,360.047 256.305 C 359.571 257.240,358.982 258.707,358.400 260.400 C 358.136 261.170,357.757 262.205,357.560 262.700 C 357.362 263.195,357.043 264.005,356.851 264.500 C 355.519 267.930,349.890 279.441,347.641 283.332 C 346.519 285.274,345.600 287.029,345.600 287.232 C 345.600 287.434,345.420 287.600,345.200 287.600 C 344.980 287.600,344.800 287.836,344.800 288.125 C 344.800 288.413,344.440 289.036,344.000 289.508 C 343.560 289.980,343.200 290.472,343.200 290.601 C 343.200 290.871,339.576 296.311,338.005 298.400 C 333.919 303.834,332.665 305.426,329.815 308.800 C 323.596 316.165,314.320 325.459,309.400 329.257 C 308.740 329.766,307.948 330.426,307.639 330.724 C 307.330 331.022,306.160 331.957,305.039 332.804 C 303.918 333.650,302.051 335.076,300.892 335.971 C 299.732 336.867,298.622 337.600,298.425 337.600 C 298.228 337.600,298.007 337.750,297.933 337.934 C 297.749 338.396,289.323 344.000,288.813 344.000 C 288.586 344.000,288.400 344.159,288.400 344.353 C 288.400 344.548,288.085 344.813,287.700 344.942 C 287.020 345.171,286.110 345.680,283.200 347.456 C 281.446 348.526,272.075 353.252,269.400 354.415 C 266.203 355.805,264.657 356.460,263.800 356.787 C 263.360 356.955,262.505 357.297,261.900 357.546 C 261.295 357.796,260.305 358.201,259.700 358.447 C 259.095 358.692,258.287 359.052,257.905 359.247 C 257.523 359.441,256.859 359.600,256.429 359.600 C 255.999 359.600,255.536 359.780,255.400 360.000 C 255.264 360.220,254.724 360.400,254.200 360.400 C 253.676 360.400,253.136 360.580,253.000 360.800 C 252.864 361.020,252.401 361.200,251.971 361.200 C 251.541 361.200,250.877 361.362,250.495 361.561 C 250.113 361.760,248.990 362.140,248.000 362.407 C 247.010 362.674,245.750 363.031,245.200 363.200 C 243.703 363.660,241.243 364.295,239.000 364.800 C 237.900 365.048,236.370 365.406,235.600 365.595 C 228.711 367.293,221.780 368.167,206.546 369.260 C 194.634 370.115,175.074 368.318,161.900 365.160 C 158.175 364.266,157.589 364.111,153.000 362.800 C 152.230 362.580,150.925 362.207,150.100 361.972 C 149.275 361.737,148.192 361.445,147.694 361.324 C 147.196 361.203,146.690 360.946,146.570 360.752 C 146.451 360.559,145.924 360.400,145.400 360.400 C 144.876 360.400,144.336 360.220,144.200 360.000 C 144.064 359.780,143.513 359.600,142.976 359.600 C 142.439 359.600,142.000 359.420,142.000 359.200 C 142.000 358.980,141.638 358.800,141.195 358.800 C 140.752 358.800,140.077 358.641,139.695 358.447 C 139.025 358.106,137.792 357.587,135.900 356.849 C 128.799 354.079,115.571 347.139,110.077 343.300 C 108.739 342.365,107.454 341.600,107.222 341.600 C 106.990 341.600,106.800 341.420,106.800 341.200 C 106.800 340.980,106.592 340.800,106.337 340.800 C 106.082 340.800,104.957 340.114,103.837 339.276 C 102.717 338.438,100.720 336.961,99.400 335.994 C 88.636 328.105,76.525 316.493,68.119 306.001 C 64.762 301.811,63.313 299.863,59.665 294.631 C 57.609 291.683,51.977 282.187,50.394 279.000 C 49.629 277.460,48.868 276.140,48.702 276.067 C 48.536 275.993,48.400 275.588,48.400 275.167 C 48.400 274.745,48.220 274.400,48.000 274.400 C 47.780 274.400,47.600 274.040,47.600 273.600 C 47.600 273.160,47.420 272.800,47.200 272.800 C 46.980 272.800,46.800 272.565,46.800 272.279 C 46.800 271.992,46.368 270.867,45.840 269.779 C 44.927 267.896,43.946 265.671,43.159 263.700 C 42.962 263.205,42.638 262.395,42.439 261.900 C 42.240 261.405,41.683 259.920,41.200 258.600 C 40.717 257.280,40.179 255.840,40.004 255.400 C 39.648 254.506,37.780 248.269,37.129 245.800 C 36.897 244.920,36.565 243.750,36.392 243.200 C 36.066 242.166,35.425 239.496,35.000 237.400 C 34.866 236.740,34.577 235.390,34.357 234.400 C 29.928 214.455,29.937 185.535,34.379 165.500 C 35.404 160.875,35.578 160.110,35.952 158.600 C 36.169 157.720,36.549 156.280,36.796 155.400 C 37.043 154.520,37.425 153.087,37.644 152.216 C 38.269 149.726,41.043 141.558,42.437 138.100 C 42.637 137.605,42.957 136.795,43.149 136.300 C 44.801 132.045,51.486 118.694,54.316 114.000 C 55.709 111.690,57.062 109.441,57.324 109.002 C 58.120 107.669,60.985 103.413,61.230 103.200 C 61.357 103.090,62.194 101.920,63.090 100.600 C 63.987 99.280,65.058 97.840,65.471 97.400 C 65.884 96.960,66.658 95.970,67.192 95.200 C 67.725 94.430,68.261 93.710,68.382 93.600 C 68.503 93.490,70.217 91.510,72.192 89.200 C 77.100 83.457,84.882 75.783,90.660 70.990 C 97.684 65.162,98.720 64.343,100.966 62.833 C 102.085 62.082,103.090 61.359,103.200 61.228 C 103.387 61.005,106.380 59.008,109.600 56.958 C 116.155 52.785,129.705 45.782,136.300 43.158 C 136.795 42.961,137.605 42.637,138.100 42.437 C 141.373 41.118,149.850 38.250,152.369 37.609 C 153.156 37.409,154.520 37.043,155.400 36.796 C 156.280 36.549,157.720 36.169,158.600 35.952 C 160.110 35.578,160.875 35.404,165.500 34.379 C 169.155 33.568,173.048 32.936,180.400 31.957 C 187.313 31.036,213.858 30.687,216.000 31.488 M116.400 111.173 C 97.494 113.868,86.121 124.778,81.553 144.600 C 80.824 147.765,80.812 160.934,81.536 164.000 C 83.325 171.575,86.419 178.928,90.122 184.400 C 91.090 185.830,93.097 188.800,94.582 191.000 C 97.340 195.085,100.711 201.502,102.358 205.800 C 102.864 207.120,103.429 208.560,103.613 209.000 C 104.329 210.707,105.559 215.538,106.008 218.400 C 107.452 227.622,110.559 239.006,114.088 248.000 C 118.050 258.101,125.520 271.741,130.371 277.734 C 141.091 290.976,144.623 293.626,154.200 295.610 C 161.655 297.154,164.388 298.776,173.924 307.317 C 176.659 309.766,180.882 310.948,190.714 312.016 C 200.771 313.109,211.952 310.363,219.849 304.861 C 224.282 301.773,224.503 301.463,228.741 292.400 C 229.616 290.530,231.252 287.032,232.377 284.627 C 234.594 279.890,236.474 277.659,239.027 276.736 C 240.269 276.287,240.714 275.758,241.998 273.204 C 244.657 267.915,247.096 266.246,252.200 266.220 C 257.676 266.191,259.221 267.453,264.056 275.900 C 265.704 278.778,266.439 280.068,267.247 281.500 C 271.282 288.644,275.664 292.187,282.435 293.784 C 288.518 295.217,293.106 294.184,305.400 288.610 C 306.060 288.311,307.346 287.769,308.259 287.406 C 310.422 286.546,311.147 281.236,309.624 277.400 C 308.294 274.047,306.990 272.570,304.125 271.173 C 301.840 270.058,293.132 269.815,290.227 270.785 C 288.124 271.487,281.694 271.497,279.957 270.800 C 275.294 268.930,273.188 266.542,269.257 258.669 C 260.160 240.453,252.659 232.378,244.203 231.699 C 238.976 231.280,225.224 234.361,216.200 237.973 C 214.887 238.498,213.041 239.274,212.400 239.569 C 212.070 239.721,211.260 240.915,210.600 242.223 C 204.212 254.876,194.988 260.989,179.489 262.839 C 165.219 264.542,143.321 256.554,146.414 250.774 C 146.835 249.987,148.568 249.701,148.970 250.352 C 149.090 250.546,149.596 250.799,150.094 250.914 C 150.592 251.029,152.260 251.516,153.800 251.995 C 157.702 253.209,159.154 253.610,161.000 253.985 C 161.880 254.164,164.130 254.627,166.000 255.013 C 175.054 256.885,186.771 255.786,192.999 252.480 C 197.061 250.324,205.999 242.662,206.000 241.335 C 206.001 241.151,206.406 240.520,206.900 239.934 C 207.395 239.347,208.089 238.520,208.443 238.096 C 213.777 231.695,220.545 217.429,222.720 208.000 C 224.254 201.349,224.800 196.843,224.800 190.826 C 224.800 185.275,224.826 185.106,225.916 183.472 C 233.010 172.839,231.494 164.249,222.000 161.283 C 206.971 156.589,198.789 161.085,198.743 174.064 C 198.727 178.545,198.948 180.017,200.803 187.800 C 203.214 197.917,202.526 204.069,197.945 213.330 C 190.963 227.449,180.891 233.485,169.400 230.439 C 166.957 229.792,162.955 228.499,161.600 227.920 C 161.050 227.685,160.240 227.355,159.800 227.186 C 158.753 226.783,153.571 224.459,152.800 224.046 C 152.230 223.741,151.473 223.349,149.545 222.362 C 139.769 217.358,138.767 214.169,145.409 209.200 C 145.850 208.870,146.761 208.150,147.434 207.600 C 148.107 207.050,149.264 206.150,150.005 205.600 C 152.527 203.729,159.795 197.333,161.200 195.748 C 165.126 191.319,168.800 186.449,168.800 185.674 C 168.800 185.403,167.359 185.244,164.842 185.235 C 162.664 185.227,160.369 185.011,159.742 184.754 C 156.569 183.458,155.811 183.011,154.423 181.623 C 152.590 179.790,151.506 177.725,151.835 176.690 C 152.138 175.735,152.956 175.852,157.600 177.511 C 166.536 180.703,171.895 180.749,173.256 177.645 C 173.701 176.630,174.231 175.487,174.433 175.105 C 174.635 174.723,174.800 174.136,174.800 173.800 C 174.800 173.464,174.962 172.877,175.161 172.495 C 175.516 171.811,175.890 170.454,176.759 166.694 C 177.002 165.646,177.200 162.454,177.200 159.600 C 177.200 156.746,177.002 153.554,176.759 152.506 C 175.890 148.746,175.516 147.389,175.161 146.705 C 174.962 146.323,174.800 145.783,174.800 145.505 C 174.797 142.804,167.825 132.345,162.670 127.311 C 154.716 119.544,145.104 114.526,132.606 111.617 C 130.140 111.043,119.381 110.748,116.400 111.173 M148.490 281.022 C 149.801 281.334,152.400 284.093,152.400 285.173 C 152.400 288.304,146.196 287.357,144.371 283.946 C 143.494 282.308,145.048 280.174,146.800 280.612 C 147.130 280.695,147.891 280.879,148.490 281.022 " stroke="none" fill="#fcd3bb" fill-rule="evenodd"></path><path id="path3" d="M190.200 31.223 C 186.680 31.378,182.270 31.708,180.400 31.957 C 173.048 32.936,169.155 33.568,165.500 34.379 C 160.875 35.404,160.110 35.578,158.600 35.952 C 157.720 36.169,156.280 36.549,155.400 36.796 C 154.520 37.043,153.156 37.409,152.369 37.609 C 149.850 38.250,141.373 41.118,138.100 42.437 C 137.605 42.637,136.795 42.961,136.300 43.158 C 129.705 45.782,116.155 52.785,109.600 56.958 C 106.380 59.008,103.387 61.005,103.200 61.228 C 103.090 61.359,102.085 62.082,100.966 62.833 C 98.720 64.343,97.684 65.162,90.660 70.990 C 84.882 75.783,77.100 83.457,72.192 89.200 C 70.217 91.510,68.503 93.490,68.382 93.600 C 68.261 93.710,67.725 94.430,67.192 95.200 C 66.658 95.970,65.884 96.960,65.471 97.400 C 65.058 97.840,63.987 99.280,63.090 100.600 C 62.194 101.920,61.357 103.090,61.230 103.200 C 60.985 103.413,58.120 107.669,57.324 109.002 C 57.062 109.441,55.709 111.690,54.316 114.000 C 51.486 118.694,44.801 132.045,43.149 136.300 C 42.957 136.795,42.637 137.605,42.437 138.100 C 41.043 141.558,38.269 149.726,37.644 152.216 C 37.425 153.087,37.043 154.520,36.796 155.400 C 36.549 156.280,36.169 157.720,35.952 158.600 C 35.578 160.110,35.404 160.875,34.379 165.500 C 29.937 185.535,29.928 214.455,34.357 234.400 C 34.577 235.390,34.866 236.740,35.000 237.400 C 35.425 239.496,36.066 242.166,36.392 243.200 C 36.565 243.750,36.897 244.920,37.129 245.800 C 37.780 248.269,39.648 254.506,40.004 255.400 C 40.179 255.840,40.717 257.280,41.200 258.600 C 41.683 259.920,42.240 261.405,42.439 261.900 C 42.638 262.395,42.962 263.205,43.159 263.700 C 43.946 265.671,44.927 267.896,45.840 269.779 C 46.368 270.867,46.800 271.992,46.800 272.279 C 46.800 272.565,46.980 272.800,47.200 272.800 C 47.420 272.800,47.600 273.160,47.600 273.600 C 47.600 274.040,47.780 274.400,48.000 274.400 C 48.220 274.400,48.400 274.745,48.400 275.167 C 48.400 275.588,48.536 275.993,48.702 276.067 C 48.868 276.140,49.629 277.460,50.394 279.000 C 51.977 282.187,57.609 291.683,59.665 294.631 C 63.313 299.863,64.762 301.811,68.119 306.001 C 76.525 316.493,88.636 328.105,99.400 335.994 C 100.720 336.961,102.717 338.438,103.837 339.276 C 104.957 340.114,106.082 340.800,106.337 340.800 C 106.592 340.800,106.800 340.980,106.800 341.200 C 106.800 341.420,106.990 341.600,107.222 341.600 C 107.454 341.600,108.739 342.365,110.077 343.300 C 115.061 346.782,128.426 354.039,129.747 353.980 C 129.996 353.969,127.950 352.834,125.200 351.460 C 122.450 350.085,119.390 348.499,118.400 347.936 C 117.410 347.374,115.970 346.555,115.200 346.117 C 110.532 343.463,98.610 335.021,92.600 330.113 C 86.652 325.255,75.860 314.622,72.187 310.000 C 70.876 308.350,69.712 306.910,69.601 306.800 C 69.490 306.690,69.144 306.105,68.832 305.500 C 68.520 304.895,68.115 304.400,67.932 304.400 C 67.750 304.400,67.600 304.240,67.600 304.044 C 67.600 303.848,66.655 302.088,65.500 300.133 C 62.931 295.787,56.800 283.437,55.603 280.200 C 55.440 279.760,55.103 278.905,54.854 278.300 C 54.604 277.695,54.199 276.705,53.953 276.100 C 53.708 275.495,53.348 274.687,53.153 274.305 C 52.959 273.923,52.800 273.284,52.800 272.885 C 52.800 272.486,52.652 271.989,52.472 271.780 C 51.939 271.162,48.751 260.647,47.808 256.392 C 47.443 254.747,46.972 252.680,46.762 251.800 C 46.216 249.519,45.583 245.732,45.356 243.400 C 45.249 242.300,44.998 241.040,44.797 240.600 C 44.597 240.160,44.337 238.630,44.220 237.200 C 44.103 235.770,43.803 232.080,43.554 229.000 C 42.349 214.127,43.739 191.799,46.727 178.000 C 46.942 177.010,47.405 174.762,47.758 173.003 C 48.654 168.533,51.658 157.821,52.441 156.305 C 52.638 155.923,52.800 155.284,52.800 154.885 C 52.800 154.486,52.943 153.989,53.118 153.780 C 53.293 153.571,53.665 152.680,53.945 151.800 C 54.224 150.920,54.645 149.750,54.880 149.200 C 55.115 148.650,55.484 147.750,55.700 147.200 C 55.916 146.650,56.252 145.887,56.447 145.505 C 56.641 145.123,56.800 144.538,56.800 144.205 C 56.800 143.872,56.980 143.600,57.200 143.600 C 57.420 143.600,57.600 143.328,57.600 142.995 C 57.600 142.662,57.762 142.077,57.959 141.695 C 58.157 141.313,59.078 139.380,60.006 137.400 C 62.398 132.298,64.403 128.434,66.856 124.200 C 68.330 121.656,74.753 111.938,75.184 111.600 C 75.324 111.490,75.871 110.770,76.400 110.000 C 76.929 109.230,77.641 108.330,77.981 107.999 C 78.321 107.669,79.043 106.769,79.584 105.999 C 82.072 102.461,89.985 94.152,95.202 89.600 C 96.841 88.170,98.698 86.550,99.328 86.000 C 99.958 85.450,102.122 83.790,104.137 82.311 C 106.152 80.833,107.980 79.483,108.200 79.311 C 108.420 79.140,109.095 78.745,109.700 78.432 C 110.305 78.120,110.800 77.715,110.800 77.532 C 110.800 77.350,110.993 77.200,111.228 77.200 C 111.463 77.200,112.441 76.660,113.400 76.000 C 114.359 75.340,115.337 74.800,115.572 74.800 C 115.807 74.800,116.000 74.620,116.000 74.400 C 116.000 74.180,116.255 74.000,116.567 74.000 C 116.878 74.000,117.193 73.865,117.267 73.700 C 117.405 73.388,120.335 71.806,125.800 69.091 C 131.011 66.502,136.661 64.194,142.200 62.392 C 145.060 61.461,147.760 60.556,148.200 60.380 C 148.981 60.068,150.166 59.784,152.600 59.326 C 153.260 59.201,154.012 58.931,154.271 58.725 C 155.605 57.664,162.473 58.329,163.600 59.629 C 165.258 61.541,170.749 64.122,174.573 64.787 C 178.500 65.470,187.239 64.809,189.487 63.658 C 189.879 63.458,190.740 63.053,191.400 62.759 C 193.925 61.634,196.351 59.681,200.600 55.353 C 206.136 49.712,206.400 49.597,213.749 49.609 C 223.784 49.624,238.408 51.372,247.200 53.608 C 248.190 53.859,249.676 54.160,250.503 54.275 C 251.329 54.390,252.105 54.645,252.226 54.842 C 252.348 55.039,252.966 55.200,253.600 55.200 C 254.234 55.200,254.864 55.380,255.000 55.600 C 255.136 55.820,255.766 56.000,256.400 56.000 C 257.034 56.000,257.664 56.180,257.800 56.400 C 257.936 56.620,258.577 56.800,259.224 56.800 C 259.871 56.800,260.400 56.980,260.400 57.200 C 260.400 57.420,260.839 57.600,261.376 57.600 C 261.913 57.600,262.464 57.780,262.600 58.000 C 262.736 58.220,263.276 58.400,263.800 58.400 C 264.324 58.400,264.864 58.580,265.000 58.800 C 265.136 59.020,265.599 59.200,266.029 59.200 C 266.784 59.200,267.174 59.344,269.095 60.338 C 269.587 60.592,270.174 60.800,270.399 60.800 C 270.785 60.800,271.379 61.045,276.096 63.153 C 277.138 63.619,278.092 64.000,278.215 64.000 C 278.692 64.000,291.908 70.708,292.400 71.200 C 292.796 71.596,295.015 72.854,295.700 73.071 C 296.085 73.193,296.400 73.452,296.400 73.647 C 296.400 73.841,296.588 74.000,296.818 74.000 C 297.048 74.000,298.570 74.900,300.200 76.000 C 301.830 77.100,303.260 78.000,303.377 78.000 C 303.495 78.000,303.908 78.262,304.295 78.583 C 304.683 78.903,306.845 80.506,309.100 82.145 C 312.766 84.810,315.028 86.562,317.172 88.400 C 319.733 90.594,323.059 93.534,323.814 94.271 C 324.747 95.182,325.830 95.315,335.800 95.745 C 339.232 95.892,339.255 95.888,336.302 95.650 C 332.818 95.369,333.410 95.804,328.475 89.892 C 322.683 82.954,312.314 73.018,304.381 66.806 C 303.401 66.039,302.330 65.184,302.000 64.907 C 300.735 63.844,292.810 58.450,288.400 55.650 C 286.335 54.340,281.692 51.752,278.994 50.408 C 277.457 49.643,276.110 48.923,276.000 48.808 C 275.544 48.333,273.969 47.600,273.405 47.600 C 273.072 47.600,272.800 47.420,272.800 47.200 C 272.800 46.980,272.565 46.800,272.279 46.800 C 271.992 46.800,270.867 46.368,269.779 45.840 C 267.896 44.927,265.671 43.946,263.700 43.159 C 263.205 42.962,262.395 42.638,261.900 42.439 C 261.405 42.240,259.920 41.683,258.600 41.200 C 257.280 40.717,255.840 40.179,255.400 40.004 C 254.506 39.648,248.269 37.780,245.800 37.129 C 244.920 36.897,243.750 36.565,243.200 36.392 C 242.166 36.066,239.496 35.425,237.400 35.000 C 236.740 34.866,235.390 34.577,234.400 34.357 C 230.336 33.455,224.558 32.540,219.800 32.045 C 218.040 31.862,216.330 31.612,216.000 31.488 C 214.988 31.110,196.984 30.925,190.200 31.223 M212.200 56.800 C 212.064 57.020,211.686 57.200,211.360 57.200 C 208.962 57.200,206.998 61.210,208.177 63.696 C 210.600 68.801,221.600 67.294,221.600 61.857 C 221.600 60.310,220.180 58.000,219.229 58.000 C 218.993 58.000,218.800 57.820,218.800 57.600 C 218.800 57.380,218.451 57.200,218.024 57.200 C 217.597 57.200,217.136 57.020,217.000 56.800 C 216.864 56.580,215.784 56.400,214.600 56.400 C 213.416 56.400,212.336 56.580,212.200 56.800 M149.200 68.454 C 146.531 69.635,145.600 70.667,145.600 72.442 C 145.600 76.642,154.615 76.896,158.300 72.800 C 161.539 69.199,154.793 65.977,149.200 68.454 M342.486 97.792 C 345.413 101.333,343.397 108.800,339.515 108.800 C 337.938 108.800,338.511 110.559,340.819 112.799 C 341.159 113.130,341.871 114.030,342.400 114.800 C 342.929 115.570,343.472 116.290,343.607 116.400 C 343.742 116.510,344.462 117.500,345.207 118.600 C 345.952 119.700,346.759 120.801,347.000 121.047 C 347.240 121.293,348.225 122.733,349.189 124.247 C 353.248 130.628,353.759 131.410,353.992 131.600 C 354.342 131.885,356.275 136.019,358.014 140.200 C 358.197 140.640,358.577 141.720,358.857 142.600 C 359.137 143.480,359.477 144.380,359.611 144.600 C 359.746 144.820,360.089 145.810,360.374 146.800 C 360.658 147.790,361.030 148.960,361.200 149.400 C 361.370 149.840,361.730 151.010,362.001 152.000 C 362.271 152.990,362.631 154.250,362.800 154.800 C 363.716 157.780,365.012 163.386,365.944 168.400 C 366.884 173.451,367.162 175.122,367.441 177.400 C 367.603 178.720,367.809 179.479,367.899 179.087 C 368.165 177.932,366.568 168.231,365.119 162.200 C 364.908 161.320,364.640 159.924,364.525 159.097 C 364.410 158.271,364.155 157.495,363.958 157.374 C 363.761 157.252,363.600 156.771,363.600 156.305 C 363.600 155.404,362.935 153.061,362.351 151.905 C 362.158 151.523,362.000 150.788,362.000 150.272 C 362.000 149.756,361.877 149.210,361.726 149.059 C 361.327 148.661,360.413 145.918,360.406 145.100 C 360.403 144.715,360.220 144.400,360.000 144.400 C 359.780 144.400,359.600 143.986,359.600 143.480 C 359.600 142.974,359.457 142.389,359.282 142.180 C 359.107 141.971,358.735 141.080,358.455 140.200 C 358.176 139.320,357.797 138.240,357.614 137.800 C 356.547 135.234,355.812 133.580,354.960 131.821 C 354.432 130.733,354.000 129.608,354.000 129.321 C 354.000 129.035,353.820 128.800,353.600 128.800 C 353.380 128.800,353.200 128.440,353.200 128.000 C 353.200 127.560,353.020 127.200,352.800 127.200 C 352.580 127.200,352.400 126.851,352.400 126.424 C 352.400 125.997,352.250 125.554,352.066 125.441 C 351.883 125.328,350.949 123.652,349.991 121.717 C 349.033 119.783,346.933 116.009,345.325 113.330 C 342.086 107.938,342.093 107.961,343.146 106.462 C 345.229 103.495,345.101 100.314,342.804 97.981 C 342.252 97.420,342.109 97.335,342.486 97.792 M117.200 110.598 C 110.745 111.436,107.909 112.259,102.549 114.850 C 92.194 119.854,81.338 131.912,75.839 144.519 C 74.494 147.601,73.391 151.223,72.707 154.800 C 72.159 157.665,72.154 171.222,72.700 173.800 C 72.933 174.900,73.255 176.479,73.416 177.310 C 73.576 178.140,73.864 178.916,74.054 179.033 C 74.244 179.151,74.400 179.602,74.400 180.036 C 74.400 181.531,78.027 189.596,80.083 192.672 C 80.697 193.592,81.200 194.457,81.200 194.596 C 81.200 194.734,81.708 195.511,82.330 196.323 C 85.611 200.613,86.800 202.319,86.800 202.737 C 86.800 202.992,86.935 203.201,87.100 203.203 C 87.265 203.205,87.593 203.610,87.828 204.103 C 88.064 204.596,89.086 206.620,90.099 208.600 C 92.411 213.116,93.600 215.800,93.600 216.498 C 93.600 216.796,93.749 217.211,93.930 217.420 C 94.112 217.629,94.505 218.610,94.802 219.600 C 95.100 220.590,95.461 221.580,95.605 221.800 C 95.889 222.235,96.667 225.759,96.975 228.000 C 97.080 228.770,97.355 230.390,97.584 231.600 C 97.814 232.810,98.115 234.569,98.254 235.509 C 98.393 236.449,98.662 237.315,98.853 237.433 C 99.044 237.551,99.200 238.256,99.200 239.000 C 99.200 239.744,99.380 240.464,99.600 240.600 C 99.820 240.736,100.000 241.379,100.000 242.029 C 100.000 242.679,100.162 243.523,100.359 243.905 C 100.556 244.287,101.115 245.950,101.600 247.600 C 102.085 249.250,102.644 250.913,102.841 251.295 C 103.038 251.677,103.200 252.264,103.200 252.600 C 103.200 252.936,103.366 253.523,103.568 253.905 C 103.770 254.287,104.331 255.680,104.814 257.000 C 105.297 258.320,106.031 260.163,106.446 261.096 C 106.861 262.028,107.200 262.873,107.200 262.972 C 107.200 263.299,111.149 271.340,112.911 274.600 C 118.098 284.194,127.165 295.543,134.800 301.998 C 136.230 303.206,137.490 304.287,137.600 304.400 C 138.554 305.377,144.895 309.689,147.400 311.065 C 149.343 312.132,156.290 315.562,157.400 316.003 C 157.840 316.177,159.053 316.698,160.096 317.160 C 161.138 317.622,162.253 318.000,162.572 318.000 C 162.891 318.000,163.264 318.180,163.400 318.400 C 163.536 318.620,164.166 318.800,164.800 318.800 C 165.434 318.800,166.064 318.980,166.200 319.200 C 166.336 319.420,166.889 319.600,167.429 319.600 C 167.969 319.600,168.723 319.764,169.105 319.965 C 169.737 320.296,171.087 320.603,176.400 321.622 C 184.294 323.136,190.454 323.026,197.400 321.246 C 198.280 321.020,199.498 320.716,200.106 320.570 C 200.714 320.424,201.310 320.146,201.430 319.952 C 201.549 319.759,201.918 319.600,202.249 319.600 C 203.710 319.600,211.471 315.221,214.908 312.457 C 221.633 307.050,224.940 302.039,231.951 286.634 C 235.479 278.884,237.639 276.862,242.784 276.494 C 247.600 276.149,251.326 278.594,253.990 283.848 C 254.535 284.921,255.093 285.890,255.230 286.000 C 255.368 286.110,255.552 286.384,255.640 286.610 C 258.607 294.208,264.759 300.723,271.600 303.509 C 275.892 305.257,282.439 305.053,287.000 303.029 C 287.880 302.638,288.960 302.180,289.400 302.010 C 289.840 301.840,291.100 301.296,292.200 300.800 C 293.300 300.304,294.560 299.760,295.000 299.590 C 295.440 299.420,296.520 298.972,297.400 298.593 C 298.280 298.215,299.585 297.656,300.300 297.353 C 301.015 297.049,302.230 296.522,302.999 296.181 C 311.132 292.587,313.548 278.248,306.994 272.478 C 303.672 269.554,298.126 268.877,289.600 270.352 C 279.169 272.157,275.420 269.842,269.459 257.915 C 260.509 240.011,252.578 231.687,244.057 231.257 C 240.475 231.076,229.105 232.839,229.743 233.476 C 229.833 233.566,231.052 233.382,232.453 233.067 C 240.774 231.196,245.291 231.206,249.278 233.105 C 255.929 236.273,261.867 243.872,269.257 258.669 C 273.188 266.542,275.294 268.930,279.957 270.800 C 281.694 271.497,288.124 271.487,290.227 270.785 C 293.132 269.815,301.840 270.058,304.125 271.173 C 306.997 272.574,308.164 273.886,309.571 277.300 C 311.153 281.139,310.453 286.533,308.259 287.406 C 307.346 287.769,306.060 288.311,305.400 288.610 C 293.106 294.184,288.518 295.217,282.435 293.784 C 275.664 292.187,271.282 288.644,267.247 281.500 C 266.439 280.068,265.704 278.778,264.056 275.900 C 259.221 267.453,257.676 266.191,252.200 266.220 C 247.096 266.246,244.657 267.915,241.998 273.204 C 240.714 275.758,240.269 276.287,239.027 276.736 C 236.474 277.659,234.594 279.890,232.377 284.627 C 231.252 287.032,229.616 290.530,228.741 292.400 C 224.503 301.463,224.282 301.773,219.849 304.861 C 211.952 310.363,200.771 313.109,190.714 312.016 C 180.882 310.948,176.659 309.766,173.924 307.317 C 164.388 298.776,161.655 297.154,154.200 295.610 C 144.623 293.626,141.091 290.976,130.371 277.734 C 126.413 272.845,120.188 261.951,115.894 252.400 C 111.807 243.310,107.693 229.160,106.008 218.400 C 105.559 215.538,104.329 210.707,103.613 209.000 C 103.429 208.560,102.864 207.120,102.358 205.800 C 100.711 201.502,97.340 195.085,94.582 191.000 C 93.097 188.800,91.090 185.830,90.122 184.400 C 86.419 178.928,83.325 171.575,81.536 164.000 C 80.812 160.934,80.824 147.765,81.553 144.600 C 85.921 125.647,95.672 115.651,113.800 111.544 C 116.982 110.823,128.957 110.814,132.200 111.530 C 150.952 115.670,165.240 126.059,172.811 141.061 C 173.905 143.227,174.799 145.227,174.800 145.505 C 174.800 145.783,174.962 146.323,175.161 146.705 C 175.516 147.389,175.890 148.746,176.759 152.506 C 177.002 153.554,177.200 156.746,177.200 159.600 C 177.200 162.454,177.002 165.646,176.759 166.694 C 175.890 170.454,175.516 171.811,175.161 172.495 C 174.962 172.877,174.800 173.464,174.800 173.800 C 174.800 174.136,174.635 174.723,174.433 175.105 C 174.231 175.487,173.701 176.630,173.256 177.645 C 171.895 180.749,166.536 180.703,157.600 177.511 C 152.956 175.852,152.138 175.735,151.835 176.690 C 151.506 177.725,152.590 179.790,154.423 181.623 C 155.811 183.011,156.569 183.458,159.742 184.754 C 160.369 185.011,162.664 185.227,164.842 185.235 C 167.359 185.244,168.800 185.403,168.800 185.674 C 168.800 186.449,165.126 191.319,161.200 195.748 C 159.795 197.333,152.527 203.729,150.005 205.600 C 149.264 206.150,148.107 207.050,147.434 207.600 C 146.761 208.150,145.850 208.870,145.409 209.200 C 138.418 214.430,139.712 217.481,151.400 223.325 C 151.840 223.545,152.470 223.870,152.800 224.046 C 153.519 224.432,158.629 226.729,159.900 227.239 C 160.395 227.438,161.205 227.768,161.700 227.974 C 178.251 234.847,189.564 230.276,197.945 213.330 C 202.526 204.069,203.214 197.917,200.803 187.800 C 198.948 180.017,198.727 178.545,198.743 174.064 C 198.789 161.085,206.971 156.589,222.000 161.283 C 231.494 164.249,233.010 172.839,225.916 183.472 C 224.826 185.106,224.800 185.275,224.800 190.826 C 224.800 196.843,224.254 201.349,222.720 208.000 C 220.545 217.429,213.777 231.695,208.443 238.096 C 208.089 238.520,207.395 239.347,206.900 239.934 C 206.406 240.520,206.001 241.151,206.000 241.335 C 206.000 241.996,200.939 246.945,198.000 249.158 C 193.401 252.622,190.722 253.899,185.200 255.258 C 181.938 256.061,170.355 255.914,166.000 255.013 C 164.130 254.627,161.880 254.164,161.000 253.985 C 159.154 253.610,157.702 253.209,153.800 251.995 C 152.260 251.516,150.592 251.029,150.094 250.914 C 149.596 250.799,149.090 250.546,148.970 250.352 C 148.568 249.701,146.835 249.987,146.414 250.774 C 143.321 256.554,165.219 264.542,179.489 262.839 C 194.988 260.989,204.212 254.876,210.600 242.223 C 211.260 240.915,212.070 239.721,212.400 239.569 C 212.730 239.417,213.495 239.092,214.100 238.846 C 214.705 238.601,215.605 238.225,216.100 238.011 C 216.595 237.797,218.800 237.064,221.000 236.381 C 225.785 234.895,226.875 234.466,225.956 234.427 C 225.025 234.388,217.341 236.967,212.084 239.083 C 209.600 240.083,207.467 240.800,207.343 240.677 C 207.166 240.500,209.052 237.748,210.000 236.800 C 213.010 233.790,220.081 219.528,221.999 212.600 C 224.545 203.400,225.200 199.069,225.200 191.429 C 225.200 186.336,225.302 185.377,225.939 184.462 C 232.821 174.573,232.220 165.224,224.469 161.580 C 217.980 158.530,206.982 158.373,203.269 161.277 C 201.141 162.941,200.290 164.177,198.897 167.629 C 197.405 171.326,198.031 179.359,200.559 188.951 C 203.091 198.560,201.105 208.338,194.666 217.971 C 186.550 230.111,178.756 232.972,165.400 228.713 C 164.080 228.292,162.550 227.755,162.000 227.520 C 161.450 227.285,160.640 226.956,160.200 226.788 C 157.179 225.638,147.213 220.723,145.400 219.490 C 140.273 216.000,140.328 214.042,145.675 209.693 C 147.064 208.564,150.350 205.894,152.978 203.760 C 155.606 201.626,158.216 199.424,158.778 198.866 C 174.908 182.867,180.790 165.421,176.066 147.600 C 175.460 145.315,172.309 138.233,171.617 137.600 C 171.497 137.490,171.135 136.889,170.812 136.264 C 166.523 127.952,152.188 117.050,140.600 113.287 C 131.459 110.318,125.037 109.580,117.200 110.598 M368.088 182.000 C 368.078 183.210,368.210 185.100,368.382 186.200 L 368.693 188.200 368.712 186.000 C 368.722 184.790,368.590 182.900,368.418 181.800 L 368.107 179.800 368.088 182.000 M368.909 200.200 C 368.910 206.769,368.939 207.072,369.243 203.655 C 369.426 201.595,369.426 198.355,369.242 196.455 C 368.948 193.414,368.908 193.862,368.909 200.200 M368.264 215.800 C 368.094 217.780,367.785 220.264,367.577 221.320 C 367.197 223.256,367.059 226.275,367.365 225.967 C 367.682 225.647,368.853 214.841,368.714 213.526 C 368.636 212.797,368.434 213.820,368.264 215.800 M366.611 228.263 C 366.474 229.329,366.205 230.920,366.013 231.800 C 365.822 232.680,365.453 234.480,365.194 235.800 C 364.935 237.120,364.561 238.613,364.362 239.119 C 364.163 239.624,364.000 240.471,364.000 241.000 C 364.000 241.529,363.843 242.376,363.651 242.881 C 363.310 243.778,363.027 244.731,362.008 248.400 C 361.734 249.390,361.374 250.560,361.210 251.000 C 361.045 251.440,360.694 252.520,360.429 253.400 C 360.164 254.280,359.791 255.360,359.600 255.800 C 359.409 256.240,358.858 257.770,358.375 259.200 C 357.893 260.630,356.355 264.399,354.958 267.576 C 353.561 270.753,352.492 273.425,352.581 273.515 C 352.671 273.604,353.134 272.805,353.610 271.739 C 354.086 270.673,354.927 268.810,355.480 267.600 C 356.912 264.462,357.520 262.964,358.400 260.400 C 358.982 258.707,359.571 257.240,360.047 256.305 C 360.241 255.923,360.400 255.259,360.400 254.829 C 360.400 254.399,360.580 253.936,360.800 253.800 C 361.020 253.664,361.200 253.124,361.200 252.600 C 361.200 252.076,361.380 251.536,361.600 251.400 C 361.820 251.264,362.000 250.711,362.000 250.171 C 362.000 249.631,362.158 248.877,362.351 248.495 C 362.935 247.339,363.600 244.996,363.600 244.095 C 363.600 243.629,363.761 243.148,363.958 243.026 C 364.155 242.905,364.410 242.129,364.525 241.303 C 364.640 240.476,364.931 238.990,365.170 238.000 C 366.266 233.464,367.357 226.824,367.056 226.523 C 366.948 226.415,366.748 227.198,366.611 228.263 M227.200 234.000 C 226.405 234.514,227.404 234.514,228.600 234.000 L 229.400 233.656 228.600 233.634 C 228.160 233.622,227.530 233.787,227.200 234.000 M350.711 276.682 C 348.440 281.134,346.859 283.994,346.005 285.193 C 345.562 285.815,345.200 286.430,345.200 286.561 C 345.200 287.218,336.160 300.479,333.823 303.250 C 333.150 304.048,331.610 305.930,330.400 307.433 C 327.120 311.505,323.657 315.221,317.832 320.916 C 312.961 325.678,310.078 328.187,303.000 333.826 C 300.359 335.930,287.295 344.765,286.000 345.323 C 285.670 345.465,284.500 346.127,283.400 346.793 C 282.300 347.459,278.838 349.296,275.707 350.876 C 272.576 352.455,270.094 353.827,270.191 353.925 C 270.378 354.111,280.790 348.937,283.200 347.459 C 286.040 345.719,287.016 345.173,287.700 344.942 C 288.085 344.813,288.400 344.548,288.400 344.353 C 288.400 344.159,288.586 344.000,288.813 344.000 C 289.323 344.000,297.749 338.396,297.933 337.934 C 298.007 337.750,298.228 337.600,298.425 337.600 C 298.622 337.600,299.732 336.867,300.892 335.971 C 302.051 335.076,303.918 333.650,305.039 332.804 C 306.160 331.957,307.330 331.022,307.639 330.724 C 307.948 330.426,308.740 329.766,309.400 329.257 C 314.320 325.459,323.596 316.165,329.815 308.800 C 332.665 305.426,333.919 303.834,338.005 298.400 C 339.576 296.311,343.200 290.871,343.200 290.601 C 343.200 290.472,343.560 289.980,344.000 289.508 C 344.440 289.036,344.800 288.413,344.800 288.125 C 344.800 287.836,344.980 287.600,345.200 287.600 C 345.420 287.600,345.600 287.428,345.600 287.218 C 345.600 287.007,346.162 285.882,346.850 284.718 C 349.185 280.761,352.487 274.353,352.291 274.158 C 352.184 274.051,351.473 275.187,350.711 276.682 M145.291 280.896 C 142.424 282.265,145.272 286.636,149.330 287.093 C 153.502 287.564,152.738 282.035,148.490 281.022 C 147.891 280.879,147.130 280.695,146.800 280.612 C 146.470 280.529,145.791 280.657,145.291 280.896 M130.400 354.171 C 130.400 354.337,134.202 356.180,135.800 356.788 C 137.146 357.301,138.963 358.074,139.695 358.447 C 140.077 358.641,140.752 358.800,141.195 358.800 C 141.638 358.800,142.000 358.980,142.000 359.200 C 142.000 359.420,142.439 359.600,142.976 359.600 C 143.513 359.600,144.064 359.780,144.200 360.000 C 144.336 360.220,144.876 360.400,145.400 360.400 C 145.924 360.400,146.451 360.559,146.570 360.752 C 146.690 360.946,147.196 361.203,147.694 361.324 C 148.768 361.585,151.426 362.329,156.000 363.649 C 162.071 365.401,173.802 367.739,173.190 367.074 C 173.074 366.949,171.814 366.638,170.390 366.384 C 164.471 365.327,163.768 365.176,159.000 363.953 C 158.120 363.727,156.813 363.445,156.096 363.327 C 155.379 363.208,154.694 362.951,154.573 362.756 C 154.452 362.560,153.911 362.400,153.371 362.400 C 152.831 362.400,152.077 362.238,151.695 362.041 C 151.313 361.844,149.650 361.271,148.000 360.769 C 146.350 360.267,144.829 359.708,144.620 359.528 C 144.411 359.348,143.914 359.200,143.515 359.200 C 143.116 359.200,142.477 359.034,142.095 358.831 C 141.713 358.628,139.870 357.879,138.000 357.166 C 136.130 356.453,133.751 355.449,132.713 354.935 C 130.814 353.994,130.400 353.857,130.400 354.171 M266.600 355.200 C 265.280 355.826,264.391 356.353,264.625 356.369 C 264.859 356.386,265.795 356.040,266.706 355.600 C 267.616 355.160,268.539 354.800,268.757 354.800 C 268.975 354.800,269.264 354.620,269.400 354.400 C 269.773 353.797,269.232 353.951,266.600 355.200 M260.800 357.456 C 259.370 358.016,257.840 358.629,257.400 358.819 C 256.960 359.009,254.800 359.735,252.600 360.433 C 250.400 361.131,248.240 361.846,247.800 362.021 C 247.360 362.196,246.550 362.431,246.000 362.542 C 245.450 362.653,244.280 362.949,243.400 363.199 C 237.885 364.765,230.252 366.332,223.836 367.214 C 221.131 367.586,219.881 368.000,221.463 368.000 C 222.918 368.000,232.355 366.395,235.600 365.595 C 236.370 365.406,237.900 365.048,239.000 364.800 C 241.243 364.295,243.703 363.660,245.200 363.200 C 245.750 363.031,247.010 362.674,248.000 362.407 C 248.990 362.140,250.113 361.760,250.495 361.561 C 250.877 361.362,251.541 361.200,251.971 361.200 C 252.401 361.200,252.864 361.020,253.000 360.800 C 253.136 360.580,253.676 360.400,254.200 360.400 C 254.724 360.400,255.264 360.220,255.400 360.000 C 255.536 359.780,255.999 359.600,256.429 359.600 C 256.859 359.600,257.523 359.441,257.905 359.247 C 258.287 359.052,259.140 358.671,259.800 358.400 C 260.460 358.129,261.313 357.748,261.695 357.553 C 262.077 357.359,262.651 357.200,262.971 357.200 C 263.291 357.200,263.664 357.020,263.800 356.800 C 264.158 356.221,263.705 356.320,260.800 357.456 M175.000 367.623 C 177.218 368.082,179.451 368.065,178.000 367.600 C 177.450 367.424,176.190 367.283,175.200 367.286 L 173.400 367.292 175.000 367.623 M181.000 368.418 C 182.100 368.590,183.810 368.723,184.800 368.715 L 186.600 368.700 184.800 368.380 C 183.810 368.203,182.100 368.070,181.000 368.083 L 179.000 368.107 181.000 368.418 M214.000 368.400 L 212.200 368.680 214.200 368.700 C 215.300 368.712,217.190 368.584,218.400 368.417 L 220.600 368.113 218.200 368.116 C 216.880 368.118,214.990 368.246,214.000 368.400 M193.000 369.213 C 196.663 369.589,203.179 369.590,206.200 369.215 C 207.737 369.025,205.291 368.919,199.400 368.922 C 193.316 368.924,191.148 369.023,193.000 369.213 " stroke="none" fill="#fbaa95" fill-rule="evenodd"></path><path id="path4" d="M285.300 95.900 C 294.045 95.960,308.355 95.960,317.100 95.900 C 325.845 95.840,318.690 95.791,301.200 95.791 C 283.710 95.791,276.555 95.840,285.300 95.900 M265.000 96.391 C 264.560 96.576,263.120 97.137,261.800 97.638 C 255.625 99.978,249.188 106.041,246.550 112.000 C 245.512 114.345,245.230 115.080,244.826 116.500 C 244.592 117.325,244.220 118.598,244.000 119.328 C 243.496 121.003,243.477 128.537,243.973 130.172 C 244.178 130.847,244.573 132.210,244.851 133.200 C 247.746 143.516,259.915 153.389,269.443 153.151 L 271.400 153.102 269.000 152.764 C 245.403 149.435,235.912 121.676,252.455 104.375 C 256.056 100.609,261.179 97.842,266.800 96.626 C 269.342 96.076,269.360 96.063,267.600 96.059 C 266.610 96.056,265.440 96.206,265.000 96.391 M340.400 108.000 C 340.025 108.242,327.103 108.390,305.920 108.394 C 283.379 108.398,271.330 108.544,269.920 108.830 C 253.901 112.077,251.994 133.530,267.189 139.560 C 268.302 140.002,272.914 140.173,289.000 140.371 C 303.935 140.554,309.634 140.752,310.274 141.111 C 310.754 141.380,311.447 141.600,311.813 141.600 C 317.407 141.600,327.471 151.813,329.198 159.242 C 329.474 160.429,329.857 161.922,330.050 162.560 C 331.988 168.979,327.997 179.916,321.604 185.701 C 315.030 191.651,313.137 192.070,291.400 192.400 C 274.104 192.662,273.298 192.708,270.800 193.579 C 261.919 196.672,258.664 200.123,250.587 215.000 C 249.990 216.100,249.181 217.540,248.791 218.200 C 248.400 218.860,247.459 220.570,246.699 222.000 C 244.931 225.331,243.310 228.254,242.318 229.900 C 241.887 230.615,241.694 231.200,241.889 231.200 C 242.084 231.200,242.750 230.255,243.371 229.100 C 244.478 227.038,245.507 225.179,247.079 222.400 C 247.514 221.630,249.460 218.120,251.403 214.600 C 256.495 205.375,256.389 205.560,257.654 203.722 C 260.041 200.252,266.981 194.800,269.011 194.800 C 269.341 194.800,269.923 194.642,270.305 194.449 C 272.522 193.329,274.442 193.199,289.028 193.183 C 303.270 193.167,310.169 192.765,311.034 191.899 C 311.199 191.734,311.681 191.600,312.106 191.600 C 317.290 191.600,326.780 182.494,329.406 175.000 C 332.906 165.014,329.069 151.546,321.133 145.964 C 320.400 145.448,319.566 144.799,319.280 144.522 C 318.556 143.819,312.962 141.200,312.185 141.200 C 311.834 141.200,311.154 140.977,310.674 140.704 C 310.027 140.336,304.499 140.141,289.400 139.952 C 267.547 139.679,268.129 139.736,264.333 137.503 C 261.433 135.798,259.475 133.213,257.651 128.681 C 257.093 127.296,257.054 121.338,257.600 121.000 C 257.820 120.864,258.000 120.420,258.000 120.014 C 258.000 118.668,259.770 115.830,262.000 113.600 C 264.910 110.690,266.656 109.871,271.316 109.229 C 273.319 108.953,286.179 108.795,307.316 108.787 C 335.597 108.776,340.309 108.692,340.976 108.187 C 341.834 107.539,341.354 107.383,340.400 108.000 M356.425 138.400 C 356.416 138.950,356.665 140.246,356.979 141.279 C 358.577 146.547,360.725 158.636,361.979 169.427 C 363.450 182.094,362.087 204.871,358.970 219.684 C 357.564 226.363,354.668 236.989,353.596 239.400 C 353.400 239.840,352.978 241.010,352.657 242.000 C 344.076 268.496,322.529 298.890,298.800 317.971 C 292.532 323.011,279.835 332.000,278.984 332.000 C 278.852 332.000,277.992 332.508,277.072 333.128 C 273.941 335.240,272.564 335.525,263.298 335.980 C 254.207 336.426,253.042 336.988,246.834 343.918 C 243.102 348.085,241.581 349.246,238.374 350.373 C 235.271 351.463,227.613 353.509,223.400 354.373 C 222.080 354.644,220.280 355.018,219.400 355.206 C 216.073 355.914,209.667 356.899,203.800 357.603 C 194.386 358.734,172.967 358.738,164.000 357.611 C 156.466 356.664,148.768 355.398,144.600 354.419 C 138.366 352.956,135.669 352.295,134.800 352.017 C 134.250 351.841,132.450 351.290,130.800 350.793 C 126.407 349.469,122.190 348.035,118.890 346.741 C 115.818 345.537,113.775 345.163,115.600 346.140 C 116.150 346.434,117.320 347.092,118.200 347.602 C 123.056 350.417,133.730 355.438,139.400 357.574 C 140.720 358.071,142.160 358.632,142.600 358.821 C 143.040 359.010,145.200 359.735,147.400 360.433 C 149.600 361.131,151.760 361.839,152.200 362.005 C 152.640 362.172,153.810 362.522,154.800 362.782 C 155.790 363.041,157.140 363.401,157.800 363.581 C 165.411 365.655,174.297 367.168,186.068 368.396 C 191.062 368.917,207.738 368.917,212.732 368.396 C 223.191 367.305,228.119 366.542,236.000 364.793 C 236.770 364.622,238.030 364.359,238.800 364.207 C 239.570 364.056,240.650 363.789,241.200 363.613 C 241.750 363.437,242.920 363.105,243.800 362.875 C 246.201 362.249,253.686 359.986,254.600 359.610 C 255.040 359.429,256.030 359.064,256.800 358.800 C 263.715 356.426,281.083 348.362,284.457 345.960 C 285.043 345.542,285.643 345.200,285.790 345.200 C 285.936 345.200,286.841 344.660,287.800 344.000 C 288.759 343.340,289.660 342.800,289.802 342.800 C 290.619 342.800,305.440 331.981,308.589 329.086 C 309.255 328.474,310.556 327.394,311.480 326.686 C 313.918 324.821,326.548 311.982,329.862 308.000 C 334.660 302.237,344.400 288.686,344.400 287.775 C 344.400 287.637,344.754 287.027,345.186 286.420 C 347.499 283.171,353.880 270.298,356.596 263.400 C 357.636 260.760,358.638 258.240,358.823 257.800 C 359.008 257.360,359.552 255.740,360.032 254.200 C 360.512 252.660,361.041 251.040,361.207 250.600 C 361.373 250.160,361.730 248.990,362.001 248.000 C 362.271 247.010,362.635 245.750,362.808 245.200 C 363.105 244.258,363.337 243.295,364.372 238.700 C 367.814 223.419,369.062 211.112,368.664 196.347 C 368.292 182.512,367.108 173.304,363.991 160.000 C 362.944 155.531,360.398 146.830,359.601 145.000 C 359.410 144.560,359.016 143.480,358.726 142.600 C 357.756 139.651,356.445 137.257,356.425 138.400 M290.000 153.586 L 308.200 153.803 309.991 154.801 C 317.863 159.189,319.557 168.891,313.585 175.370 C 312.657 176.377,311.651 177.200,311.349 177.200 C 311.047 177.200,310.800 177.359,310.800 177.553 C 310.800 177.748,310.395 178.030,309.900 178.180 C 309.405 178.331,308.370 178.652,307.600 178.893 C 306.736 179.164,299.538 179.437,288.800 179.604 C 278.134 179.770,270.781 180.047,269.800 180.320 C 268.920 180.564,267.660 180.884,267.000 181.030 C 258.610 182.891,248.399 191.598,243.249 201.284 C 242.630 202.448,241.709 204.120,241.202 205.000 C 240.695 205.880,239.657 207.770,238.897 209.200 C 238.136 210.630,237.376 211.980,237.207 212.200 C 237.038 212.420,236.220 213.860,235.390 215.400 C 233.929 218.109,233.111 219.601,231.000 223.400 C 230.450 224.390,229.575 225.965,229.057 226.900 C 228.538 227.835,227.699 229.320,227.194 230.200 C 225.069 233.899,224.879 234.400,225.600 234.400 C 225.820 234.400,226.000 234.144,226.000 233.832 C 226.000 233.519,226.956 231.584,228.124 229.532 C 229.292 227.479,231.392 223.730,232.791 221.200 C 234.189 218.670,235.691 215.970,236.128 215.200 C 236.566 214.430,237.408 212.900,238.000 211.800 C 238.592 210.700,239.491 209.080,239.998 208.200 C 240.506 207.320,241.639 205.250,242.517 203.600 C 249.178 191.081,256.523 184.747,268.600 181.109 C 271.201 180.325,272.664 180.247,289.200 180.013 C 303.663 179.809,307.304 179.648,308.620 179.155 C 318.819 175.338,320.879 161.876,312.215 155.654 C 308.775 153.183,308.857 153.192,289.450 153.285 L 271.800 153.370 290.000 153.586 M230.000 337.371 C 223.773 339.099,220.236 343.645,223.186 346.127 C 226.083 348.565,232.216 347.402,236.096 343.680 C 240.417 339.536,236.565 335.549,230.000 337.371 " stroke="none" fill="#d34c7b" fill-rule="evenodd"></path></g></svg>