<svg xmlns="http://www.w3.org/2000/svg" xmlns:xlink="http://www.w3.org/1999/xlink" id="svg" width="400" height="400" viewBox="0, 0, 400,400"><g id="svgg"><path id="path0" d="M130.000 4.000 C 129.670 4.213,128.916 4.391,128.324 4.394 C 127.732 4.397,127.136 4.580,127.000 4.800 C 126.864 5.020,126.313 5.200,125.776 5.200 C 125.239 5.200,124.800 5.380,124.800 5.600 C 124.800 5.820,124.440 6.000,124.000 6.000 C 123.560 6.000,123.200 6.180,123.200 6.400 C 123.200 6.620,122.840 6.800,122.400 6.800 C 121.960 6.800,121.600 6.958,121.600 7.150 C 121.600 7.343,121.105 7.757,120.500 8.071 C 118.047 9.343,116.805 10.226,116.803 10.700 C 116.801 10.975,116.665 11.156,116.500 11.103 C 116.114 10.978,113.600 13.219,113.600 13.688 C 113.600 13.883,113.061 14.619,112.402 15.322 C 111.743 16.025,111.203 16.825,111.202 17.100 C 111.201 17.375,111.065 17.601,110.900 17.603 C 110.541 17.607,109.600 19.544,109.600 20.280 C 109.600 20.566,109.426 20.800,109.214 20.800 C 109.001 20.800,108.708 21.700,108.562 22.800 C 108.416 23.900,108.140 24.800,107.948 24.800 C 107.757 24.800,107.600 25.520,107.600 26.400 C 107.600 27.280,107.420 28.000,107.200 28.000 C 106.953 28.000,106.800 30.075,106.800 33.424 C 106.800 36.937,106.941 38.760,107.200 38.600 C 107.447 38.448,107.600 39.129,107.600 40.376 C 107.600 41.489,107.756 42.400,107.947 42.400 C 108.138 42.400,108.401 43.075,108.532 43.900 C 108.807 45.639,108.982 46.367,109.328 47.200 C 109.465 47.530,109.658 48.250,109.757 48.800 C 109.856 49.350,110.221 50.588,110.568 51.550 C 110.916 52.513,111.200 53.728,111.200 54.250 C 111.200 54.773,111.380 55.200,111.600 55.200 C 111.820 55.200,112.000 55.740,112.000 56.400 C 112.000 57.060,112.180 57.600,112.400 57.600 C 112.620 57.600,112.800 58.230,112.800 59.000 C 112.800 59.770,112.980 60.400,113.200 60.400 C 113.420 60.400,113.600 60.820,113.600 61.333 C 113.600 61.847,113.729 62.395,113.886 62.553 C 114.263 62.929,115.160 66.354,115.182 67.500 C 115.192 67.995,115.380 68.400,115.600 68.400 C 115.820 68.400,116.000 68.940,116.000 69.600 C 116.000 70.260,116.180 70.800,116.400 70.800 C 116.620 70.800,116.800 71.430,116.800 72.200 C 116.800 72.970,116.980 73.600,117.200 73.600 C 117.420 73.600,117.600 74.140,117.600 74.800 C 117.600 75.460,117.780 76.000,118.000 76.000 C 118.220 76.000,118.400 76.540,118.400 77.200 C 118.400 77.860,118.580 78.400,118.800 78.400 C 119.020 78.400,119.200 79.120,119.200 80.000 C 119.200 80.880,119.380 81.600,119.600 81.600 C 119.820 81.600,120.000 82.140,120.000 82.800 C 120.000 83.460,120.180 84.000,120.400 84.000 C 120.620 84.000,120.800 84.529,120.800 85.176 C 120.800 85.823,120.980 86.464,121.200 86.600 C 121.420 86.736,121.600 87.289,121.600 87.829 C 121.600 88.369,121.780 89.168,122.000 89.605 C 122.220 90.042,122.580 90.758,122.800 91.195 C 123.020 91.632,123.200 92.406,123.200 92.915 C 123.200 93.424,123.374 94.014,123.587 94.227 C 123.799 94.439,124.016 95.183,124.069 95.879 C 124.123 96.575,124.309 97.056,124.483 96.949 C 124.657 96.841,124.800 97.393,124.800 98.176 C 124.800 98.959,124.968 99.600,125.174 99.600 C 125.379 99.600,125.465 100.054,125.364 100.609 C 125.246 101.258,125.390 101.698,125.767 101.843 C 126.149 101.989,126.302 102.473,126.206 103.229 C 126.126 103.867,126.226 104.493,126.430 104.618 C 126.633 104.744,126.800 105.377,126.800 106.024 C 126.800 106.822,127.000 107.200,127.424 107.200 C 127.767 107.200,127.928 107.393,127.782 107.629 C 127.497 108.091,130.001 113.589,130.500 113.596 C 130.993 113.603,130.839 112.465,130.300 112.120 C 130.025 111.944,129.800 111.260,129.800 110.600 C 129.800 109.940,129.608 109.434,129.373 109.476 C 129.122 109.520,129.014 109.085,129.111 108.423 C 129.202 107.802,129.080 107.173,128.838 107.024 C 128.597 106.875,128.400 106.223,128.400 105.576 C 128.400 104.929,128.220 104.400,128.000 104.400 C 127.780 104.400,127.600 103.781,127.600 103.024 C 127.600 102.267,127.420 101.536,127.200 101.400 C 126.980 101.264,126.800 100.724,126.800 100.200 C 126.800 99.676,126.620 99.136,126.400 99.000 C 126.180 98.864,126.000 98.223,126.000 97.576 C 126.000 96.929,125.820 96.400,125.600 96.400 C 125.380 96.400,125.200 95.770,125.200 95.000 C 125.200 94.230,125.020 93.600,124.800 93.600 C 124.580 93.600,124.400 93.060,124.400 92.400 C 124.400 91.740,124.220 91.200,124.000 91.200 C 123.780 91.200,123.600 90.671,123.600 90.024 C 123.600 89.377,123.420 88.736,123.200 88.600 C 122.701 88.292,122.668 86.400,123.162 86.400 C 123.637 86.400,127.853 88.791,130.280 90.436 C 134.261 93.136,142.800 102.622,142.800 104.345 C 142.800 104.558,142.935 104.793,143.100 104.867 C 143.532 105.059,145.200 108.372,145.200 109.038 C 145.200 109.347,145.380 109.600,145.600 109.600 C 145.820 109.600,146.000 109.920,146.000 110.311 C 146.000 110.702,146.452 112.457,147.005 114.211 C 147.558 115.965,148.214 118.120,148.463 119.000 C 149.471 122.564,150.512 125.839,150.846 126.495 C 151.041 126.877,151.200 127.631,151.200 128.171 C 151.200 128.711,151.380 129.264,151.600 129.400 C 151.820 129.536,152.000 130.166,152.000 130.800 C 152.000 131.434,152.180 132.064,152.400 132.200 C 152.620 132.336,152.800 132.876,152.800 133.400 C 152.800 133.924,152.980 134.464,153.200 134.600 C 153.420 134.736,153.600 135.355,153.600 135.975 C 153.600 136.595,153.873 137.755,154.206 138.553 L 154.812 140.003 200.106 139.902 L 245.400 139.800 245.527 138.700 C 245.596 138.095,245.821 137.600,246.027 137.600 C 246.232 137.600,246.400 136.981,246.400 136.224 C 246.400 135.467,246.580 134.736,246.800 134.600 C 247.020 134.464,247.200 133.834,247.200 133.200 C 247.200 132.566,247.380 131.936,247.600 131.800 C 247.820 131.664,248.000 131.124,248.000 130.600 C 248.000 130.076,248.180 129.536,248.400 129.400 C 248.620 129.264,248.800 128.711,248.800 128.171 C 248.800 127.631,248.962 126.877,249.161 126.495 C 249.360 126.113,249.740 124.990,250.007 124.000 C 250.273 123.010,250.630 121.840,250.800 121.400 C 250.970 120.960,251.333 119.790,251.608 118.800 C 251.883 117.810,252.443 115.998,252.854 114.773 C 253.264 113.549,253.600 112.318,253.600 112.038 C 253.600 110.629,259.095 100.471,260.077 100.067 C 260.255 99.993,260.400 99.755,260.400 99.538 C 260.400 99.026,266.522 92.939,268.594 91.391 C 270.613 89.882,270.888 89.715,274.343 87.895 L 277.200 86.390 277.200 87.595 C 277.200 88.258,277.020 88.800,276.800 88.800 C 276.580 88.800,276.400 89.329,276.400 89.976 C 276.400 90.623,276.220 91.264,276.000 91.400 C 275.780 91.536,275.600 92.076,275.600 92.600 C 275.600 93.124,275.420 93.664,275.200 93.800 C 274.980 93.936,274.800 94.566,274.800 95.200 C 274.800 95.834,274.620 96.464,274.400 96.600 C 274.180 96.736,274.000 97.377,274.000 98.024 C 274.000 98.671,273.820 99.200,273.600 99.200 C 273.380 99.200,273.200 99.729,273.200 100.376 C 273.200 101.023,273.020 101.664,272.800 101.800 C 272.580 101.936,272.400 102.566,272.400 103.200 C 272.400 103.834,272.203 104.475,271.962 104.623 C 271.722 104.772,271.605 105.314,271.703 105.827 C 271.809 106.380,271.661 106.844,271.341 106.967 C 271.043 107.082,270.800 107.601,270.800 108.121 C 270.800 108.641,270.673 109.193,270.518 109.348 C 270.067 109.799,269.935 111.600,270.353 111.600 C 270.562 111.600,270.972 111.060,271.264 110.400 C 271.556 109.740,271.952 109.200,272.144 109.200 C 272.336 109.200,272.409 108.759,272.306 108.220 C 272.202 107.675,272.299 107.275,272.526 107.320 C 272.922 107.398,273.582 105.445,273.728 103.761 C 273.767 103.300,273.990 102.670,274.223 102.361 C 274.455 102.053,274.627 101.305,274.604 100.700 C 274.581 100.095,274.706 99.600,274.881 99.600 C 275.057 99.600,275.200 99.071,275.200 98.424 C 275.200 97.777,275.380 97.136,275.600 97.000 C 275.820 96.864,276.000 96.313,276.000 95.776 C 276.000 95.239,276.225 94.797,276.500 94.794 C 276.833 94.790,276.800 94.658,276.400 94.400 C 276.000 94.142,275.967 94.010,276.300 94.006 C 276.588 94.003,276.800 93.490,276.800 92.800 C 276.800 92.140,276.980 91.600,277.200 91.600 C 277.420 91.600,277.600 91.049,277.600 90.376 C 277.600 89.663,277.767 89.256,278.000 89.400 C 278.233 89.544,278.400 89.145,278.400 88.447 C 278.400 87.787,278.580 87.136,278.800 87.000 C 279.020 86.864,279.200 86.133,279.200 85.376 C 279.200 84.619,279.380 84.000,279.600 84.000 C 279.820 84.000,280.000 83.460,280.000 82.800 C 280.000 82.140,280.180 81.600,280.400 81.600 C 280.620 81.600,280.800 80.970,280.800 80.200 C 280.800 79.430,280.980 78.800,281.200 78.800 C 281.420 78.800,281.600 78.271,281.600 77.624 C 281.600 76.977,281.780 76.336,282.000 76.200 C 282.220 76.064,282.400 75.524,282.400 75.000 C 282.400 74.476,282.580 73.936,282.800 73.800 C 283.020 73.664,283.200 73.124,283.200 72.600 C 283.200 72.076,283.380 71.536,283.600 71.400 C 283.820 71.264,284.000 70.533,284.000 69.776 C 284.000 69.019,284.180 68.400,284.400 68.400 C 284.620 68.400,284.800 67.871,284.800 67.224 C 284.800 66.577,284.980 65.936,285.200 65.800 C 285.420 65.664,285.600 65.113,285.600 64.576 C 285.600 64.039,285.780 63.600,286.000 63.600 C 286.220 63.600,286.400 63.216,286.400 62.746 C 286.400 61.673,287.225 58.725,287.667 58.220 C 287.850 58.011,288.000 57.246,288.000 56.520 C 288.000 55.794,288.180 55.200,288.400 55.200 C 288.620 55.200,288.800 54.780,288.800 54.267 C 288.800 53.753,288.925 53.209,289.077 53.056 C 289.229 52.904,289.410 52.379,289.478 51.890 C 289.546 51.400,289.767 50.640,289.970 50.200 C 290.172 49.760,290.472 48.860,290.636 48.200 C 290.800 47.540,290.966 46.910,291.004 46.800 C 291.041 46.690,291.214 45.655,291.388 44.500 C 291.561 43.345,291.860 42.400,292.052 42.400 C 292.243 42.400,292.400 41.680,292.400 40.800 C 292.400 39.920,292.588 39.200,292.817 39.200 C 293.089 39.200,293.214 37.254,293.177 33.600 C 293.146 30.520,292.959 28.000,292.761 28.000 C 292.562 28.000,292.400 27.280,292.400 26.400 C 292.400 25.520,292.240 24.800,292.044 24.800 C 291.848 24.800,291.607 24.215,291.508 23.500 C 291.251 21.642,291.066 21.090,290.496 20.477 C 290.219 20.179,290.095 19.770,290.220 19.568 C 290.345 19.365,290.257 19.200,290.024 19.200 C 289.791 19.200,289.600 18.840,289.600 18.400 C 289.600 17.960,289.432 17.600,289.227 17.600 C 289.022 17.600,288.728 17.203,288.574 16.718 C 288.164 15.425,280.906 8.400,279.980 8.400 C 279.551 8.400,279.200 8.220,279.200 8.000 C 279.200 7.780,278.840 7.600,278.400 7.600 C 277.960 7.600,277.600 7.420,277.600 7.200 C 277.600 6.980,277.240 6.800,276.800 6.800 C 276.360 6.800,275.999 6.665,275.997 6.500 C 275.992 6.048,273.969 5.200,272.897 5.200 C 272.369 5.200,272.062 5.024,272.200 4.800 C 272.349 4.558,271.804 4.400,270.824 4.400 C 269.931 4.400,269.200 4.220,269.200 4.000 C 269.200 3.752,267.000 3.600,263.400 3.600 C 259.800 3.600,257.600 3.752,257.600 4.000 C 257.600 4.220,256.801 4.400,255.824 4.400 C 254.847 4.400,253.936 4.580,253.800 4.800 C 253.664 5.020,253.203 5.200,252.776 5.200 C 252.349 5.200,252.000 5.380,252.000 5.600 C 252.000 5.820,251.449 6.000,250.776 6.000 C 250.063 6.000,249.656 6.167,249.800 6.400 C 249.936 6.620,249.782 6.800,249.457 6.800 C 249.132 6.800,248.776 7.025,248.665 7.300 C 248.519 7.662,248.454 7.645,248.432 7.239 C 248.408 6.828,248.212 6.884,247.700 7.448 C 247.315 7.872,246.505 8.435,245.900 8.701 C 245.295 8.966,244.800 9.377,244.800 9.615 C 244.800 9.853,244.626 9.940,244.413 9.808 C 244.200 9.677,243.797 9.936,243.517 10.384 C 243.237 10.833,242.781 11.200,242.504 11.200 C 242.227 11.200,242.000 11.481,242.000 11.824 C 242.000 12.167,241.820 12.336,241.600 12.200 C 241.380 12.064,241.200 12.190,241.200 12.480 C 241.200 12.770,240.840 13.232,240.400 13.507 C 239.960 13.782,239.600 14.187,239.600 14.407 C 239.600 14.627,239.060 15.372,238.400 16.063 C 237.740 16.754,237.200 17.562,237.200 17.859 C 237.200 18.157,237.020 18.400,236.800 18.400 C 236.580 18.400,236.400 18.672,236.400 19.005 C 236.400 19.561,235.678 21.122,235.200 21.600 C 235.090 21.710,234.939 22.250,234.865 22.800 C 234.791 23.350,234.566 23.971,234.365 24.180 C 234.164 24.389,234.000 24.974,234.000 25.480 C 234.000 25.986,233.820 26.400,233.600 26.400 C 233.380 26.400,233.200 27.030,233.200 27.800 C 233.200 28.570,233.020 29.200,232.800 29.200 C 232.580 29.200,232.400 29.729,232.400 30.376 C 232.400 31.023,232.220 31.664,232.000 31.800 C 231.780 31.936,231.600 32.487,231.600 33.024 C 231.600 33.561,231.420 34.000,231.200 34.000 C 230.980 34.000,230.800 34.529,230.800 35.176 C 230.800 35.823,230.620 36.464,230.400 36.600 C 230.180 36.736,230.000 37.207,230.000 37.647 C 230.000 38.087,229.820 38.336,229.600 38.200 C 229.373 38.060,229.200 38.396,229.200 38.976 C 229.200 39.539,229.020 40.000,228.800 40.000 C 228.580 40.000,228.400 40.270,228.400 40.600 C 228.400 40.930,228.220 41.200,228.000 41.200 C 227.780 41.200,227.639 41.335,227.686 41.500 C 227.733 41.665,227.283 42.561,226.686 43.492 C 226.089 44.423,225.600 45.378,225.600 45.616 C 225.600 45.853,225.420 45.936,225.200 45.800 C 224.980 45.664,224.800 45.863,224.800 46.243 C 224.800 46.623,224.705 46.839,224.590 46.723 C 224.474 46.608,223.128 47.748,221.598 49.257 C 220.068 50.765,218.582 52.000,218.297 52.000 C 218.011 52.000,217.517 52.360,217.200 52.800 C 216.883 53.240,216.303 53.600,215.912 53.600 C 215.520 53.600,215.200 53.780,215.200 54.000 C 215.200 54.220,214.840 54.400,214.400 54.400 C 213.960 54.400,213.599 54.535,213.597 54.700 C 213.593 55.101,211.619 56.000,210.744 56.000 C 210.361 56.000,209.936 56.180,209.800 56.400 C 209.664 56.620,208.933 56.800,208.176 56.800 C 207.419 56.800,206.800 56.980,206.800 57.200 C 206.800 57.420,205.821 57.600,204.624 57.600 C 203.427 57.600,202.336 57.780,202.200 58.000 C 201.877 58.522,198.000 58.522,198.000 58.000 C 198.000 57.778,196.933 57.600,195.600 57.600 C 194.267 57.600,193.200 57.422,193.200 57.200 C 193.200 56.980,192.581 56.800,191.824 56.800 C 191.067 56.800,190.336 56.620,190.200 56.400 C 190.064 56.180,189.513 56.000,188.976 56.000 C 188.439 56.000,188.000 55.820,188.000 55.600 C 188.000 55.380,187.640 55.200,187.200 55.200 C 186.760 55.200,186.400 55.020,186.400 54.800 C 186.400 54.580,186.040 54.400,185.600 54.400 C 185.160 54.400,184.800 54.220,184.800 54.000 C 184.800 53.780,184.440 53.600,184.000 53.600 C 183.560 53.600,183.200 53.420,183.200 53.200 C 183.200 52.980,182.930 52.800,182.600 52.800 C 182.270 52.800,182.000 52.620,182.000 52.400 C 182.000 52.180,181.806 52.000,181.569 52.000 C 181.331 52.000,180.443 51.299,179.594 50.441 C 178.745 49.584,177.949 48.984,177.825 49.108 C 177.701 49.232,177.600 49.110,177.600 48.838 C 177.600 48.195,176.569 47.164,176.248 47.486 C 176.111 47.622,176.000 47.403,176.000 47.000 C 176.000 46.597,175.884 46.382,175.743 46.524 C 175.244 47.023,170.000 38.342,170.000 37.016 C 170.000 36.677,169.820 36.400,169.600 36.400 C 169.380 36.400,169.200 35.860,169.200 35.200 C 169.200 34.540,169.040 34.000,168.845 34.000 C 168.510 34.000,168.257 33.110,167.737 30.096 C 167.613 29.379,167.351 28.694,167.156 28.573 C 166.960 28.452,166.800 27.924,166.800 27.400 C 166.800 26.876,166.620 26.336,166.400 26.200 C 166.180 26.064,166.000 25.528,166.000 25.010 C 166.000 24.491,165.822 24.007,165.603 23.933 C 165.385 23.860,165.167 23.318,165.119 22.729 C 165.070 22.140,164.888 21.745,164.715 21.852 C 164.542 21.960,164.400 21.587,164.400 21.024 C 164.400 20.461,164.220 20.000,164.000 20.000 C 163.780 20.000,163.600 19.640,163.600 19.200 C 163.600 18.760,163.420 18.400,163.200 18.400 C 162.980 18.400,162.800 18.080,162.800 17.688 C 162.800 17.297,162.440 16.717,162.000 16.400 C 161.560 16.083,161.200 15.598,161.200 15.322 C 161.200 14.458,155.484 9.020,153.705 8.190 C 152.772 7.756,152.007 7.265,152.005 7.100 C 152.002 6.935,151.640 6.800,151.200 6.800 C 150.760 6.800,150.400 6.620,150.400 6.400 C 150.400 6.180,150.040 6.000,149.600 6.000 C 149.160 6.000,148.800 5.820,148.800 5.600 C 148.800 5.380,148.451 5.200,148.024 5.200 C 147.597 5.200,147.136 5.020,147.000 4.800 C 146.864 4.580,146.133 4.400,145.376 4.400 C 144.619 4.400,144.000 4.220,144.000 4.000 C 144.000 3.475,130.812 3.475,130.000 4.000 M153.132 344.416 C 152.765 344.629,152.000 344.842,151.432 344.889 C 150.865 344.936,150.400 345.115,150.400 345.287 C 150.400 345.459,150.130 345.600,149.800 345.600 C 149.470 345.600,149.200 345.780,149.200 346.000 C 149.200 346.220,148.930 346.400,148.600 346.400 C 148.270 346.400,148.000 346.660,148.000 346.977 C 148.000 347.295,147.641 347.806,147.203 348.113 C 146.764 348.420,146.520 348.786,146.660 348.926 C 146.800 349.067,146.620 349.294,146.260 349.432 C 145.899 349.571,145.695 349.830,145.806 350.010 C 145.917 350.189,145.743 350.600,145.419 350.924 C 144.545 351.798,144.523 388.215,145.395 389.359 C 145.714 389.776,145.880 390.271,145.764 390.459 C 145.648 390.647,145.731 390.800,145.949 390.800 C 146.168 390.800,146.462 391.166,146.604 391.612 C 146.956 392.721,148.709 394.310,150.400 395.052 C 151.170 395.391,152.113 395.832,152.495 396.034 C 153.482 396.554,247.078 396.521,247.400 396.000 C 247.536 395.780,248.087 395.600,248.624 395.600 C 249.161 395.600,249.600 395.420,249.600 395.200 C 249.600 394.980,249.852 394.800,250.160 394.800 C 250.907 394.800,253.264 392.409,253.947 390.959 C 254.248 390.322,254.652 389.487,254.847 389.105 C 255.352 388.111,255.307 351.200,254.800 351.200 C 254.580 351.200,254.400 350.840,254.400 350.400 C 254.400 349.960,254.220 349.600,254.000 349.600 C 253.780 349.600,253.600 349.330,253.600 349.000 C 253.600 348.670,253.420 348.400,253.200 348.400 C 252.980 348.400,252.800 348.201,252.800 347.958 C 252.800 347.502,250.785 345.744,250.410 345.871 C 250.294 345.911,249.930 345.707,249.600 345.418 C 249.270 345.130,247.920 344.705,246.600 344.475 C 243.426 343.921,154.082 343.865,153.132 344.416 " stroke="none" fill="#e1e7fc" fill-rule="evenodd"></path><path id="path1" d="M270.223 113.053 C 269.125 115.795,267.722 119.973,266.815 123.200 C 266.537 124.190,266.167 125.360,265.995 125.800 C 265.822 126.240,265.257 128.025,264.740 129.767 C 263.961 132.393,263.428 133.350,261.622 135.367 L 259.444 137.800 261.483 135.853 C 262.605 134.783,263.919 133.073,264.405 132.053 C 264.890 131.034,265.448 129.887,265.644 129.505 C 265.840 129.123,266.000 128.358,266.000 127.805 C 266.000 127.252,266.180 126.800,266.400 126.800 C 266.620 126.800,266.800 126.271,266.800 125.624 C 266.800 124.977,266.980 124.336,267.200 124.200 C 267.420 124.064,267.600 123.434,267.600 122.800 C 267.600 122.166,267.780 121.536,268.000 121.400 C 268.220 121.264,268.400 120.724,268.400 120.200 C 268.400 119.676,268.580 119.136,268.800 119.000 C 269.020 118.864,269.200 118.324,269.200 117.800 C 269.200 117.276,269.380 116.736,269.600 116.600 C 269.820 116.464,270.000 115.949,270.000 115.456 C 270.000 114.963,270.143 114.389,270.318 114.180 C 270.787 113.621,271.704 110.771,271.486 110.553 C 271.383 110.450,270.815 111.575,270.223 113.053 M129.233 113.076 C 129.215 113.558,129.380 114.064,129.600 114.200 C 129.820 114.336,130.000 114.799,130.000 115.229 C 130.000 115.659,130.162 116.323,130.359 116.705 C 130.556 117.087,131.115 118.750,131.600 120.400 C 132.085 122.050,132.644 123.713,132.841 124.095 C 133.038 124.477,133.200 125.242,133.200 125.795 C 133.200 126.348,133.380 126.800,133.600 126.800 C 133.820 126.800,134.000 127.252,134.000 127.805 C 134.000 128.358,134.165 129.123,134.366 129.505 C 134.568 129.887,135.027 130.876,135.387 131.703 C 135.746 132.530,136.976 134.160,138.120 135.325 C 139.264 136.491,139.537 136.715,138.726 135.822 C 137.112 134.045,135.613 131.198,134.820 128.400 C 134.539 127.410,134.170 126.240,134.000 125.800 C 133.830 125.360,133.473 124.190,133.207 123.200 C 132.940 122.210,132.560 121.087,132.361 120.705 C 132.162 120.323,132.000 119.659,132.000 119.229 C 132.000 118.799,131.820 118.336,131.600 118.200 C 131.380 118.064,131.189 117.558,131.175 117.076 C 131.140 115.796,129.276 111.957,129.233 113.076 M100.063 115.828 C 97.853 116.945,95.783 119.285,95.333 121.176 C 95.199 121.739,94.959 122.380,94.799 122.600 C 94.478 123.041,94.161 124.279,93.521 127.600 C 92.758 131.553,93.117 142.818,94.037 143.780 C 94.237 143.989,94.400 144.576,94.400 145.085 C 94.400 145.594,94.559 146.323,94.753 146.705 C 94.948 147.087,95.280 147.850,95.492 148.400 C 95.704 148.950,97.281 152.230,98.998 155.688 C 101.764 161.261,102.055 162.055,101.559 162.675 C 100.853 163.558,95.149 170.130,93.441 172.029 C 92.734 172.814,91.722 174.074,91.191 174.829 C 90.661 175.583,90.007 176.426,89.739 176.702 C 89.472 176.979,89.138 177.564,88.999 178.002 C 88.860 178.441,88.578 178.800,88.373 178.800 C 88.168 178.800,88.000 178.993,88.000 179.228 C 88.000 179.463,87.492 180.408,86.872 181.328 C 83.841 185.821,79.990 195.719,78.751 202.200 C 77.633 208.053,77.461 210.016,77.473 216.800 C 77.487 224.497,77.833 229.129,78.443 229.780 C 78.640 229.989,78.800 230.746,78.800 231.461 C 78.800 232.177,78.961 233.176,79.158 233.681 C 79.355 234.187,79.740 235.410,80.012 236.400 C 81.445 241.610,84.368 248.403,87.080 252.828 C 87.696 253.833,88.554 255.228,88.986 255.928 C 89.419 256.627,89.914 257.200,90.086 257.200 C 90.259 257.200,90.400 257.378,90.400 257.595 C 90.400 257.946,90.847 258.582,92.200 260.154 C 92.420 260.410,93.585 261.785,94.790 263.210 C 95.994 264.634,97.076 265.890,97.195 266.000 C 97.314 266.110,98.483 267.434,99.793 268.943 L 102.174 271.687 99.042 277.943 C 95.557 284.906,95.451 285.141,94.771 287.400 C 94.506 288.280,94.147 289.360,93.974 289.800 C 92.780 292.829,92.774 305.655,93.965 308.600 C 94.143 309.040,94.506 310.120,94.771 311.000 C 97.291 319.368,104.101 328.016,109.653 329.900 C 113.399 331.171,118.778 330.955,120.259 329.474 C 120.410 329.323,120.771 329.200,121.062 329.200 C 122.197 329.200,126.398 325.156,127.241 323.252 C 127.546 322.563,127.931 322.000,128.098 322.000 C 128.264 322.000,128.400 321.586,128.400 321.080 C 128.400 320.574,128.569 319.989,128.775 319.780 C 128.981 319.571,129.231 316.430,129.332 312.800 C 129.432 309.170,129.578 305.750,129.657 305.200 C 129.798 304.212,129.766 304.200,126.861 304.193 C 122.158 304.182,119.876 300.511,122.577 297.300 C 123.556 296.137,123.926 296.011,130.000 294.777 C 131.210 294.531,132.524 294.241,132.920 294.132 C 133.316 294.023,134.539 292.697,135.639 291.185 C 138.060 287.856,142.127 284.056,145.009 282.430 C 147.686 280.919,147.826 280.673,146.794 279.278 C 145.696 277.793,145.625 275.083,146.653 273.929 C 148.907 271.398,151.237 271.796,155.749 275.481 L 158.097 277.400 200.149 277.400 L 242.200 277.400 244.805 275.365 C 248.307 272.629,249.054 272.272,250.712 272.541 C 253.802 273.042,255.138 275.939,253.621 278.849 C 252.767 280.487,252.763 281.600,253.609 281.600 C 255.289 281.600,262.315 287.701,264.600 291.143 C 266.396 293.849,266.814 294.121,270.200 294.791 C 275.720 295.883,276.562 296.205,277.500 297.590 C 279.877 301.098,277.174 304.754,272.623 304.186 L 270.600 303.933 270.708 310.666 C 270.807 316.859,271.223 320.006,272.070 320.980 C 272.251 321.189,272.400 321.684,272.400 322.080 C 272.400 322.476,272.580 322.800,272.800 322.800 C 273.020 322.800,273.200 323.060,273.200 323.378 C 273.200 324.353,277.023 327.782,279.477 329.008 C 282.059 330.297,289.413 330.747,290.480 329.680 C 290.744 329.416,291.284 329.200,291.680 329.200 C 292.076 329.200,292.400 329.020,292.400 328.800 C 292.400 328.580,292.678 328.400,293.018 328.400 C 294.526 328.400,303.600 317.899,303.600 316.153 C 303.600 316.041,304.024 315.015,304.543 313.874 C 305.061 312.733,305.702 310.810,305.965 309.600 C 306.229 308.390,306.615 306.632,306.823 305.694 C 307.329 303.405,307.311 294.116,306.800 293.800 C 306.580 293.664,306.400 292.991,306.400 292.305 C 306.400 291.168,305.993 289.524,305.185 287.400 C 305.018 286.960,304.654 285.970,304.378 285.200 C 303.732 283.404,298.857 273.521,298.370 273.020 C 297.796 272.430,297.931 271.557,298.708 270.847 C 299.097 270.491,300.492 268.944,301.808 267.410 C 303.123 265.875,304.593 264.214,305.073 263.719 C 305.553 263.224,306.453 262.139,307.073 261.309 C 307.693 260.479,308.419 259.568,308.686 259.285 C 308.953 259.002,309.487 258.237,309.872 257.585 C 310.257 256.933,310.714 256.400,310.886 256.400 C 311.059 256.400,311.200 256.210,311.200 255.978 C 311.200 255.746,311.887 254.531,312.727 253.278 C 324.502 235.705,325.979 207.205,316.160 187.012 C 314.057 182.687,310.421 176.789,308.922 175.271 C 308.635 174.981,308.397 174.621,308.394 174.471 C 308.387 174.178,307.788 173.468,302.481 167.457 C 297.217 161.495,297.371 162.750,301.004 155.355 C 302.722 151.860,304.262 148.640,304.427 148.200 C 306.386 142.978,306.164 142.200,303.355 144.440 C 296.396 149.988,287.684 149.639,281.016 143.545 C 278.457 141.206,278.162 141.165,277.830 143.100 C 276.622 150.152,275.873 155.082,274.171 167.200 C 274.032 168.190,273.755 169.172,273.557 169.382 C 273.333 169.619,273.828 170.000,274.856 170.382 C 280.062 172.318,279.194 176.425,272.885 179.712 C 270.703 180.849,268.814 182.146,268.226 182.912 C 267.683 183.620,266.105 185.730,264.720 187.600 C 261.984 191.294,259.005 194.448,256.800 195.985 C 256.030 196.522,255.310 197.082,255.200 197.229 C 255.090 197.377,253.695 198.339,252.100 199.368 C 248.625 201.609,248.618 201.686,251.628 204.113 C 254.897 206.749,255.042 209.629,252.011 211.718 C 250.186 212.976,248.799 212.607,245.161 209.893 C 239.360 205.567,239.588 205.622,232.600 206.859 C 228.594 207.568,171.385 207.566,167.400 206.856 C 160.390 205.609,160.274 205.635,155.005 209.617 C 150.718 212.859,149.337 213.112,146.986 211.089 C 144.878 209.276,145.415 206.661,148.456 203.925 C 149.847 202.675,150.895 201.562,150.787 201.453 C 150.678 201.345,149.422 200.472,147.995 199.515 C 143.389 196.425,142.672 195.848,139.674 192.820 C 136.520 189.634,133.704 186.153,132.699 184.199 C 131.815 182.479,131.061 181.904,126.806 179.705 C 122.485 177.472,121.336 176.133,121.767 173.835 C 122.058 172.286,123.663 170.504,124.931 170.324 C 125.933 170.181,126.351 168.056,125.657 166.631 C 125.434 166.174,125.149 164.810,125.023 163.600 C 124.896 162.390,124.610 160.140,124.386 158.600 C 124.162 157.060,123.808 154.630,123.600 153.200 C 123.392 151.770,123.051 149.430,122.843 148.000 C 122.425 145.124,122.145 143.692,121.592 141.600 C 120.966 139.232,118.361 130.325,117.614 128.000 C 117.225 126.790,116.666 124.990,116.372 124.000 C 114.118 116.416,106.476 112.587,100.063 115.828 M291.600 115.174 C 286.538 116.719,284.916 118.914,282.166 127.936 C 281.047 131.604,281.041 131.679,281.813 132.102 C 282.246 132.338,283.140 133.169,283.800 133.948 C 290.018 141.284,294.322 141.642,300.278 135.316 C 302.798 132.640,303.370 132.231,304.878 132.027 L 306.600 131.795 306.461 129.398 C 305.870 119.223,299.212 112.850,291.600 115.174 M139.296 145.995 C 138.702 146.946,138.636 149.851,139.200 150.200 C 139.420 150.336,139.600 151.607,139.600 153.024 C 139.600 154.475,139.775 155.600,140.000 155.600 C 140.231 155.600,140.400 156.859,140.400 158.576 C 140.400 160.213,140.580 161.664,140.800 161.800 C 141.020 161.936,141.200 162.926,141.200 164.000 C 141.200 165.074,141.380 166.064,141.600 166.200 C 141.820 166.336,142.000 166.977,142.000 167.624 C 142.000 168.271,142.180 168.800,142.400 168.800 C 142.620 168.800,142.800 169.142,142.800 169.559 C 142.800 170.205,143.882 172.486,145.760 175.800 C 146.833 177.692,147.768 178.862,148.537 179.274 C 149.134 179.593,148.949 179.173,147.870 177.757 C 144.804 173.735,142.334 167.837,141.560 162.690 C 140.188 153.570,139.520 147.499,139.758 146.311 C 140.022 144.990,139.953 144.943,139.296 145.995 M260.229 149.500 C 260.075 151.205,259.796 153.410,259.609 154.400 C 259.422 155.390,259.057 157.820,258.798 159.800 C 257.838 167.130,256.275 171.481,252.708 176.753 C 251.204 178.974,250.959 179.519,251.715 178.953 C 252.727 178.195,256.400 172.455,256.400 171.631 C 256.400 171.388,256.559 170.877,256.753 170.495 C 257.961 168.121,258.800 165.169,258.800 163.295 C 258.800 162.389,258.980 161.536,259.200 161.400 C 259.420 161.264,259.600 159.914,259.600 158.400 C 259.600 156.886,259.780 155.536,260.000 155.400 C 260.220 155.264,260.400 154.004,260.400 152.600 C 260.400 151.196,260.580 149.936,260.800 149.800 C 261.288 149.498,261.338 146.400,260.855 146.400 C 260.666 146.400,260.384 147.795,260.229 149.500 M185.105 186.683 C 185.602 186.779,186.322 186.775,186.705 186.675 C 187.087 186.575,186.680 186.496,185.800 186.501 C 184.920 186.505,184.607 186.587,185.105 186.683 M213.700 186.676 C 214.085 186.776,214.715 186.776,215.100 186.676 C 215.485 186.575,215.170 186.493,214.400 186.493 C 213.630 186.493,213.315 186.575,213.700 186.676 M94.517 218.300 C 95.059 218.905,96.259 220.246,97.184 221.280 C 101.700 226.330,106.207 226.050,111.661 220.381 C 115.279 216.620,116.862 216.194,119.260 218.337 C 125.005 223.471,111.070 235.220,101.566 233.257 C 92.325 231.349,84.609 222.315,88.842 218.360 C 90.572 216.744,93.100 216.717,94.517 218.300 M175.468 234.376 C 176.165 234.801,177.501 236.276,178.437 237.654 C 182.068 243.001,186.840 246.900,192.606 249.231 C 196.065 250.630,203.184 250.825,206.200 249.605 C 206.640 249.426,207.630 249.047,208.400 248.762 C 212.749 247.149,217.745 242.925,221.663 237.548 C 224.513 233.634,225.937 232.926,228.396 234.198 C 232.659 236.402,231.207 240.847,223.820 248.207 C 209.544 262.430,192.061 262.945,177.466 249.572 C 174.168 246.550,169.683 240.646,169.354 238.893 C 168.666 235.229,172.374 232.490,175.468 234.376 M281.920 242.574 C 282.514 242.889,284.024 244.304,285.275 245.718 C 290.450 251.565,295.931 251.311,300.801 244.999 C 305.150 239.361,312.053 243.504,308.146 249.407 C 306.035 252.596,300.692 257.200,299.102 257.200 C 298.804 257.200,298.389 257.363,298.180 257.562 C 297.358 258.346,292.600 258.740,289.965 258.243 C 284.729 257.257,278.548 252.720,276.623 248.452 C 274.926 244.687,278.478 240.745,281.920 242.574 M186.112 298.295 C 187.164 298.377,188.784 298.376,189.712 298.292 C 190.640 298.208,189.780 298.141,187.800 298.142 C 185.820 298.143,185.060 298.212,186.112 298.295 M210.300 298.293 C 211.235 298.377,212.765 298.377,213.700 298.293 C 214.635 298.209,213.870 298.140,212.000 298.140 C 210.130 298.140,209.365 298.209,210.300 298.293 M172.900 298.687 C 173.505 298.778,174.495 298.778,175.100 298.687 C 175.705 298.595,175.210 298.520,174.000 298.520 C 172.790 298.520,172.295 298.595,172.900 298.687 M224.905 298.687 C 225.514 298.779,226.414 298.777,226.905 298.682 C 227.397 298.587,226.900 298.511,225.800 298.514 C 224.700 298.517,224.297 298.595,224.905 298.687 M168.100 299.076 C 168.485 299.176,169.115 299.176,169.500 299.076 C 169.885 298.975,169.570 298.893,168.800 298.893 C 168.030 298.893,167.715 298.975,168.100 299.076 M230.100 299.076 C 230.485 299.176,231.115 299.176,231.500 299.076 C 231.885 298.975,231.570 298.893,230.800 298.893 C 230.030 298.893,229.715 298.975,230.100 299.076 M161.300 299.476 C 161.685 299.576,162.315 299.576,162.700 299.476 C 163.085 299.375,162.770 299.293,162.000 299.293 C 161.230 299.293,160.915 299.375,161.300 299.476 M237.105 299.483 C 237.602 299.579,238.322 299.575,238.705 299.475 C 239.087 299.375,238.680 299.296,237.800 299.301 C 236.920 299.305,236.607 299.387,237.105 299.483 M147.263 301.811 C 145.718 303.774,143.560 324.973,145.057 323.476 C 145.155 323.378,145.382 319.451,145.563 314.749 C 145.884 306.383,145.917 306.142,147.120 303.500 C 148.456 300.567,148.482 300.262,147.263 301.811 M252.806 303.139 C 254.075 305.647,254.096 305.782,254.456 313.739 C 254.919 323.996,255.128 324.482,255.170 315.400 C 255.207 307.286,254.448 303.329,252.508 301.521 C 251.572 300.648,251.587 300.733,252.806 303.139 " stroke="none" fill="#f36c8f" fill-rule="evenodd"></path><path id="path2" d="M122.800 87.376 C 122.800 87.913,122.980 88.464,123.200 88.600 C 123.420 88.736,123.600 89.377,123.600 90.024 C 123.600 90.671,123.780 91.200,124.000 91.200 C 124.220 91.200,124.400 91.740,124.400 92.400 C 124.400 93.060,124.580 93.600,124.800 93.600 C 125.020 93.600,125.200 94.230,125.200 95.000 C 125.200 95.770,125.380 96.400,125.600 96.400 C 125.820 96.400,126.000 96.929,126.000 97.576 C 126.000 98.223,126.180 98.864,126.400 99.000 C 126.620 99.136,126.800 99.676,126.800 100.200 C 126.800 100.724,126.980 101.264,127.200 101.400 C 127.420 101.536,127.600 102.267,127.600 103.024 C 127.600 103.781,127.780 104.400,128.000 104.400 C 128.220 104.400,128.400 104.929,128.400 105.576 C 128.400 106.223,128.597 106.875,128.838 107.024 C 129.080 107.173,129.202 107.802,129.111 108.423 C 129.016 109.072,129.123 109.519,129.363 109.476 C 129.933 109.372,130.159 111.127,129.654 111.735 C 129.376 112.070,129.378 112.414,129.661 112.813 C 130.002 113.296,130.036 113.276,129.850 112.700 C 129.726 112.315,129.805 112.000,130.025 112.000 C 130.596 112.000,131.029 113.324,130.514 113.495 C 130.278 113.574,130.181 114.005,130.298 114.453 C 130.443 115.006,130.606 115.113,130.808 114.788 C 130.971 114.523,131.115 115.073,131.128 116.009 C 131.141 116.946,131.342 117.902,131.576 118.136 C 131.809 118.369,132.000 118.886,132.000 119.285 C 132.000 119.684,132.162 120.323,132.361 120.705 C 132.560 121.087,132.940 122.210,133.207 123.200 C 133.473 124.190,133.830 125.360,134.000 125.800 C 134.170 126.240,134.539 127.410,134.820 128.400 C 136.248 133.436,138.662 136.491,142.916 138.648 C 145.505 139.962,146.070 140.800,144.366 140.800 C 141.267 140.800,139.269 145.550,139.990 151.200 C 141.846 165.739,142.310 167.798,144.899 172.975 C 148.325 179.825,148.839 180.115,162.967 183.181 C 168.187 184.314,172.506 185.028,177.400 185.568 C 179.600 185.811,183.020 186.187,185.000 186.404 C 189.717 186.920,210.587 186.913,215.532 186.393 C 223.443 185.562,226.657 185.173,228.800 184.790 C 232.779 184.079,240.969 182.407,242.600 181.973 C 243.480 181.738,244.830 181.396,245.600 181.211 C 250.137 180.121,250.736 179.735,252.881 176.522 C 255.255 172.966,256.126 171.196,257.169 167.813 C 257.961 165.243,258.266 163.619,259.204 157.000 C 259.391 155.680,259.755 153.105,260.014 151.278 C 260.802 145.711,258.750 140.800,255.634 140.800 C 253.920 140.800,254.484 139.943,256.984 138.748 C 260.925 136.866,263.527 133.853,264.740 129.767 C 265.257 128.025,265.822 126.240,265.995 125.800 C 266.167 125.360,266.537 124.190,266.815 123.200 C 267.630 120.301,269.065 115.963,269.959 113.700 C 270.415 112.545,270.605 111.600,270.380 111.600 C 269.942 111.600,270.052 109.815,270.518 109.348 C 270.673 109.193,270.800 108.641,270.800 108.121 C 270.800 107.601,271.043 107.082,271.341 106.967 C 271.661 106.844,271.809 106.380,271.703 105.827 C 271.605 105.314,271.722 104.772,271.962 104.623 C 272.203 104.475,272.400 103.834,272.400 103.200 C 272.400 102.566,272.580 101.936,272.800 101.800 C 273.020 101.664,273.200 101.023,273.200 100.376 C 273.200 99.729,273.380 99.200,273.600 99.200 C 273.820 99.200,274.000 98.671,274.000 98.024 C 274.000 97.377,274.180 96.736,274.400 96.600 C 274.620 96.464,274.800 95.834,274.800 95.200 C 274.800 94.566,274.980 93.936,275.200 93.800 C 275.420 93.664,275.600 93.124,275.600 92.600 C 275.600 92.076,275.780 91.536,276.000 91.400 C 276.220 91.264,276.400 90.623,276.400 89.976 C 276.400 89.329,276.580 88.800,276.800 88.800 C 277.020 88.800,277.200 88.258,277.200 87.595 L 277.200 86.390 274.343 87.895 C 270.888 89.715,270.613 89.882,268.594 91.391 C 266.522 92.939,260.400 99.026,260.400 99.538 C 260.400 99.755,260.255 99.993,260.077 100.067 C 259.095 100.471,253.600 110.629,253.600 112.038 C 253.600 112.318,253.264 113.549,252.854 114.773 C 252.443 115.998,251.883 117.810,251.608 118.800 C 251.333 119.790,250.970 120.960,250.800 121.400 C 250.630 121.840,250.273 123.010,250.007 124.000 C 249.740 124.990,249.360 126.113,249.161 126.495 C 248.962 126.877,248.800 127.631,248.800 128.171 C 248.800 128.711,248.620 129.264,248.400 129.400 C 248.180 129.536,248.000 130.076,248.000 130.600 C 248.000 131.124,247.820 131.664,247.600 131.800 C 247.380 131.936,247.200 132.566,247.200 133.200 C 247.200 133.834,247.020 134.464,246.800 134.600 C 246.580 134.736,246.400 135.467,246.400 136.224 C 246.400 136.981,246.232 137.600,246.027 137.600 C 245.821 137.600,245.596 138.095,245.527 138.700 L 245.400 139.800 200.106 139.902 L 154.812 140.003 154.206 138.553 C 153.873 137.755,153.600 136.595,153.600 135.975 C 153.600 135.355,153.420 134.736,153.200 134.600 C 152.980 134.464,152.800 133.924,152.800 133.400 C 152.800 132.876,152.620 132.336,152.400 132.200 C 152.180 132.064,152.000 131.434,152.000 130.800 C 152.000 130.166,151.820 129.536,151.600 129.400 C 151.380 129.264,151.200 128.711,151.200 128.171 C 151.200 127.631,151.041 126.877,150.846 126.495 C 150.512 125.839,149.471 122.564,148.463 119.000 C 148.214 118.120,147.558 115.965,147.005 114.211 C 146.452 112.457,146.000 110.702,146.000 110.311 C 146.000 109.920,145.820 109.600,145.600 109.600 C 145.380 109.600,145.200 109.347,145.200 109.038 C 145.200 108.372,143.532 105.059,143.100 104.867 C 142.935 104.793,142.800 104.558,142.800 104.345 C 142.800 102.622,134.261 93.136,130.280 90.436 C 124.887 86.778,122.800 85.925,122.800 87.376 M186.000 298.239 C 175.974 298.468,160.884 299.471,152.242 300.482 L 148.284 300.945 147.083 303.572 C 144.858 308.437,143.997 339.600,146.087 339.600 C 146.259 339.600,146.400 339.811,146.400 340.069 C 146.400 340.858,149.961 344.000,150.856 344.000 C 151.547 344.000,151.612 344.104,151.215 344.582 C 150.797 345.086,150.910 345.099,152.066 344.683 C 153.829 344.047,243.071 343.834,246.389 344.457 C 247.945 344.750,248.619 344.743,248.722 344.434 C 248.802 344.195,249.128 344.000,249.447 344.000 C 249.766 344.000,250.657 343.370,251.427 342.600 C 252.197 341.830,253.001 341.200,253.213 341.200 C 253.426 341.200,253.600 340.930,253.600 340.600 C 253.600 340.270,253.780 340.000,254.000 340.000 C 254.220 340.000,254.400 339.550,254.400 339.000 C 254.400 338.450,254.604 338.000,254.853 338.000 C 255.341 338.000,255.143 325.131,254.459 312.352 C 254.126 306.134,254.026 305.552,252.916 303.364 L 251.729 301.025 247.965 300.543 C 244.108 300.050,237.455 299.493,227.200 298.806 C 221.021 298.392,194.991 298.034,186.000 298.239 " stroke="none" fill="#acacec" fill-rule="evenodd"></path><path id="path3" d="M272.893 107.600 C 272.618 108.040,272.531 108.400,272.700 108.400 C 272.869 108.400,273.232 108.040,273.507 107.600 C 273.782 107.160,273.869 106.800,273.700 106.800 C 273.531 106.800,273.168 107.160,272.893 107.600 M278.526 132.780 C 276.088 134.266,275.754 136.426,277.529 139.222 C 284.600 150.359,300.182 150.487,307.712 139.471 C 311.480 133.959,305.344 129.409,301.334 134.742 C 296.203 141.568,289.631 141.868,284.600 135.506 C 281.957 132.164,280.562 131.538,278.526 132.780 M136.956 135.600 C 137.105 136.150,137.603 138.400,138.064 140.600 C 138.926 144.721,139.565 146.555,139.588 144.978 C 139.604 143.917,141.840 141.500,143.464 140.789 C 144.814 140.199,144.350 139.243,142.700 139.213 C 142.315 139.206,142.000 139.020,142.000 138.800 C 142.000 138.580,141.764 138.400,141.475 138.400 C 141.187 138.400,140.512 138.011,139.975 137.535 C 139.439 137.059,138.479 136.204,137.843 135.635 L 136.686 134.600 136.956 135.600 M261.168 136.539 C 260.160 137.453,258.810 138.449,258.168 138.754 C 257.526 139.058,256.591 139.496,256.091 139.726 C 255.191 140.141,255.194 140.150,256.437 140.672 C 258.033 141.343,260.396 143.903,260.412 144.978 C 260.435 146.492,261.091 144.756,261.387 142.400 C 261.653 140.289,262.052 138.685,262.910 136.287 C 263.494 134.653,263.202 134.695,261.168 136.539 M323.646 142.867 C 323.621 143.234,323.496 143.864,323.370 144.267 C 323.152 144.962,323.163 144.963,323.597 144.287 C 323.848 143.896,323.973 143.266,323.873 142.887 C 323.711 142.268,323.688 142.266,323.646 142.867 M124.168 171.154 C 121.875 172.553,121.432 175.467,123.255 177.165 C 125.000 178.792,138.541 185.027,144.600 186.995 C 151.880 189.359,158.961 191.181,164.091 192.008 C 167.277 192.522,168.359 193.323,166.498 193.790 C 162.219 194.864,149.844 202.514,147.109 205.776 C 143.644 209.908,149.174 213.541,153.696 210.104 C 158.811 206.218,164.162 203.284,171.400 200.400 C 174.035 199.349,178.911 197.959,182.400 197.263 C 187.761 196.193,188.906 196.029,194.157 195.577 C 207.650 194.415,222.159 197.186,235.064 203.391 C 239.866 205.700,241.500 206.691,247.147 210.723 C 250.263 212.948,253.615 211.650,253.587 208.230 C 253.572 206.405,253.059 205.663,250.400 203.610 C 249.410 202.846,248.510 202.113,248.400 201.980 C 247.673 201.106,242.481 198.029,238.322 196.007 C 231.881 192.875,231.677 192.691,234.212 192.283 C 241.569 191.099,256.867 186.771,262.400 184.308 C 263.390 183.867,264.830 183.238,265.600 182.910 C 267.137 182.254,267.310 182.168,272.782 179.346 C 277.572 176.874,278.693 175.301,277.387 172.883 C 275.839 170.019,274.241 169.903,269.462 172.304 C 264.140 174.978,259.949 176.779,254.800 178.605 C 252.490 179.423,250.420 180.228,250.200 180.393 C 249.980 180.558,249.350 180.794,248.800 180.918 C 248.250 181.043,247.125 181.337,246.300 181.572 C 237.377 184.117,226.831 185.907,215.200 186.850 C 208.570 187.387,183.621 187.073,178.800 186.392 C 170.004 185.149,162.942 183.866,158.000 182.615 C 150.539 180.726,150.740 180.782,149.400 180.189 C 148.740 179.897,146.400 179.007,144.200 178.212 C 139.004 176.334,137.981 175.891,131.920 172.904 C 126.329 170.149,125.955 170.064,124.168 171.154 M340.109 216.800 C 340.109 217.790,340.187 218.195,340.282 217.700 C 340.378 217.205,340.378 216.395,340.282 215.900 C 340.187 215.405,340.109 215.810,340.109 216.800 M89.592 218.247 C 87.470 219.566,87.093 222.312,88.803 224.000 C 88.914 224.110,89.634 225.038,90.403 226.062 C 94.267 231.211,104.273 234.701,108.705 232.447 C 109.087 232.252,109.940 231.853,110.600 231.559 C 116.594 228.889,121.251 222.915,119.770 219.794 C 118.445 217.002,115.062 216.886,113.028 219.564 C 107.939 226.259,101.631 227.118,97.000 221.745 C 93.674 217.886,93.322 217.600,91.931 217.611 C 91.199 217.616,90.147 217.903,89.592 218.247 M60.406 227.433 C 60.409 227.855,60.595 228.470,60.818 228.800 C 61.115 229.238,61.152 229.076,60.956 228.200 C 60.627 226.729,60.398 226.410,60.406 227.433 M170.636 235.631 C 166.985 239.970,179.391 253.560,190.094 256.945 C 191.032 257.242,192.520 257.703,193.400 257.969 C 196.115 258.790,208.815 258.146,209.427 257.156 C 209.548 256.960,209.929 256.800,210.274 256.800 C 215.317 256.800,230.400 242.631,230.400 237.893 C 230.400 233.832,225.373 233.110,222.791 236.800 C 210.395 254.514,192.212 255.657,179.345 239.531 C 178.165 238.052,177.200 236.719,177.200 236.568 C 177.200 234.430,172.242 233.722,170.636 235.631 M278.359 243.313 C 273.385 246.656,281.305 256.265,290.400 257.922 C 300.588 259.778,314.186 246.899,306.320 242.843 C 305.031 242.178,302.995 242.810,302.011 244.180 C 296.523 251.824,289.190 252.316,284.293 245.369 C 282.239 242.455,280.522 241.860,278.359 243.313 M147.300 273.738 C 144.045 276.957,149.122 282.448,160.868 288.416 C 165.123 290.578,165.113 290.595,159.306 291.165 C 150.272 292.051,146.583 292.455,144.200 292.818 C 142.880 293.019,140.360 293.375,138.600 293.609 C 136.840 293.844,133.870 294.379,132.000 294.800 C 130.130 295.221,127.580 295.762,126.333 296.004 C 122.280 296.788,120.623 299.998,122.966 302.525 C 124.331 303.998,125.269 304.118,129.800 303.399 C 132.000 303.050,136.050 302.410,138.800 301.977 C 141.550 301.544,144.970 301.001,146.400 300.770 C 171.612 296.700,230.632 296.778,254.400 300.913 C 256.270 301.238,259.420 301.725,261.400 301.995 C 263.380 302.264,265.540 302.635,266.200 302.817 C 273.223 304.760,277.947 303.759,277.987 300.319 C 278.019 297.631,276.474 296.381,272.188 295.624 C 270.874 295.393,268.990 295.016,268.000 294.787 C 263.626 293.774,251.961 292.193,241.442 291.186 C 235.044 290.573,235.068 290.614,239.716 288.248 C 251.772 282.110,256.454 276.847,252.600 273.764 C 250.756 272.289,248.679 272.542,246.625 274.492 C 245.722 275.350,242.568 277.600,242.269 277.600 C 242.166 277.600,240.867 278.338,239.382 279.240 C 234.537 282.183,228.814 284.592,222.400 286.389 C 221.410 286.666,220.150 287.034,219.600 287.206 C 219.050 287.378,217.250 287.733,215.600 287.995 C 213.950 288.257,211.736 288.636,210.680 288.836 C 209.624 289.036,205.109 289.200,200.645 289.200 C 190.694 289.200,185.479 288.510,176.700 286.033 C 171.623 284.601,164.651 281.585,160.726 279.125 C 159.557 278.392,158.119 277.546,157.532 277.245 C 156.944 276.945,155.379 275.821,154.054 274.749 C 151.216 272.453,148.944 272.113,147.300 273.738 M323.552 291.287 C 323.737 292.398,323.793 292.455,323.919 291.654 C 324.001 291.133,323.903 290.543,323.701 290.341 C 323.479 290.119,323.421 290.493,323.552 291.287 M140.253 334.500 L 139.533 335.800 140.358 334.800 C 141.089 333.913,141.414 333.200,141.086 333.200 C 141.024 333.200,140.649 333.785,140.253 334.500 M262.077 337.270 C 262.615 337.968,263.493 338.823,264.028 339.170 C 264.563 339.516,264.190 338.946,263.200 337.902 C 261.115 335.703,260.679 335.457,262.077 337.270 " stroke="none" fill="#d42555" fill-rule="evenodd"></path><path id="path4" d="M98.600 98.400 C 98.464 98.620,97.834 98.800,97.200 98.800 C 96.566 98.800,95.936 98.980,95.800 99.200 C 95.664 99.420,95.113 99.600,94.576 99.600 C 94.039 99.600,93.600 99.780,93.600 100.000 C 93.600 100.220,93.240 100.400,92.800 100.400 C 92.360 100.400,92.000 100.580,92.000 100.800 C 92.000 101.020,91.640 101.200,91.200 101.200 C 90.760 101.200,90.400 101.350,90.400 101.532 C 90.400 101.715,89.908 102.120,89.307 102.432 C 87.246 103.503,80.800 110.572,80.800 111.762 C 80.800 111.882,80.294 113.109,79.675 114.490 C 78.175 117.836,77.159 121.391,77.004 123.836 C 76.961 124.516,76.768 125.326,76.575 125.636 C 76.096 126.406,76.011 141.026,76.475 142.931 C 76.680 143.773,76.919 145.033,77.006 145.731 C 77.293 148.024,79.228 154.549,79.676 154.733 C 79.854 154.807,80.000 155.088,80.000 155.358 C 80.000 155.629,80.368 156.611,80.817 157.541 L 81.635 159.233 79.188 162.517 C 77.842 164.322,76.307 166.340,75.778 167.000 C 75.248 167.660,74.811 168.425,74.807 168.700 C 74.803 168.975,74.620 169.200,74.400 169.200 C 74.180 169.200,74.000 169.436,74.000 169.725 C 74.000 170.013,73.640 170.636,73.200 171.108 C 72.760 171.580,72.400 172.244,72.400 172.583 C 72.400 172.922,72.220 173.200,72.000 173.200 C 71.780 173.200,71.600 173.560,71.600 174.000 C 71.600 174.440,71.446 174.800,71.258 174.800 C 71.070 174.800,70.150 176.375,69.213 178.300 C 68.277 180.225,67.171 182.492,66.755 183.338 C 66.340 184.184,66.000 185.219,66.000 185.638 C 66.000 186.057,65.820 186.400,65.600 186.400 C 65.380 186.400,65.200 186.929,65.200 187.576 C 65.200 188.223,65.020 188.864,64.800 189.000 C 64.580 189.136,64.400 189.687,64.400 190.224 C 64.400 190.761,64.220 191.200,64.000 191.200 C 63.780 191.200,63.600 191.729,63.600 192.376 C 63.600 193.023,63.439 193.652,63.242 193.774 C 63.045 193.895,62.787 194.671,62.668 195.497 C 62.549 196.324,62.251 197.900,62.006 199.000 C 60.863 204.129,60.627 207.174,60.627 216.800 C 60.627 226.426,60.863 229.471,62.006 234.600 C 62.251 235.700,62.549 237.276,62.668 238.103 C 62.787 238.929,63.045 239.705,63.242 239.826 C 63.439 239.948,63.600 240.566,63.600 241.200 C 63.600 241.834,63.780 242.464,64.000 242.600 C 64.220 242.736,64.400 243.276,64.400 243.800 C 64.400 244.324,64.580 244.864,64.800 245.000 C 65.020 245.136,65.200 245.687,65.200 246.224 C 65.200 246.761,65.380 247.200,65.600 247.200 C 65.820 247.200,66.000 247.639,66.000 248.176 C 66.000 248.713,66.180 249.264,66.400 249.400 C 66.620 249.536,66.800 249.997,66.800 250.424 C 66.800 250.851,66.980 251.200,67.200 251.200 C 67.420 251.200,67.600 251.549,67.600 251.976 C 67.600 252.403,67.780 252.864,68.000 253.000 C 68.220 253.136,68.400 253.582,68.400 253.990 C 68.400 254.399,68.535 254.793,68.700 254.867 C 68.970 254.987,70.178 257.089,71.360 259.497 C 71.602 259.990,71.935 260.395,72.100 260.397 C 72.265 260.399,72.400 260.760,72.400 261.200 C 72.400 261.640,72.580 262.000,72.800 262.000 C 73.020 262.000,73.200 262.236,73.200 262.525 C 73.200 262.813,73.560 263.436,74.000 263.908 C 74.440 264.380,74.800 264.954,74.800 265.183 C 74.800 265.412,74.980 265.600,75.200 265.600 C 75.420 265.600,75.600 265.797,75.600 266.037 C 75.600 266.277,75.966 266.952,76.414 267.537 C 79.266 271.262,81.018 273.418,81.289 273.533 C 81.949 273.816,81.636 274.780,79.536 278.916 C 79.336 279.310,79.267 279.785,79.382 279.971 C 79.497 280.157,79.323 280.532,78.996 280.804 C 78.668 281.076,78.397 281.681,78.394 282.149 C 78.391 282.617,78.104 283.810,77.757 284.800 C 77.409 285.790,77.076 287.230,77.016 288.000 C 76.957 288.770,76.750 289.760,76.556 290.200 C 76.111 291.212,76.113 307.125,76.559 308.200 C 76.741 308.640,76.940 309.713,77.000 310.585 C 77.061 311.457,77.300 312.233,77.533 312.311 C 77.765 312.388,77.860 312.700,77.743 313.003 C 77.561 313.480,78.542 316.891,79.585 319.400 C 80.819 322.370,82.017 324.763,82.383 324.990 C 82.620 325.136,82.709 325.423,82.583 325.628 C 82.456 325.832,82.543 326.000,82.776 326.000 C 83.009 326.000,83.200 326.360,83.200 326.800 C 83.200 327.240,83.380 327.600,83.600 327.600 C 83.820 327.600,84.000 327.836,84.000 328.125 C 84.000 328.413,84.360 329.036,84.800 329.508 C 85.240 329.980,85.600 330.527,85.600 330.724 C 85.600 330.921,86.140 331.646,86.800 332.337 C 87.460 333.028,88.000 333.772,88.000 333.991 C 88.000 334.576,94.742 341.128,95.636 341.411 C 96.056 341.545,96.400 341.822,96.400 342.027 C 96.400 342.232,96.670 342.400,97.000 342.400 C 97.330 342.400,97.600 342.580,97.600 342.800 C 97.600 343.020,97.870 343.200,98.200 343.200 C 98.530 343.200,98.800 343.380,98.800 343.600 C 98.800 343.820,99.160 344.000,99.600 344.000 C 100.040 344.000,100.400 344.180,100.400 344.400 C 100.400 344.620,100.760 344.800,101.200 344.800 C 101.640 344.800,102.000 344.980,102.000 345.200 C 102.000 345.420,102.540 345.600,103.200 345.600 C 103.860 345.600,104.400 345.780,104.400 346.000 C 104.400 346.220,105.030 346.400,105.800 346.400 C 106.570 346.400,107.200 346.560,107.200 346.756 C 107.200 347.081,111.984 347.647,114.400 347.608 C 117.315 347.561,121.448 347.091,121.780 346.769 C 121.989 346.566,122.664 346.400,123.280 346.400 C 123.896 346.400,124.400 346.220,124.400 346.000 C 124.400 345.780,124.940 345.600,125.600 345.600 C 126.260 345.600,126.800 345.420,126.800 345.200 C 126.800 344.980,127.160 344.800,127.600 344.800 C 128.040 344.800,128.400 344.620,128.400 344.400 C 128.400 344.180,128.760 344.000,129.200 344.000 C 129.640 344.000,130.000 343.820,130.000 343.600 C 130.000 343.380,130.320 343.200,130.712 343.200 C 131.103 343.200,131.683 342.840,132.000 342.400 C 132.317 341.960,132.856 341.600,133.198 341.600 C 133.958 341.600,139.212 336.298,140.234 334.500 C 140.640 333.785,141.114 333.200,141.286 333.200 C 141.459 333.200,141.600 332.840,141.600 332.400 C 141.600 331.960,141.780 331.600,142.000 331.600 C 142.220 331.600,142.400 331.240,142.400 330.800 C 142.400 330.360,142.580 330.000,142.800 330.000 C 143.020 330.000,143.200 329.640,143.200 329.200 C 143.200 328.760,143.380 328.400,143.600 328.400 C 143.820 328.400,144.000 327.986,144.000 327.480 C 144.000 326.974,144.181 326.379,144.402 326.158 C 144.636 325.924,144.898 321.821,145.026 316.378 C 145.331 303.450,146.044 301.252,150.200 300.423 C 152.664 299.931,150.397 300.143,146.400 300.777 C 143.077 301.305,134.948 302.584,129.800 303.390 C 124.868 304.162,124.300 304.372,127.400 304.275 C 129.748 304.202,129.797 304.222,129.657 305.200 C 129.578 305.750,129.432 309.170,129.332 312.800 C 129.231 316.430,128.981 319.571,128.775 319.780 C 128.569 319.989,128.400 320.574,128.400 321.080 C 128.400 321.586,128.264 322.000,128.098 322.000 C 127.931 322.000,127.546 322.563,127.241 323.252 C 126.398 325.156,122.197 329.200,121.062 329.200 C 120.771 329.200,120.410 329.323,120.259 329.474 C 118.778 330.955,113.399 331.171,109.653 329.900 C 104.101 328.016,97.291 319.368,94.771 311.000 C 94.506 310.120,94.143 309.040,93.965 308.600 C 92.774 305.655,92.780 292.829,93.974 289.800 C 94.147 289.360,94.506 288.280,94.771 287.400 C 95.451 285.141,95.557 284.906,99.042 277.943 L 102.174 271.687 99.793 268.943 C 98.483 267.434,97.314 266.110,97.195 266.000 C 96.915 265.741,93.136 261.284,92.155 260.055 C 91.740 259.536,91.175 258.874,90.900 258.584 C 90.625 258.294,90.400 257.864,90.400 257.629 C 90.400 257.393,90.259 257.200,90.086 257.200 C 89.914 257.200,89.419 256.627,88.986 255.928 C 88.554 255.228,87.696 253.833,87.080 252.828 C 84.368 248.403,81.445 241.610,80.012 236.400 C 79.740 235.410,79.355 234.187,79.158 233.681 C 78.961 233.176,78.800 232.177,78.800 231.461 C 78.800 230.746,78.640 229.989,78.443 229.780 C 77.833 229.129,77.487 224.497,77.473 216.800 C 77.461 210.016,77.633 208.053,78.751 202.200 C 79.990 195.719,83.841 185.821,86.872 181.328 C 87.492 180.408,88.000 179.463,88.000 179.228 C 88.000 178.993,88.168 178.800,88.373 178.800 C 88.578 178.800,88.860 178.441,88.999 178.002 C 89.138 177.564,89.472 176.979,89.739 176.702 C 90.007 176.426,90.661 175.583,91.191 174.829 C 91.722 174.074,92.734 172.814,93.441 172.029 C 95.149 170.130,100.853 163.558,101.559 162.675 C 102.055 162.055,101.764 161.261,98.998 155.688 C 97.281 152.230,95.704 148.950,95.492 148.400 C 95.280 147.850,94.948 147.087,94.753 146.705 C 94.559 146.323,94.400 145.594,94.400 145.085 C 94.400 144.576,94.237 143.989,94.037 143.780 C 93.117 142.818,92.758 131.553,93.521 127.600 C 94.161 124.279,94.478 123.041,94.799 122.600 C 94.959 122.380,95.199 121.739,95.333 121.176 C 97.702 111.225,113.193 113.304,116.372 124.000 C 116.666 124.990,117.225 126.790,117.614 128.000 C 118.361 130.325,120.966 139.232,121.592 141.600 C 122.145 143.692,122.425 145.124,122.843 148.000 C 123.051 149.430,123.392 151.770,123.600 153.200 C 123.808 154.630,124.162 157.060,124.386 158.600 C 124.610 160.140,124.896 162.390,125.023 163.600 C 125.149 164.810,125.442 166.189,125.674 166.663 C 125.906 167.138,126.021 168.173,125.928 168.963 C 125.809 169.985,125.917 170.400,126.300 170.400 C 126.597 170.400,129.125 171.527,131.920 172.904 C 137.981 175.891,139.004 176.334,144.200 178.212 C 146.400 179.007,148.740 179.887,149.400 180.167 C 151.803 181.188,161.924 183.809,162.241 183.493 C 162.333 183.400,160.382 182.831,157.904 182.228 C 150.187 180.348,148.174 179.519,146.966 177.720 C 145.138 174.998,142.800 170.418,142.800 169.559 C 142.800 169.142,142.620 168.800,142.400 168.800 C 142.180 168.800,142.000 168.271,142.000 167.624 C 142.000 166.977,141.820 166.336,141.600 166.200 C 141.380 166.064,141.200 165.074,141.200 164.000 C 141.200 162.926,141.020 161.936,140.800 161.800 C 140.580 161.664,140.400 160.213,140.400 158.576 C 140.400 156.859,140.231 155.600,140.000 155.600 C 139.775 155.600,139.600 154.475,139.600 153.024 C 139.600 151.607,139.420 150.336,139.200 150.200 C 138.688 149.884,138.675 146.524,139.185 146.209 C 139.429 146.058,139.431 145.648,139.191 145.086 C 138.983 144.599,138.455 142.490,138.018 140.400 C 137.581 138.310,137.102 136.150,136.955 135.600 C 136.686 134.600,136.686 134.600,138.021 135.800 C 139.131 136.798,139.070 136.667,137.661 135.024 C 136.728 133.937,135.688 132.407,135.349 131.624 C 135.010 130.841,134.568 129.887,134.366 129.505 C 134.165 129.123,134.000 128.358,134.000 127.805 C 134.000 127.252,133.820 126.800,133.600 126.800 C 133.380 126.800,133.200 126.348,133.200 125.795 C 133.200 125.242,133.038 124.477,132.841 124.095 C 132.644 123.713,132.085 122.050,131.600 120.400 C 131.115 118.750,130.556 117.087,130.359 116.705 C 130.162 116.323,130.000 115.659,130.000 115.229 C 130.000 114.799,129.820 114.336,129.600 114.200 C 129.380 114.064,129.200 113.524,129.200 113.000 C 129.200 112.476,129.020 111.936,128.800 111.800 C 128.580 111.664,128.400 111.113,128.400 110.576 C 128.400 110.039,128.220 109.600,128.000 109.600 C 127.780 109.600,127.600 109.414,127.600 109.187 C 127.600 108.959,127.015 108.155,126.300 107.400 C 125.585 106.645,124.820 105.836,124.600 105.604 C 122.879 103.784,120.104 101.774,118.700 101.329 C 118.315 101.207,118.000 100.948,118.000 100.753 C 118.000 100.559,117.728 100.400,117.395 100.400 C 117.062 100.400,116.432 100.220,115.995 100.000 C 115.558 99.780,114.842 99.420,114.405 99.200 C 113.968 98.980,113.079 98.800,112.429 98.800 C 111.779 98.800,111.136 98.620,111.000 98.400 C 110.853 98.162,108.337 98.000,104.800 98.000 C 101.263 98.000,98.747 98.162,98.600 98.400 M288.400 98.400 C 288.070 98.613,287.393 98.791,286.895 98.794 C 286.397 98.797,285.677 98.961,285.295 99.158 C 284.913 99.355,283.396 100.096,281.925 100.805 C 280.453 101.515,278.886 102.433,278.441 102.847 C 277.997 103.261,277.491 103.603,277.317 103.607 C 276.695 103.620,272.400 108.510,272.400 109.205 C 272.400 109.422,272.220 109.600,272.000 109.600 C 271.780 109.600,271.597 109.915,271.594 110.300 C 271.587 111.118,270.673 113.861,270.274 114.259 C 270.123 114.410,270.000 114.943,270.000 115.443 C 270.000 115.943,269.820 116.464,269.600 116.600 C 269.380 116.736,269.200 117.276,269.200 117.800 C 269.200 118.324,269.020 118.864,268.800 119.000 C 268.580 119.136,268.400 119.676,268.400 120.200 C 268.400 120.724,268.220 121.264,268.000 121.400 C 267.780 121.536,267.600 122.166,267.600 122.800 C 267.600 123.434,267.420 124.064,267.200 124.200 C 266.980 124.336,266.800 124.977,266.800 125.624 C 266.800 126.271,266.620 126.800,266.400 126.800 C 266.180 126.800,266.000 127.252,266.000 127.805 C 266.000 128.358,265.835 129.123,265.634 129.505 C 265.432 129.887,264.955 130.915,264.573 131.788 C 264.191 132.661,262.966 134.371,261.851 135.588 C 259.941 137.671,259.925 137.707,261.566 136.200 C 263.471 134.451,263.405 134.299,262.345 138.000 C 262.125 138.770,261.713 140.660,261.430 142.200 C 261.147 143.740,260.780 145.315,260.615 145.700 C 260.432 146.126,260.488 146.400,260.757 146.400 C 261.311 146.400,261.349 149.461,260.800 149.800 C 260.580 149.936,260.400 151.196,260.400 152.600 C 260.400 154.004,260.220 155.264,260.000 155.400 C 259.780 155.536,259.600 156.886,259.600 158.400 C 259.600 159.914,259.420 161.264,259.200 161.400 C 258.980 161.536,258.800 162.389,258.800 163.295 C 258.800 165.169,257.961 168.121,256.753 170.495 C 256.559 170.877,256.400 171.388,256.400 171.631 C 256.400 173.719,251.385 179.737,249.043 180.460 C 248.213 180.716,248.212 180.721,249.020 180.760 C 249.471 180.782,250.011 180.639,250.220 180.443 C 250.429 180.246,252.490 179.417,254.800 178.600 C 260.120 176.718,263.477 175.281,268.988 172.522 C 274.063 169.982,275.669 169.982,277.218 172.522 C 277.646 173.225,277.998 173.599,277.999 173.354 C 278.002 172.403,276.284 170.797,274.781 170.347 C 273.728 170.032,273.322 169.730,273.558 169.438 C 273.752 169.197,274.026 168.190,274.167 167.200 C 274.475 165.044,275.056 160.999,275.589 157.300 C 276.307 152.329,276.977 148.079,277.830 143.100 C 278.166 141.141,278.424 141.192,281.305 143.800 C 282.642 145.010,283.931 145.994,284.168 145.987 C 284.406 145.980,284.276 145.729,283.881 145.429 C 277.429 140.536,275.111 136.547,277.186 133.908 C 279.278 131.249,281.485 131.684,284.437 135.339 C 289.713 141.872,296.144 141.645,301.334 134.742 C 305.344 129.409,311.480 133.959,307.712 139.471 C 306.128 141.788,302.246 145.034,299.420 146.406 C 298.089 147.051,297.231 147.584,297.513 147.590 C 298.310 147.606,301.632 145.815,303.355 144.440 C 306.164 142.200,306.386 142.978,304.427 148.200 C 304.262 148.640,302.722 151.860,301.004 155.355 C 297.371 162.750,297.217 161.495,302.481 167.457 C 307.788 173.468,308.387 174.178,308.394 174.471 C 308.397 174.621,308.635 174.981,308.922 175.271 C 310.421 176.789,314.057 182.687,316.160 187.012 C 325.979 207.205,324.502 235.705,312.727 253.278 C 311.887 254.531,311.200 255.746,311.200 255.978 C 311.200 256.210,311.059 256.400,310.886 256.400 C 310.714 256.400,310.257 256.933,309.872 257.585 C 309.487 258.237,308.953 259.002,308.686 259.285 C 308.419 259.568,307.693 260.479,307.073 261.309 C 306.453 262.139,305.553 263.224,305.073 263.719 C 304.593 264.214,303.123 265.875,301.808 267.410 C 300.492 268.944,299.097 270.491,298.708 270.847 C 297.931 271.557,297.796 272.430,298.370 273.020 C 298.857 273.521,303.732 283.404,304.378 285.200 C 304.654 285.970,305.018 286.960,305.185 287.400 C 305.993 289.524,306.400 291.168,306.400 292.305 C 306.400 292.991,306.580 293.664,306.800 293.800 C 307.311 294.116,307.329 303.405,306.823 305.694 C 306.615 306.632,306.229 308.390,305.965 309.600 C 305.702 310.810,305.061 312.733,304.543 313.874 C 304.024 315.015,303.600 316.041,303.600 316.153 C 303.600 317.899,294.526 328.400,293.018 328.400 C 292.678 328.400,292.400 328.580,292.400 328.800 C 292.400 329.020,292.076 329.200,291.680 329.200 C 291.284 329.200,290.744 329.416,290.480 329.680 C 287.601 332.559,273.200 327.306,273.200 323.378 C 273.200 323.060,273.020 322.800,272.800 322.800 C 272.580 322.800,272.400 322.476,272.400 322.080 C 272.400 321.684,272.251 321.189,272.070 320.980 C 271.223 320.006,270.807 316.859,270.708 310.672 L 270.600 303.944 272.800 304.182 C 275.293 304.450,276.584 303.961,277.501 302.400 C 277.912 301.700,277.924 301.589,277.544 302.030 C 275.768 304.088,271.790 304.364,266.200 302.817 C 265.540 302.635,263.380 302.264,261.400 301.995 C 259.420 301.725,256.270 301.240,254.400 300.918 C 252.530 300.595,250.190 300.265,249.200 300.185 C 247.635 300.059,247.697 300.095,249.669 300.461 C 254.167 301.295,255.200 304.244,255.200 316.248 C 255.200 323.966,255.615 327.600,256.497 327.600 C 256.664 327.600,256.800 327.834,256.800 328.120 C 256.800 328.856,257.741 330.793,258.100 330.797 C 258.265 330.799,258.400 331.160,258.400 331.600 C 258.400 332.040,258.580 332.400,258.800 332.400 C 259.020 332.400,259.200 332.628,259.200 332.907 C 259.200 333.497,262.433 337.341,264.155 338.800 C 264.804 339.350,265.747 340.205,266.250 340.700 C 266.752 341.195,267.442 341.600,267.782 341.600 C 268.122 341.600,268.400 341.780,268.400 342.000 C 268.400 342.220,268.670 342.400,269.000 342.400 C 269.330 342.400,269.600 342.580,269.600 342.800 C 269.600 343.020,269.870 343.200,270.200 343.200 C 270.530 343.200,270.800 343.380,270.800 343.600 C 270.800 343.820,271.149 344.000,271.576 344.000 C 272.003 344.000,272.464 344.180,272.600 344.400 C 272.736 344.620,273.287 344.800,273.824 344.800 C 274.361 344.800,274.800 344.980,274.800 345.200 C 274.800 345.420,275.340 345.600,276.000 345.600 C 276.660 345.600,277.200 345.780,277.200 346.000 C 277.200 346.220,278.100 346.400,279.200 346.400 C 280.300 346.400,281.200 346.580,281.200 346.800 C 281.200 347.042,282.933 347.200,285.600 347.200 C 288.267 347.200,290.000 347.042,290.000 346.800 C 290.000 346.580,290.900 346.400,292.000 346.400 C 293.100 346.400,294.000 346.220,294.000 346.000 C 294.000 345.780,294.540 345.600,295.200 345.600 C 295.860 345.600,296.400 345.420,296.400 345.200 C 296.400 344.980,296.940 344.800,297.600 344.800 C 298.260 344.800,298.800 344.620,298.800 344.400 C 298.800 344.180,299.160 344.000,299.600 344.000 C 300.040 344.000,300.400 343.820,300.400 343.600 C 300.400 343.380,300.577 343.200,300.792 343.200 C 302.817 343.200,313.413 333.403,314.887 330.168 C 315.130 329.636,315.444 329.200,315.585 329.200 C 315.727 329.200,316.283 328.303,316.821 327.206 C 317.360 326.110,317.935 325.210,318.100 325.206 C 318.265 325.203,318.400 324.840,318.400 324.400 C 318.400 323.960,318.580 323.600,318.800 323.600 C 319.020 323.600,319.200 323.364,319.200 323.075 C 319.200 322.786,319.560 321.805,320.000 320.894 C 320.440 319.984,320.800 318.971,320.800 318.643 C 320.800 318.315,320.959 317.949,321.154 317.829 C 321.349 317.708,321.604 317.113,321.721 316.505 C 321.839 315.897,322.150 314.590,322.413 313.600 C 324.397 306.134,324.571 294.153,322.803 286.800 C 322.027 283.573,321.453 281.703,320.748 280.104 C 320.336 279.172,320.000 278.232,320.000 278.017 C 320.000 277.801,319.640 276.983,319.200 276.200 C 318.220 274.455,318.207 274.071,319.104 273.247 C 319.492 272.891,320.337 271.880,320.983 271.000 C 321.629 270.120,322.257 269.310,322.379 269.200 C 323.101 268.547,325.200 265.576,325.200 265.207 C 325.200 264.965,325.560 264.380,326.000 263.908 C 326.440 263.436,326.800 262.813,326.800 262.525 C 326.800 262.236,326.980 262.000,327.200 262.000 C 327.420 262.000,327.600 261.640,327.600 261.200 C 327.600 260.760,327.752 260.400,327.937 260.400 C 328.123 260.400,328.708 259.545,329.237 258.500 C 329.767 257.455,330.335 256.540,330.500 256.467 C 330.665 256.393,330.800 255.988,330.800 255.567 C 330.800 255.145,330.980 254.800,331.200 254.800 C 331.420 254.800,331.600 254.547,331.600 254.238 C 331.600 253.929,331.986 252.894,332.457 251.938 C 332.928 250.982,333.444 249.840,333.603 249.400 C 333.763 248.960,334.097 248.105,334.346 247.500 C 335.704 244.208,336.400 241.969,336.400 240.895 C 336.400 240.429,336.580 239.936,336.800 239.800 C 337.020 239.664,337.200 239.034,337.200 238.400 C 337.200 237.766,337.374 237.140,337.587 237.008 C 337.800 236.876,337.952 236.174,337.925 235.447 C 337.897 234.720,338.034 233.872,338.228 233.563 C 339.804 231.052,340.174 210.551,338.787 202.600 C 338.557 201.280,338.267 199.480,338.143 198.600 C 338.019 197.720,337.756 196.829,337.559 196.620 C 337.362 196.411,337.200 195.747,337.200 195.144 C 337.200 194.541,337.020 193.936,336.800 193.800 C 336.580 193.664,336.400 193.111,336.400 192.571 C 336.400 192.031,336.242 191.277,336.049 190.895 C 335.856 190.513,335.484 189.480,335.223 188.600 C 334.961 187.720,334.555 186.550,334.320 186.000 C 334.085 185.450,333.763 184.640,333.603 184.200 C 333.444 183.760,332.928 182.618,332.457 181.662 C 331.986 180.706,331.600 179.671,331.600 179.362 C 331.600 179.053,331.420 178.800,331.200 178.800 C 330.980 178.800,330.800 178.440,330.800 178.000 C 330.800 177.560,330.665 177.197,330.500 177.194 C 330.335 177.190,329.760 176.290,329.221 175.194 C 328.683 174.097,328.098 173.200,327.921 173.200 C 327.745 173.200,327.600 172.840,327.600 172.400 C 327.600 171.960,327.420 171.600,327.200 171.600 C 326.980 171.600,326.800 171.364,326.800 171.075 C 326.800 170.787,326.462 170.188,326.049 169.745 C 325.636 169.301,325.186 168.592,325.050 168.169 C 324.914 167.746,324.262 166.825,323.601 166.122 C 322.940 165.419,322.400 164.733,322.400 164.598 C 322.400 164.275,319.993 161.179,319.100 160.353 C 318.332 159.644,318.170 158.800,318.800 158.800 C 319.020 158.800,319.200 158.476,319.200 158.080 C 319.200 157.684,319.359 157.189,319.553 156.980 C 319.748 156.771,320.300 155.430,320.780 154.000 C 321.260 152.570,321.807 151.040,321.996 150.600 C 322.372 149.725,322.721 148.171,323.030 146.000 C 323.140 145.230,323.388 144.017,323.582 143.303 C 323.775 142.590,323.904 140.745,323.867 139.203 C 323.830 137.661,323.949 136.399,324.132 136.400 C 324.717 136.400,323.921 127.055,322.974 122.800 C 322.852 122.250,322.648 121.121,322.522 120.290 C 322.395 119.460,322.136 118.684,321.946 118.567 C 321.756 118.449,321.600 118.001,321.600 117.571 C 321.600 117.141,321.443 116.477,321.251 116.095 C 318.972 111.553,318.202 110.145,317.755 109.698 C 317.465 109.408,316.913 108.637,316.528 107.985 C 316.143 107.333,315.566 106.800,315.247 106.800 C 314.928 106.800,314.782 106.685,314.923 106.544 C 315.227 106.240,312.436 103.600,311.810 103.600 C 311.572 103.600,311.117 103.240,310.800 102.800 C 310.483 102.360,309.986 102.000,309.695 102.000 C 309.404 102.000,308.796 101.654,308.342 101.232 C 307.889 100.810,306.726 100.230,305.759 99.945 C 304.792 99.659,304.000 99.285,304.000 99.113 C 304.000 98.941,303.370 98.800,302.600 98.800 C 301.830 98.800,301.200 98.620,301.200 98.400 C 301.200 97.876,289.211 97.876,288.400 98.400 M298.524 115.606 C 303.182 117.349,306.050 122.333,306.461 129.398 L 306.600 131.795 304.878 132.027 C 303.370 132.231,302.798 132.640,300.278 135.316 C 294.322 141.642,290.018 141.284,283.800 133.948 C 283.140 133.169,282.246 132.338,281.813 132.102 C 280.982 131.647,281.720 128.400,284.071 122.169 C 286.326 116.190,292.542 113.368,298.524 115.606 M256.400 141.000 C 256.950 141.314,257.580 141.572,257.800 141.572 C 258.020 141.572,257.750 141.314,257.200 141.000 C 256.650 140.686,256.020 140.428,255.800 140.428 C 255.580 140.428,255.850 140.686,256.400 141.000 M140.502 143.130 C 140.012 143.719,139.608 144.450,139.605 144.756 C 139.602 145.062,140.059 144.635,140.620 143.809 C 141.832 142.023,141.762 141.620,140.502 143.130 M259.481 143.761 C 259.877 144.289,260.257 144.667,260.328 144.600 C 260.538 144.399,259.434 142.800,259.085 142.800 C 258.908 142.800,259.086 143.232,259.481 143.761 M284.993 146.389 C 285.811 147.712,293.286 148.824,296.000 148.026 C 296.590 147.853,295.441 147.737,293.200 147.744 C 289.714 147.755,286.881 147.207,285.820 146.318 C 285.286 145.871,284.704 145.921,284.993 146.389 M123.064 171.445 C 121.706 172.803,121.342 174.741,122.151 176.306 C 122.741 177.447,126.236 179.897,126.664 179.469 C 126.774 179.359,126.245 178.974,125.487 178.614 C 121.549 176.746,120.912 173.140,124.168 171.154 C 124.907 170.704,125.142 170.402,124.755 170.401 C 124.400 170.401,123.639 170.870,123.064 171.445 M277.136 176.258 C 276.753 177.058,275.518 177.935,272.800 179.337 C 267.304 182.171,267.137 182.254,265.600 182.910 C 264.830 183.238,263.390 183.867,262.400 184.308 C 256.867 186.771,241.569 191.099,234.212 192.283 C 231.677 192.691,231.881 192.875,238.322 196.007 C 242.481 198.029,247.673 201.106,248.400 201.980 C 248.510 202.113,249.410 202.846,250.400 203.610 C 253.059 205.663,253.572 206.405,253.587 208.230 C 253.615 211.650,250.263 212.948,247.147 210.723 C 241.500 206.691,239.866 205.700,235.064 203.391 C 220.133 196.212,201.851 193.560,186.800 196.390 C 176.313 198.361,172.522 199.592,163.644 203.912 C 159.828 205.768,157.476 207.232,153.696 210.104 C 149.174 213.541,143.644 209.908,147.109 205.776 C 149.844 202.514,162.219 194.864,166.498 193.790 C 168.359 193.323,167.277 192.522,164.091 192.008 C 158.960 191.180,151.930 189.372,144.592 186.993 C 141.977 186.146,133.508 182.714,132.088 181.927 C 130.277 180.923,130.078 181.015,131.276 182.300 C 131.841 182.905,132.532 183.850,132.812 184.400 C 133.711 186.162,136.639 189.754,139.674 192.820 C 142.672 195.848,143.389 196.425,147.995 199.515 C 149.422 200.472,150.678 201.345,150.787 201.453 C 150.895 201.562,149.847 202.675,148.456 203.925 C 145.415 206.661,144.878 209.276,146.986 211.089 C 149.337 213.112,150.718 212.859,155.005 209.617 C 160.274 205.635,160.390 205.609,167.400 206.856 C 171.385 207.566,228.594 207.568,232.600 206.859 C 239.588 205.622,239.360 205.567,245.161 209.893 C 248.799 212.607,250.186 212.976,252.011 211.718 C 255.042 209.629,254.897 206.749,251.628 204.113 C 248.618 201.686,248.625 201.609,252.100 199.368 C 253.695 198.339,255.090 197.377,255.200 197.229 C 255.310 197.082,256.030 196.522,256.800 195.985 C 259.005 194.448,261.984 191.294,264.720 187.600 C 266.105 185.730,267.683 183.620,268.226 182.912 C 268.814 182.146,270.703 180.849,272.885 179.712 C 276.213 177.978,278.520 175.987,277.910 175.376 C 277.779 175.246,277.431 175.643,277.136 176.258 M127.200 179.790 C 127.200 180.095,129.656 181.277,129.862 181.071 C 129.965 180.968,129.471 180.595,128.763 180.242 C 127.376 179.550,127.200 179.499,127.200 179.790 M246.200 181.206 C 245.540 181.384,243.830 181.823,242.400 182.181 C 240.970 182.540,239.260 182.995,238.600 183.194 C 236.614 183.791,240.181 183.217,242.800 182.518 C 244.010 182.195,245.599 181.782,246.332 181.600 C 247.064 181.419,247.769 181.164,247.898 181.035 C 248.190 180.744,247.747 180.788,246.200 181.206 M163.800 184.000 C 164.460 184.168,165.360 184.314,165.800 184.325 L 166.600 184.344 165.800 184.000 C 165.360 183.811,164.460 183.665,163.800 183.675 L 162.600 183.695 163.800 184.000 M234.200 184.000 L 233.400 184.344 234.200 184.325 C 234.640 184.314,235.540 184.168,236.200 184.000 L 237.400 183.695 236.200 183.675 C 235.540 183.665,234.640 183.811,234.200 184.000 M168.200 184.823 C 170.337 185.265,171.804 185.250,170.400 184.800 C 169.850 184.624,168.770 184.483,168.000 184.486 L 166.600 184.492 168.200 184.823 M230.000 184.820 C 229.326 185.049,229.651 185.084,231.000 184.928 C 232.100 184.801,233.075 184.631,233.167 184.549 C 233.482 184.268,230.999 184.480,230.000 184.820 M173.200 185.620 C 175.643 186.055,177.530 186.040,175.800 185.600 C 175.140 185.432,173.880 185.296,173.000 185.297 L 171.400 185.300 173.200 185.620 M224.400 185.621 C 223.499 185.824,223.997 185.859,225.800 185.719 C 227.340 185.599,228.675 185.434,228.767 185.351 C 229.052 185.092,225.871 185.289,224.400 185.621 M179.800 186.423 C 180.680 186.605,182.120 186.742,183.000 186.727 L 184.600 186.700 182.800 186.380 C 181.810 186.203,180.370 186.067,179.600 186.076 L 178.200 186.092 179.800 186.423 M217.200 186.400 L 215.400 186.680 217.000 186.717 C 217.880 186.737,219.320 186.605,220.200 186.423 L 221.800 186.092 220.400 186.106 C 219.630 186.114,218.190 186.246,217.200 186.400 M193.725 187.099 C 197.424 187.166,203.364 187.165,206.925 187.099 C 210.486 187.033,207.460 186.979,200.200 186.979 C 192.940 186.979,190.026 187.033,193.725 187.099 M88.842 218.360 C 87.694 219.433,87.084 220.766,88.000 220.200 C 88.220 220.064,88.400 219.732,88.400 219.463 C 88.400 218.720,90.560 217.600,91.992 217.600 C 93.310 217.600,93.718 217.938,97.000 221.745 C 101.631 227.118,107.939 226.259,113.028 219.564 C 115.062 216.886,118.445 217.002,119.770 219.794 C 121.422 223.275,115.738 229.828,109.000 232.210 C 108.552 232.369,108.406 232.571,108.667 232.669 C 110.204 233.247,117.174 228.008,119.608 224.445 C 121.831 221.189,120.040 217.200,116.354 217.200 C 114.837 217.200,114.504 217.425,111.661 220.381 C 106.207 226.050,101.700 226.330,97.184 221.280 C 96.259 220.246,95.059 218.905,94.517 218.300 C 93.100 216.717,90.572 216.744,88.842 218.360 M87.600 222.750 C 87.600 225.150,97.646 233.385,99.727 232.691 C 99.949 232.617,99.208 232.206,98.082 231.778 C 95.244 230.700,92.007 228.259,90.374 225.966 C 89.618 224.905,88.865 224.029,88.700 224.019 C 88.535 224.008,88.400 223.741,88.400 223.424 C 88.400 223.107,88.220 222.736,88.000 222.600 C 87.780 222.464,87.600 222.531,87.600 222.750 M101.200 233.200 C 102.454 233.602,105.421 233.602,107.000 233.200 C 107.790 232.999,106.835 232.892,104.200 232.887 C 101.641 232.882,100.560 232.995,101.200 233.200 M171.368 234.354 C 169.977 235.202,169.047 237.062,169.313 238.462 C 169.454 239.204,169.502 239.135,169.546 238.131 C 169.686 234.856,173.598 233.195,176.100 235.347 C 176.705 235.867,177.200 236.422,177.200 236.579 C 177.200 237.001,179.856 240.288,182.176 242.737 C 185.244 245.975,191.670 250.044,193.600 249.969 C 193.930 249.956,193.750 249.744,193.200 249.497 C 192.650 249.251,191.390 248.690,190.400 248.252 C 186.367 246.467,181.484 242.142,178.437 237.654 C 175.834 233.821,173.800 232.871,171.368 234.354 M224.125 234.700 C 223.441 235.305,222.170 236.790,221.301 238.001 C 217.718 242.993,212.377 247.401,208.187 248.824 C 206.451 249.414,205.532 250.000,206.345 250.000 C 209.796 250.000,218.369 243.120,222.791 236.800 C 225.373 233.110,230.400 233.832,230.400 237.893 C 230.400 242.631,215.317 256.800,210.274 256.800 C 209.929 256.800,209.548 256.960,209.427 257.156 C 208.815 258.146,196.115 258.790,193.400 257.969 C 189.343 256.741,188.237 256.329,186.094 255.246 C 180.706 252.522,175.037 247.358,171.364 241.826 C 170.547 240.595,169.794 239.672,169.691 239.776 C 169.296 240.170,173.478 245.540,176.569 248.607 C 187.687 259.639,201.059 262.116,214.200 255.576 C 221.272 252.057,230.800 241.964,230.800 237.992 C 230.800 234.399,226.735 232.394,224.125 234.700 M278.400 242.722 C 272.256 245.721,280.217 256.406,289.965 258.243 C 292.600 258.740,297.358 258.346,298.180 257.562 C 298.389 257.363,298.804 257.200,299.102 257.200 C 300.692 257.200,306.035 252.596,308.146 249.407 C 312.060 243.492,305.149 239.363,300.790 245.013 C 299.123 247.173,298.120 247.995,295.600 249.263 C 294.830 249.651,294.432 249.975,294.716 249.984 C 296.281 250.032,299.845 247.197,302.011 244.180 C 304.866 240.204,310.320 244.076,308.190 248.565 C 302.638 260.264,285.668 260.945,277.984 249.776 C 273.917 243.866,280.052 239.735,284.372 245.474 C 285.895 247.497,289.231 250.014,290.345 249.980 C 290.705 249.969,290.223 249.584,289.274 249.124 C 288.320 248.661,286.533 247.139,285.274 245.717 C 281.965 241.978,280.886 241.508,278.400 242.722 M195.200 250.400 C 195.750 250.576,197.010 250.716,198.000 250.710 L 199.800 250.700 198.000 250.380 C 197.010 250.203,195.750 250.064,195.200 250.070 L 194.200 250.080 195.200 250.400 M202.000 250.400 L 200.600 250.695 202.200 250.719 C 203.080 250.733,204.160 250.589,204.600 250.400 C 205.642 249.952,204.126 249.952,202.000 250.400 M291.905 250.283 C 292.402 250.379,293.122 250.375,293.505 250.275 C 293.887 250.175,293.480 250.096,292.600 250.101 C 291.720 250.105,291.407 250.187,291.905 250.283 M149.000 272.400 C 148.397 272.659,148.642 272.744,150.000 272.744 C 151.358 272.744,151.603 272.659,151.000 272.400 C 150.560 272.211,150.110 272.056,150.000 272.056 C 149.890 272.056,149.440 272.211,149.000 272.400 M248.200 272.885 C 247.760 273.138,246.230 274.258,244.800 275.373 L 242.200 277.400 200.167 277.400 L 158.133 277.400 155.842 275.600 C 152.785 273.199,151.779 272.510,152.105 273.042 C 152.494 273.678,156.343 276.578,158.074 277.539 C 158.885 277.989,160.312 278.839,161.246 279.429 C 167.871 283.611,177.855 286.946,188.765 288.622 C 193.031 289.277,207.605 289.419,210.680 288.836 C 211.736 288.636,213.950 288.257,215.600 287.995 C 217.250 287.733,219.050 287.378,219.600 287.206 C 220.150 287.034,221.410 286.666,222.400 286.389 C 228.814 284.592,234.537 282.183,239.382 279.240 C 240.867 278.338,242.166 277.600,242.269 277.600 C 242.564 277.600,245.679 275.359,246.975 274.215 C 247.622 273.644,248.522 273.100,248.975 273.004 C 249.429 272.909,250.160 272.755,250.600 272.662 C 251.108 272.555,250.962 272.480,250.200 272.459 C 249.540 272.440,248.640 272.632,248.200 272.885 M146.821 273.778 C 145.620 275.057,145.607 277.672,146.794 279.278 C 147.826 280.673,147.686 280.919,145.009 282.430 C 142.127 284.056,138.060 287.856,135.639 291.185 C 134.539 292.697,133.316 294.023,132.920 294.132 C 132.524 294.241,131.300 294.510,130.200 294.729 C 122.735 296.218,121.600 296.914,121.600 300.000 C 121.600 301.710,123.177 304.009,124.336 303.988 C 124.877 303.978,124.852 303.894,124.200 303.536 C 120.321 301.403,121.590 296.922,126.333 296.004 C 127.580 295.762,130.130 295.221,132.000 294.800 C 133.870 294.379,136.840 293.844,138.600 293.609 C 140.360 293.375,142.880 293.019,144.200 292.818 C 146.583 292.455,150.272 292.051,159.306 291.165 C 165.113 290.595,165.123 290.578,160.868 288.416 C 149.308 282.543,143.593 276.411,147.276 273.832 C 147.758 273.494,148.058 273.125,147.944 273.011 C 147.830 272.897,147.324 273.242,146.821 273.778 M252.600 273.764 C 256.454 276.847,251.772 282.110,239.716 288.248 C 235.068 290.614,235.044 290.573,241.442 291.186 C 251.961 292.193,263.626 293.774,268.000 294.787 C 268.990 295.016,270.874 295.393,272.188 295.624 C 276.442 296.375,277.622 297.324,278.127 300.400 C 278.268 301.259,278.299 301.225,278.346 300.159 C 278.477 297.163,276.884 296.113,270.200 294.791 C 266.814 294.121,266.396 293.849,264.600 291.143 C 262.304 287.684,256.396 282.541,253.500 281.481 C 252.597 281.151,252.618 280.773,253.647 278.799 C 254.850 276.491,253.730 272.793,251.830 272.802 C 251.594 272.803,251.940 273.236,252.600 273.764 M179.400 297.976 C 177.420 298.099,186.690 298.200,200.000 298.200 C 213.310 298.200,222.310 298.087,220.000 297.949 C 214.889 297.644,184.406 297.664,179.400 297.976 M165.000 298.800 L 163.000 299.074 165.000 299.090 C 166.100 299.099,168.170 298.975,169.600 298.814 L 172.200 298.522 169.600 298.524 C 168.170 298.525,166.100 298.649,165.000 298.800 M230.000 298.814 C 231.430 298.975,233.500 299.102,234.600 299.097 L 236.600 299.087 234.400 298.783 C 233.190 298.616,231.120 298.489,229.800 298.501 L 227.400 298.522 230.000 298.814 M155.800 299.600 L 154.200 299.886 155.800 299.914 C 156.680 299.929,158.210 299.797,159.200 299.620 L 161.000 299.300 159.200 299.307 C 158.210 299.311,156.680 299.442,155.800 299.600 M240.800 299.620 C 241.790 299.797,243.230 299.932,244.000 299.920 C 245.297 299.901,245.267 299.876,243.600 299.580 C 242.610 299.403,241.170 299.268,240.400 299.280 C 239.103 299.299,239.133 299.324,240.800 299.620 " stroke="none" fill="#e54c74" fill-rule="evenodd"></path></g></svg>