<svg xmlns="http://www.w3.org/2000/svg" xmlns:xlink="http://www.w3.org/1999/xlink" id="svg" width="400" height="400" viewBox="0, 0, 400,400"><g id="svgg"><path id="path0" d="M69.442 1.900 C 69.566 2.945,69.760 4.070,69.873 4.400 C 69.986 4.730,70.255 6.170,70.471 7.600 C 70.687 9.030,71.029 11.145,71.232 12.300 C 71.434 13.455,71.766 15.345,71.968 16.500 C 72.171 17.655,72.532 19.770,72.772 21.200 C 73.012 22.630,73.384 24.790,73.600 26.000 C 73.816 27.210,74.188 29.370,74.428 30.800 C 74.668 32.230,75.029 34.345,75.232 35.500 C 75.434 36.655,75.763 38.545,75.963 39.700 C 77.211 46.918,77.958 51.187,78.430 53.800 C 78.629 54.900,78.964 56.880,79.173 58.200 C 79.382 59.520,79.753 61.680,79.997 63.000 C 80.240 64.320,80.598 66.390,80.792 67.600 C 81.104 69.554,82.343 76.758,84.851 91.200 C 85.290 93.730,85.820 96.880,86.028 98.200 C 86.237 99.520,86.584 101.590,86.800 102.800 C 87.016 104.010,87.376 106.080,87.600 107.400 C 87.824 108.720,88.184 110.790,88.400 112.000 C 88.616 113.210,88.988 115.370,89.228 116.800 C 89.468 118.230,89.829 120.345,90.032 121.500 C 90.234 122.655,90.566 124.545,90.768 125.700 C 90.971 126.855,91.332 128.970,91.572 130.400 C 91.812 131.830,92.184 133.990,92.400 135.200 C 92.616 136.410,92.975 138.480,93.197 139.800 C 93.610 142.250,94.112 145.156,94.768 148.900 C 94.970 150.055,95.321 152.080,95.547 153.400 C 95.773 154.720,96.337 157.960,96.800 160.600 C 97.263 163.240,97.799 166.390,97.990 167.600 C 98.182 168.810,98.618 171.510,98.959 173.600 C 100.829 185.061,102.377 203.418,102.391 214.300 C 102.396 218.095,102.292 221.200,102.159 221.200 C 102.027 221.200,89.791 217.150,74.969 212.200 C 60.147 207.250,47.655 203.200,47.210 203.200 C 46.415 203.200,46.400 203.419,46.400 215.200 L 46.400 227.200 47.576 227.200 C 48.223 227.200,48.864 227.380,49.000 227.600 C 49.136 227.820,49.676 228.000,50.200 228.000 C 50.724 228.000,51.264 228.180,51.400 228.400 C 51.536 228.620,52.076 228.800,52.600 228.800 C 53.124 228.800,53.664 228.980,53.800 229.200 C 53.936 229.420,54.476 229.600,55.000 229.600 C 55.524 229.600,56.064 229.780,56.200 230.000 C 56.336 230.220,56.876 230.400,57.400 230.400 C 57.924 230.400,58.464 230.580,58.600 230.800 C 58.736 231.020,59.199 231.200,59.629 231.200 C 60.059 231.200,60.723 231.375,61.105 231.589 C 61.487 231.802,66.030 233.353,71.200 235.035 C 76.370 236.717,82.400 238.722,84.600 239.491 C 86.800 240.260,89.097 240.980,89.705 241.091 C 90.313 241.202,90.908 241.451,91.029 241.646 C 91.149 241.841,91.676 242.000,92.200 242.000 C 92.724 242.000,93.264 242.180,93.400 242.400 C 93.536 242.620,94.076 242.800,94.600 242.800 C 95.124 242.800,95.664 242.980,95.800 243.200 C 95.936 243.420,96.476 243.600,97.000 243.600 C 97.524 243.600,98.064 243.780,98.200 244.000 C 98.336 244.220,98.859 244.400,99.362 244.400 C 100.793 244.400,101.741 245.720,101.445 247.300 C 101.308 248.032,101.024 250.334,100.814 252.416 C 100.094 259.570,99.607 263.411,98.764 268.600 C 97.919 273.801,95.936 284.297,95.194 287.500 C 94.631 289.930,93.998 292.747,93.600 294.600 C 93.144 296.723,92.430 299.869,92.011 301.600 C 91.825 302.370,91.469 303.990,91.220 305.200 C 90.970 306.410,90.610 308.030,90.420 308.800 C 90.229 309.570,89.868 311.190,89.617 312.400 C 89.077 315.006,88.481 317.665,88.005 319.600 C 86.382 326.187,86.676 329.370,89.200 332.543 C 96.094 341.209,108.260 337.179,110.164 325.600 C 110.290 324.830,110.585 323.390,110.819 322.400 C 111.053 321.410,111.414 319.835,111.622 318.900 C 111.830 317.965,112.180 316.390,112.400 315.400 C 112.620 314.410,112.972 312.835,113.183 311.900 C 113.393 310.965,113.752 309.300,113.980 308.200 C 115.803 299.414,115.577 299.582,120.843 303.087 C 123.085 304.579,125.207 305.982,125.560 306.204 C 128.395 307.994,131.034 309.748,131.200 309.953 C 131.740 310.620,147.604 320.825,148.949 321.371 C 152.235 322.706,157.113 321.941,160.445 319.568 C 161.658 318.704,164.213 315.279,163.887 314.954 C 163.782 314.849,163.206 315.540,162.605 316.488 C 159.952 320.683,154.046 322.710,149.329 321.046 C 148.465 320.741,140.929 315.950,132.583 310.399 C 124.237 304.849,117.001 300.153,116.504 299.964 L 115.600 299.620 115.600 218.610 C 115.600 164.870,115.735 137.600,116.000 137.600 C 116.590 137.600,116.487 136.306,115.757 134.558 C 115.403 133.712,114.946 131.935,114.741 130.610 C 114.536 129.284,114.196 127.210,113.985 126.000 C 112.330 116.491,112.329 116.987,113.990 117.069 C 114.754 117.107,115.444 117.332,115.523 117.569 C 115.602 117.806,115.967 117.995,116.333 117.988 C 116.935 117.977,116.932 117.936,116.300 117.568 C 115.658 117.194,115.600 116.178,115.600 105.385 L 115.600 93.610 119.213 86.352 C 121.200 82.359,122.765 79.031,122.689 78.956 C 122.613 78.880,120.901 82.140,118.885 86.201 L 115.219 93.584 113.909 93.336 C 113.189 93.199,112.297 92.933,111.926 92.744 C 111.556 92.555,110.825 92.400,110.303 92.400 C 108.643 92.400,107.991 91.546,107.551 88.793 C 107.322 87.367,106.980 85.300,106.791 84.200 C 106.115 80.279,104.832 72.891,103.595 65.800 C 102.905 61.840,102.095 57.070,101.795 55.200 C 100.851 49.311,100.005 44.275,99.596 42.100 C 98.728 37.492,98.413 35.739,98.213 34.400 C 97.963 32.731,97.343 29.044,96.800 26.000 C 96.584 24.790,96.212 22.630,95.972 21.200 C 95.487 18.309,95.007 15.549,94.386 12.100 C 94.159 10.835,93.808 8.810,93.607 7.600 C 93.406 6.390,93.134 4.770,93.003 4.000 C 92.872 3.230,92.675 2.015,92.564 1.300 L 92.364 0.000 80.790 0.000 L 69.215 0.000 69.442 1.900 M140.853 49.053 C 140.113 49.376,139.590 49.724,139.692 49.825 C 139.794 49.927,140.529 49.738,141.326 49.405 C 143.162 48.638,147.008 48.627,149.150 49.382 C 151.185 50.100,151.329 49.832,149.351 49.005 C 147.513 48.237,142.660 48.264,140.853 49.053 M136.993 51.700 C 135.185 53.445,122.090 78.400,122.982 78.400 C 123.068 78.400,125.897 72.872,129.269 66.117 C 134.390 55.857,135.717 53.517,137.327 51.917 C 138.386 50.862,139.141 50.000,139.003 50.000 C 138.866 50.000,137.961 50.765,136.993 51.700 M152.525 51.242 C 153.354 51.926,154.563 53.411,155.212 54.542 C 155.861 55.674,156.394 56.362,156.396 56.072 C 156.405 54.853,152.449 50.046,151.409 50.013 C 151.194 50.006,151.696 50.559,152.525 51.242 M156.600 59.962 C 156.600 62.938,156.510 63.231,154.088 68.179 C 152.706 71.000,151.649 73.382,151.739 73.472 C 151.892 73.625,155.736 65.951,156.744 63.481 C 157.250 62.239,157.353 58.059,156.894 57.338 C 156.732 57.084,156.600 58.265,156.600 59.962 M143.453 89.666 C 140.890 94.774,138.929 99.086,139.096 99.248 C 139.263 99.411,139.940 99.661,140.600 99.804 C 141.510 100.002,141.655 99.962,141.200 99.638 C 140.870 99.404,140.285 99.209,139.900 99.206 C 138.976 99.198,138.608 100.078,143.829 89.820 C 146.375 84.818,148.381 80.647,148.286 80.552 C 148.190 80.457,146.016 84.558,143.453 89.666 M143.000 100.400 C 144.196 100.914,145.195 100.914,144.400 100.400 C 144.070 100.187,143.440 100.022,143.000 100.034 L 142.200 100.056 143.000 100.400 M146.200 101.200 C 147.396 101.714,148.395 101.714,147.600 101.200 C 147.270 100.987,146.640 100.822,146.200 100.834 L 145.400 100.856 146.200 101.200 M149.400 102.000 C 149.840 102.189,150.560 102.344,151.000 102.344 L 151.800 102.344 151.000 102.000 C 150.560 101.811,149.840 101.656,149.400 101.656 L 148.600 101.656 149.400 102.000 M152.600 102.800 C 153.040 102.989,153.760 103.144,154.200 103.144 L 155.000 103.144 154.200 102.800 C 153.760 102.611,153.040 102.456,152.600 102.456 L 151.800 102.456 152.600 102.800 M155.600 103.600 C 155.930 103.813,156.470 103.988,156.800 103.988 C 157.333 103.988,157.333 103.945,156.800 103.600 C 156.470 103.387,155.930 103.212,155.600 103.212 C 155.067 103.212,155.067 103.255,155.600 103.600 M159.222 105.129 C 161.824 106.781,163.640 109.422,164.358 112.600 C 164.602 113.678,164.727 113.873,164.742 113.200 C 164.812 110.113,160.240 104.000,157.862 104.000 C 157.632 104.000,158.244 104.508,159.222 105.129 M164.251 117.469 C 163.136 123.453,155.763 127.829,149.828 126.027 C 147.726 125.389,140.964 123.686,138.600 123.199 C 136.858 122.840,136.167 122.973,137.670 123.377 C 152.816 127.457,154.930 127.610,159.264 124.938 C 162.206 123.124,165.054 118.835,164.713 116.731 C 164.601 116.040,164.482 116.231,164.251 117.469 M117.800 118.400 C 118.240 118.589,118.960 118.744,119.400 118.744 L 120.200 118.744 119.400 118.400 C 118.960 118.211,118.240 118.056,117.800 118.056 L 117.000 118.056 117.800 118.400 M121.200 119.200 C 121.530 119.413,122.250 119.573,122.800 119.554 L 123.800 119.520 122.800 119.200 C 121.258 118.706,120.436 118.706,121.200 119.200 M124.400 120.000 C 124.730 120.213,125.450 120.373,126.000 120.354 L 127.000 120.320 126.000 120.000 C 124.458 119.506,123.636 119.506,124.400 120.000 M127.284 120.615 C 127.570 120.903,129.967 121.495,132.200 121.829 C 133.052 121.956,132.913 121.847,131.722 121.452 C 129.583 120.745,126.913 120.241,127.284 120.615 M134.000 122.400 C 134.330 122.613,135.050 122.773,135.600 122.754 L 136.600 122.720 135.600 122.400 C 134.058 121.906,133.236 121.906,134.000 122.400 M116.487 139.200 C 116.491 139.750,116.632 140.740,116.800 141.400 L 117.105 142.600 117.113 141.400 C 117.117 140.740,116.976 139.750,116.800 139.200 L 116.480 138.200 116.487 139.200 M117.268 144.000 C 117.287 145.650,117.917 147.356,117.932 145.800 C 117.938 145.140,117.789 144.240,117.600 143.800 C 117.287 143.073,117.257 143.091,117.268 144.000 M118.075 148.400 C 118.086 148.950,118.232 149.940,118.400 150.600 L 118.705 151.800 118.725 150.400 C 118.735 149.630,118.589 148.640,118.400 148.200 C 118.088 147.474,118.058 147.493,118.075 148.400 M118.828 152.850 C 118.713 155.507,122.098 158.775,126.500 160.258 C 126.885 160.387,127.200 160.652,127.200 160.847 C 127.200 161.041,127.383 161.200,127.606 161.200 C 127.830 161.200,128.955 161.809,130.106 162.554 C 132.038 163.803,142.754 170.234,146.000 172.092 C 146.770 172.533,147.850 173.194,148.400 173.561 C 148.950 173.928,149.885 174.472,150.477 174.770 C 152.100 175.585,154.654 178.274,155.578 180.141 C 156.032 181.057,156.400 181.474,156.400 181.072 C 156.400 180.060,154.239 177.020,152.689 175.854 C 151.360 174.854,134.835 164.800,134.521 164.800 C 134.424 164.800,133.559 164.260,132.600 163.600 C 131.641 162.940,130.741 162.400,130.600 162.400 C 130.459 162.400,129.592 161.887,128.672 161.259 C 127.752 160.632,126.815 160.047,126.589 159.959 C 124.013 158.962,119.597 155.730,119.572 154.824 C 119.538 153.591,118.872 151.825,118.828 152.850 M156.600 185.200 C 156.600 186.918,156.732 188.116,156.894 187.862 C 157.281 187.254,157.286 182.500,156.900 182.262 C 156.735 182.160,156.600 183.482,156.600 185.200 M124.172 190.100 C 126.095 214.641,125.897 237.401,123.597 256.000 C 122.876 261.829,122.726 263.797,123.026 263.502 C 123.430 263.105,124.397 253.653,125.266 241.600 C 125.962 231.953,125.951 209.095,125.246 199.400 C 124.942 195.220,124.612 190.675,124.513 189.300 C 124.317 186.595,124.479 186.410,126.000 187.600 C 126.550 188.030,127.148 188.386,127.328 188.391 C 127.508 188.396,128.441 188.940,129.400 189.600 C 130.359 190.260,131.337 190.800,131.572 190.800 C 131.807 190.800,132.000 190.980,132.000 191.200 C 132.000 191.420,132.166 191.600,132.368 191.600 C 132.570 191.600,134.382 192.608,136.395 193.840 C 138.407 195.072,140.140 195.993,140.245 195.888 C 140.350 195.783,139.398 195.090,138.128 194.348 C 135.685 192.921,135.346 192.720,128.891 188.858 C 123.594 185.690,123.821 185.630,124.172 190.100 M155.494 190.386 C 154.716 192.040,151.730 195.200,150.945 195.200 C 150.671 195.200,150.336 195.380,150.200 195.600 C 149.699 196.410,150.735 195.962,152.531 194.590 C 154.310 193.232,156.614 189.996,156.335 189.248 C 156.261 189.049,155.882 189.561,155.494 190.386 M141.339 196.416 C 141.745 196.673,143.185 196.943,144.539 197.017 C 146.973 197.150,146.978 197.148,145.000 196.842 C 143.900 196.672,142.460 196.402,141.800 196.241 C 140.791 195.996,140.718 196.024,141.339 196.416 M147.800 196.400 L 147.000 196.744 147.800 196.766 C 148.240 196.778,148.870 196.613,149.200 196.400 C 149.995 195.886,148.996 195.886,147.800 196.400 M122.339 266.000 C 122.197 267.210,121.863 269.696,121.598 271.524 C 121.332 273.353,121.179 274.907,121.258 274.978 C 122.843 276.421,156.400 298.473,156.400 298.072 C 156.400 297.866,155.860 297.473,155.200 297.200 C 154.540 296.927,154.000 296.545,154.000 296.351 C 154.000 296.158,153.764 296.000,153.475 296.000 C 153.187 296.000,152.591 295.664,152.150 295.254 C 151.710 294.844,150.942 294.290,150.443 294.023 C 149.945 293.756,149.236 293.295,148.868 292.999 C 148.501 292.703,142.209 288.484,134.887 283.624 L 121.574 274.788 121.809 272.694 C 121.938 271.542,122.226 269.875,122.449 268.988 C 122.672 268.102,122.797 266.572,122.726 265.588 L 122.598 263.800 122.339 266.000 M156.974 298.758 C 157.123 298.999,157.616 299.395,158.071 299.638 C 158.662 299.954,158.820 299.956,158.626 299.642 C 158.477 299.401,157.984 299.005,157.529 298.762 C 156.938 298.446,156.780 298.444,156.974 298.758 M160.488 301.377 C 161.306 302.175,162.148 303.135,162.358 303.510 C 162.568 303.886,162.839 304.095,162.959 303.974 C 163.276 303.658,160.893 300.872,159.869 300.361 C 159.327 300.091,159.560 300.473,160.488 301.377 M164.075 306.600 C 164.086 307.040,164.232 307.940,164.400 308.600 L 164.705 309.800 164.725 308.600 C 164.735 307.940,164.589 307.040,164.400 306.600 L 164.056 305.800 164.075 306.600 M164.254 312.354 C 164.100 313.318,164.058 314.191,164.161 314.294 C 164.430 314.563,164.915 311.745,164.707 311.122 C 164.612 310.836,164.408 311.390,164.254 312.354 " stroke="none" fill="#fca4c3" fill-rule="evenodd"></path><path id="path1" d="M115.600 46.055 L 115.600 92.136 125.373 72.568 C 137.173 48.943,137.603 48.401,144.841 48.063 C 153.571 47.655,159.913 56.832,156.454 64.867 C 154.918 68.433,145.435 87.405,145.124 87.533 C 144.946 87.607,144.800 88.012,144.800 88.433 C 144.800 88.855,144.620 89.200,144.400 89.200 C 144.180 89.200,144.000 89.560,144.000 90.000 C 144.000 90.440,143.820 90.800,143.600 90.800 C 143.380 90.800,143.200 91.160,143.200 91.600 C 143.200 92.040,143.020 92.400,142.800 92.400 C 142.580 92.400,142.400 92.760,142.400 93.200 C 142.400 93.640,142.220 94.000,142.000 94.000 C 141.780 94.000,141.600 94.360,141.600 94.800 C 141.600 95.240,141.420 95.600,141.200 95.600 C 140.980 95.600,140.800 95.960,140.800 96.400 C 140.800 96.840,140.641 97.200,140.447 97.200 C 140.252 97.200,140.006 97.533,139.900 97.939 C 139.691 98.739,140.437 99.093,144.200 99.979 C 146.119 100.431,147.156 100.687,150.900 101.627 C 151.835 101.862,153.153 102.222,153.828 102.427 C 154.504 102.632,155.324 102.800,155.650 102.800 C 157.857 102.800,162.616 106.611,163.951 109.448 C 164.249 110.081,164.652 110.913,164.847 111.295 C 165.678 112.930,164.904 120.400,163.903 120.400 C 163.736 120.400,163.600 120.656,163.600 120.968 C 163.600 121.708,160.108 125.200,159.368 125.200 C 159.056 125.200,158.800 125.380,158.800 125.600 C 158.800 125.820,158.451 126.000,158.024 126.000 C 157.597 126.000,157.136 126.180,157.000 126.400 C 156.676 126.924,148.924 126.924,148.600 126.400 C 148.464 126.180,147.834 126.000,147.200 126.000 C 146.566 126.000,145.948 125.839,145.826 125.642 C 145.705 125.445,144.929 125.190,144.103 125.075 C 143.276 124.960,141.880 124.679,141.000 124.450 C 140.120 124.222,138.860 123.924,138.200 123.788 C 137.540 123.651,136.640 123.386,136.200 123.197 C 135.760 123.009,134.860 122.763,134.200 122.652 C 133.540 122.540,132.280 122.264,131.400 122.039 C 130.520 121.813,128.630 121.367,127.200 121.048 C 122.487 119.996,116.207 118.309,115.800 117.985 C 115.536 117.775,115.420 119.869,115.457 124.133 C 115.491 127.908,115.388 130.017,115.210 129.200 C 114.950 128.006,114.898 127.954,114.853 128.849 C 114.824 129.426,115.227 131.226,115.749 132.849 C 116.272 134.472,116.823 136.700,116.975 137.800 C 117.128 138.900,117.414 140.700,117.612 141.800 C 117.810 142.900,118.146 144.880,118.360 146.200 C 118.574 147.520,118.949 149.680,119.193 151.000 C 119.437 152.320,119.742 153.985,119.871 154.700 C 120.000 155.420,120.349 156.000,120.652 156.000 C 120.954 156.000,121.200 156.180,121.200 156.400 C 121.200 156.620,121.436 156.800,121.725 156.800 C 122.013 156.800,122.636 157.160,123.108 157.600 C 123.580 158.040,124.229 158.400,124.550 158.400 C 124.871 158.400,125.193 158.535,125.267 158.700 C 125.434 159.076,127.564 160.375,128.500 160.671 C 128.885 160.793,129.200 161.052,129.200 161.247 C 129.200 161.441,129.397 161.600,129.638 161.600 C 129.879 161.600,130.582 161.960,131.201 162.400 C 131.819 162.841,133.467 163.853,134.862 164.649 C 136.258 165.446,138.030 166.457,138.800 166.896 C 139.570 167.335,140.678 168.033,141.262 168.447 C 141.846 168.861,142.521 169.200,142.762 169.200 C 143.003 169.200,143.200 169.359,143.200 169.553 C 143.200 169.748,143.515 170.007,143.900 170.129 C 144.836 170.425,146.966 171.724,147.133 172.100 C 147.207 172.265,147.444 172.400,147.661 172.400 C 147.878 172.400,148.841 172.940,149.800 173.600 C 150.759 174.260,151.679 174.800,151.844 174.800 C 152.346 174.800,155.386 178.244,155.958 179.460 C 156.252 180.087,156.652 180.913,156.847 181.295 C 157.305 182.196,157.305 188.204,156.847 189.105 C 156.652 189.487,156.247 190.325,155.947 190.966 C 155.243 192.467,152.467 195.243,150.966 195.947 C 150.325 196.247,149.487 196.652,149.105 196.847 C 148.150 197.333,141.705 197.294,141.400 196.800 C 141.264 196.580,140.803 196.400,140.376 196.400 C 139.949 196.400,139.600 196.264,139.600 196.098 C 139.600 195.931,139.015 195.541,138.300 195.230 C 137.585 194.919,136.910 194.560,136.800 194.432 C 136.467 194.046,134.247 192.766,133.500 192.529 C 133.115 192.407,132.800 192.148,132.800 191.953 C 132.800 191.759,132.633 191.600,132.429 191.600 C 132.226 191.600,130.651 190.736,128.929 189.680 C 124.316 186.850,124.262 186.841,124.573 188.896 C 125.349 194.037,125.689 203.829,125.680 220.800 C 125.668 242.813,125.347 248.062,122.854 267.000 C 122.651 268.540,122.352 270.824,122.189 272.075 C 121.820 274.914,121.143 274.260,131.430 281.008 C 136.033 284.028,139.860 286.656,139.933 286.849 C 140.007 287.042,140.288 287.200,140.558 287.200 C 140.828 287.200,141.398 287.515,141.825 287.900 C 142.251 288.285,143.095 288.855,143.700 289.168 C 144.305 289.480,144.800 289.885,144.800 290.068 C 144.800 290.250,145.036 290.400,145.325 290.400 C 145.613 290.400,146.198 290.715,146.625 291.100 C 147.051 291.485,147.895 292.055,148.500 292.368 C 149.105 292.680,149.600 293.085,149.600 293.268 C 149.600 293.450,149.825 293.609,150.100 293.621 C 151.271 293.670,161.440 301.098,162.795 302.893 C 170.156 312.651,159.430 326.327,148.257 321.430 C 146.910 320.839,132.533 311.471,132.000 310.837 C 131.890 310.706,131.305 310.344,130.700 310.032 C 130.095 309.720,129.600 309.315,129.600 309.132 C 129.600 308.950,129.364 308.800,129.075 308.800 C 128.787 308.800,128.202 308.483,127.775 308.096 C 127.349 307.709,125.965 306.771,124.700 306.011 C 123.435 305.252,122.400 304.489,122.400 304.315 C 122.400 304.142,122.210 304.000,121.978 304.000 C 121.746 304.000,120.504 303.285,119.217 302.412 C 117.351 301.144,116.791 300.929,116.445 301.346 C 115.867 302.042,114.790 305.133,114.840 305.950 C 114.863 306.320,115.018 306.169,115.200 305.600 C 115.376 305.050,115.559 323.320,115.607 346.200 C 115.655 369.080,115.808 388.288,115.947 388.885 L 116.200 389.971 118.400 388.504 C 119.610 387.698,120.660 386.893,120.734 386.716 C 120.808 386.540,121.010 386.483,121.184 386.590 C 121.357 386.697,121.972 386.347,122.550 385.812 C 123.127 385.276,123.600 384.915,123.600 385.008 C 123.600 385.101,124.437 384.733,125.460 384.189 C 126.482 383.645,127.732 383.200,128.236 383.200 C 128.740 383.200,129.264 383.020,129.400 382.800 C 129.536 382.580,130.796 382.400,132.200 382.400 C 133.604 382.400,134.864 382.220,135.000 382.000 C 135.361 381.415,140.531 381.499,141.179 382.100 C 141.616 382.506,141.658 382.488,141.400 382.000 C 141.142 381.512,141.184 381.494,141.621 381.900 C 141.918 382.175,142.675 382.400,143.304 382.400 C 143.933 382.400,144.360 382.541,144.253 382.714 C 144.146 382.887,144.361 383.052,144.729 383.080 C 146.475 383.214,147.200 383.398,147.200 383.709 C 147.200 383.895,147.353 383.952,147.541 383.836 C 147.729 383.720,148.224 383.884,148.641 384.200 C 149.058 384.516,149.850 384.783,150.400 384.793 C 151.194 384.808,151.277 384.892,150.800 385.200 C 150.342 385.496,150.497 385.589,151.453 385.594 C 152.367 385.598,152.763 385.817,152.916 386.400 C 153.043 386.887,153.462 387.200,153.986 387.200 C 154.536 387.200,154.744 387.367,154.561 387.663 C 154.366 387.978,154.541 388.056,155.108 387.908 C 155.706 387.752,155.880 387.846,155.727 388.245 C 155.585 388.616,155.811 388.800,156.410 388.800 C 156.903 388.800,157.633 389.177,158.032 389.637 C 158.431 390.097,158.948 390.355,159.182 390.211 C 159.662 389.914,160.896 390.971,160.514 391.352 C 160.281 391.585,161.637 391.764,162.670 391.637 C 162.928 391.605,163.256 391.946,163.398 392.395 C 163.541 392.844,163.836 393.101,164.054 392.967 C 164.272 392.832,164.830 393.054,165.294 393.461 C 165.758 393.867,166.006 393.975,165.845 393.700 C 165.333 392.824,166.185 393.164,166.744 394.059 C 167.113 394.650,167.371 394.771,167.571 394.447 C 167.791 394.091,168.123 394.111,168.925 394.527 C 169.510 394.831,169.871 395.196,169.727 395.339 C 169.484 395.583,171.183 395.775,172.300 395.630 C 172.575 395.594,172.800 395.753,172.800 395.982 C 172.800 396.212,173.171 396.400,173.624 396.400 C 174.077 396.400,174.336 396.580,174.200 396.800 C 174.049 397.044,174.663 397.200,175.776 397.200 C 176.779 397.200,177.600 397.341,177.600 397.513 C 177.600 397.685,178.077 397.865,178.660 397.913 C 179.242 397.961,179.997 398.226,180.336 398.500 C 180.830 398.900,180.893 398.900,180.653 398.500 C 180.488 398.225,180.543 398.000,180.776 398.000 C 181.009 398.000,181.200 398.180,181.200 398.400 C 181.200 398.620,181.614 398.800,182.120 398.800 C 182.626 398.800,183.256 399.016,183.520 399.280 C 183.893 399.653,184.001 399.631,184.006 399.180 C 184.011 398.687,184.070 398.690,184.400 399.200 C 184.745 399.733,184.789 399.733,184.800 399.200 C 184.811 398.667,184.854 398.667,185.192 399.200 C 185.660 399.942,354.997 400.132,355.515 399.391 C 355.672 399.167,356.415 398.925,357.166 398.854 C 357.917 398.784,358.786 398.471,359.098 398.159 C 359.410 397.848,359.830 397.695,360.032 397.820 C 360.235 397.945,360.400 397.857,360.400 397.624 C 360.400 397.391,360.805 397.197,361.300 397.194 C 362.028 397.189,362.085 397.114,361.600 396.800 C 361.123 396.492,361.206 396.408,362.000 396.393 C 363.252 396.370,364.690 395.380,363.921 395.072 C 363.635 394.957,363.912 394.849,364.537 394.832 C 365.320 394.810,365.740 394.552,365.883 394.004 C 365.997 393.567,366.250 393.308,366.445 393.428 C 366.640 393.549,366.814 393.322,366.832 392.924 C 366.850 392.510,366.949 392.413,367.064 392.696 C 367.331 393.359,368.400 392.326,368.400 391.405 C 368.400 391.046,368.557 390.850,368.748 390.968 C 369.419 391.383,372.674 387.607,372.122 387.055 C 371.981 386.915,372.048 386.800,372.269 386.800 C 372.491 386.800,372.911 386.035,373.204 385.100 C 373.496 384.165,373.948 383.220,374.208 383.000 C 374.467 382.780,374.712 382.420,374.751 382.200 C 374.790 381.980,374.930 381.125,375.062 380.300 C 375.194 379.475,375.429 378.800,375.584 378.800 C 375.740 378.800,375.867 378.530,375.867 378.200 C 375.867 377.870,375.681 377.600,375.453 377.600 C 375.206 377.600,375.233 377.407,375.520 377.120 C 375.843 376.797,375.998 374.999,375.994 371.620 C 375.990 368.726,375.844 366.826,375.649 367.134 C 375.432 367.476,375.211 366.784,375.032 365.200 C 374.815 363.286,374.623 362.782,374.176 362.954 C 373.859 363.075,373.600 363.001,373.600 362.787 C 373.600 362.574,373.758 362.400,373.951 362.400 C 374.144 362.400,374.021 361.780,373.678 361.022 C 373.334 360.264,372.906 359.734,372.727 359.845 C 372.413 360.039,372.250 359.479,372.355 358.564 C 372.383 358.325,372.044 357.802,371.603 357.402 C 371.161 357.003,370.800 356.500,370.800 356.284 C 370.800 356.068,370.350 355.475,369.800 354.965 C 369.250 354.455,368.800 354.132,368.800 354.248 C 368.800 354.363,368.530 354.187,368.200 353.857 C 367.870 353.527,367.600 353.092,367.600 352.891 C 367.600 352.285,366.189 351.200,365.402 351.200 C 364.997 351.200,364.784 351.083,364.927 350.940 C 365.317 350.550,363.926 349.627,362.927 349.613 C 362.402 349.605,361.949 349.269,361.790 348.770 C 361.646 348.313,361.425 348.042,361.300 348.166 C 361.176 348.291,360.828 348.189,360.527 347.940 C 360.227 347.690,359.870 347.596,359.735 347.731 C 359.601 347.866,359.000 347.627,358.400 347.200 C 357.800 346.773,357.212 346.522,357.092 346.641 C 356.972 346.761,356.298 346.561,355.593 346.196 C 354.861 345.818,354.437 345.737,354.604 346.007 C 354.828 346.369,354.694 346.371,354.030 346.016 C 353.501 345.733,351.415 345.572,348.681 345.603 C 346.217 345.632,343.750 345.644,343.200 345.631 C 342.535 345.616,342.372 345.718,342.713 345.935 C 343.020 346.132,342.394 346.282,341.149 346.310 C 340.008 346.336,338.949 346.559,338.797 346.805 C 338.644 347.052,338.268 347.291,337.960 347.338 C 337.652 347.384,337.220 347.521,337.000 347.642 C 336.780 347.762,335.790 347.907,334.800 347.962 C 333.810 348.018,332.829 348.229,332.620 348.432 C 332.411 348.634,331.365 348.800,330.296 348.800 C 329.103 348.800,328.448 348.954,328.600 349.200 C 328.757 349.453,327.849 349.583,326.124 349.553 C 324.026 349.516,323.676 349.435,324.600 349.200 L 325.800 348.895 324.724 348.847 C 324.132 348.821,323.536 348.980,323.400 349.200 C 323.264 349.420,322.883 349.600,322.553 349.600 C 322.223 349.600,322.064 349.420,322.200 349.200 C 322.336 348.980,322.156 348.800,321.800 348.800 C 321.444 348.800,321.264 348.980,321.400 349.200 C 321.536 349.420,321.457 349.600,321.224 349.600 C 320.991 349.600,320.800 349.435,320.800 349.233 C 320.800 349.031,319.585 348.778,318.100 348.670 C 314.652 348.420,312.800 348.015,312.800 347.512 C 312.800 347.293,312.543 347.213,312.229 347.333 C 311.915 347.454,311.443 347.293,311.180 346.976 C 310.643 346.328,309.817 346.180,310.200 346.800 C 310.336 347.020,310.257 347.200,310.024 347.200 C 309.791 347.200,309.600 347.030,309.600 346.823 C 309.600 346.616,309.240 346.515,308.800 346.600 C 308.033 346.748,307.676 346.248,308.300 345.899 C 308.465 345.807,308.392 345.779,308.139 345.838 C 307.885 345.897,307.345 345.693,306.939 345.385 C 306.532 345.077,305.874 344.820,305.476 344.813 C 305.078 344.806,304.864 344.620,305.000 344.400 C 305.136 344.180,305.012 343.979,304.724 343.954 C 304.436 343.928,303.969 343.883,303.687 343.854 C 303.404 343.824,303.002 343.530,302.793 343.200 C 302.484 342.713,302.411 342.706,302.406 343.161 C 302.402 343.538,302.155 343.440,301.653 342.861 C 301.242 342.388,300.612 342.000,300.253 342.000 C 299.894 342.000,299.600 341.820,299.600 341.600 C 299.600 341.380,299.150 341.200,298.600 341.200 C 298.050 341.200,297.600 341.020,297.600 340.800 C 297.600 340.580,297.229 340.400,296.776 340.400 C 296.323 340.400,296.064 340.220,296.200 340.000 C 296.345 339.766,295.930 339.600,295.200 339.600 C 294.470 339.600,294.055 339.434,294.200 339.200 C 294.336 338.980,294.167 338.800,293.824 338.800 C 293.481 338.800,293.200 338.620,293.200 338.400 C 293.200 338.180,292.951 338.000,292.646 338.000 C 292.341 338.000,291.589 337.739,290.974 337.420 C 290.360 337.102,289.664 336.951,289.429 337.085 C 289.193 337.219,289.132 337.182,289.294 337.004 C 289.648 336.613,287.815 335.600,286.754 335.600 C 286.339 335.600,286.000 335.409,286.000 335.176 C 286.000 334.943,285.839 334.852,285.642 334.974 C 285.445 335.096,285.181 334.926,285.054 334.598 C 284.928 334.269,284.369 334.000,283.813 334.000 C 283.256 334.000,282.800 333.820,282.800 333.600 C 282.800 333.380,282.530 333.200,282.200 333.200 C 281.870 333.200,281.600 333.020,281.600 332.800 C 281.600 332.580,281.139 332.400,280.576 332.400 C 279.979 332.400,279.658 332.229,279.806 331.990 C 279.945 331.765,279.911 331.606,279.730 331.637 C 278.743 331.809,277.586 331.547,277.800 331.200 C 277.936 330.980,277.767 330.800,277.424 330.800 C 277.081 330.800,276.800 330.620,276.800 330.400 C 276.800 330.180,276.451 330.000,276.024 330.000 C 275.597 330.000,275.136 329.820,275.000 329.600 C 274.864 329.380,274.373 329.200,273.910 329.200 C 273.446 329.200,273.186 329.081,273.332 328.935 C 273.604 328.662,270.920 327.321,269.691 327.115 C 269.311 327.052,268.651 326.685,268.225 326.300 C 267.798 325.915,266.983 325.600,266.413 325.600 C 265.835 325.600,265.121 325.246,264.800 324.800 C 264.483 324.360,263.903 324.000,263.512 324.000 C 263.120 324.000,262.797 323.775,262.794 323.500 C 262.790 323.167,262.658 323.200,262.400 323.600 C 262.187 323.930,262.009 324.005,262.006 323.767 C 261.999 323.290,257.414 320.800,256.544 320.800 C 256.245 320.800,256.000 320.650,256.000 320.467 C 256.000 320.283,255.775 320.107,255.500 320.075 C 253.258 319.814,251.909 319.271,252.226 318.758 C 252.348 318.561,252.167 318.400,251.824 318.400 C 251.481 318.400,251.200 318.220,251.200 318.000 C 251.200 317.780,250.840 317.600,250.400 317.600 C 249.960 317.600,249.597 317.375,249.594 317.100 C 249.590 316.767,249.458 316.800,249.200 317.200 C 248.942 317.600,248.810 317.633,248.806 317.300 C 248.803 317.025,248.429 316.800,247.976 316.800 C 247.523 316.800,247.264 316.620,247.400 316.400 C 247.540 316.174,247.212 316.000,246.646 316.000 C 246.096 316.000,245.410 315.685,245.123 315.300 C 244.835 314.915,244.375 314.582,244.100 314.560 C 242.569 314.438,242.374 314.365,242.600 314.000 C 242.736 313.780,242.567 313.600,242.224 313.600 C 241.881 313.600,241.600 313.420,241.600 313.200 C 241.600 312.980,241.060 312.800,240.400 312.800 C 239.740 312.800,239.200 312.609,239.200 312.376 C 239.200 312.143,239.031 312.057,238.825 312.185 C 238.618 312.312,238.291 312.134,238.098 311.789 C 237.905 311.444,237.366 311.133,236.901 311.098 C 236.436 311.063,236.144 310.891,236.251 310.717 C 236.438 310.415,236.234 310.331,235.100 310.240 C 234.825 310.218,234.480 310.033,234.333 309.830 C 234.186 309.626,233.650 309.396,233.141 309.318 C 232.633 309.241,232.042 309.002,231.829 308.789 C 231.615 308.575,231.071 308.397,230.620 308.394 C 229.944 308.389,229.905 308.320,230.400 308.000 C 230.904 307.674,230.880 307.611,230.247 307.606 C 229.833 307.603,229.158 307.212,228.747 306.739 C 228.336 306.265,228.000 306.100,228.000 306.371 C 228.000 306.643,227.280 306.116,226.400 305.200 C 225.520 304.284,224.800 303.667,224.800 303.829 C 224.800 303.991,224.409 303.781,223.931 303.362 C 223.453 302.943,223.211 302.853,223.393 303.162 C 223.616 303.541,223.573 303.631,223.262 303.438 C 223.008 303.281,222.800 302.893,222.800 302.576 C 222.800 302.216,222.388 301.998,221.700 301.994 C 221.082 301.990,220.800 301.859,221.057 301.694 C 221.360 301.499,221.158 301.137,220.457 300.619 C 219.408 299.843,219.405 299.843,220.000 300.619 C 220.330 301.048,219.197 299.999,217.483 298.287 C 215.702 296.509,214.175 295.292,213.921 295.449 C 213.676 295.600,213.585 295.548,213.718 295.333 C 213.850 295.118,213.608 294.642,213.180 294.275 C 212.751 293.908,212.400 293.703,212.400 293.820 C 212.400 293.936,212.147 293.799,211.838 293.516 C 211.529 293.232,211.304 292.824,211.338 292.609 C 211.372 292.395,210.995 292.157,210.500 292.082 C 210.005 292.006,209.600 291.687,209.600 291.372 C 209.600 291.057,209.420 290.800,209.200 290.800 C 208.980 290.800,208.800 290.470,208.800 290.066 C 208.800 289.662,208.254 288.845,207.586 288.251 C 206.918 287.656,206.479 286.996,206.610 286.784 C 206.740 286.573,206.664 286.400,206.440 286.400 C 205.850 286.400,203.972 284.279,204.140 283.803 C 204.218 283.581,203.768 282.903,203.141 282.297 C 202.513 281.690,201.997 280.790,201.994 280.297 C 201.990 279.688,201.884 279.563,201.666 279.908 C 201.340 280.421,200.569 279.351,200.311 278.028 C 200.250 277.713,199.892 277.083,199.515 276.628 C 199.138 276.173,198.838 275.640,198.849 275.445 C 198.860 275.249,198.687 274.978,198.466 274.841 C 198.245 274.704,198.005 274.324,197.932 273.996 C 197.859 273.668,197.485 273.165,197.100 272.877 C 196.692 272.572,196.397 271.822,196.394 271.077 C 196.389 270.105,196.295 269.943,196.000 270.400 C 195.684 270.889,195.611 270.840,195.606 270.133 C 195.603 269.657,195.375 269.175,195.100 269.064 C 194.709 268.905,194.716 268.779,195.134 268.486 C 195.569 268.180,195.555 268.068,195.056 267.877 C 194.719 267.748,194.324 267.004,194.178 266.225 C 194.032 265.445,193.752 264.906,193.556 265.027 C 193.360 265.148,193.200 264.596,193.200 263.800 C 193.200 262.937,193.039 262.453,192.800 262.600 C 192.580 262.736,192.400 262.487,192.400 262.047 C 192.400 261.607,192.220 261.136,192.000 261.000 C 191.780 260.864,191.600 260.302,191.600 259.750 C 191.600 259.199,191.402 258.378,191.160 257.925 C 190.825 257.299,190.834 257.174,191.200 257.400 C 191.563 257.624,191.576 257.502,191.254 256.901 C 191.020 256.463,190.930 256.003,191.054 255.879 C 191.178 255.755,191.132 255.416,190.952 255.127 C 190.771 254.837,190.572 254.240,190.509 253.800 C 190.147 251.252,189.533 248.653,189.187 248.200 C 189.019 247.980,188.855 246.720,188.824 245.400 C 188.738 241.791,188.638 241.031,188.200 240.670 C 187.940 240.454,187.967 240.271,188.280 240.143 C 188.617 240.005,188.649 239.656,188.390 238.973 C 188.177 238.413,188.171 238.000,188.377 238.000 C 188.875 238.000,188.825 234.312,188.318 233.701 C 188.019 233.341,188.057 233.198,188.451 233.194 C 188.882 233.189,188.871 233.105,188.400 232.800 C 188.051 232.574,187.996 232.410,188.270 232.406 C 188.587 232.402,188.745 231.409,188.756 229.358 C 188.766 227.498,188.972 226.069,189.286 225.681 C 189.678 225.197,189.682 225.118,189.300 225.347 C 188.985 225.536,188.800 225.416,188.800 225.024 C 188.800 224.681,188.937 224.400,189.104 224.400 C 189.377 224.400,189.706 219.421,189.733 214.893 C 189.740 213.856,189.872 213.385,190.071 213.693 C 190.251 213.972,190.354 212.552,190.299 210.537 C 190.245 208.523,190.335 206.959,190.500 207.061 C 190.665 207.163,190.800 207.057,190.800 206.824 C 190.800 206.591,190.643 206.400,190.450 206.400 C 189.930 206.400,190.026 204.365,190.556 204.162 C 190.806 204.065,191.006 203.315,191.000 202.493 C 190.994 201.672,191.099 200.229,191.233 199.286 C 191.367 198.343,191.355 197.496,191.204 197.403 C 190.887 197.207,190.930 195.967,191.273 195.393 C 191.402 195.177,191.533 193.560,191.564 191.800 C 191.594 190.040,191.795 188.540,192.010 188.467 C 192.224 188.393,192.400 187.978,192.400 187.543 C 192.400 187.108,192.220 186.864,192.000 187.000 C 191.780 187.136,191.600 187.057,191.600 186.824 C 191.600 186.591,191.780 186.400,192.000 186.400 C 192.220 186.400,192.379 186.265,192.353 186.100 C 192.113 184.582,192.477 178.801,192.800 179.000 C 193.020 179.136,193.200 179.057,193.200 178.824 C 193.200 178.591,193.020 178.400,192.800 178.400 C 192.288 178.400,192.274 176.911,192.784 176.733 C 192.995 176.660,193.195 174.800,193.228 172.600 C 193.261 170.400,193.438 168.414,193.621 168.186 C 193.992 167.727,193.932 166.848,193.482 166.128 C 193.320 165.868,193.370 165.542,193.593 165.404 C 193.817 165.266,194.003 163.768,194.006 162.076 C 194.010 159.942,194.131 159.184,194.400 159.600 C 194.735 160.119,194.789 160.110,194.794 159.533 C 194.797 159.167,194.575 158.776,194.300 158.665 C 193.931 158.516,193.944 158.455,194.349 158.432 C 194.814 158.405,194.814 158.297,194.349 157.723 C 193.909 157.181,193.906 157.110,194.335 157.368 C 194.727 157.604,194.848 157.438,194.790 156.745 C 194.511 153.398,194.837 147.975,195.300 148.253 C 195.640 148.457,195.624 148.337,195.251 147.877 C 194.786 147.303,194.786 147.199,195.251 147.194 C 195.682 147.189,195.671 147.105,195.200 146.800 C 194.800 146.542,194.767 146.410,195.100 146.406 C 195.460 146.402,195.600 145.455,195.600 143.024 C 195.600 141.167,195.758 139.549,195.951 139.430 C 196.145 139.311,196.330 137.737,196.363 135.934 C 196.395 134.128,196.630 132.405,196.885 132.097 C 197.242 131.667,197.217 131.455,196.774 131.176 C 196.458 130.976,196.389 130.809,196.620 130.806 C 196.876 130.802,197.082 129.288,197.149 126.920 C 197.209 124.786,197.425 122.727,197.630 122.344 C 197.860 121.913,197.859 121.560,197.627 121.416 C 197.214 121.162,197.214 119.600,197.627 119.600 C 197.768 119.600,197.920 118.209,197.965 116.509 C 198.010 114.809,198.237 113.301,198.469 113.158 C 198.742 112.989,198.698 112.820,198.345 112.680 C 197.958 112.526,197.945 112.454,198.300 112.432 C 198.584 112.414,198.800 111.872,198.800 111.176 C 198.800 110.304,198.656 110.039,198.300 110.253 C 197.919 110.482,197.906 110.416,198.244 109.977 C 198.488 109.660,198.723 108.230,198.766 106.800 C 198.809 105.370,199.015 104.140,199.222 104.067 C 199.725 103.889,199.707 102.114,199.200 101.800 C 198.980 101.664,198.803 101.248,198.806 100.876 C 198.811 100.293,198.866 100.283,199.200 100.800 C 199.467 101.213,199.590 100.307,199.594 97.900 C 199.597 95.975,199.735 94.400,199.900 94.399 C 200.065 94.399,200.252 92.284,200.315 89.699 C 200.378 87.115,200.603 84.940,200.815 84.867 C 201.027 84.793,201.200 84.558,201.200 84.343 C 201.200 84.128,201.020 84.064,200.800 84.200 C 200.580 84.336,200.400 84.167,200.400 83.824 C 200.400 83.481,200.556 83.200,200.746 83.200 C 200.936 83.200,201.130 81.715,201.176 79.900 C 201.333 73.823,201.934 67.543,202.406 67.049 C 202.591 66.856,202.582 66.278,202.386 65.763 C 202.191 65.249,202.159 64.749,202.316 64.652 C 202.474 64.554,202.657 63.337,202.724 61.947 C 202.791 60.556,202.971 59.324,203.123 59.209 C 203.654 58.808,203.647 56.800,203.115 56.794 C 202.799 56.790,202.755 56.674,203.000 56.494 C 203.420 56.185,203.518 55.531,203.657 52.100 C 203.703 50.945,203.867 50.000,204.020 50.000 C 204.173 50.000,204.339 48.695,204.387 47.100 C 204.436 45.505,204.486 43.930,204.498 43.600 C 204.511 43.270,204.719 42.868,204.961 42.706 C 205.254 42.510,205.218 42.410,204.851 42.406 C 204.449 42.402,204.416 42.262,204.729 41.886 C 204.964 41.603,205.143 40.838,205.127 40.186 C 205.057 37.260,205.226 35.169,205.517 35.349 C 205.691 35.456,205.863 35.154,205.899 34.677 C 205.951 33.990,205.886 33.934,205.588 34.405 C 205.362 34.764,205.210 34.811,205.206 34.524 C 205.203 34.262,205.363 33.946,205.563 33.823 C 205.763 33.699,205.919 32.430,205.911 31.002 C 205.902 29.372,206.102 28.154,206.448 27.726 C 206.820 27.268,206.837 27.145,206.500 27.347 C 206.225 27.512,206.000 27.457,206.000 27.224 C 206.000 26.991,206.165 26.800,206.367 26.800 C 206.570 26.800,206.734 25.675,206.733 24.300 C 206.729 19.963,206.890 18.000,207.251 18.000 C 207.443 18.000,207.600 15.756,207.600 13.013 C 207.600 8.692,207.518 8.057,206.986 8.261 C 206.489 8.451,206.414 8.257,206.592 7.248 C 206.725 6.489,206.643 6.000,206.382 6.000 C 206.146 6.000,206.051 5.842,206.170 5.649 C 206.521 5.081,202.936 1.468,202.370 1.819 C 202.072 2.003,201.978 1.959,202.134 1.707 C 203.050 0.225,202.467 0.204,158.339 0.087 L 115.600 -0.027 115.600 46.055 M69.293 4.400 C 69.293 5.170,69.375 5.485,69.476 5.100 C 69.576 4.715,69.576 4.085,69.476 3.700 C 69.375 3.315,69.293 3.630,69.293 4.400 M93.473 4.800 C 93.604 5.790,93.776 6.675,93.856 6.767 C 94.157 7.114,93.928 4.564,93.590 3.800 C 93.353 3.266,93.314 3.598,93.473 4.800 M95.073 14.000 C 95.204 14.990,95.376 15.875,95.456 15.967 C 95.757 16.314,95.528 13.764,95.190 13.000 C 94.953 12.466,94.914 12.798,95.073 14.000 M70.893 14.000 C 70.893 14.770,70.975 15.085,71.076 14.700 C 71.176 14.315,71.176 13.685,71.076 13.300 C 70.975 12.915,70.893 13.230,70.893 14.000 M71.693 18.400 C 71.693 19.170,71.775 19.485,71.876 19.100 C 71.976 18.715,71.976 18.085,71.876 17.700 C 71.775 17.315,71.693 17.630,71.693 18.400 M96.893 24.400 C 96.893 25.170,96.975 25.485,97.076 25.100 C 97.176 24.715,97.176 24.085,97.076 23.700 C 96.975 23.315,96.893 23.630,96.893 24.400 M73.228 27.833 C 73.244 28.475,73.416 29.360,73.610 29.800 C 73.847 30.334,73.886 30.002,73.727 28.800 C 73.446 26.680,73.188 26.180,73.228 27.833 M97.693 28.800 C 97.693 29.570,97.775 29.885,97.876 29.500 C 97.976 29.115,97.976 28.485,97.876 28.100 C 97.775 27.715,97.693 28.030,97.693 28.800 M74.028 32.233 C 74.044 32.875,74.216 33.760,74.410 34.200 C 74.647 34.734,74.686 34.402,74.527 33.200 C 74.246 31.080,73.988 30.580,74.028 32.233 M74.828 37.233 C 74.844 37.765,75.019 38.560,75.219 39.000 C 75.471 39.558,75.507 39.315,75.338 38.200 C 75.055 36.343,74.787 35.836,74.828 37.233 M99.240 38.233 C 99.262 38.875,99.433 39.850,99.620 40.400 C 99.849 41.074,99.884 40.749,99.728 39.400 C 99.469 37.150,99.179 36.459,99.240 38.233 M75.606 42.033 C 75.609 42.565,75.789 43.270,76.006 43.600 C 76.282 44.022,76.323 43.785,76.142 42.800 C 75.825 41.075,75.598 40.749,75.606 42.033 M100.080 43.400 C 100.080 43.840,100.224 44.650,100.400 45.200 C 100.654 45.992,100.720 46.033,100.720 45.400 C 100.720 44.960,100.576 44.150,100.400 43.600 C 100.146 42.808,100.080 42.767,100.080 43.400 M76.406 46.433 C 76.409 46.965,76.589 47.670,76.806 48.000 C 77.082 48.422,77.123 48.185,76.942 47.200 C 76.625 45.475,76.398 45.149,76.406 46.433 M77.206 51.233 C 77.209 51.765,77.389 52.470,77.606 52.800 C 77.882 53.222,77.923 52.985,77.742 52.000 C 77.425 50.275,77.198 49.949,77.206 51.233 M78.068 55.800 C 78.062 56.240,78.211 56.960,78.400 57.400 C 78.838 58.419,78.838 57.368,78.400 56.000 C 78.143 55.196,78.077 55.157,78.068 55.800 M102.468 57.400 C 102.462 57.840,102.611 58.560,102.800 59.000 C 103.238 60.019,103.238 58.968,102.800 57.600 C 102.543 56.796,102.477 56.757,102.468 57.400 M78.828 60.433 C 78.844 60.965,79.019 61.760,79.219 62.200 C 79.471 62.758,79.507 62.515,79.338 61.400 C 79.055 59.543,78.787 59.036,78.828 60.433 M103.268 62.000 C 103.288 63.039,103.918 64.746,103.932 63.800 C 103.938 63.360,103.789 62.640,103.600 62.200 C 103.389 61.710,103.261 61.632,103.268 62.000 M79.668 65.000 C 79.662 65.440,79.811 66.160,80.000 66.600 C 80.438 67.619,80.438 66.568,80.000 65.200 C 79.743 64.396,79.677 64.357,79.668 65.000 M104.046 66.800 C 104.065 67.130,104.224 67.850,104.400 68.400 L 104.720 69.400 104.754 68.400 C 104.773 67.850,104.613 67.130,104.400 66.800 C 104.055 66.267,104.016 66.267,104.046 66.800 M80.406 69.833 C 80.409 70.255,80.595 70.870,80.818 71.200 C 81.115 71.638,81.152 71.476,80.956 70.600 C 80.627 69.129,80.398 68.810,80.406 69.833 M104.868 71.200 C 104.888 72.239,105.518 73.946,105.532 73.000 C 105.538 72.560,105.389 71.840,105.200 71.400 C 104.989 70.910,104.861 70.832,104.868 71.200 M81.268 74.600 C 81.262 75.040,81.411 75.760,81.600 76.200 C 82.038 77.219,82.038 76.168,81.600 74.800 C 81.343 73.996,81.277 73.957,81.268 74.600 M105.668 75.600 C 105.688 76.639,106.318 78.346,106.332 77.400 C 106.338 76.960,106.189 76.240,106.000 75.800 C 105.789 75.310,105.661 75.232,105.668 75.600 M82.068 79.000 C 82.062 79.440,82.211 80.160,82.400 80.600 C 82.838 81.619,82.838 80.568,82.400 79.200 C 82.143 78.396,82.077 78.357,82.068 79.000 M106.662 81.400 C 106.796 82.280,106.972 83.075,107.053 83.167 C 107.356 83.510,107.129 81.368,106.781 80.600 C 106.529 80.042,106.493 80.285,106.662 81.400 M107.458 86.000 C 107.775 87.725,108.002 88.051,107.994 86.767 C 107.991 86.235,107.811 85.530,107.594 85.200 C 107.318 84.778,107.277 85.015,107.458 86.000 M83.680 88.200 C 83.680 88.640,83.824 89.450,84.000 90.000 C 84.254 90.792,84.320 90.833,84.320 90.200 C 84.320 89.760,84.176 88.950,84.000 88.400 C 83.746 87.608,83.680 87.567,83.680 88.200 M108.025 89.611 C 107.993 90.402,109.112 92.000,109.699 92.000 C 109.949 92.000,109.855 91.775,109.492 91.500 C 109.128 91.225,108.655 90.550,108.441 90.000 C 108.226 89.450,108.039 89.275,108.025 89.611 M85.693 99.600 C 85.693 100.370,85.775 100.685,85.876 100.300 C 85.976 99.915,85.976 99.285,85.876 98.900 C 85.775 98.515,85.693 98.830,85.693 99.600 M87.293 108.800 C 87.293 109.570,87.375 109.885,87.476 109.500 C 87.576 109.115,87.576 108.485,87.476 108.100 C 87.375 107.715,87.293 108.030,87.293 108.800 M88.893 118.400 C 88.893 119.170,88.975 119.485,89.076 119.100 C 89.176 118.715,89.176 118.085,89.076 117.700 C 88.975 117.315,88.893 117.630,88.893 118.400 M113.293 119.600 C 113.293 120.370,113.375 120.685,113.476 120.300 C 113.576 119.915,113.576 119.285,113.476 118.900 C 113.375 118.515,113.293 118.830,113.293 119.600 M89.693 123.200 C 89.693 123.970,89.775 124.285,89.876 123.900 C 89.976 123.515,89.976 122.885,89.876 122.500 C 89.775 122.115,89.693 122.430,89.693 123.200 M114.093 124.000 C 114.093 124.770,114.175 125.085,114.276 124.700 C 114.376 124.315,114.376 123.685,114.276 123.300 C 114.175 122.915,114.093 123.230,114.093 124.000 M91.228 132.233 C 91.244 132.875,91.416 133.760,91.610 134.200 C 91.847 134.734,91.886 134.402,91.727 133.200 C 91.446 131.080,91.188 130.580,91.228 132.233 M92.028 137.233 C 92.044 137.765,92.219 138.560,92.419 139.000 C 92.671 139.558,92.707 139.315,92.538 138.200 C 92.255 136.343,91.987 135.836,92.028 137.233 M92.828 141.633 C 92.844 142.165,93.019 142.960,93.219 143.400 C 93.471 143.958,93.507 143.715,93.338 142.600 C 93.055 140.743,92.787 140.236,92.828 141.633 M93.668 146.600 C 93.662 147.040,93.811 147.760,94.000 148.200 C 94.438 149.219,94.438 148.168,94.000 146.800 C 93.743 145.996,93.677 145.957,93.668 146.600 M94.468 151.000 C 94.462 151.440,94.611 152.160,94.800 152.600 C 95.238 153.619,95.238 152.568,94.800 151.200 C 94.543 150.396,94.477 150.357,94.468 151.000 M95.206 155.633 C 95.209 156.165,95.389 156.870,95.606 157.200 C 95.882 157.622,95.923 157.385,95.742 156.400 C 95.425 154.675,95.198 154.349,95.206 155.633 M96.006 160.633 C 96.009 161.055,96.195 161.670,96.418 162.000 C 96.715 162.438,96.752 162.276,96.556 161.400 C 96.227 159.929,95.998 159.610,96.006 160.633 M96.868 165.000 C 96.862 165.440,97.011 166.160,97.200 166.600 C 97.638 167.619,97.638 166.568,97.200 165.200 C 96.943 164.396,96.877 164.357,96.868 165.000 M97.687 169.600 C 97.683 170.150,97.824 171.050,98.000 171.600 C 98.431 172.944,98.431 171.492,98.000 169.800 C 97.726 168.722,97.694 168.702,97.687 169.600 M98.487 174.800 C 98.483 175.350,98.624 176.250,98.800 176.800 C 99.231 178.144,99.231 176.692,98.800 175.000 C 98.526 173.922,98.494 173.902,98.487 174.800 M100.501 190.200 C 100.505 191.080,100.587 191.393,100.683 190.895 C 100.779 190.398,100.775 189.678,100.675 189.295 C 100.575 188.913,100.496 189.320,100.501 190.200 M100.909 195.600 C 100.909 196.590,100.987 196.995,101.082 196.500 C 101.178 196.005,101.178 195.195,101.082 194.700 C 100.987 194.205,100.909 194.610,100.909 195.600 M101.320 199.600 C 101.320 200.810,101.395 201.305,101.487 200.700 C 101.578 200.095,101.578 199.105,101.487 198.500 C 101.395 197.895,101.320 198.390,101.320 199.600 M101.737 208.600 C 101.739 210.360,101.809 211.030,101.893 210.089 C 101.978 209.149,101.977 207.709,101.891 206.889 C 101.805 206.070,101.736 206.840,101.737 208.600 M102.120 218.000 C 102.120 219.210,102.195 219.705,102.287 219.100 C 102.378 218.495,102.378 217.505,102.287 216.900 C 102.195 216.295,102.120 216.790,102.120 218.000 M100.035 245.278 C 100.384 245.565,100.775 246.070,100.904 246.400 C 101.093 246.886,101.143 246.870,101.168 246.314 C 101.186 245.937,100.795 245.432,100.300 245.192 C 99.537 244.822,99.496 244.835,100.035 245.278 M100.501 250.600 C 100.505 251.480,100.587 251.793,100.683 251.295 C 100.779 250.798,100.775 250.078,100.675 249.695 C 100.575 249.313,100.496 249.720,100.501 250.600 M100.093 253.600 C 100.093 254.370,100.175 254.685,100.276 254.300 C 100.376 253.915,100.376 253.285,100.276 252.900 C 100.175 252.515,100.093 252.830,100.093 253.600 M99.400 259.200 C 99.246 260.110,99.204 260.938,99.307 261.040 C 99.410 261.143,99.613 260.477,99.760 259.560 C 99.907 258.643,99.948 257.815,99.853 257.720 C 99.758 257.624,99.554 258.290,99.400 259.200 M98.640 264.840 C 98.493 265.757,98.452 266.585,98.547 266.680 C 98.642 266.776,98.846 266.110,99.000 265.200 C 99.154 264.290,99.196 263.462,99.093 263.360 C 98.990 263.257,98.787 263.923,98.640 264.840 M97.800 270.000 C 97.648 270.691,97.607 271.341,97.709 271.442 C 97.811 271.544,98.009 271.053,98.150 270.350 C 98.483 268.683,98.160 268.360,97.800 270.000 M97.000 274.800 C 96.848 275.491,96.807 276.141,96.909 276.242 C 97.011 276.344,97.209 275.853,97.350 275.150 C 97.683 273.483,97.360 273.160,97.000 274.800 M96.273 278.553 C 96.123 278.945,96.011 279.566,96.025 279.933 C 96.042 280.375,96.181 280.274,96.437 279.634 C 96.649 279.103,96.761 278.482,96.685 278.254 C 96.609 278.027,96.424 278.161,96.273 278.553 M95.449 282.615 C 95.312 282.973,95.215 283.566,95.234 283.933 C 95.253 284.300,95.427 284.069,95.621 283.420 C 95.998 282.158,95.865 281.533,95.449 282.615 M94.649 286.615 C 94.512 286.973,94.415 287.566,94.434 287.933 C 94.453 288.300,94.627 288.069,94.821 287.420 C 95.198 286.158,95.065 285.533,94.649 286.615 M93.049 293.815 C 92.912 294.173,92.815 294.766,92.834 295.133 C 92.853 295.500,93.027 295.269,93.221 294.620 C 93.598 293.358,93.465 292.733,93.049 293.815 M92.249 297.415 C 92.112 297.773,92.015 298.366,92.034 298.733 C 92.053 299.100,92.227 298.869,92.421 298.220 C 92.798 296.958,92.665 296.333,92.249 297.415 M91.449 301.015 C 91.312 301.373,91.218 302.056,91.241 302.533 C 91.267 303.081,91.403 302.886,91.610 302.003 C 91.960 300.516,91.865 299.933,91.449 301.015 M90.649 304.615 C 90.512 304.973,90.415 305.566,90.434 305.933 C 90.453 306.300,90.627 306.069,90.821 305.420 C 91.198 304.158,91.065 303.533,90.649 304.615 M89.056 311.684 C 88.921 312.188,88.827 312.960,88.846 313.400 C 88.865 313.840,89.045 313.498,89.246 312.640 C 89.636 310.978,89.470 310.140,89.056 311.684 M86.531 325.800 C 86.533 327.340,86.605 327.921,86.692 327.091 C 86.779 326.261,86.777 325.001,86.689 324.291 C 86.600 323.581,86.529 324.260,86.531 325.800 M110.650 324.450 C 110.317 326.117,110.640 326.440,111.000 324.800 C 111.152 324.109,111.193 323.459,111.091 323.358 C 110.989 323.256,110.791 323.747,110.650 324.450 M110.046 327.267 C 110.021 327.634,109.896 328.264,109.770 328.667 C 109.552 329.362,109.563 329.363,109.997 328.687 C 110.248 328.296,110.373 327.666,110.273 327.287 C 110.111 326.668,110.088 326.666,110.046 327.267 M87.018 329.700 C 87.168 330.195,87.455 330.776,87.656 330.991 C 87.857 331.206,87.819 330.801,87.572 330.091 C 87.065 328.638,86.597 328.308,87.018 329.700 M106.378 334.300 L 105.000 335.800 106.500 334.422 C 107.896 333.138,108.184 332.800,107.878 332.800 C 107.812 332.800,107.137 333.475,106.378 334.300 " stroke="none" fill="#fcdccc" fill-rule="evenodd"></path><path id="path2" d="M140.830 49.529 C 136.959 50.995,136.245 52.120,125.500 73.678 L 115.600 93.541 115.600 105.379 L 115.600 117.217 116.500 117.586 C 116.995 117.789,118.660 118.249,120.200 118.608 C 121.740 118.966,126.240 120.078,130.200 121.078 C 134.160 122.078,138.030 123.038,138.800 123.212 C 140.164 123.520,143.770 124.413,147.000 125.243 C 147.880 125.469,149.153 125.822,149.828 126.027 C 158.984 128.806,168.016 118.067,163.456 109.824 C 160.868 105.147,159.629 104.512,147.000 101.398 C 142.820 100.367,139.269 99.401,139.110 99.251 C 138.950 99.102,142.662 91.244,147.359 81.790 C 156.932 62.521,156.983 62.397,156.691 59.170 C 156.003 51.581,148.099 46.776,140.830 49.529 M115.600 218.610 L 115.600 299.620 116.504 299.964 C 117.001 300.153,124.237 304.849,132.583 310.399 C 148.510 320.991,149.619 321.600,153.000 321.600 C 161.377 321.600,167.065 312.699,163.476 305.206 C 162.129 302.393,161.655 302.036,140.487 287.905 L 121.154 275.000 121.394 272.800 C 121.526 271.590,121.792 269.700,121.984 268.600 C 122.177 267.500,122.538 264.890,122.787 262.800 C 123.036 260.710,123.403 257.650,123.603 256.000 C 125.901 237.073,126.095 214.634,124.172 190.100 C 123.821 185.630,123.594 185.690,128.891 188.859 C 131.151 190.211,133.540 191.628,134.200 192.009 C 134.860 192.389,136.570 193.408,138.000 194.273 C 143.904 197.845,149.132 197.534,153.302 193.364 C 158.743 187.923,157.262 178.177,150.477 174.770 C 149.885 174.472,148.950 173.928,148.400 173.561 C 147.850 173.194,146.770 172.533,146.000 172.092 C 142.754 170.234,132.038 163.803,130.106 162.554 C 128.955 161.809,127.830 161.200,127.606 161.200 C 127.383 161.200,127.200 161.041,127.200 160.847 C 127.200 160.652,126.885 160.387,126.500 160.258 C 124.765 159.673,119.205 156.028,119.180 155.458 C 119.169 155.206,118.815 153.020,118.392 150.600 C 117.970 148.180,117.309 144.265,116.923 141.900 C 116.538 139.535,116.082 137.600,115.911 137.600 C 115.740 137.600,115.600 174.054,115.600 218.610 " stroke="none" fill="#fc5d94" fill-rule="evenodd"></path><path id="path3" d="M30.407 0.296 C 30.080 0.424,29.150 1.220,28.338 2.064 C 27.527 2.909,26.689 3.600,26.477 3.600 C 26.020 3.600,24.800 6.044,24.800 6.960 C 24.800 7.312,24.612 7.600,24.382 7.600 C 23.700 7.600,24.522 42.281,25.220 42.980 C 25.772 43.532,25.686 44.096,25.100 43.765 C 24.739 43.561,24.718 43.612,25.024 43.946 C 25.281 44.226,25.396 45.866,25.315 48.104 C 25.241 50.137,25.398 53.060,25.664 54.600 C 25.930 56.140,26.114 58.731,26.072 60.357 C 26.031 61.984,26.186 63.543,26.418 63.822 C 26.649 64.100,26.867 66.222,26.901 68.537 C 26.936 70.852,27.065 72.683,27.189 72.606 C 27.403 72.475,27.660 75.406,27.756 79.067 C 27.780 79.983,27.935 80.868,28.100 81.033 C 28.265 81.198,28.400 82.707,28.400 84.387 C 28.400 86.066,28.563 87.611,28.762 87.820 C 29.105 88.181,29.320 89.948,29.853 96.800 C 29.982 98.450,30.236 99.985,30.419 100.212 C 30.602 100.438,30.792 101.736,30.841 103.095 C 30.890 104.455,31.081 105.474,31.265 105.360 C 31.449 105.246,31.600 106.255,31.600 107.603 C 31.600 108.950,31.775 110.379,31.988 110.778 C 32.202 111.177,32.409 112.509,32.449 113.737 C 32.490 114.966,32.675 115.877,32.861 115.762 C 33.048 115.647,33.200 116.553,33.200 117.776 C 33.200 118.999,33.348 120.000,33.529 120.000 C 33.709 120.000,33.899 120.945,33.951 122.100 C 34.003 123.255,34.215 124.371,34.423 124.580 C 34.630 124.789,34.800 125.925,34.800 127.104 C 34.800 128.431,34.952 129.153,35.200 129.000 C 35.448 128.847,35.600 129.596,35.600 130.976 C 35.600 132.199,35.780 133.200,36.000 133.200 C 36.220 133.200,36.400 133.931,36.400 134.824 C 36.400 135.804,36.558 136.349,36.800 136.200 C 37.046 136.048,37.200 136.721,37.200 137.953 C 37.200 139.053,37.380 140.064,37.600 140.200 C 37.820 140.336,38.000 141.247,38.000 142.224 C 38.000 143.201,38.180 144.000,38.400 144.000 C 38.620 144.000,38.800 144.720,38.800 145.600 C 38.800 146.480,38.980 147.200,39.200 147.200 C 39.420 147.200,39.600 147.794,39.600 148.520 C 39.600 149.246,39.770 150.011,39.979 150.220 C 40.187 150.429,40.402 151.365,40.457 152.300 C 40.512 153.235,40.701 154.000,40.878 154.000 C 41.055 154.000,41.200 154.510,41.200 155.133 C 41.200 155.757,41.314 156.381,41.454 156.521 C 41.668 156.735,41.996 158.843,42.104 160.700 C 42.120 160.975,42.275 161.200,42.448 161.200 C 42.621 161.200,42.688 161.783,42.598 162.497 C 42.508 163.210,42.697 164.569,43.019 165.517 C 43.341 166.466,43.494 167.682,43.359 168.221 C 43.224 168.759,43.282 169.200,43.488 169.200 C 43.694 169.200,43.904 170.145,43.954 171.300 C 44.085 174.338,44.168 174.976,44.465 175.202 C 44.611 175.313,44.791 176.871,44.865 178.664 C 44.939 180.456,45.135 181.840,45.300 181.738 C 45.586 181.561,45.796 186.888,45.630 190.139 C 45.579 191.137,45.701 191.585,45.976 191.415 C 46.267 191.235,46.400 192.915,46.400 196.776 C 46.400 201.123,46.518 202.400,46.920 202.400 C 47.602 202.400,65.594 208.283,66.495 208.801 C 66.877 209.020,67.464 209.200,67.800 209.200 C 68.136 209.200,68.723 209.362,69.105 209.561 C 69.487 209.760,70.610 210.151,71.600 210.431 C 72.590 210.710,73.571 211.088,73.780 211.270 C 73.989 211.451,74.486 211.600,74.885 211.600 C 75.284 211.600,75.923 211.758,76.305 211.951 C 76.687 212.144,77.720 212.516,78.600 212.777 C 79.480 213.039,80.560 213.397,81.000 213.574 C 81.440 213.751,83.060 214.288,84.600 214.768 C 86.140 215.248,87.760 215.796,88.200 215.985 C 90.381 216.923,101.701 220.432,101.901 220.232 C 102.176 219.957,101.325 199.881,100.797 194.200 C 100.084 186.520,99.615 182.180,99.209 179.500 C 97.943 171.145,97.408 167.764,96.755 164.000 C 96.545 162.790,96.207 160.810,96.003 159.600 C 95.560 156.960,94.940 153.399,94.402 150.400 C 94.185 149.190,93.824 147.120,93.600 145.800 C 93.376 144.480,93.016 142.410,92.800 141.200 C 92.584 139.990,92.225 137.920,92.003 136.600 C 91.780 135.280,91.426 133.210,91.215 132.000 C 91.004 130.790,90.630 128.630,90.384 127.200 C 90.137 125.770,89.777 123.700,89.584 122.600 C 89.390 121.500,89.056 119.520,88.841 118.200 C 88.626 116.880,87.981 113.100,87.408 109.800 C 85.741 100.192,84.087 90.500,83.414 86.400 C 82.817 82.757,82.552 81.269,81.633 76.400 C 81.404 75.190,81.130 73.570,81.024 72.800 C 80.833 71.415,80.367 68.668,79.602 64.400 C 79.385 63.190,79.012 61.030,78.772 59.600 C 78.532 58.170,78.164 56.010,77.955 54.800 C 77.745 53.590,77.405 51.610,77.200 50.400 C 76.995 49.190,76.641 47.165,76.414 45.900 C 75.904 43.067,75.364 39.916,75.026 37.800 C 74.766 36.180,74.324 33.720,73.604 29.900 C 73.387 28.745,72.927 26.090,72.583 24.000 C 72.239 21.910,71.778 19.210,71.559 18.000 C 71.339 16.790,71.005 14.810,70.815 13.600 C 70.625 12.390,70.094 9.262,69.635 6.648 C 69.176 4.035,68.800 1.470,68.800 0.948 L 68.800 0.000 49.900 0.032 C 39.505 0.049,30.733 0.168,30.407 0.296 M93.342 1.900 C 93.661 4.385,93.935 6.132,94.411 8.700 C 94.625 9.855,94.974 11.745,95.187 12.900 C 95.400 14.055,95.771 16.260,96.012 17.800 C 96.252 19.340,96.607 21.410,96.801 22.400 C 96.994 23.390,97.347 25.370,97.586 26.800 C 97.824 28.230,98.371 31.380,98.801 33.800 C 99.232 36.220,99.755 39.370,99.965 40.800 C 100.175 42.230,100.735 45.560,101.208 48.200 C 101.682 50.840,102.240 54.080,102.449 55.400 C 102.658 56.720,103.019 58.880,103.251 60.200 C 103.732 62.930,104.186 65.530,104.787 69.000 C 105.016 70.320,105.381 72.390,105.598 73.600 C 105.815 74.810,106.188 76.970,106.428 78.400 C 106.668 79.830,107.023 81.900,107.218 83.000 C 107.412 84.100,107.735 86.093,107.934 87.429 C 108.394 90.512,108.948 91.534,110.312 91.815 C 110.910 91.939,112.062 92.235,112.870 92.474 C 115.852 93.355,115.600 97.629,115.600 46.213 L 115.600 0.000 104.349 0.000 L 93.098 0.000 93.342 1.900 M206.510 7.600 C 206.477 8.040,206.619 8.400,206.825 8.400 C 207.031 8.400,207.200 8.040,207.200 7.600 C 207.200 7.160,207.058 6.800,206.885 6.800 C 206.712 6.800,206.543 7.160,206.510 7.600 M205.554 33.700 C 205.324 34.205,205.313 36.000,205.541 36.000 C 205.702 36.000,205.826 35.460,205.818 34.800 C 205.804 33.754,205.710 33.360,205.554 33.700 M201.466 72.300 C 201.185 73.347,201.250 76.884,201.544 76.589 C 201.792 76.341,202.009 71.600,201.772 71.600 C 201.707 71.600,201.569 71.915,201.466 72.300 M113.420 118.874 C 113.536 119.603,113.800 121.100,114.008 122.200 C 114.215 123.300,114.642 125.640,114.957 127.400 L 115.530 130.600 115.465 124.200 L 115.400 117.800 114.305 117.674 C 113.271 117.555,113.221 117.623,113.420 118.874 M197.361 120.771 C 197.430 122.465,197.822 122.612,197.932 120.986 C 197.983 120.224,197.865 119.600,197.670 119.600 C 197.474 119.600,197.335 120.127,197.361 120.771 M195.668 140.006 C 195.629 141.005,195.759 141.549,196.002 141.399 C 196.481 141.103,196.516 139.602,196.060 138.884 C 195.855 138.561,195.708 138.981,195.668 140.006 M194.858 148.966 C 194.808 149.937,194.930 150.833,195.130 150.957 C 195.330 151.080,195.493 150.285,195.493 149.191 C 195.493 146.728,194.983 146.547,194.858 148.966 M193.412 168.517 C 193.241 168.912,193.213 169.347,193.351 169.484 C 193.757 169.890,194.084 169.320,193.897 168.531 C 193.732 167.833,193.710 167.832,193.412 168.517 M192.400 177.600 C 192.400 178.040,192.580 178.400,192.800 178.400 C 193.020 178.400,193.200 178.040,193.200 177.600 C 193.200 177.160,193.020 176.800,192.800 176.800 C 192.580 176.800,192.400 177.160,192.400 177.600 M191.167 195.300 C 190.972 195.885,190.989 197.270,191.193 197.396 C 191.337 197.485,191.455 197.027,191.455 196.379 C 191.455 195.403,191.311 194.866,191.167 195.300 M190.354 204.100 C 190.003 204.870,190.171 206.380,190.626 206.555 C 191.292 206.810,191.420 205.783,190.773 205.383 C 190.538 205.238,190.442 204.867,190.560 204.560 C 190.729 204.119,190.539 203.695,190.354 204.100 M46.400 229.320 C 46.400 230.266,46.177 231.263,45.903 231.537 C 45.508 231.932,45.528 232.110,46.003 232.411 C 46.332 232.618,46.410 232.791,46.178 232.794 C 45.945 232.797,45.741 233.655,45.723 234.700 C 45.705 235.745,45.670 238.096,45.645 239.924 C 45.620 241.752,45.456 243.158,45.279 243.049 C 45.103 242.940,44.912 244.495,44.855 246.504 C 44.798 248.512,44.640 250.335,44.505 250.554 C 44.256 250.957,44.210 251.435,43.991 255.900 C 43.924 257.275,43.750 258.400,43.606 258.400 C 43.461 258.400,43.313 259.488,43.277 260.817 C 43.240 262.146,43.044 263.544,42.842 263.922 C 42.639 264.301,42.513 265.643,42.561 266.905 C 42.610 268.167,42.540 269.200,42.406 269.200 C 42.273 269.200,42.121 269.838,42.068 270.618 C 42.016 271.398,41.799 272.952,41.586 274.072 C 41.374 275.193,41.200 276.805,41.200 277.655 C 41.200 278.505,41.020 279.200,40.800 279.200 C 40.580 279.200,40.400 280.179,40.400 281.376 C 40.400 282.573,40.220 283.664,40.000 283.800 C 39.780 283.936,39.600 284.937,39.600 286.024 C 39.600 287.111,39.420 288.000,39.200 288.000 C 38.980 288.000,38.821 288.135,38.847 288.300 C 39.052 289.597,38.730 292.404,38.400 292.200 C 38.156 292.049,38.000 292.663,38.000 293.776 C 38.000 294.779,37.820 295.600,37.600 295.600 C 37.380 295.600,37.200 296.309,37.200 297.176 C 37.200 298.043,37.020 298.864,36.800 299.000 C 36.580 299.136,36.400 299.867,36.400 300.624 C 36.400 301.381,36.220 302.000,36.000 302.000 C 35.780 302.000,35.600 302.821,35.600 303.824 C 35.600 304.937,35.444 305.551,35.200 305.400 C 34.958 305.251,34.800 305.796,34.800 306.776 C 34.800 307.669,34.620 308.400,34.400 308.400 C 34.180 308.400,34.000 309.199,34.000 310.176 C 34.000 311.153,33.820 312.064,33.600 312.200 C 33.380 312.336,33.200 313.236,33.200 314.200 C 33.200 315.164,33.020 316.064,32.800 316.200 C 32.580 316.336,32.400 317.527,32.400 318.847 C 32.400 320.167,32.246 321.152,32.058 321.036 C 31.869 320.919,31.682 322.027,31.642 323.498 C 31.601 324.969,31.421 326.269,31.240 326.386 C 31.060 326.504,30.877 328.040,30.835 329.800 C 30.792 331.560,30.596 333.057,30.400 333.126 C 30.202 333.196,30.029 338.523,30.012 345.056 C 29.994 351.797,30.133 356.765,30.335 356.640 C 30.529 356.520,30.721 357.632,30.760 359.111 C 30.846 362.290,30.948 363.081,31.322 363.455 C 31.475 363.608,31.600 364.413,31.600 365.243 C 31.600 366.073,31.780 366.864,32.000 367.000 C 32.220 367.136,32.400 367.777,32.400 368.424 C 32.400 369.071,32.580 369.600,32.800 369.600 C 33.020 369.600,33.200 370.305,33.200 371.167 C 33.200 372.028,33.378 372.793,33.597 372.867 C 33.815 372.940,34.034 373.495,34.084 374.100 C 34.134 374.705,34.315 375.200,34.487 375.200 C 34.659 375.200,34.800 375.560,34.800 376.000 C 34.800 376.440,34.980 376.800,35.200 376.800 C 35.420 376.800,35.600 377.155,35.600 377.588 C 35.600 378.320,36.972 381.148,37.547 381.600 C 37.687 381.710,38.065 382.340,38.388 383.000 C 38.711 383.660,39.251 384.506,39.588 384.881 C 40.778 386.205,41.200 386.769,41.200 387.040 C 41.200 387.190,41.724 387.814,42.364 388.426 C 43.004 389.038,43.424 389.642,43.297 389.769 C 43.171 389.896,43.334 390.000,43.661 390.000 C 43.988 390.000,44.631 390.405,45.089 390.900 C 46.699 392.639,48.420 394.000,49.007 394.000 C 49.333 394.000,49.600 394.180,49.600 394.400 C 49.600 394.620,49.881 394.800,50.224 394.800 C 50.567 394.800,50.755 394.950,50.641 395.133 C 50.528 395.317,50.697 395.497,51.018 395.533 C 51.338 395.570,51.870 395.630,52.200 395.667 C 52.530 395.703,52.800 395.883,52.800 396.067 C 52.800 396.250,53.205 396.403,53.700 396.406 C 54.428 396.411,54.485 396.486,54.000 396.800 C 53.526 397.106,53.615 397.189,54.420 397.194 C 55.559 397.201,57.592 398.037,57.597 398.500 C 57.599 398.665,58.194 398.800,58.920 398.800 C 59.646 398.800,60.465 399.025,60.740 399.300 C 61.121 399.681,64.606 399.800,75.400 399.800 C 86.195 399.800,89.679 399.681,90.060 399.300 C 90.335 399.025,91.334 398.800,92.280 398.800 C 93.226 398.800,94.000 398.620,94.000 398.400 C 94.000 398.180,94.720 398.000,95.600 398.000 C 96.480 398.000,97.200 397.820,97.200 397.600 C 97.200 397.380,97.909 397.200,98.776 397.200 C 99.643 397.200,100.464 397.020,100.600 396.800 C 100.736 396.580,101.477 396.400,102.247 396.400 C 103.079 396.400,103.547 396.238,103.400 396.000 C 103.253 395.761,103.737 395.600,104.600 395.600 C 105.463 395.600,105.947 395.439,105.800 395.200 C 105.656 394.967,106.063 394.800,106.776 394.800 C 107.449 394.800,108.000 394.620,108.000 394.400 C 108.000 394.180,108.283 394.000,108.629 394.000 C 108.974 394.000,109.536 393.721,109.877 393.380 C 110.218 393.040,111.029 392.654,111.680 392.524 C 112.523 392.355,112.711 392.190,112.332 391.950 C 111.939 391.700,112.009 391.607,112.600 391.593 C 113.040 391.583,113.749 391.310,114.176 390.987 C 114.604 390.664,115.268 390.400,115.653 390.400 C 116.038 390.400,116.481 390.192,116.638 389.938 C 116.802 389.673,116.749 389.584,116.513 389.730 C 115.692 390.238,115.608 386.350,115.568 345.800 C 115.525 302.290,115.583 303.560,113.989 311.000 C 113.416 313.674,112.950 315.788,112.400 318.200 C 112.149 319.300,111.789 320.920,111.600 321.800 C 110.074 328.897,109.628 330.332,108.366 332.200 C 103.979 338.693,95.492 339.579,89.876 334.128 C 86.420 330.775,85.787 326.600,87.549 318.800 C 88.616 314.075,88.913 312.746,89.600 309.600 C 89.864 308.390,90.252 306.680,90.462 305.800 C 90.672 304.920,91.014 303.435,91.222 302.500 C 91.430 301.565,91.780 299.990,92.000 299.000 C 92.220 298.010,92.580 296.390,92.800 295.400 C 93.020 294.410,93.380 292.790,93.600 291.800 C 94.559 287.486,94.860 286.082,95.231 284.200 C 95.448 283.100,95.794 281.390,96.000 280.400 C 97.496 273.209,99.250 261.946,99.988 254.800 C 101.072 244.297,101.540 245.633,96.200 243.968 C 94.660 243.488,93.040 242.951,92.600 242.774 C 92.160 242.597,91.080 242.239,90.200 241.977 C 89.320 241.716,88.287 241.344,87.905 241.151 C 87.523 240.958,86.936 240.800,86.600 240.800 C 86.264 240.800,85.677 240.623,85.295 240.406 C 84.913 240.189,77.130 237.569,68.000 234.584 C 58.870 231.599,51.087 228.986,50.705 228.778 C 50.323 228.570,49.659 228.400,49.229 228.400 C 48.799 228.400,48.336 228.220,48.200 228.000 C 47.476 226.829,46.400 227.618,46.400 229.320 M189.067 245.867 C 188.704 246.230,188.728 247.908,189.100 248.138 C 189.265 248.240,189.400 247.711,189.400 246.962 C 189.400 246.213,189.385 245.600,189.367 245.600 C 189.348 245.600,189.213 245.720,189.067 245.867 M193.200 264.400 C 193.200 265.147,193.307 265.253,193.680 264.880 C 194.053 264.507,194.053 264.293,193.680 263.920 C 193.307 263.547,193.200 263.653,193.200 264.400 M200.413 278.700 C 200.420 278.865,200.690 279.349,201.013 279.776 C 201.612 280.568,201.795 280.173,201.357 279.033 C 201.113 278.396,200.389 278.141,200.413 278.700 M202.000 281.104 C 202.000 281.271,202.364 281.635,202.809 281.913 C 203.559 282.381,203.581 282.359,203.113 281.609 C 202.609 280.803,202.000 280.526,202.000 281.104 M204.013 283.913 C 204.030 284.266,205.453 286.000,205.726 286.000 C 206.112 286.000,204.993 284.012,204.500 283.820 C 204.225 283.713,204.006 283.754,204.013 283.913 M252.263 318.697 C 252.121 318.928,252.319 319.257,252.702 319.430 C 253.727 319.890,254.814 319.946,254.553 319.524 C 254.428 319.322,254.118 319.228,253.863 319.314 C 253.609 319.400,253.202 319.202,252.961 318.875 C 252.679 318.491,252.430 318.428,252.263 318.697 M307.237 345.730 C 307.766 346.241,308.515 346.612,308.900 346.553 C 309.285 346.494,309.600 346.616,309.600 346.823 C 309.600 347.030,309.802 347.200,310.049 347.200 C 310.359 347.200,310.344 347.015,310.000 346.600 C 309.726 346.270,309.186 346.000,308.800 346.000 C 308.414 346.000,307.874 345.730,307.600 345.400 C 307.326 345.070,306.916 344.800,306.688 344.800 C 306.460 344.800,306.707 345.218,307.237 345.730 M353.748 345.881 C 354.063 346.196,355.986 346.302,355.796 345.994 C 355.696 345.832,355.154 345.700,354.591 345.700 C 354.027 345.700,353.648 345.782,353.748 345.881 M315.200 348.400 C 315.983 348.906,316.800 348.906,316.800 348.400 C 316.800 348.180,316.305 348.003,315.700 348.006 C 314.843 348.011,314.732 348.098,315.200 348.400 M361.746 348.533 C 361.886 348.936,362.000 349.341,362.000 349.433 C 362.000 349.525,362.405 349.586,362.900 349.568 C 363.482 349.548,363.588 349.461,363.200 349.322 C 362.870 349.204,362.351 348.814,362.046 348.454 C 361.541 347.857,361.515 347.864,361.746 348.533 M324.600 349.228 C 323.735 349.428,324.173 349.519,326.167 349.553 C 327.688 349.579,328.798 349.465,328.634 349.300 C 328.246 348.912,326.133 348.875,324.600 349.228 M367.600 353.029 C 367.600 353.451,368.702 354.364,368.933 354.133 C 369.059 354.008,368.913 353.656,368.610 353.352 C 368.033 352.776,367.600 352.637,367.600 353.029 M372.276 358.676 C 372.153 358.875,372.198 359.274,372.376 359.562 C 372.554 359.850,372.801 359.923,372.924 359.724 C 373.047 359.525,373.002 359.126,372.824 358.838 C 372.646 358.550,372.399 358.477,372.276 358.676 M138.948 381.882 C 139.322 382.256,142.038 382.384,141.811 382.017 C 141.726 381.880,140.975 381.721,140.143 381.665 C 139.311 381.609,138.773 381.707,138.948 381.882 M129.400 382.800 C 129.264 383.020,129.423 383.200,129.753 383.200 C 130.083 383.200,130.464 383.020,130.600 382.800 C 130.736 382.580,130.577 382.400,130.247 382.400 C 129.917 382.400,129.536 382.580,129.400 382.800 M124.196 384.807 C 124.058 385.030,123.777 385.109,123.572 384.983 C 123.368 384.856,123.200 384.943,123.200 385.176 C 123.200 385.751,123.648 385.690,124.576 384.987 C 125.004 384.664,125.149 384.400,124.900 384.400 C 124.651 384.400,124.334 384.583,124.196 384.807 M151.345 385.878 C 151.777 386.311,152.800 386.371,152.800 385.965 C 152.800 385.764,152.410 385.600,151.933 385.600 C 151.457 385.600,151.192 385.725,151.345 385.878 M159.200 390.600 C 159.200 390.930,159.380 391.200,159.600 391.200 C 159.820 391.200,160.000 390.930,160.000 390.600 C 160.000 390.270,159.820 390.000,159.600 390.000 C 159.380 390.000,159.200 390.270,159.200 390.600 M176.400 397.600 C 177.176 398.101,177.600 398.101,177.600 397.600 C 177.600 397.380,177.195 397.203,176.700 397.206 C 175.972 397.211,175.915 397.286,176.400 397.600 M179.348 398.485 C 179.242 398.655,179.616 398.757,180.178 398.710 C 180.740 398.664,181.200 398.496,181.200 398.338 C 181.200 397.958,179.594 398.086,179.348 398.485 M352.100 399.876 C 352.485 399.976,353.115 399.976,353.500 399.876 C 353.885 399.775,353.570 399.693,352.800 399.693 C 352.030 399.693,351.715 399.775,352.100 399.876 " stroke="none" fill="#fcece4" fill-rule="evenodd"></path><path id="path4" d="M68.868 0.600 C 68.874 1.040,69.024 1.850,69.200 2.400 L 69.520 3.400 69.532 2.400 C 69.538 1.850,69.389 1.040,69.200 0.600 L 68.856 -0.200 68.868 0.600 M92.806 3.033 C 92.809 3.895,92.988 4.870,93.203 5.200 C 93.470 5.610,93.514 5.165,93.341 3.800 C 93.025 1.305,92.798 0.981,92.806 3.033 M69.668 5.200 C 69.687 6.850,70.317 8.556,70.332 7.000 C 70.338 6.340,70.189 5.440,70.000 5.000 C 69.687 4.273,69.657 4.291,69.668 5.200 M93.653 8.000 C 93.631 8.770,93.787 9.670,94.000 10.000 C 94.477 10.739,94.477 9.676,94.000 7.800 L 93.695 6.600 93.653 8.000 M70.475 9.800 C 70.486 10.240,70.632 11.140,70.800 11.800 L 71.105 13.000 71.125 11.800 C 71.135 11.140,70.989 10.240,70.800 9.800 L 70.456 9.000 70.475 9.800 M94.406 12.433 C 94.409 13.185,94.592 14.070,94.812 14.400 C 95.091 14.819,95.133 14.458,94.950 13.200 C 94.625 10.959,94.398 10.640,94.406 12.433 M71.246 14.600 C 71.315 16.231,71.915 17.587,71.954 16.200 C 71.973 15.540,71.813 14.730,71.600 14.400 C 71.281 13.906,71.218 13.941,71.246 14.600 M95.275 17.000 C 95.265 17.660,95.411 18.560,95.600 19.000 L 95.944 19.800 95.925 19.000 C 95.914 18.560,95.768 17.660,95.600 17.000 L 95.295 15.800 95.275 17.000 M72.075 19.000 C 72.086 19.440,72.232 20.340,72.400 21.000 L 72.705 22.200 72.725 21.000 C 72.735 20.340,72.589 19.440,72.400 19.000 L 72.056 18.200 72.075 19.000 M96.075 21.800 C 96.065 22.460,96.211 23.360,96.400 23.800 L 96.744 24.600 96.725 23.800 C 96.714 23.360,96.568 22.460,96.400 21.800 L 96.095 20.600 96.075 21.800 M72.875 23.800 C 72.886 24.240,73.032 25.140,73.200 25.800 L 73.505 27.000 73.525 25.800 C 73.535 25.140,73.389 24.240,73.200 23.800 L 72.856 23.000 72.875 23.800 M96.868 26.400 C 96.862 26.950,97.011 27.760,97.200 28.200 L 97.544 29.000 97.532 28.200 C 97.526 27.760,97.376 26.950,97.200 26.400 L 96.880 25.400 96.868 26.400 M73.675 28.200 C 73.686 28.640,73.832 29.540,74.000 30.200 L 74.305 31.400 74.325 30.200 C 74.335 29.540,74.189 28.640,74.000 28.200 L 73.656 27.400 73.675 28.200 M97.675 31.000 C 97.665 31.660,97.811 32.560,98.000 33.000 L 98.344 33.800 98.325 33.000 C 98.314 32.560,98.168 31.660,98.000 31.000 L 97.695 29.800 97.675 31.000 M74.682 34.200 C 74.809 35.300,74.977 36.275,75.056 36.367 C 75.355 36.714,75.128 33.764,74.797 33.000 C 74.574 32.485,74.533 32.913,74.682 34.200 M98.468 35.800 C 98.462 36.460,98.611 37.360,98.800 37.800 C 99.270 38.894,99.270 37.067,98.800 35.600 C 98.488 34.625,98.479 34.630,98.468 35.800 M75.459 39.000 C 75.599 40.100,75.777 41.075,75.856 41.167 C 76.199 41.564,75.950 38.141,75.597 37.600 C 75.330 37.190,75.286 37.635,75.459 39.000 M99.268 40.400 C 99.262 40.950,99.411 41.760,99.600 42.200 L 99.944 43.000 99.932 42.200 C 99.926 41.760,99.776 40.950,99.600 40.400 L 99.280 39.400 99.268 40.400 M76.259 43.400 C 76.393 44.500,76.569 45.475,76.651 45.567 C 76.964 45.917,76.726 42.961,76.380 42.200 C 76.135 41.661,76.095 42.054,76.259 43.400 M100.087 45.000 C 100.091 45.440,100.232 46.340,100.400 47.000 C 100.674 48.078,100.706 48.098,100.713 47.200 C 100.717 46.650,100.576 45.750,100.400 45.200 C 100.149 44.416,100.081 44.373,100.087 45.000 M77.081 48.000 C 77.206 49.210,77.374 50.275,77.454 50.367 C 77.735 50.687,77.517 47.791,77.187 46.800 C 76.971 46.154,76.934 46.580,77.081 48.000 M145.400 48.368 C 147.233 48.501,149.183 48.900,149.965 49.302 C 150.716 49.688,151.416 49.917,151.522 49.812 C 152.135 49.198,147.721 48.005,145.067 48.068 L 142.200 48.135 145.400 48.368 M139.794 49.239 C 136.972 50.725,130.503 59.200,132.191 59.200 C 132.301 59.200,133.096 57.805,133.959 56.100 C 135.731 52.594,137.304 50.916,140.200 49.440 C 141.300 48.879,142.017 48.416,141.794 48.410 C 141.571 48.405,140.671 48.778,139.794 49.239 M100.880 49.600 C 100.880 50.150,101.024 51.050,101.200 51.600 L 101.520 52.600 101.520 51.600 C 101.520 51.050,101.376 50.150,101.200 49.600 L 100.880 48.600 100.880 49.600 M77.777 52.400 C 78.075 54.391,78.689 57.761,78.980 59.000 C 79.269 60.228,78.864 56.097,78.437 53.463 C 78.229 52.177,77.935 51.007,77.784 50.863 C 77.632 50.718,77.630 51.410,77.777 52.400 M155.047 53.600 C 155.630 54.480,156.184 55.200,156.279 55.200 C 156.374 55.200,156.047 54.480,155.552 53.600 C 155.057 52.720,154.503 52.000,154.321 52.000 C 154.138 52.000,154.465 52.720,155.047 53.600 M101.877 55.400 C 102.000 56.720,102.168 57.875,102.250 57.967 C 102.518 58.264,102.315 55.434,101.980 54.200 C 101.765 53.411,101.730 53.822,101.877 55.400 M102.659 60.200 C 102.793 61.300,102.969 62.275,103.051 62.367 C 103.364 62.717,103.126 59.761,102.780 59.000 C 102.535 58.461,102.495 58.854,102.659 60.200 M79.411 61.400 C 79.727 63.901,80.444 68.060,80.823 69.600 C 81.273 71.422,80.998 68.742,80.331 64.800 C 79.761 61.433,79.112 59.034,79.411 61.400 M103.472 64.600 C 103.599 65.700,103.769 66.675,103.851 66.767 C 104.132 67.082,103.920 64.599,103.580 63.600 C 103.351 62.926,103.316 63.251,103.472 64.600 M104.060 68.000 C 104.053 68.330,104.193 69.410,104.370 70.400 C 104.548 71.390,105.089 74.537,105.574 77.394 C 106.058 80.250,106.549 82.680,106.664 82.794 C 106.902 83.027,106.533 79.910,106.001 77.200 C 105.807 76.210,105.433 74.140,105.170 72.600 C 104.617 69.366,104.078 67.130,104.060 68.000 M81.242 72.200 C 81.221 72.860,81.368 74.030,81.567 74.800 C 81.766 75.570,82.065 77.100,82.232 78.200 C 82.398 79.300,82.595 79.930,82.671 79.600 C 82.747 79.270,82.464 77.200,82.044 75.000 C 81.623 72.800,81.262 71.540,81.242 72.200 M150.168 77.100 C 149.119 79.245,148.192 81.135,148.107 81.300 C 148.022 81.465,148.036 81.600,148.139 81.600 C 148.241 81.600,149.183 79.845,150.232 77.700 C 151.281 75.555,152.208 73.665,152.293 73.500 C 152.378 73.335,152.364 73.200,152.261 73.200 C 152.159 73.200,151.217 74.955,150.168 77.100 M82.893 81.400 C 82.894 82.060,83.032 83.140,83.200 83.800 C 83.623 85.463,83.642 83.826,83.223 81.800 C 82.945 80.455,82.892 80.391,82.893 81.400 M118.179 86.842 C 116.954 89.285,116.014 91.348,116.092 91.425 C 116.169 91.503,117.260 89.504,118.514 86.983 C 119.769 84.462,120.708 82.400,120.601 82.400 C 120.494 82.400,119.404 84.399,118.179 86.842 M106.828 84.433 C 106.844 85.185,107.020 86.160,107.220 86.600 C 107.465 87.139,107.505 86.746,107.341 85.400 C 107.051 83.019,106.789 82.524,106.828 84.433 M83.680 86.400 C 83.680 86.950,83.824 87.850,84.000 88.400 L 84.320 89.400 84.320 88.400 C 84.320 87.850,84.176 86.950,84.000 86.400 L 83.680 85.400 83.680 86.400 M107.778 89.376 C 107.934 91.572,108.694 92.439,110.376 92.340 L 111.400 92.280 110.329 92.116 C 108.934 91.903,108.314 91.110,107.941 89.065 C 107.641 87.420,107.639 87.424,107.778 89.376 M84.487 91.000 C 84.483 91.660,84.624 92.650,84.800 93.200 L 85.120 94.200 85.113 93.200 C 85.109 92.650,84.968 91.660,84.800 91.000 L 84.495 89.800 84.487 91.000 M112.000 92.782 C 112.330 93.005,112.945 93.191,113.367 93.194 C 114.390 93.202,114.071 92.973,112.600 92.644 C 111.724 92.448,111.562 92.485,112.000 92.782 M85.280 95.600 C 85.280 96.150,85.424 97.050,85.600 97.600 L 85.920 98.600 85.920 97.600 C 85.920 97.050,85.776 96.150,85.600 95.600 L 85.280 94.600 85.280 95.600 M139.467 98.267 C 139.320 98.413,139.200 98.644,139.200 98.779 C 139.200 99.165,142.706 100.102,143.283 99.871 C 143.567 99.757,143.416 99.649,142.946 99.632 C 141.759 99.588,139.528 98.606,139.860 98.273 C 140.010 98.123,140.043 98.000,139.933 98.000 C 139.823 98.000,139.613 98.120,139.467 98.267 M86.068 100.600 C 86.074 101.040,86.224 101.850,86.400 102.400 L 86.720 103.400 86.732 102.400 C 86.738 101.850,86.589 101.040,86.400 100.600 L 86.056 99.800 86.068 100.600 M144.085 100.218 C 144.241 100.374,145.095 100.659,145.984 100.851 C 146.873 101.043,148.365 101.364,149.300 101.565 C 150.235 101.766,151.066 101.865,151.147 101.785 C 151.228 101.705,150.778 101.531,150.147 101.400 C 149.516 101.268,148.370 100.998,147.600 100.800 C 145.012 100.134,143.800 99.933,144.085 100.218 M151.633 102.143 C 151.725 102.221,152.430 102.401,153.200 102.542 C 154.185 102.723,154.422 102.682,154.000 102.406 C 153.458 102.050,151.237 101.803,151.633 102.143 M155.200 103.064 C 155.530 103.174,156.475 103.519,157.300 103.829 C 158.125 104.140,158.800 104.318,158.800 104.226 C 158.800 103.867,156.232 102.802,155.439 102.832 C 154.883 102.853,154.802 102.931,155.200 103.064 M86.868 105.000 C 86.874 105.440,87.024 106.250,87.200 106.800 L 87.520 107.800 87.532 106.800 C 87.538 106.250,87.389 105.440,87.200 105.000 L 86.856 104.200 86.868 105.000 M159.420 104.701 C 159.629 104.867,160.520 105.631,161.400 106.401 L 163.000 107.799 161.419 106.099 C 160.549 105.165,159.658 104.400,159.439 104.400 C 159.190 104.400,159.183 104.514,159.420 104.701 M87.675 109.800 C 87.686 110.240,87.832 111.140,88.000 111.800 L 88.305 113.000 88.325 111.800 C 88.335 111.140,88.189 110.240,88.000 109.800 L 87.656 109.000 87.675 109.800 M164.600 115.000 C 164.600 117.048,164.732 118.516,164.894 118.262 C 165.281 117.653,165.287 111.701,164.900 111.462 C 164.735 111.360,164.600 112.952,164.600 115.000 M88.475 114.200 C 88.486 114.640,88.632 115.540,88.800 116.200 L 89.105 117.400 89.125 116.200 C 89.135 115.540,88.989 114.640,88.800 114.200 L 88.456 113.400 88.475 114.200 M112.573 117.326 C 112.462 117.615,112.561 118.290,112.794 118.826 C 113.211 119.787,113.215 119.784,113.058 118.669 C 112.936 117.803,113.099 117.457,113.750 117.194 C 114.592 116.854,114.591 116.850,113.687 116.825 C 113.186 116.811,112.684 117.037,112.573 117.326 M89.275 119.000 C 89.286 119.440,89.432 120.340,89.600 121.000 L 89.905 122.200 89.925 121.000 C 89.935 120.340,89.789 119.440,89.600 119.000 L 89.256 118.200 89.275 119.000 M118.833 118.943 C 118.925 119.021,119.630 119.201,120.400 119.342 C 121.385 119.523,121.622 119.482,121.200 119.206 C 120.658 118.850,118.437 118.603,118.833 118.943 M123.200 120.062 C 125.571 120.706,127.793 121.138,127.947 120.985 C 128.028 120.905,127.578 120.734,126.947 120.606 C 126.316 120.477,125.247 120.198,124.572 119.986 C 123.896 119.774,122.996 119.618,122.572 119.641 C 122.147 119.663,122.430 119.853,123.200 120.062 M113.268 121.800 C 113.262 122.460,113.411 123.360,113.600 123.800 C 114.070 124.894,114.070 123.067,113.600 121.600 C 113.288 120.625,113.279 120.630,113.268 121.800 M162.832 121.539 C 162.179 122.760,162.314 123.100,163.041 122.063 C 163.393 121.560,163.588 121.054,163.473 120.940 C 163.359 120.825,163.070 121.095,162.832 121.539 M129.600 121.600 C 129.930 121.813,130.470 121.988,130.800 121.988 C 131.333 121.988,131.333 121.945,130.800 121.600 C 130.470 121.387,129.930 121.212,129.600 121.212 C 129.067 121.212,129.067 121.255,129.600 121.600 M132.800 122.400 C 133.130 122.613,133.670 122.788,134.000 122.788 C 134.533 122.788,134.533 122.745,134.000 122.400 C 133.670 122.187,133.130 122.012,132.800 122.012 C 132.267 122.012,132.267 122.055,132.800 122.400 M90.053 123.800 C 90.076 124.240,90.232 125.140,90.400 125.800 L 90.705 127.000 90.747 125.600 C 90.769 124.830,90.613 123.930,90.400 123.600 C 90.081 123.106,90.020 123.142,90.053 123.800 M160.056 124.434 C 159.536 124.855,159.266 125.194,159.456 125.187 C 159.944 125.169,161.376 124.043,161.171 123.839 C 161.077 123.745,160.575 124.013,160.056 124.434 M114.087 126.200 C 114.083 126.860,114.224 127.850,114.400 128.400 L 114.720 129.400 114.713 128.400 C 114.709 127.850,114.568 126.860,114.400 126.200 L 114.095 125.000 114.087 126.200 M90.875 128.200 C 90.886 128.640,91.032 129.540,91.200 130.200 L 91.505 131.400 91.525 130.200 C 91.535 129.540,91.389 128.640,91.200 128.200 L 90.856 127.400 90.875 128.200 M114.825 131.050 C 114.811 131.517,115.094 132.687,115.454 133.650 C 115.813 134.612,116.241 136.120,116.404 137.000 L 116.700 138.600 116.731 137.200 C 116.748 136.430,116.332 134.540,115.807 133.000 C 115.281 131.460,114.839 130.582,114.825 131.050 M91.882 134.200 C 92.009 135.300,92.177 136.275,92.256 136.367 C 92.555 136.714,92.328 133.764,91.997 133.000 C 91.774 132.485,91.733 132.913,91.882 134.200 M92.659 138.600 C 92.793 139.700,92.969 140.675,93.051 140.767 C 93.364 141.117,93.126 138.161,92.780 137.400 C 92.535 136.861,92.495 137.254,92.659 138.600 M117.088 140.800 C 117.211 142.010,117.377 143.075,117.456 143.167 C 117.753 143.511,117.530 140.167,117.204 139.400 C 116.992 138.902,116.949 139.431,117.088 140.800 M93.477 143.400 C 93.588 144.500,93.840 146.030,94.037 146.800 C 94.234 147.570,94.411 148.740,94.429 149.400 C 94.448 150.060,94.563 150.348,94.685 150.041 C 94.906 149.482,94.239 144.861,93.610 142.600 C 93.360 141.700,93.327 141.901,93.477 143.400 M117.896 145.446 C 118.012 146.521,118.172 147.475,118.253 147.567 C 118.572 147.929,118.365 144.565,118.037 144.046 C 117.822 143.707,117.768 144.251,117.896 145.446 M118.828 150.833 C 118.844 151.585,119.012 152.560,119.203 153.000 C 119.426 153.515,119.467 153.087,119.318 151.800 C 119.044 149.422,118.789 148.919,118.828 150.833 M95.082 152.600 C 95.209 153.700,95.377 154.675,95.456 154.767 C 95.755 155.114,95.528 152.164,95.197 151.400 C 94.974 150.885,94.933 151.313,95.082 152.600 M95.785 157.000 C 95.929 158.100,96.202 159.810,96.393 160.800 C 96.583 161.790,96.930 163.680,97.162 165.000 C 97.784 168.530,97.991 169.229,97.814 167.200 C 97.599 164.725,95.992 155.458,95.735 155.205 C 95.619 155.092,95.642 155.900,95.785 157.000 M122.176 157.413 C 122.604 157.736,123.133 158.000,123.353 158.000 C 123.573 158.000,123.404 157.736,122.976 157.413 C 122.549 157.090,122.020 156.825,121.800 156.825 C 121.580 156.825,121.749 157.090,122.176 157.413 M135.800 165.407 C 136.240 165.766,136.960 166.235,137.400 166.451 L 138.200 166.844 137.400 166.193 C 136.960 165.834,136.240 165.365,135.800 165.149 L 135.000 164.756 135.800 165.407 M139.011 167.339 C 140.919 168.641,142.000 169.278,142.000 169.099 C 142.000 168.845,138.904 166.800,138.520 166.800 C 138.356 166.800,138.577 167.042,139.011 167.339 M144.000 170.420 C 145.387 171.361,146.178 171.635,145.200 170.836 C 144.650 170.386,144.020 170.017,143.800 170.015 C 143.580 170.013,143.670 170.196,144.000 170.420 M98.493 172.400 C 98.495 174.165,99.091 176.788,99.130 175.200 C 99.143 174.650,99.005 173.480,98.823 172.600 L 98.492 171.000 98.493 172.400 M148.000 172.820 C 149.387 173.761,150.178 174.035,149.200 173.236 C 148.650 172.786,148.020 172.417,147.800 172.415 C 147.580 172.413,147.670 172.596,148.000 172.820 M99.297 177.800 C 99.296 178.680,99.432 179.940,99.600 180.600 C 100.040 182.330,100.055 180.443,99.620 178.000 L 99.300 176.200 99.297 177.800 M100.069 184.400 C 100.056 185.170,100.195 186.520,100.377 187.400 L 100.708 189.000 100.731 187.600 C 100.744 186.830,100.605 185.480,100.423 184.600 L 100.092 183.000 100.069 184.400 M127.200 188.590 C 127.200 188.694,127.785 189.065,128.500 189.414 L 129.800 190.048 128.800 189.233 C 127.837 188.448,127.200 188.192,127.200 188.590 M124.668 192.000 C 124.800 193.210,124.974 194.275,125.054 194.367 C 125.364 194.721,125.125 191.357,124.786 190.600 C 124.552 190.078,124.512 190.563,124.668 192.000 M100.890 191.800 C 100.884 192.680,101.016 194.390,101.183 195.600 L 101.487 197.800 101.514 195.800 C 101.529 194.700,101.397 192.990,101.220 192.000 L 100.900 190.200 100.890 191.800 M147.800 196.800 L 146.600 197.105 147.676 197.153 C 148.268 197.179,148.864 197.020,149.000 196.800 C 149.136 196.580,149.192 196.421,149.124 196.447 C 149.056 196.473,148.460 196.632,147.800 196.800 M101.909 207.600 C 102.019 212.110,102.175 215.875,102.255 215.967 C 102.512 216.262,102.330 206.308,102.014 202.800 C 101.825 200.697,101.784 202.529,101.909 207.600 M125.490 204.200 C 125.611 206.180,125.776 207.875,125.855 207.967 C 126.160 208.318,125.927 202.159,125.607 201.400 C 125.410 200.933,125.361 202.099,125.490 204.200 M51.600 204.400 C 51.930 204.613,52.470 204.788,52.800 204.788 C 53.333 204.788,53.333 204.745,52.800 204.400 C 52.470 204.187,51.930 204.012,51.600 204.012 C 51.067 204.012,51.067 204.055,51.600 204.400 M70.400 210.546 C 70.400 210.733,74.189 212.008,74.675 211.984 C 75.146 211.962,72.792 210.978,71.500 210.657 C 70.895 210.507,70.400 210.457,70.400 210.546 M75.200 212.102 C 75.532 212.485,89.736 217.221,90.143 217.086 C 90.443 216.986,85.194 215.174,75.600 212.067 C 75.270 211.960,75.090 211.976,75.200 212.102 M91.200 217.600 C 91.530 217.813,92.070 217.988,92.400 217.988 C 92.933 217.988,92.933 217.945,92.400 217.600 C 92.070 217.387,91.530 217.212,91.200 217.212 C 90.667 217.212,90.667 217.255,91.200 217.600 M96.000 219.200 C 96.330 219.413,96.870 219.588,97.200 219.588 C 97.733 219.588,97.733 219.545,97.200 219.200 C 96.870 218.987,96.330 218.812,96.000 218.812 C 95.467 218.812,95.467 218.855,96.000 219.200 M98.400 220.000 C 98.730 220.213,99.270 220.388,99.600 220.388 C 100.133 220.388,100.133 220.345,99.600 220.000 C 99.270 219.787,98.730 219.612,98.400 219.612 C 97.867 219.612,97.867 219.655,98.400 220.000 M102.032 220.327 C 102.011 220.671,101.687 220.774,101.100 220.625 L 100.200 220.396 101.104 220.861 C 102.097 221.371,102.600 221.141,102.273 220.325 C 102.100 219.893,102.058 219.893,102.032 220.327 M47.800 227.600 C 48.901 228.073,49.292 228.073,49.000 227.600 C 48.864 227.380,48.358 227.213,47.876 227.228 C 47.031 227.255,47.029 227.269,47.800 227.600 M50.200 228.400 C 51.301 228.873,51.692 228.873,51.400 228.400 C 51.264 228.180,50.758 228.013,50.276 228.028 C 49.431 228.055,49.429 228.069,50.200 228.400 M52.600 229.200 C 53.701 229.673,54.092 229.673,53.800 229.200 C 53.664 228.980,53.158 228.813,52.676 228.828 C 51.831 228.855,51.829 228.869,52.600 229.200 M57.400 230.800 C 58.501 231.273,58.892 231.273,58.600 230.800 C 58.464 230.580,57.958 230.413,57.476 230.428 C 56.631 230.455,56.629 230.469,57.400 230.800 M67.000 234.000 C 67.136 234.220,67.642 234.387,68.124 234.372 C 68.969 234.345,68.971 234.331,68.200 234.000 C 67.099 233.527,66.708 233.527,67.000 234.000 M125.675 235.400 C 125.629 236.500,125.491 238.120,125.369 239.000 C 125.194 240.269,125.240 240.456,125.591 239.904 C 125.849 239.500,125.977 237.992,125.897 236.304 C 125.793 234.109,125.738 233.889,125.675 235.400 M71.800 235.600 C 72.240 235.789,72.870 235.944,73.200 235.944 C 73.578 235.944,73.504 235.817,73.000 235.600 C 72.560 235.411,71.930 235.256,71.600 235.256 C 71.222 235.256,71.296 235.383,71.800 235.600 M78.850 237.783 C 79.000 237.933,86.134 240.396,88.381 241.074 C 88.922 241.237,88.925 241.212,88.400 240.874 C 87.346 240.195,78.350 237.283,78.850 237.783 M92.200 242.400 C 93.301 242.873,93.692 242.873,93.400 242.400 C 93.264 242.180,92.758 242.013,92.276 242.028 C 91.431 242.055,91.429 242.069,92.200 242.400 M94.600 243.200 C 95.701 243.673,96.092 243.673,95.800 243.200 C 95.664 242.980,95.158 242.813,94.676 242.828 C 93.831 242.855,93.829 242.869,94.600 243.200 M97.000 244.000 C 98.101 244.473,98.492 244.473,98.200 244.000 C 98.064 243.780,97.558 243.613,97.076 243.628 C 96.231 243.655,96.229 243.669,97.000 244.000 M99.865 244.982 C 101.121 245.528,101.129 245.551,100.981 248.066 L 100.832 250.600 101.241 248.259 C 101.696 245.649,101.103 244.385,99.438 244.416 C 98.782 244.428,98.875 244.551,99.865 244.982 M124.867 247.650 C 124.830 248.228,124.705 249.308,124.589 250.050 C 124.396 251.286,124.415 251.317,124.808 250.414 C 125.045 249.871,125.170 248.791,125.086 248.014 C 124.977 246.992,124.916 246.891,124.867 247.650 M100.213 254.613 C 100.057 256.071,100.020 257.353,100.130 257.463 C 100.240 257.573,100.457 256.471,100.613 255.013 C 100.769 253.556,100.807 252.274,100.697 252.164 C 100.587 252.054,100.369 253.156,100.213 254.613 M124.049 256.000 C 124.016 256.330,123.889 257.050,123.767 257.600 C 123.575 258.464,123.607 258.503,123.999 257.888 C 124.248 257.497,124.375 256.777,124.281 256.288 C 124.186 255.800,124.082 255.670,124.049 256.000 M99.486 260.600 C 99.333 261.480,99.229 262.830,99.253 263.600 C 99.285 264.601,99.399 264.317,99.653 262.600 C 100.056 259.879,99.911 258.146,99.486 260.600 M123.029 263.429 C 122.881 264.015,122.851 264.584,122.961 264.694 C 123.071 264.804,123.281 264.415,123.429 263.829 C 123.576 263.242,123.606 262.673,123.496 262.563 C 123.386 262.453,123.176 262.842,123.029 263.429 M98.682 266.350 C 98.527 267.093,98.420 268.173,98.444 268.750 C 98.473 269.442,98.610 269.187,98.847 268.000 C 99.045 267.010,99.152 265.930,99.085 265.600 C 99.019 265.270,98.838 265.608,98.682 266.350 M122.200 269.600 C 122.048 270.291,122.007 270.941,122.109 271.042 C 122.211 271.144,122.409 270.653,122.550 269.950 C 122.883 268.283,122.560 267.960,122.200 269.600 M97.805 271.900 C 97.670 272.945,97.389 274.555,97.180 275.477 C 96.971 276.400,96.814 277.570,96.832 278.077 C 96.870 279.172,97.775 275.093,98.159 272.100 C 98.306 270.945,98.342 270.000,98.238 270.000 C 98.134 270.000,97.939 270.855,97.805 271.900 M121.654 273.851 C 121.625 274.319,121.870 274.926,122.200 275.200 C 122.615 275.544,122.800 275.559,122.800 275.249 C 122.800 275.002,122.633 274.800,122.428 274.800 C 122.223 274.800,121.978 274.395,121.882 273.900 C 121.716 273.038,121.707 273.036,121.654 273.851 M96.400 279.304 C 96.400 279.434,96.037 281.382,95.594 283.631 C 95.150 285.881,94.880 287.814,94.994 287.927 C 95.107 288.041,95.200 288.027,95.200 287.896 C 95.200 287.766,95.563 285.818,96.006 283.569 C 96.450 281.319,96.720 279.386,96.606 279.273 C 96.493 279.159,96.400 279.173,96.400 279.304 M131.800 281.473 C 132.404 282.107,139.523 286.800,139.881 286.800 C 140.053 286.800,138.754 285.840,136.996 284.667 C 132.867 281.913,131.302 280.950,131.800 281.473 M94.035 290.913 C 93.746 292.281,93.439 293.850,93.353 294.400 L 93.195 295.400 93.553 294.400 C 94.126 292.795,94.946 288.812,94.744 288.611 C 94.642 288.509,94.323 289.545,94.035 290.913 M151.600 294.695 C 151.600 295.084,153.214 296.119,153.451 295.882 C 153.547 295.786,153.169 295.410,152.612 295.045 C 152.056 294.680,151.600 294.522,151.600 294.695 M92.849 296.200 C 92.816 296.640,92.696 297.450,92.583 298.000 L 92.377 299.000 92.806 298.019 C 93.042 297.479,93.161 296.669,93.072 296.219 C 92.913 295.421,92.907 295.421,92.849 296.200 M154.000 296.327 C 154.000 296.516,154.450 296.877,155.000 297.127 C 155.550 297.378,156.000 297.517,156.000 297.437 C 156.000 297.357,155.550 296.997,155.000 296.637 C 154.450 296.276,154.000 296.137,154.000 296.327 M158.697 299.596 C 161.140 301.183,162.579 302.717,163.771 305.003 C 164.114 305.661,164.395 305.930,164.396 305.600 C 164.397 304.014,158.248 298.003,156.620 298.001 C 156.412 298.000,157.346 298.718,158.697 299.596 M92.054 299.867 C 92.025 300.344,91.896 301.064,91.770 301.467 C 91.552 302.161,91.564 302.162,91.996 301.488 C 92.247 301.097,92.375 300.377,92.281 299.888 C 92.109 299.001,92.109 299.001,92.054 299.867 M116.231 300.700 C 115.742 301.186,114.798 303.643,114.828 304.349 C 114.844 304.707,115.113 304.299,115.427 303.442 C 116.439 300.681,116.605 300.638,119.270 302.448 C 120.585 303.341,121.730 304.003,121.814 303.919 C 121.951 303.782,117.009 300.400,116.672 300.400 C 116.596 300.400,116.397 300.535,116.231 300.700 M91.050 304.450 C 90.717 306.117,91.040 306.440,91.400 304.800 C 91.552 304.109,91.593 303.459,91.491 303.358 C 91.389 303.256,91.191 303.747,91.050 304.450 M122.405 304.273 C 122.408 304.453,123.057 305.019,123.848 305.532 C 124.640 306.045,125.172 306.278,125.031 306.051 C 124.641 305.418,122.399 303.901,122.405 304.273 M114.178 306.978 C 114.027 307.781,113.994 308.527,114.104 308.637 C 114.214 308.747,114.427 308.181,114.578 307.378 C 114.728 306.575,114.762 305.828,114.652 305.718 C 114.542 305.608,114.328 306.175,114.178 306.978 M90.449 306.800 C 90.416 307.130,90.289 307.850,90.167 308.400 C 89.975 309.264,90.007 309.303,90.399 308.688 C 90.648 308.297,90.775 307.577,90.681 307.088 C 90.586 306.600,90.482 306.470,90.449 306.800 M164.600 310.200 C 164.600 312.248,164.732 313.716,164.894 313.462 C 165.056 313.208,165.188 311.740,165.188 310.200 C 165.188 308.660,165.056 307.192,164.894 306.938 C 164.732 306.684,164.600 308.152,164.600 310.200 M127.824 308.187 C 128.251 308.510,128.780 308.775,129.000 308.775 C 129.220 308.775,129.051 308.510,128.624 308.187 C 128.196 307.864,127.667 307.600,127.447 307.600 C 127.227 307.600,127.396 307.864,127.824 308.187 M129.600 309.100 C 129.600 309.269,129.960 309.632,130.400 309.907 C 130.840 310.182,131.200 310.269,131.200 310.100 C 131.200 309.931,130.840 309.568,130.400 309.293 C 129.960 309.018,129.600 308.931,129.600 309.100 M113.449 310.215 C 113.312 310.573,113.216 311.256,113.236 311.733 C 113.262 312.347,113.385 312.208,113.659 311.256 C 114.057 309.872,113.894 309.058,113.449 310.215 M89.649 310.600 C 89.616 311.040,89.496 311.850,89.383 312.400 L 89.177 313.400 89.606 312.419 C 89.842 311.879,89.961 311.069,89.872 310.619 C 89.713 309.821,89.707 309.821,89.649 310.600 M139.600 316.000 C 143.890 318.860,147.545 321.199,147.722 321.200 C 147.898 321.200,144.521 318.860,140.215 316.000 C 135.910 313.140,132.255 310.800,132.094 310.800 C 131.932 310.801,135.310 313.140,139.600 316.000 M112.673 313.753 C 112.523 314.145,112.411 314.766,112.425 315.133 C 112.442 315.575,112.581 315.474,112.837 314.834 C 113.049 314.303,113.161 313.682,113.085 313.454 C 113.009 313.227,112.824 313.361,112.673 313.753 M88.600 315.200 C 88.448 315.891,88.414 316.547,88.524 316.657 C 88.634 316.767,88.848 316.291,89.000 315.600 C 89.152 314.909,89.186 314.253,89.076 314.143 C 88.966 314.033,88.752 314.509,88.600 315.200 M164.030 314.800 C 164.012 315.130,163.247 316.390,162.332 317.600 C 161.416 318.810,160.982 319.540,161.367 319.223 C 162.517 318.276,164.472 315.209,164.260 314.686 C 164.132 314.370,164.052 314.410,164.030 314.800 M111.849 317.415 C 111.712 317.773,111.616 318.456,111.636 318.933 C 111.662 319.547,111.785 319.408,112.059 318.456 C 112.457 317.072,112.294 316.258,111.849 317.415 M87.829 318.629 C 87.681 319.215,87.651 319.784,87.761 319.894 C 87.871 320.004,88.081 319.615,88.229 319.029 C 88.376 318.442,88.406 317.873,88.296 317.763 C 88.186 317.653,87.976 318.042,87.829 318.629 M159.000 320.427 C 157.655 321.289,157.839 321.438,159.381 320.736 C 159.942 320.480,160.400 320.120,160.400 319.936 C 160.400 319.518,160.443 319.503,159.000 320.427 M111.049 321.015 C 110.912 321.373,110.816 322.056,110.836 322.533 C 110.862 323.147,110.985 323.008,111.259 322.056 C 111.657 320.672,111.494 319.858,111.049 321.015 M87.000 322.400 C 86.848 323.091,86.814 323.747,86.924 323.857 C 87.034 323.967,87.248 323.491,87.400 322.800 C 87.552 322.109,87.586 321.453,87.476 321.343 C 87.366 321.233,87.152 321.709,87.000 322.400 M152.305 322.283 C 152.802 322.379,153.522 322.375,153.905 322.275 C 154.287 322.175,153.880 322.096,153.000 322.101 C 152.120 322.105,151.807 322.187,152.305 322.283 M110.256 324.484 C 110.121 324.988,110.027 325.760,110.046 326.200 C 110.065 326.640,110.245 326.298,110.446 325.440 C 110.836 323.778,110.670 322.940,110.256 324.484 M86.834 327.800 C 86.822 328.240,86.987 328.870,87.200 329.200 C 87.714 329.995,87.714 328.996,87.200 327.800 L 86.856 327.000 86.834 327.800 M109.401 328.500 C 108.500 331.703,106.309 334.430,103.406 335.960 C 102.529 336.422,102.038 336.800,102.314 336.800 C 104.526 336.800,108.970 331.960,109.751 328.700 C 110.067 327.385,109.763 327.212,109.401 328.500 M89.106 332.971 C 91.808 336.407,98.377 338.772,101.056 337.273 C 101.603 336.967,101.159 336.916,99.357 337.079 C 95.721 337.409,90.855 335.345,89.559 332.924 C 89.287 332.416,88.902 332.000,88.703 332.000 C 88.505 332.000,88.686 332.437,89.106 332.971 " stroke="none" fill="#fcc4c4" fill-rule="evenodd"></path></g></svg>